<svg viewBox="0 0 1000 1000" xmlns="http://www.w3.org/2000/svg"><path d="M569.3595626122121,530.4580260398511 L330.1297158157241,550.6447180686341 M330.1297158157241,550.6447180686341 L329.6586014235074,481.5298188458215 M329.6586014235074,481.5298188458215 L334.56674182351117,485.8885215690669 M334.56674182351117,485.8885215690669 L339.7649499450797,489.57377142363293 M339.7649499450797,489.57377142363293 L345.2016295220812,492.55497192297156 M345.2016295220812,492.55497192297156 L350.82356346513365,494.8088267757801 M350.82356346513365,494.8088267757801 L356.5765182119203,496.3193560537309 M356.5765182119203,496.3193560537309 L362.4057708756202,497.07788228824273 M362.4057708756202,497.07788228824273 L368.2567023826311,497.08288258815617 M537.227023996212,486.36944414821664 L368.2567023826311,497.08288258815617 M537.227023996212,486.36944414821664 L542.2581299447529,485.7025838147885 M542.2581299447529,485.7025838147885 L547.2214529182195,484.35055949632704 M547.2214529182195,484.35055949632704 L552.0723200342791,482.3301396204441 M552.0723200342791,482.3301396204441 L556.7676129034714,479.66379028220257 M556.7676129034714,479.66379028220257 L561.2661315542416,476.37935609424926 M561.2661315542416,476.37935609424926 L565.5288490903586,472.5096748280017 M565.5288490903586,472.5096748280017 L569.5191847981255,468.0922182933255 M569.3595626122121,530.4580260398511 L569.5191847981255,468.0922182933255 M330.1297158157241,550.6447180686341 L324.3356067680564,551.1733249171476 M324.3356067680564,551.1733249171476 L318.99865803328987,551.7428011954526 M318.99865803328987,551.7428011954526 L314.1792933043845,552.3471516308446 M314.1792933043845,552.3471516308446 L309.92287763493414,552.9808412706975 M309.92287763493414,552.9808412706975 L306.2707936991628,553.6376892412544 M306.2707936991628,553.6376892412544 L303.25671643786933,554.31129966098 M303.25671643786933,554.31129966098 L300.9063548111287,554.9951803901731 M300.9063548111287,554.9951803901731 L299.23741850561714,555.6828678586762 M299.23741850561714,555.6828678586762 L298.2598929111,556.368031706419 M298.2598929111,556.368031706419 L297.9765288106014,557.0445690821632 M297.9765288106014,557.0445690821632 L298.38357301603946,557.7066691028301 M298.38357301603946,557.7066691028301 L299.47155774600543,558.3488579172055 M299.47155774600543,558.3488579172055 L301.2261702450592,558.9660168729358 M301.2261702450592,558.9660168729358 L303.6290605720977,559.5533759080357 M303.6290605720977,559.5533759080357 L306.65852337209486,560.1064911077144 M306.65852337209486,560.1064911077144 L309.9600728654226,560.5792380288411 M309.9600728654226,560.5792380288411 L313.75175098840737,561.0174646647389 M313.75175098840737,561.0174646647389 L318.964626213208,561.4971162764987 M318.964626213208,561.4971162764987 L324.8076519514624,561.9155163028101 M324.8076519514624,561.9155163028101 L331.24072671132274,562.2686942599126 M331.24072671132274,562.2686942599126 L338.2048668611445,562.5519609291528 M338.2048668611445,562.5519609291528 L345.638496568594,562.7612937691705 M345.638496568594,562.7612937691705 L353.4722796218762,562.8931011676759 M353.4722796218762,562.8931011676759 L361.62840438142024,562.9443726469542 M361.62840438142024,562.9443726469542 L370.02029178344264,562.9128613206384 M370.02029178344264,562.9128613206384 L378.55298735492755,562.7972682960351 M378.55298735492755,562.7972682960351 L387.12417341168964,562.597429009489 M387.12417341168964,562.597429009489 L395.6258070925145,562.3144766057234 M395.6258070925145,562.3144766057234 L403.9464446068963,561.9509540342635 M403.9464446068963,561.9509540342635 L411.97415182852643,561.5108599419736 M411.97415182852643,561.5108599419736 L419.5995163160837,560.9996407388364 M419.5995163160837,560.9996407388364 L423.9884099995114,560.6574068072824 M423.9884099995114,560.6574068072824 L428.1653885108775,560.2935152931514 M428.1653885108775,560.2935152931514 L667.4433705961344,538.2702133574915 M667.4433705961344,538.2702133574915 L672.0514100904154,537.8056015777945 M672.0514100904154,537.8056015777945 L676.1228755216057,537.3101976491405 M676.1228755216057,537.3101976491405 L679.6155218204119,536.7901828354561 M679.6155218204119,536.7901828354561 L682.5030583125051,536.2511511086614 M682.5030583125051,536.2511511086614 L684.7661238920634,535.699032837419 M684.7661238920634,535.699032837419 L686.3945412738449,535.139690625485 M686.3945412738449,535.139690625485 L687.3867579913981,534.5788027164779 M687.3867579913981,534.5788027164779 L687.7490484430175,534.0217561713439 M687.7490484430175,534.0217561713439 L687.4944884450147,533.4735704656889 M687.4944884450147,533.4735704656889 L686.641808096291,532.9388410998624 M686.641808096291,532.9388410998624 L685.2141588296415,532.4217160267231 M685.2141588296415,532.4217160267231 L683.2379549164407,531.9258931961929 M683.2379549164407,531.9258931961929 L680.7417853412226,531.4546421032908 M680.7417853412226,531.4546421032908 L677.7555112539624,531.0108448400947 M677.7555112539624,531.0108448400947 L674.3095765895305,530.5970477232644 M674.3095765895305,530.5970477232644 L670.7782997117401,530.2465038997915 M670.7782997117401,530.2465038997915 L666.9044920764813,529.9240995685016 M666.9044920764813,529.9240995685016 L661.79166431614,529.5739894272273 M661.79166431614,529.5739894272273 L656.2649913234175,529.270926096312 M656.2649913234175,529.270926096312 L650.3591603469654,529.0167829892207 M650.3591603469654,529.0167829892207 L644.1231882925792,528.8140470843176 M644.1231882925792,528.8140470843176 L637.6048652181446,528.6648506727308 M637.6048652181446,528.6648506727308 L630.8557367518522,528.571179354404 M630.8557367518522,528.571179354404 L623.9318911472662,528.534798712074 M623.9318911472662,528.534798712074 L616.8944938830814,528.5571544321219 M616.8944938830814,528.5571544321219 L609.8098983484772,528.6392639955804 M609.8098983484772,528.6392639955804 L602.749382489601,528.7815959200168 M602.749382489601,528.7815959200168 L595.7885060790284,528.9839501480341 M595.7885060790284,528.9839501480341 L589.0060107596605,529.2453564401309 M589.0060107596605,529.2453564401309 L582.4822819835647,529.5639999039142 M582.4822819835647,529.5639999039142 L576.2976868387714,529.9371653136512 M576.2976868387714,529.9371653136512 L572.7417639405667,530.1888165476811 M572.7417639405667,530.1888165476811 L569.3595626122121,530.4580260398511 M313.75175098840737,561.0174646647389 L312.9489473542982,453.4239257810924 M312.5455835092036,449.1130355935696 L308.38283269728396,449.43494061884445 M308.38283269728396,449.43494061884445 L304.82160104480926,449.7691881321351 M304.82160104480926,449.7691881321351 L301.9210723567732,450.1100197895971 M301.9210723567732,450.1100197895971 L299.6909747154139,450.45539775433446 M299.6909747154139,450.45539775433446 L298.14758824805165,450.8020735251533 M298.14758824805165,450.8020735251533 L297.29953531259616,451.14687453093035 M297.29953531259616,451.14687453093035 L297.1482889400666,451.4867507765235 M297.1482889400666,451.4867507765235 L297.6889457705262,451.8188037419142 M297.6889457705262,451.8188037419142 L298.91103201890814,452.1403073848778 M298.91103201890814,452.1403073848778 L300.79936682997607,452.44871535375324 M300.79936682997607,452.44871535375324 L303.33483899329474,452.7416554860964 M303.33483899329474,452.7416554860964 L306.4950977891467,453.0169159476553 M306.4950977891467,453.0169159476553 L309.5265949262289,453.2274385563455 M309.5265949262289,453.2274385563455 L312.9489473542982,453.4239257810924 M312.5455835092036,449.1130355935696 L314.4694017296205,455.80093963600524 M314.4694017296205,455.80093963600524 L316.8961686104603,462.26360544404014 M316.8961686104603,462.26360544404014 L319.3698270932967,467.4762298440233 M319.3698270932967,467.4762298440233 L322.65115183313475,473.00479159397753 M322.65115183313475,473.00479159397753 L325.90388663502904,477.4054999100175 M325.90388663502904,477.4054999100175 L329.6586014235074,481.5298188458215 M336.94825339177834,485.318870459938 L342.2656952838585,489.2552598954148 M342.2656952838585,489.2552598954148 L347.8464035355268,492.4448632470549 M347.8464035355268,492.4448632470549 L353.6320612360497,494.8608376300791 M353.6320612360497,494.8608376300791 L359.56305142499014,496.4846883223938 M359.56305142499014,496.4846883223938 L365.57921560255676,497.30621061208075 M365.57921560255676,497.30621061208075 L371.62041250414603,497.32336351323283 M316.7216904723693,449.3229705309891 L318.5540480506168,456.00100304739783 M318.5540480506168,456.00100304739783 L320.8654572022117,462.44919264830105 M320.8654572022117,462.44919264830105 L323.5660721374704,468.32325746890876 M323.5660721374704,468.32325746890876 L326.77194783423175,473.81976935548727 M326.77194783423175,473.81976935548727 L330.4254949047461,478.77147565799663 M330.4254949047461,478.77147565799663 L333.50076981269126,482.16084406043717 M333.50076981269126,482.16084406043717 L336.94825339177834,485.318870459938 M312.5455835092036,449.1130355935696 L316.7216904723693,449.3229705309891 M371.62041250414603,497.32336351323283 L368.2567023826311,497.08288258815617 M371.62041250414603,497.32336351323283 L540.6017693520726,486.57723095233314 M540.6017693520726,486.57723095233314 L537.227023996212,486.36944414821664 M591.2822615894108,437.629716358446 L588.7642030113182,443.74778370380204 M588.7642030113182,443.74778370380204 L585.7979898856727,449.7259012523172 M585.7979898856727,449.7259012523172 L582.5901594719808,455.24757191916706 M582.5901594719808,455.24757191916706 L579.0896842750619,460.4978343170469 M579.0896842750619,460.4978343170469 L575.4462087260351,465.3177183972394 M575.4462087260351,465.3177183972394 L572.6260503974213,468.68131860986557 M572.6260503974213,468.68131860986557 L569.7004386687986,471.87765920885886 M540.6017693520726,486.57723095233314 L545.7945507554734,485.875772617894 M545.7945507554734,485.875772617894 L550.9136104405122,484.4435619126519 M550.9136104405122,484.4435619126519 L555.9098597010159,482.2993972059642 M555.9098597010159,482.2993972059642 L560.7360526014074,479.46853800611683 M560.7360526014074,479.46853800611683 L565.3470919247204,475.9823053120112 M565.3470919247204,475.9823053120112 L569.7004386687986,471.87765920885886 M587.0826817026839,437.46413599798024 L584.6432008888123,443.59179280278755 M584.6432008888123,443.59179280278755 L581.7707925820391,449.583747014396 M581.7707925820391,449.583747014396 L579.0511625949509,454.4796520457729 M579.0511625949509,454.4796520457729 L575.7257703095509,459.74974813325423 M575.7257703095509,459.74974813325423 L572.7061089856763,464.0170503676758 M572.7061089856763,464.0170503676758 L569.5191847981255,468.0922182933255 M587.0826817026839,437.46413599798024 L591.2822615894108,437.629716358446 M667.4925364079045,437.75528339333744 L662.360168998701,437.5789633102977 M662.360168998701,437.5789633102977 L656.8126784051854,437.42633856653663 M656.8126784051854,437.42633856653663 L650.8848739385303,437.2983517700511 M650.8848739385303,437.2983517700511 L644.6259438988022,437.1962546171014 M644.6259438988022,437.1962546171014 L638.0838403634598,437.1211202976292 M638.0838403634598,437.1211202976292 L631.3102805795663,437.0739482689699 M631.3102805795663,437.0739482689699 L624.3615371560409,437.05562735304585 M624.3615371560409,437.05562735304585 L617.2989750109703,437.06688545980535 M617.2989750109703,437.06688545980535 L610.1891630808789,437.1082350613274 M610.1891630808789,437.1082350613274 L603.1036108466114,437.17991238960246 M603.1036108466114,437.17991238960246 L596.1181243321196,437.2818172014777 M596.1181243321196,437.2818172014777 L591.5411177529647,437.3666161337974 M591.5411177529647,437.3666161337974 L587.0826817026839,437.46413599798024 M666.9044920764813,529.9240995685016 L667.4925364079045,437.75528339333744 M428.1653885108775,560.2935152931514 L427.8464195295427,453.05889517205884 M312.9489473542982,453.4239257810924 L318.1820774274142,453.6657819682268 M318.1820774274142,453.6657819682268 L324.0483419906859,453.87675678203294 M324.0483419906859,453.87675678203294 L330.5074772817201,454.05484658037216 M330.5074772817201,454.05484658037216 L337.50025184703526,454.19768542379296 M337.50025184703526,454.19768542379296 L344.9648206403655,454.3032437248811 M344.9648206403655,454.3032437248811 L352.83153639660634,454.36970944394676 M352.83153639660634,454.36970944394676 L361.02223199783845,454.3955638949008 M361.02223199783845,454.3955638949008 L369.4499280821587,454.37967380617033 M369.4499280821587,454.37967380617033 L378.0192280985051,454.32138434785793 M378.0192280985051,454.32138434785793 L386.62733668407355,454.22061311137867 M386.62733668407355,454.22061311137867 L395.1657070120446,454.0779324839062 M395.1657070120446,454.0779324839062 L403.5223776273995,453.894626128538 M403.5223776273995,453.894626128538 L411.5848982467047,453.67271204512065 M411.5848982467047,453.67271204512065 L419.2433572280839,453.41493845616714 M419.2433572280839,453.41493845616714 L423.65130493395884,453.24237569211283 M423.65130493395884,453.24237569211283 L427.8464195295427,453.05889517205884 M427.8464195295427,453.05889517205884 L668.0600768539603,441.9592097094483 M667.4433705961344,538.2702133574915 L668.0600768539603,441.9592097094483 M470.39026540182346,472.2243574579839 L470.28174292858694,473.4936044223041 M470.28174292858694,473.4936044223041 L469.959128988128,474.70152915265567 M469.959128988128,474.70152915265567 L469.4410277608164,475.7782369972323 M469.4410277608164,475.7782369972323 L468.7573165413514,476.66133883924385 M468.7573165413514,476.66133883924385 L467.9474733999355,477.29951760303464 M467.9474733999355,477.29951760303464 L467.0583329339638,477.6555480456654 M467.0583329339638,477.6555480456654 L466.1414198408451,477.7084392731961 M466.1414198408451,477.7084392731961 L465.2499894214255,477.45476193328534 M465.2499894214255,477.45476193328534 L464.43593829093464,476.9089290030996 M464.43593829093464,476.9089290030996 L463.74676851169073,476.10239482889943 M463.74676851169073,476.10239482889943 L463.2227857706492,475.0819403094446 M463.2227857706492,475.0819403094446 L462.8946900430591,473.90693752989904 M462.8946900430591,473.90693752989904 L462.7817454145761,472.645899776567 M462.7817454145761,472.645899776567 L462.8906167633564,471.3724470028618 M462.8906167633564,471.3724470028618 L463.21493979375595,470.16094992250527 M463.21493979375595,470.16094992250527 L463.7357187912043,469.0821215599558 M463.7357187912043,469.0821215599558 L464.4224630393403,468.19883681543746 M464.4224630393403,468.19883681543746 L465.2349996267019,467.56245468431507 M465.2349996267019,467.56245468431507 L466.1258769196154,467.2097887903443 M466.1258769196154,467.2097887903443 L467.0431723357032,467.1610592750995 M467.0431723357032,467.1610592750995 L467.9335429881078,467.41874208110374 M467.9335429881078,467.41874208110374 L468.74533504410545,467.9675066354429 M468.74533504410545,467.9675066354429 L469.4315639642742,468.77522698455516 M469.4315639642742,468.77522698455516 L469.9525977888819,469.79485049590033 M469.9525977888819,469.79485049590033 L470.2784120799463,470.9671954623737 M470.2784120799463,470.9671954623737 L470.39026540182346,472.2243574579839 M639.0341579631956,462.8808139561788 L638.9333797930217,464.05691752613706 M638.9333797930217,464.05691752613706 L638.6492261753988,465.1753525701837 M638.6492261753988,465.1753525701837 L638.198094127901,466.17138168581437 M638.198094127901,466.17138168581437 L637.6060152944428,466.98727779469635 M637.6060152944428,466.98727779469635 L636.9071950984976,467.5756271023242 M636.9071950984976,467.5756271023242 L636.1420638771988,467.9021197740196 M636.1420638771988,467.9021197740196 L635.3549715995528,467.9475224158371 M635.3549715995528,467.9475224158371 L634.5916375893678,467.70889097989516 M634.5916375893678,467.70889097989516 L633.8964974118471,467.19981187228814 M633.8964974118471,467.19981187228814 L633.3101045073824,466.449640902207 M633.3101045073824,466.449640902207 L632.8667401572491,465.50189801542945 M632.8667401572491,465.50189801542945 L632.5923675249828,464.4117207672484 M632.5923675249828,464.4117207672484 L632.5030869705965,463.24266130805086 M632.5030869705965,463.24266130805086 L632.6041659702698,462.0629474416912 M632.6041659702698,462.0629474416912 L632.8896982270469,460.94145082998745 M632.8896982270469,460.94145082998745 L633.3429708922288,459.9436102351536 M633.3429708922288,459.9436102351536 L633.9374619509026,459.12756772240243 M633.9374619509026,459.12756772240243 L634.6384133591005,458.54077064226686 M634.6384133591005,458.54077064226686 L635.4049065443905,458.21717320539017 M635.4049065443905,458.21717320539017 L636.1922795287221,458.1753455638579 M636.1922795287221,458.1753455638579 L636.9547486813892,458.4174127656297 M636.9547486813892,458.4174127656297 L637.6480765678534,458.9290013187977 M637.6480765678534,458.9290013187977 L638.23212491904,459.6801805239282 M638.23212491904,459.6801805239282 L638.6731495721367,460.62719946508184 M638.6731495721367,460.62719946508184 L638.945723340837,461.71508643805123 M638.945723340837,461.71508643805123 L639.0341579631956,462.8808139561788 M668.0600768539603,441.9592097094483 L672.6839757501386,441.7251493819639 M672.6839757501386,441.7251493819639 L676.7690978724852,441.47558138062374 M676.7690978724852,441.47558138062374 L680.2730694914189,441.2136204263907 M680.2730694914189,441.2136204263907 L683.1695339683274,440.94208518676277 M683.1695339683274,440.94208518676277 L685.4390950583768,440.663963571356 M685.4390950583768,440.663963571356 L687.0715771659472,440.38220911161056 M687.0715771659472,440.38220911161056 L688.0654626457297,440.0996822227776 M688.0654626457297,440.0996822227776 L688.427089316931,439.81909640286926 M688.427089316931,439.81909640286926 L688.1696198479167,439.5429797668106 M688.1696198479167,439.5429797668106 L687.311889232456,439.27364667042895 M687.311889232456,439.27364667042895 L685.8771664492563,439.01318587067755 M685.8771664492563,439.01318587067755 L683.8919911312719,438.76345932495127 M683.8919911312719,438.76345932495127 L681.3850811459381,438.5261130805406 M681.3850811459381,438.5261130805406 L678.3864266732471,438.30259798544853 M678.3864266732471,438.30259798544853 L674.9265984022841,438.094195722123 M674.9265984022841,438.094195722123 L671.3813818430938,437.91765259596855 M671.3813818430938,437.91765259596855 L667.4925364079045,437.75528339333744 M317.08578704123363,453.24110295289483 L312.88618184813,452.9904200159109 M312.88618184813,452.9904200159109 L309.42163471924306,452.715975874956 M309.42163471924306,452.715975874956 L306.6877783274516,452.4180254374242 M306.6877783274516,452.4180254374242 L304.7213514158062,452.10000293318893 M304.7213514158062,452.10000293318893 L303.54371544333804,451.76446040057635 M303.54371544333804,451.76446040057635 L303.17474122306163,451.4140439679736 M303.17474122306163,451.4140439679736 L303.44245719837204,451.1416582407038 M303.44245719837204,451.1416582407038 L304.53150210307246,450.77281884994073 M304.53150210307246,450.77281884994073 L306.4634195978401,450.39842393533195 M306.4634195978401,450.39842393533195 L308.69965683671353,450.08709353570583 M308.69965683671353,450.08709353570583 L312.15760862456625,449.71331751479045 M312.15760862456625,449.71331751479045 L314.34294250936625,449.51557709839335 M314.34294250936625,449.51557709839335 L316.7216904723693,449.3229705309891 M428.10180860831133,452.69631237934743 L421.5885705877158,452.97358499324764 M421.5885705877158,452.97358499324764 L414.60862225124913,453.22664358861346 M414.60862225124913,453.22664358861346 L407.27844638849757,453.45096420916536 M407.27844638849757,453.45096420916536 L399.6750572083213,453.6442875334519 M399.6750572083213,453.6442875334519 L391.8941267677592,453.80437697292626 M391.8941267677592,453.80437697292626 L384.03184269609034,453.92964527567375 M384.03184269609034,453.92964527567375 L376.1833506235891,454.019139346894 M376.1833506235891,454.019139346894 L368.44368865625285,454.0725202381463 M368.44368865625285,454.0725202381463 L360.89611730716155,454.09010761484643 M360.89611730716155,454.09010761484643 L353.78135052717454,454.0735068908728 M353.78135052717454,454.0735068908728 L346.8296650333392,454.0231519906485 M346.8296650333392,454.0231519906485 L341.1561900712583,453.9539347369877 M341.1561900712583,453.9539347369877 L334.97053177311153,453.84504127176535 M334.97053177311153,453.84504127176535 L329.25992945836305,453.70737292638205 M329.25992945836305,453.70737292638205 L324.05485115395214,453.5428177816418 M324.05485115395214,453.5428177816418 L320.41798461965175,453.39940619242896 M320.41798461965175,453.39940619242896 L317.08578704123363,453.24110295289483 M661.2249158297241,441.9592097094483 L428.10180860831133,452.69631237934743 M664.4546900374885,437.88953748754915 L668.7676336219417,438.0749988962363 M668.7676336219417,438.0749988962363 L672.5509311539247,438.27988516398005 M672.5509311539247,438.27988516398005 L675.8047274520688,438.50453553019446 M675.8047274520688,438.50453553019446 L678.4821076016237,438.74690435300226 M678.4821076016237,438.74690435300226 L680.5494881308293,439.0055670507231 M680.5494881308293,439.0055670507231 L681.9719708831033,439.2789773671147 M681.9719708831033,439.2789773671147 L682.5962295815848,439.4938602170304 M682.5962295815848,439.4938602170304 L682.8001164463528,439.78817688238667 M682.8001164463528,439.78817688238667 L682.2641417149027,440.0909310040075 M682.2641417149027,440.0909310040075 L681.2414962461062,440.34581905343254 M681.2414962461062,440.34581905343254 L679.2920224998038,440.6556599671781 M679.2920224998038,440.6556599671781 L676.5534311195477,440.9641332543343 M676.5534311195477,440.9641332543343 L673.0323517358918,441.2669459171717 M673.0323517358918,441.2669459171717 L668.7514002671298,441.55961787275606 M668.7514002671298,441.55961787275606 L665.1592579704914,441.7647462619897 M665.1592579704914,441.7647462619897 L661.2249158297241,441.9592097094483 M591.2822615894108,437.629716358446 L597.6178355811523,437.5069895878913 M597.6178355811523,437.5069895878913 L604.1982222206298,437.40806285432103 M604.1982222206298,437.40806285432103 L610.2479744119105,437.3413457473499 M610.2479744119105,437.3413457473499 L616.7189809309184,437.2949302535913 M616.7189809309184,437.2949302535913 L623.1076634062924,437.2743273197594 M623.1076634062924,437.2743273197594 L629.1576910454767,437.2784468675774 M629.1576910454767,437.2784468675774 L635.2243704926686,437.30680129895796 M635.2243704926686,437.30680129895796 L641.0581806737437,437.3587019925236 M641.0581806737437,437.3587019925236 L645.9512898473813,437.422745491497 M645.9512898473813,437.422745491497 L651.248799084475,437.51592498844235 M651.248799084475,437.51592498844235 L656.2173616364421,437.62949539423005 M656.2173616364421,437.62949539423005 L660.4789579083799,437.7511353387031 M660.4789579083799,437.7511353387031 L664.4546900374885,437.88953748754915 M569.5724074015932,521.7551984742711 L337.3083033378407,540.436618243896 M337.3083033378407,540.436618243896 L336.94825339177834,485.318870459938 M569.5724074015932,521.7551984742711 L569.7004386687986,471.87765920885886 M337.3083033378407,540.436618243896 L331.3041560283327,540.9573890468721 M331.3041560283327,540.9573890468721 L325.76285830002763,541.5166788707096 M325.76285830002763,541.5166788707096 L320.75696820060693,542.1074610212024 M320.75696820060693,542.1074610212024 L316.3364511763372,542.7236260229893 M316.3364511763372,542.7236260229893 L312.5465899578026,543.3582963506324 M312.5465899578026,543.3582963506324 L309.42243397499783,544.0044594731471 M309.42243397499783,544.0044594731471 L306.9883747779808,544.6551584053782 M306.9883747779808,544.6551584053782 L305.2584774560123,545.3036562231541 M305.2584774560123,545.3036562231541 L304.23718134009977,545.9435747642428 M304.23718134009977,545.9435747642428 L303.9203466271805,546.5690107789209 M303.9203466271805,546.5690107789209 L304.2967439818693,547.1745958804167 M304.2967439818693,547.1745958804167 L305.34961274516934,547.7555207801197 M305.34961274516934,547.7555207801197 L307.05819433443236,548.3075206649196 M307.05819433443236,548.3075206649196 L309.3992628414583,548.8268129630169 M309.3992628414583,548.8268129630169 L312.3482237722852,549.3100149163245 M312.3482237722852,549.3100149163245 L314.9121312941632,549.6431226507149 M314.9121312941632,549.6431226507149 L317.79177689733086,549.9540721909245 M317.79177689733086,549.9540721909245 L317.08578704123363,453.24110295289483 M663.9343490285203,520.9904995716618 L659.1654436951835,520.6819415185906 M659.1654436951835,520.6819415185906 L653.9751334819919,520.417830609322 M653.9751334819919,520.417830609322 L648.3842135962443,520.1994247337191 M648.3842135962443,520.1994247337191 L642.4345481889129,520.0291515466572 M642.4345481889129,520.0291515466572 L636.1650255918605,519.9091774886318 M636.1650255918605,519.9091774886318 L629.6197219639223,519.8417074115183 M629.6197219639223,519.8417074115183 L622.8494916980612,519.828859409886 M622.8494916980612,519.828859409886 L615.913095888641,519.8725063844047 M615.913095888641,519.8725063844047 L608.8776503559325,519.9740980465931 M608.8776503559325,519.9740980465931 L601.8184959194227,520.1344689937125 M601.8184959194227,520.1344689937125 L594.8183311313906,520.3536595268503 M594.8183311313906,520.3536595268503 L587.9656059036731,520.6307617858413 M587.9656059036731,520.6307617858413 L581.3523687464374,520.9638042809145 M581.3523687464374,520.9638042809145 L575.2566310887337,521.3372235042498 M575.2566310887337,521.3372235042498 L569.5724074015932,521.7551984742711 M663.9343490285203,520.9904995716618 L664.4546900374885,437.88953748754915 M470.39026540182346,472.2243574579839 L469.78303212294475,472.0512807576585 M469.78303212294475,472.0512807576585 L469.17744771251034,471.87867402615643 M469.17744771251034,471.87867402615643 L468.9988783010254,473.96724592918076 M468.9988783010254,473.96724592918076 L468.467782600903,475.955103245944 M468.467782600903,475.955103245944 L467.6146247154149,477.7275480448904 M467.6146247154149,477.7275480448904 L466.4883677658974,479.1820652850443 M466.4883677658974,479.1820652850443 L465.15377564886586,480.23416287052663 M465.15377564886586,480.23416287052663 L463.6877754460326,480.82229763900693 M463.6877754460326,480.82229763900693 L462.17515585129127,480.9115025917766 M462.17515585129127,480.9115025917766 L460.7037438114131,480.4956288598596 M460.7037438114131,480.4956288598596 L459.3592910857718,479.5979253561267 M459.3592910857718,479.5979253561267 L458.22044649095653,478.26986699430256 M458.22044649095653,478.26986699430256 L457.35409197175994,476.58836073550395 M457.35409197175994,476.58836073550395 L456.81126444003115,474.6513185110644 M456.81126444003115,474.6513185110644 L456.6240377387113,472.57192846377524 M456.6240377387113,472.57192846377524 L456.8035537040656,470.47194392676613 M456.8035537040656,470.47194392676613 L457.3392931334555,468.47439325275826 M457.3392931334555,468.47439325275826 L458.1997281520437,466.69619501082866 M458.1997281520437,466.69619501082866 L459.3342285107473,465.24118229015136 M459.3342285107473,465.24118229015136 L460.676141769519,464.19396062565124 M460.676141769519,464.19396062565124 L462.1468637422143,463.61495615524166 M462.1468637422143,463.61495615524166 L463.6605240403912,463.5370443097983 M463.6605240403912,463.5370443097983 L465.1290573030185,463.96378677390766 M465.1290573030185,463.96378677390766 L466.46737127587295,464.8694448022295 M466.46737127587295,464.8694448022295 L467.5982233757116,466.2007212414178 M467.5982233757116,466.2007212414178 L468.45656269631854,467.8799718223054 M468.45656269631854,467.8799718223054 L468.99318852792317,469.80980135368907 M468.99318852792317,469.80980135368907 L469.17744771251034,471.87867402615643 M639.0341579631956,462.8808139561788 L638.2589652845127,462.73219585930406 M638.2589652845127,462.73219585930406 L637.485723445332,462.5839517727395 M637.485723445332,462.5839517727395 L637.3198643707412,464.51964011895524 M637.3198643707412,464.51964011895524 L636.8519349676203,466.36058337242764 M636.8519349676203,466.36058337242764 L636.1088052587218,468.00050382761145 M636.1088052587218,468.00050382761145 L635.1331676932834,469.3445166609713 M635.1331676932834,469.3445166609713 L633.9811743602638,470.31454331655505 M633.9811743602638,470.31454331655505 L632.7192718865258,470.8538649220359 M632.7192718865258,470.8538649220359 L631.4204757177179,470.9304598909882 M631.4204757177179,470.9304598909882 L630.1602090625481,470.53904788377315 M630.1602090625481,470.53904788377315 L629.0119088797508,469.70158774317844 M629.0119088797508,469.70158774317844 L628.0427224426069,468.4661528129924 M628.0427224426069,468.4661528129924 L627.3095314032253,466.9043090102199 M627.3095314032253,466.9043090102199 L626.8554916333505,465.1069897476771 M626.8554916333505,465.1069897476771 L626.7074050460876,463.17917785680265 M626.7074050460876,463.17917785680265 L626.8740805189668,461.2336904551046 M626.8740805189668,461.2336904551046 L627.3457569946411,459.3844377683507 M627.3457569946411,459.3844377683507 L628.0947060834978,457.73960109697714 M628.0947060834978,457.73960109697714 L629.0769021690821,456.39519151489696 M629.0769021690821,456.39519151489696 L630.2346906232658,455.429378411566 M630.2346906232658,455.429378411566 L631.5002972895602,454.8979153794869 M631.5002972895602,454.8979153794869 L632.7998581387324,454.83102376308733 M632.7998581387324,454.83102376308733 L634.057774781329,455.2317609181324 M634.057774781329,455.2317609181324 L635.2011486285649,456.0760317743416 M635.2011486285649,456.0760317743416 L636.1639609087943,457.31420277421614 M636.1639609087943,457.31420277421614 L636.890790257326,458.87408112964187 M636.890790257326,458.87408112964187 L637.3399382016735,460.6651836839319 M637.3399382016735,460.6651836839319 L637.485723445332,462.5839517727395 M317.79177689733086,549.9540721909245 L322.65723190946994,550.3740876425284 M322.65723190946994,550.3740876425284 L328.1511841751646,550.7361496504357 M328.1511841751646,550.7361496504357 L334.24891827013585,551.0373493804494 M334.24891827013585,551.0373493804494 L340.9005453908977,551.2733055837554 M340.9005453908977,551.2733055837554 L348.05593685811493,551.44016093013 M348.05593685811493,551.44016093013 L355.65590542014314,551.5342150622621 M355.65590542014314,551.5342150622621 L363.63027276546563,551.5521432776626 M363.63027276546563,551.5521432776626 L371.8966325754036,551.4912612837372 M371.8966325754036,551.4912612837372 L380.3601525584458,551.3498100133093 M380.3601525584458,551.3498100133093 L388.914332402391,551.1272440702787 M388.914332402391,551.1272440702787 L397.44293280986,550.8244777508777 M397.44293280986,550.8244777508777 L405.82302189694974,550.4440639880501 M405.82302189694974,550.4440639880501 L413.928807458945,549.9902844060971 M413.928807458945,549.9902844060971 L421.4089517917684,549.4858903976528 M421.4089517917684,549.4858903976528 L428.38708194149535,548.9267544709494 M428.38708194149535,548.9267544709494 L428.10180860831133,452.69631237934743 M428.38708194149535,548.9267544709494 L660.6928066413009,528.6717116776376 M660.6928066413009,528.6717116776376 L661.2249158297241,441.9592097094483 M660.6928066413009,528.6717116776376 L665.5013030534915,528.2140923870179 M665.5013030534915,528.2140923870179 L669.7673725952404,527.7278357279101 M669.7673725952404,527.7278357279101 L673.4396287750415,527.2199643044801 M673.4396287750415,527.2199643044801 L676.4892230959417,526.6964744442066 M676.4892230959417,526.6964744442066 L678.8952533579479,526.1637657559739 M678.8952533579479,526.1637657559739 L680.6482366720279,525.6280671119221 M680.6482366720279,525.6280671119221 L681.7494246860458,525.0952703339475 M681.7494246860458,525.0952703339475 L682.2094691522302,524.5708050502974 M682.2094691522302,524.5708050502974 L682.0468580774275,524.0595509715818 M682.0468580774275,524.0595509715818 L681.2861849794822,523.5657808427559 M681.2861849794822,523.5657808427559 L679.956252895247,523.0931560157962 M679.956252895247,523.0931560157962 L678.0883233484276,522.6447529053962 M678.0883233484276,522.6447529053962 L675.7145871569578,522.2231186917443 M675.7145871569578,522.2231186917443 L672.8668290883234,521.8303594693691 M672.8668290883234,521.8303594693691 L669.5755852048455,521.4682375116622 M669.5755852048455,521.4682375116622 L666.8662698120331,521.2204519940553 M666.8662698120331,521.2204519940553 L663.9343490285203,520.9904995716618" stroke="black"  stroke-width="4"  fill="red"/>
<path d="M470.7797613199966,472.33537404735256 L470.6937410209101,473.3414966086659 M470.6937410209101,473.3414966086659 L470.43804383072444,474.2989723942806 M470.43804383072444,474.2989723942806 L470.02744041429554,475.1523668545274 M470.02744041429554,475.1523668545274 L469.4856504439652,475.8521795849771 M469.4856504439652,475.8521795849771 L468.8440031425553,476.3577596422432 M468.8440031425553,476.3577596422432 L468.1396384536165,476.6396247125136 M468.1396384536165,476.6396247125136 L467.41339998193257,476.6812159768712 M467.41339998193257,476.6812159768712 L466.70747325457586,476.479893067486 M466.70747325457586,476.479893067486 L466.0629425607851,476.0471384008352 M466.0629425607851,476.0471384008352 L465.5173809183657,475.40794884576127 M465.5173809183657,475.40794884576127 L465.1026570719147,474.599397540762 M465.1026570719147,474.599397540762 L464.8430320481711,473.66853690531644 M464.8430320481711,473.66853690531644 L464.7537189355549,472.66958860254965 M464.7537189355549,472.66958860254965 L464.83995828405017,471.66082508965184 M464.83995828405017,471.66082508965184 L465.09672820987174,470.70110611069254 M465.09672820987174,470.70110611069254 L465.50901228165174,469.8463800601212 M465.50901228165174,469.8463800601212 L466.05270580915106,469.1464524387293 M466.05270580915106,469.1464524387293 L466.69604347301413,468.6420004721134 M466.69604347301413,468.6420004721134 L467.40149810725063,468.3622480645076 M467.40149810725063,468.3622480645076 L468.12797640822276,468.323270040747 M468.12797640822276,468.323270040747 L468.8332379073372,468.52710810917125 M468.8332379073372,468.52710810917125 L469.4763507156529,468.9617036551841 M469.4763507156529,468.9617036551841 L470.02006662040066,469.6016381075225 M470.02006662040066,469.6016381075225 L470.43293972091857,470.4096676493877 M470.43293972091857,470.4096676493877 L470.691132980848,471.3388594239251 M470.691132980848,471.3388594239251 L470.7797613199966,472.33537404735256 M470.7797613199966,472.33537404735256 L470.00144761820394,472.11353415481364 M470.00144761820394,472.11353415481364 L469.22583378413447,471.89246507256314 M469.22583378413447,471.89246507256314 L468.4529111794759,471.6721637434799 M468.4529111794759,471.6721637434799 L468.2253244804699,469.11831553623136 M468.2253244804699,469.11831553623136 L467.56256897539936,466.7357001203259 M467.56256897539936,466.7357001203259 L466.50236418320645,464.6618501003296 M466.50236418320645,464.6618501003296 L465.10528317451445,463.01698953374586 M465.10528317451445,463.01698953374586 L463.45148250896267,461.89712301326597 M463.45148250896267,461.89712301326597 L461.6362749573434,461.36835594421126 M461.6362749573434,461.36835594421126 L459.76475721749796,461.46284338100355 M459.76475721749796,461.46284338100355 L457.9458422326234,462.1765687069634 M457.9458422326234,462.1765687069634 L456.28583653161104,463.46924155582866 M456.28583653161104,463.46924155582866 L454.88217396121956,465.2663872785829 M454.88217396121956,465.2663872785829 L453.817521708117,467.4635022496416 M453.817521708117,467.4635022496416 L453.1546912160904,469.93214996392754 M453.1546912160904,469.93214996392754 L452.9328377773694,472.52758665875655 M452.9328377773694,472.52758665875655 L453.16495728929664,475.09748023365734 M453.16495728929664,475.09748023365734 L453.8371898933963,477.49109938145887 M453.8371898933963,477.49109938145887 L454.90962868687905,479.56839160606376 M454.90962868687905,479.56839160606376 L456.31891411182283,481.2083434033307 M456.31891411182283,481.2083434033307 L457.9820878784556,482.31607512741965 M457.9820878784556,482.31607512741965 L459.80169001112796,482.82826134098804 M459.80169001112796,482.82826134098804 L461.671617107172,482.71654528497373 M461.671617107172,482.71654528497373 L463.4833206212912,481.98889057165565 M463.4833206212912,481.98889057165565 L465.13214600021035,480.68877845350704 M465.13214600021035,480.68877845350704 L466.5232206344768,478.8923879242613 M466.5232206344768,478.8923879242613 L467.5767669652019,476.70404937311713 M467.5767669652019,476.70404937311713 L468.23250162296034,474.25018960948125 M468.23250162296034,474.25018960948125 L468.4529111794759,471.6721637434799 M470.7797613199966,472.33537404735256 L534.4473083026155,475.9716984959281 M534.4473083026155,475.9716984959281 L534.3587596503323,477.006530375824 M534.3587596503323,477.006530375824 L534.100673875334,477.99161607563695 M534.100673875334,477.99161607563695 L533.6879573141896,478.8699282041217 M533.6879573141896,478.8699282041217 L533.1444481207209,479.5905245415091 M533.1444481207209,479.5905245415091 L532.501570755019,480.1115474102621 M532.501570755019,480.1115474102621 L531.7965327843926,480.4026116306404 M531.7965327843926,480.4026116306404 L531.0702147298273,480.44661358132817 M531.0702147298273,480.44661358132817 L530.3648067133047,480.24075992634215 M530.3648067133047,480.24075992634215 L529.7213650444237,479.7967837696728 M529.7213650444237,479.7967837696728 L529.1774032995352,479.14032492404596 M529.1774032995352,479.14032492404596 L528.7647019470783,478.3094558670587 M528.7647019470783,478.3094558670587 L528.5074088512117,477.3525288441786 M528.5074088512117,477.3525288441786 L528.4206047734226,476.3252879006406 M528.4206047734226,476.3252879006406 L528.5093855701439,475.2876619924882 M528.5093855701439,475.2876619924882 L528.7685805150982,474.30020158375123 M528.7685805150982,474.30020158375123 L529.1830291581521,473.4204780366288 M529.1830291581521,473.4204780366288 L529.7284965462104,472.69975695752635 M529.7284965462104,472.69975695752635 L530.3731096055499,472.1799245606301 M530.3731096055499,472.1799245606301 L531.0792631621298,471.89109332652106 M531.0792631621298,471.89109332652106 L531.8058211220691,471.84985531727824 M531.8058211220691,471.84985531727824 L532.5105384044643,472.05837068586635 M532.5105384044643,472.05837068586635 L533.1525169432146,472.5042965560406 M533.1525169432146,472.5042965560406 L533.6945783314547,473.1615464813003 M533.6945783314547,473.1615464813003 L534.1053774574953,473.99186672403107 M534.1053774574953,473.99186672403107 L534.3612022412458,474.94703080028796 M534.3612022412458,474.94703080028796 L534.4473083026155,475.9716984959281" stroke="black"  stroke-width="4"  fill="red"/>
<path d="M639.531306773307,462.9761264509325 L639.4514296374557,463.9083552912004 M639.4514296374557,463.9083552912004 L639.2262382160891,464.7948407699309 M639.2262382160891,464.7948407699309 L638.8687475689887,465.58424529779734 M638.8687475689887,465.58424529779734 L638.3996194584686,466.2307720606053 M638.3996194584686,466.2307720606053 L637.8459927677825,466.69686419589203 M637.8459927677825,466.69686419589203 L637.2399230123269,466.95534756077933 M637.2399230123269,466.95534756077933 L636.6165611482572,466.9910471403112 M636.6165611482572,466.9910471403112 L636.0121194330734,466.80169644424467 M636.0121194330734,466.80169644424467 L635.4617735968463,466.3981129409562 M635.4617735968463,466.3981129409562 L634.9975998351879,465.8036205958524 M634.9975998351879,465.8036205958524 L634.6467042668608,465.052705329654 M634.6467042668608,465.052705329654 L634.4296055178277,464.1890629554276 M634.4296055178277,464.1890629554276 L634.3590190526047,463.2629903210556 M634.3590190526047,463.2629903210556 L634.4390850581563,462.32849464524026 M634.4390850581563,462.32849464524026 L634.6651417135542,461.4400868622788 M634.6651417135542,461.4400868622788 L635.0239757321906,460.6495449004955 M635.0239757321906,460.6495449004955 L635.494617601363,460.00292618525646 M635.494617601363,460.00292618525646 L636.0495816426326,459.5378086117778 M636.0495816426326,459.5378086117778 L636.6565059847737,459.2811430819897 M636.6565059847737,459.2811430819897 L637.2800438916663,459.24768815936096 M637.2800438916663,459.24768815936096 L637.8839427768476,459.43919611222486 M637.8839427768476,459.43919611222486 L638.4331512697502,459.84435526582206 M638.4331512697502,459.84435526582206 L638.895853714138,460.4394807100942 M638.895853714138,460.4394807100942 L639.2452810586478,461.1899414622075 M639.2452810586478,461.1899414622075 L639.4612510348727,462.0521458612998 M639.4612510348727,462.0521458612998 L639.531306773307,462.9761264509325 M639.531306773307,462.9761264509325 L638.5378112410353,462.78565523631505 M638.5378112410353,462.78565523631505 L637.5475057690023,462.59579763507514 M637.5475057690023,462.59579763507514 L636.560396011979,462.40655068679797 M636.560396011979,462.40655068679797 L636.3802533702037,460.03772363829603 M636.3802533702037,460.03772363829603 L635.8253760008288,457.82616151661034 M635.8253760008288,457.82616151661034 L634.9273968016562,455.89958442125993 M634.9273968016562,455.89958442125993 L633.7376606623659,454.3696971586781 M633.7376606623659,454.3696971586781 L632.324488856272,453.3257612756895 M632.324488856272,453.3257612756895 L630.769368023397,452.8293225702145 M630.769368023397,452.8293225702145 L629.1623521806812,452.9104560826735 M629.1623521806812,452.9104560826735 L627.5969456009811,453.5657136768909 M627.5969456009811,453.5657136768909 L626.1645922368118,454.7580362061832 M626.1645922368118,454.7580362061832 L624.9492957235295,456.418692366557 M624.9492957235295,456.418692366557 L624.0225484857629,458.4511228448888 M624.0225484857629,458.4511228448888 L623.4389729120596,460.7365701559273 M623.4389729120596,460.7365701559273 L623.2329820662751,463.14112036280125 M623.2329820662751,463.14112036280125 L623.4166409215418,465.5237466445999 M623.4166409215418,465.5237466445999 L623.9789859011876,467.74479487242075 M623.9789859011876,467.74479487242075 L624.8866870158463,469.6743710678186 M624.8866870158463,469.6743710678186 L626.0861584653178,471.2000841278155 M626.0861584653178,471.2000841278155 L627.5068536824515,472.2336285589109 M627.5068536824515,472.2336285589109 L629.0655625466754,472.71583914794894 M629.0655625466754,472.71583914794894 L630.6714090968712,472.6199001974242 M630.6714090968712,472.6199001974242 L632.2311569325511,471.9526517065515 M632.2311569325511,471.9526517065515 L633.654658389115,470.7538996482798 M633.654658389115,470.7538996482798 L634.8599376681382,469.0938483328277 M634.8599376681382,469.0938483328277 L635.7777922498569,467.0689188547958 M635.7777922498569,467.0689188547958 L636.3556506933467,464.7961495376657 M636.3556506933467,464.7961495376657 L636.560396011979,462.40655068679797 M639.531306773307,462.9761264509325 L702.8517110599335,466.09133649811446 M702.8517110599335,466.09133649811446 L702.7696586594166,467.04816091348994 M702.7696586594166,467.04816091348994 L702.5430390399795,467.9582637772482 M702.5430390399795,467.9582637772482 L702.1849481327504,468.7689442703487 M702.1849481327504,468.7689442703487 L701.7160798393311,469.43317402631874 M701.7160798393311,469.43317402631874 L701.1635550340675,469.9123682167319 M701.1635550340675,469.9123682167319 L700.5593629332502,470.178586930358 M700.5593629332502,470.178586930358 L699.9385441659535,470.2161975013922 M699.9385441659535,470.2161975013922 L699.3371633781851,470.02281216683446 M699.3371633781851,470.02281216683446 L698.7902199319542,469.6094728752685 M698.7902199319542,469.6094728752685 L698.3295948134023,469.0000633054636 M698.3295948134023,469.0000633054636 L697.9821908479234,468.2299329422213 M697.9821908479234,468.2299329422213 L697.7683263741967,467.3438966110794 M697.7683263741967,467.3438966110794 L697.7005307379272,466.39355856276427 M697.7005307379272,466.39355856276427 L697.7827824569688,465.4343459660149 M697.7827824569688,465.4343459660149 L698.0102917375984,464.5222168015231 M698.0102917375984,464.5222168015231 L698.369758825695,463.7103360497063 M698.369758825695,463.7103360497063 L698.8401745529022,463.04600708265883 M698.8401745529022,463.04600708265883 L699.3940635349559,462.567837422656 M699.3940635349559,462.567837422656 L699.9991240544837,462.30353229374737 M699.9991240544837,462.30353229374737 L700.6201165336556,462.2682859747917 M700.6201165336556,462.2682859747917 L701.220936531508,462.46394460922284 M701.220936531508,462.46394460922284 L701.7667131600087,462.87894545778965 M701.7667131600087,462.87894545778965 L702.2258327242644,463.48902421785783 M702.2258327242644,463.48902421785783 L702.5717373097623,464.25867807299454 M702.5717373097623,464.25867807299454 L702.7844520729304,465.1432013898886 M702.7844520729304,465.1432013898886 L702.8517110599335,466.09133649811446" stroke="black"  stroke-width="4"  fill="red"/></svg>