<svg version="1.1" xmlns="http://www.w3.org/2000/svg" viewBox="-78.88302968818378 -47.48148712097216 157.76605937636754 94.96297424194432" fill="none" stroke="black" stroke-width="0.6%" vector-effect="non-scaling-stroke">
    <path d="M -74.2992 15.2323 L -18.53314 40.72982 L -18.53314 9.56703 A 50 18.2744 265.80596 0 1 -24.17076 12.61438 A 50 18.2744 265.80596 0 1 -27.82748 11.90291" />
    <path d="M -65.00485 -5.09544 L -27.82748 11.90291" />
    <path d="M -65.00485 -5.09544 A 50 18.2744 265.80596 0 1 -74.2992 -15.9305" />
    <path d="M 77.88303 37.32608 A 50 9.1554 360 0 1 -18.53314 40.72982" />
    <path d="M -74.2992 15.2323 A 50 9.1554 360 0 1 -77.88303 11.82856" />
    <path d="M -18.53314 9.56703 C -18.48 9.51 -18.44 9.46 -18.38589 9.40863 C -18.34 9.36 -18.29 9.3 -18.23717 9.24681 C -18.19 9.19 -18.14 9.14 -18.08706 9.08162 C -18.04 9.03 -17.99 8.97 -17.93564 8.91314 C -17.88 8.86 -17.83 8.8 -17.78296 8.7414 C -17.73 8.68 -17.68 8.63 -17.62912 8.56647 C -17.58 8.51 -17.53 8.45 -17.47416 8.3884 C -17.42 8.33 -17.37 8.27 -17.31817 8.20724 C -17.27 8.15 -17.21 8.08 -17.16121 8.02305 C -17.11 7.96 -17.06 7.9 -17.00334 7.83589 C -16.95 7.77 -16.9 7.71 -16.84463 7.64579 C -16.79 7.58 -16.74 7.52 -16.68514 7.45283 C -16.63 7.39 -16.58 7.32 -16.52493 7.25703 C -16.47 7.19 -16.42 7.13 -16.36406 7.05846 C -16.31 6.99 -16.26 6.92 -16.20259 6.85716 C -16.15 6.79 -16.09 6.72 -16.04058 6.65317 C -15.99 6.58 -15.93 6.52 -15.87808 6.44656 C -15.82 6.38 -15.77 6.31 -15.71515 6.23736 C -15.66 6.17 -15.61 6.1 -15.55185 6.02561 C -15.5 5.95 -15.44 5.88 -15.38822 5.81137 C -15.33 5.74 -15.28 5.67 -15.22432 5.59467 C -15.17 5.52 -15.11 5.45 -15.06019 5.37557 C -14.95 5.23 -14.84 5.08 -14.73148 4.93029 C -14.62 4.78 -14.51 4.63 -14.40247 4.47587 C -14.29 4.32 -14.18 4.17 -14.07353 4.01262 C -13.96 3.86 -13.85 3.7 -13.74502 3.54084 C -13.64 3.38 -13.53 3.22 -13.41727 3.06083 C -12.98 2.42 -12.55 1.75 -12.12027 1.06381 C -11.69 0.38 -11.27 -0.32 -10.85942 -1.04494 C -10.03 -2.49 -9.25 -3.99 -8.50815 -5.55011 L -4.78667 -5.82301" />
    <path d="M 74.2992 -15.2323 A 50 9.1554 360 0 1 77.88303 -11.82856 A 50 9.1554 360 0 1 -8.50815 -5.55011" />
    <path d="M -22.78896 12.36651 A 50 18.2744 265.80596 0 1 -25.04251 11.69869 L -62.21988 -5.29966 L -65.00485 -5.09544" />
    <path d="M -74.16059 -37.54236 C -74.17 -37.29 -74.17 -37.03 -74.17458 -36.78077 C -74.18 -36.53 -74.18 -36.27 -74.18496 -36.02113 C -74.19 -35.77 -74.19 -35.52 -74.19143 -35.26347 C -74.19 -35.01 -74.19 -34.76 -74.19366 -34.50786 C -74.19 -34.35 -74.19 -34.2 -74.1928 -34.0487 C -74.19 -33.9 -74.19 -33.74 -74.19017 -33.59034 C -74.19 -33.44 -74.19 -33.29 -74.18569 -33.13281 C -74.18 -32.98 -74.18 -32.83 -74.17928 -32.67613 C -74.18 -32.52 -74.17 -32.37 -74.17085 -32.22032 C -74.17 -32.07 -74.16 -31.92 -74.16034 -31.76543 C -74.16 -31.61 -74.15 -31.46 -74.14765 -31.31146 C -74.14 -31.16 -74.14 -31.01 -74.1327 -30.85846 C -74.13 -30.71 -74.12 -30.56 -74.1154 -30.40646 C -74.11 -30.26 -74.1 -30.11 -74.09566 -29.95549 C -74.09 -29.81 -74.08 -29.66 -74.07339 -29.5056 C -74.07 -29.36 -74.06 -29.21 -74.04851 -29.05682 C -74.04 -28.91 -74.03 -28.76 -74.02091 -28.6092 C -74.01 -28.46 -74 -28.31 -73.99049 -28.16277 C -73.98 -28.01 -73.97 -27.87 -73.95717 -27.71759 C -73.95 -27.57 -73.93 -27.42 -73.92085 -27.2737 C -73.91 -27.13 -73.9 -26.98 -73.88142 -26.83115 C -73.87 -26.68 -73.85 -26.54 -73.83877 -26.39 C -73.82 -26.24 -73.81 -26.1 -73.79281 -25.95029 C -73.78 -25.8 -73.76 -25.66 -73.74342 -25.51208 C -73.73 -25.37 -73.71 -25.22 -73.6905 -25.07543 C -73.67 -24.93 -73.65 -24.79 -73.63394 -24.64041 C -73.61 -24.5 -73.59 -24.35 -73.57362 -24.20706 C -73.55 -24.06 -73.53 -23.92 -73.50942 -23.77545 C -73.49 -23.63 -73.46 -23.49 -73.44122 -23.34566 C -73.42 -23.2 -73.39 -23.06 -73.36891 -22.91774 C -73.34 -22.78 -73.32 -22.63 -73.29236 -22.49176 C -73.27 -22.35 -73.24 -22.21 -73.21144 -22.0678 C -73.1 -21.5 -72.98 -20.95 -72.84144 -20.39361 C -72.28 -18.14 -71.5 -15.99 -70.39891 -14.05318" />
    <path d="M -62.21988 -5.29966 A 50 18.2744 265.80596 0 1 -70.39891 -14.05318" />
    <path d="M -77.88207 -37.26946 C -77.88 -37.03 -77.88 -36.79 -77.87788 -36.55775 C -77.88 -36.32 -77.87 -36.08 -77.87011 -35.84752 C -77.87 -35.61 -77.86 -35.37 -77.85851 -35.13882 C -77.85 -34.9 -77.85 -34.67 -77.84278 -34.43171 C -77.84 -34.2 -77.83 -33.96 -77.82265 -33.72629 C -77.82 -33.49 -77.81 -33.26 -77.79783 -33.02263 C -77.79 -32.79 -77.78 -32.55 -77.76801 -32.32084 C -77.76 -32.09 -77.75 -31.85 -77.73288 -31.62103 C -77.72 -31.39 -77.71 -31.16 -77.69212 -30.92333 C -77.68 -30.69 -77.66 -30.46 -77.6454 -30.22786 C -77.63 -30 -77.61 -29.77 -77.59237 -29.53479 C -77.57 -29.3 -77.55 -29.07 -77.5327 -28.84426 C -77.51 -28.61 -77.49 -28.39 -77.466 -28.15645 C -77.44 -27.93 -77.42 -27.7 -77.39193 -27.47155 C -77.37 -27.24 -77.34 -27.02 -77.31008 -26.78975 C -77.28 -26.56 -77.25 -26.34 -77.22006 -26.11127 C -77.19 -25.89 -77.16 -25.66 -77.12147 -25.43633 C -77.09 -25.21 -77.05 -24.99 -77.0139 -24.76516 C -76.98 -24.54 -76.94 -24.32 -76.8969 -24.09801 C -76.86 -23.88 -76.81 -23.66 -76.77004 -23.43515 C -76.73 -23.21 -76.68 -23 -76.63286 -22.77686 C -76.59 -22.56 -76.54 -22.34 -76.4849 -22.12343 C -76.43 -21.91 -76.38 -21.69 -76.32567 -21.47516 C -76.27 -21.26 -76.21 -21.05 -76.15468 -20.83237 C -76.1 -20.62 -76.03 -20.41 -75.97142 -20.19539 C -75.94 -20.09 -75.91 -19.98 -75.87502 -19.87919 C -75.84 -19.77 -75.81 -19.67 -75.77536 -19.56458 C -75.71 -19.36 -75.64 -19.15 -75.56598 -18.94029 C -75.49 -18.73 -75.42 -18.53 -75.34271 -18.32291 C -75.04 -17.5 -74.69 -16.71 -74.2992 -15.9305" />
    <path d="M -77.88207 -37.26946 L -74.16059 -37.54236 C -74.15 -37.59 -74.14 -37.64 -74.12465 -37.69259 C -74.11 -37.74 -74.09 -37.79 -74.07561 -37.8427 C -74.06 -37.89 -74.04 -37.94 -74.01344 -37.99264 C -73.99 -38.04 -73.97 -38.09 -73.93813 -38.14238 C -73.91 -38.19 -73.88 -38.24 -73.84967 -38.29188 C -73.82 -38.34 -73.78 -38.39 -73.74805 -38.44111 C -73.71 -38.49 -73.67 -38.54 -73.63325 -38.59001 C -73.59 -38.64 -73.55 -38.69 -73.50527 -38.73855 C -73.46 -38.79 -73.42 -38.83 -73.36974 -38.88105 C -73.32 -38.93 -73.27 -38.98 -73.22201 -39.02314 C -73.17 -39.07 -73.12 -39.12 -73.0621 -39.16479 C -73.01 -39.21 -72.95 -39.26 -72.89 -39.30596 C -72.83 -39.35 -72.77 -39.4 -72.70573 -39.44661 C -72.64 -39.49 -72.58 -39.54 -72.50929 -39.58671 C -72.44 -39.63 -72.37 -39.68 -72.30071 -39.72622 C -72.23 -39.77 -72.16 -39.82 -72.07999 -39.8651 C -72 -39.91 -71.93 -39.96 -71.84717 -40.00332 C -71.77 -40.05 -71.69 -40.1 -71.60226 -40.14084 C -71.52 -40.19 -71.43 -40.23 -71.3453 -40.27761 C -71.26 -40.32 -71.17 -40.37 -71.07631 -40.41361 C -70.98 -40.46 -70.89 -40.5 -70.79533 -40.5488 C -70.7 -40.59 -70.6 -40.64 -70.50239 -40.68313 C -70.4 -40.73 -70.3 -40.77 -70.19754 -40.81657 C -70.09 -40.86 -69.99 -40.91 -69.88082 -40.94907 C -69.78 -40.99 -69.67 -41.03 -69.5654 -41.07547 C -69.46 -41.12 -69.35 -41.16 -69.23912 -41.20094 C -69.02 -41.28 -68.79 -41.37 -68.55417 -41.44895 C -68.08 -41.61 -67.58 -41.77 -67.05636 -41.93235 C -66 -42.25 -64.84 -42.55 -63.56514 -42.84094 C -58.78 -43.93 -52.46 -44.8 -45.35639 -45.31531 C -44.91 -45.35 -44.46 -45.38 -44.00474 -45.40975 C -43.55 -45.44 -43.1 -45.47 -42.63686 -45.49605 C -42.18 -45.52 -41.72 -45.55 -41.25428 -45.57411 C -40.79 -45.6 -40.33 -45.62 -39.8585 -45.64385 C -39.39 -45.67 -38.92 -45.69 -38.45107 -45.70521 C -37.98 -45.72 -37.51 -45.74 -37.03348 -45.75813 C -36.56 -45.77 -36.08 -45.79 -35.60725 -45.80259 C -35.13 -45.82 -34.65 -45.83 -34.17391 -45.83854 C -33.7 -45.85 -33.22 -45.86 -32.73495 -45.86599 C -32.25 -45.87 -31.77 -45.88 -31.29188 -45.88492 C -30.81 -45.89 -30.33 -45.89 -29.8462 -45.89534 C -29.36 -45.9 -28.88 -45.9 -28.39942 -45.89728 C -27.92 -45.9 -27.43 -45.89 -26.95301 -45.89075 C -26.47 -45.89 -25.99 -45.88 -25.50848 -45.87581 C -25.03 -45.87 -24.55 -45.86 -24.06731 -45.85251 C -23.59 -45.84 -23.11 -45.83 -22.63096 -45.8209 C -22.38 -45.81 -22.12 -45.81 -21.87024 -45.80076 C -21.62 -45.79 -21.36 -45.79 -21.11144 -45.7783 C -20.86 -45.77 -20.61 -45.76 -20.35479 -45.75354 C -20.1 -45.74 -19.85 -45.74 -19.60047 -45.7265 C -19.35 -45.72 -19.1 -45.71 -18.84869 -45.69718 C -18.6 -45.69 -18.35 -45.68 -18.09964 -45.6656 C -17.85 -45.65 -17.6 -45.64 -17.35352 -45.63178 C -17.11 -45.62 -16.86 -45.61 -16.61052 -45.59573 C -16.36 -45.58 -16.12 -45.57 -15.87083 -45.55747 C -15.62 -45.54 -15.38 -45.53 -15.13463 -45.51701 C -14.89 -45.5 -14.65 -45.49 -14.40211 -45.47437 C -14.16 -45.46 -13.92 -45.44 -13.67344 -45.42957 C -12.7 -45.37 -11.75 -45.3 -10.80091 -45.2291 C 1.78 -44.27 11.86 -42.33 16.86349 -40.01565 L 70.39891 -15.53802 C 70.55 -15.47 70.71 -15.4 70.85161 -15.32375 C 71 -15.25 71.14 -15.18 71.27658 -15.10758 C 71.41 -15.04 71.55 -14.96 71.67357 -14.88963 C 71.8 -14.82 71.92 -14.74 72.04235 -14.67003 C 72.16 -14.6 72.27 -14.52 72.38269 -14.44889 C 72.49 -14.37 72.6 -14.3 72.69437 -14.22634 C 72.79 -14.15 72.89 -14.08 72.97719 -14.0025 C 73.07 -13.93 73.15 -13.85 73.23093 -13.77749 C 73.31 -13.7 73.39 -13.63 73.45542 -13.55145 C 73.53 -13.48 73.59 -13.4 73.65046 -13.32449 C 73.71 -13.25 73.77 -13.17 73.81589 -13.09674 C 73.87 -13.02 73.91 -12.94 73.95156 -12.86834 C 73.99 -12.79 74.03 -12.72 74.0573 -12.6394 C 74.09 -12.56 74.11 -12.49 74.13298 -12.41007 C 74.15 -12.33 74.17 -12.26 74.17847 -12.18048 C 74.19 -12.1 74.19 -12.03 74.19366 -11.95075 C 74.19 -11.89 74.19 -11.83 74.18483 -11.77574 C 74.18 -11.72 74.17 -11.66 74.15831 -11.60079 C 74.15 -11.54 74.13 -11.48 74.11407 -11.42596 C 74.1 -11.37 74.08 -11.31 74.05206 -11.25131 C 74.03 -11.19 74 -11.13 73.97227 -11.07691 C 73.94 -11.02 73.91 -10.96 73.87467 -10.9028 C 73.84 -10.84 73.8 -10.79 73.75924 -10.72906 C 73.72 -10.67 73.67 -10.61 73.62597 -10.55574 C 73.59 -10.51 73.54 -10.46 73.49833 -10.40845 C 73.45 -10.36 73.41 -10.31 73.35772 -10.26156 C 73.31 -10.21 73.26 -10.16 73.20415 -10.11511 C 73.15 -10.07 73.1 -10.02 73.03763 -9.96913 C 72.98 -9.92 72.92 -9.87 72.85816 -9.82366 C 72.8 -9.78 72.73 -9.73 72.66575 -9.67875 C 72.6 -9.63 72.53 -9.58 72.46041 -9.53444 C 72.39 -9.49 72.32 -9.44 72.24216 -9.39076 C 72.17 -9.34 72.09 -9.3 72.01103 -9.24776 C 71.93 -9.2 71.85 -9.15 71.76703 -9.10548 C 71.68 -9.06 71.6 -9.01 71.51019 -8.96396 C 71.42 -8.92 71.33 -8.87 71.24055 -8.82324 C 71.15 -8.78 71.05 -8.73 70.95813 -8.68337 C 70.86 -8.64 70.76 -8.59 70.66299 -8.54437 C 70.56 -8.5 70.46 -8.45 70.35516 -8.4063 C 70.25 -8.36 70.14 -8.31 70.03469 -8.2692 C 69.93 -8.23 69.83 -8.18 69.72069 -8.14074 C 69.61 -8.1 69.51 -8.06 69.39552 -8.01321 C 69.18 -7.93 68.95 -7.84 68.71189 -7.76109 C 68.24 -7.59 67.74 -7.43 67.21311 -7.26964 C 66.16 -6.95 64.98 -6.64 63.70572 -6.34578 C 58.9 -5.24 52.53 -4.36 45.35639 -3.83933 C 44.91 -3.81 44.47 -3.78 44.01794 -3.74576 C 43.57 -3.72 43.12 -3.69 42.66356 -3.66019 C 42.21 -3.63 41.75 -3.61 41.29472 -3.58269 C 40.84 -3.56 40.38 -3.54 39.91292 -3.51334 C 39.45 -3.49 38.99 -3.47 38.51961 -3.45222 C 38.05 -3.43 37.59 -3.42 37.11628 -3.39936 C 36.65 -3.38 36.18 -3.37 35.70439 -3.3548 C 35.23 -3.34 34.76 -3.33 34.28541 -3.31858 C 33.81 -3.31 33.34 -3.3 32.86082 -3.29071 C 32.39 -3.28 31.91 -3.28 31.43206 -3.27118 C 30.96 -3.27 30.48 -3.26 30.00061 -3.26 C 29.52 -3.26 29.05 -3.26 28.56791 -3.25715 C 28.09 -3.26 27.61 -3.26 27.13542 -3.2626 C 26.66 -3.27 26.18 -3.27 25.70458 -3.2763 C 25.23 -3.28 24.75 -3.29 24.27685 -3.29822 C 23.8 -3.31 23.33 -3.32 22.85365 -3.32829 C 22.6 -3.33 22.35 -3.34 22.102 -3.34749 C 21.85 -3.35 21.6 -3.36 21.35218 -3.36896 C 21.1 -3.38 20.85 -3.38 20.60438 -3.39267 C 20.36 -3.4 20.11 -3.41 19.8588 -3.41861 C 19.61 -3.43 19.36 -3.44 19.11562 -3.44678 C 18.87 -3.46 18.62 -3.47 18.37504 -3.47715 C 18.13 -3.49 17.88 -3.5 17.63724 -3.50972 C 17.39 -3.52 17.15 -3.53 16.90242 -3.54446 C 16.66 -3.56 16.41 -3.57 16.17074 -3.58137 C 15.93 -3.59 15.68 -3.61 15.4424 -3.62043 C 15.2 -3.63 14.96 -3.65 14.71757 -3.66162 C 14.48 -3.68 14.24 -3.69 13.99643 -3.70492 C 13.04 -3.76 12.09 -3.83 11.15213 -3.89894 C 5.22 -4.34 -0.21 -5 -4.78667 -5.82301" />
    <path d="M -77.88207 -37.26946 A 50 9.1554 360 0 1 -77.88303 -37.32608 L -77.88303 11.82856" />
    <path d="M -77.88303 -37.32608 A 50 9.1554 360 0 1 18.53314 -40.72982" />
    <path d="M 74.2992 -15.2323 L 18.53314 -40.72982" />
    <path d="M -45.35639 -1.07613 L -45.82653 -1.04108 L -46.29444 -1.00504 L -46.76007 -0.96802 L -47.22338 -0.93002 L -47.68429 -0.89105 L -48.14277 -0.8511 L -48.59875 -0.8102 L -49.05219 -0.76833 L -49.50303 -0.7255 L -49.95121 -0.68173 L -50.39669 -0.637 L -50.83942 -0.59134 L -51.27934 -0.54475 L -51.71639 -0.49722" />
    <path d="M -10.88719 -0.99651 L -13.28399 -1.16546 L -15.71887 -1.31014 L -18.18497 -1.43015 L -20.67532 -1.52514 L -23.18288 -1.59486 L -25.70056 -1.63911 L -28.22126 -1.65775 L -30.73786 -1.65074 L -33.24323 -1.6181 L -35.73032 -1.55992 L -38.19208 -1.47636 L -40.62157 -1.36766 L -43.01193 -1.23412 L -45.35639 -1.07613" />
    <path d="M -74.2992 15.2323 L -74.2992 -15.9305" />
    <path d="M -25.04251 11.69869 L -27.82748 11.90291" />
    <path d="M 70.39891 -8.42553 L 70.39891 -15.53802" />
    <path d="M 16.86349 -3.54637 L 16.86349 -40.01565" />
    <path d="M 77.88303 -11.82856 L 77.88303 37.32608" />
</svg>