<svg viewBox="0 0 1000 1000" xmlns="http://www.w3.org/2000/svg"><path d="M569.5112636644452,538.1958308359531 L329.5768268500363,548.345991126962 M329.5768268500363,548.345991126962 L329.33943103315386,478.89440049480936 M329.33943103315386,478.89440049480936 L334.24249448890856,483.4758078257675 M334.24249448890856,483.4758078257675 L339.43917150171376,487.3944132718545 M339.43917150171376,487.3944132718545 L344.87770382673335,490.6170281471709 M344.87770382673335,490.6170281471709 L350.50464274115467,493.11776473732493 M350.50464274115467,493.11776473732493 L356.2654647194702,494.8780889555494 M356.2654647194702,494.8780889555494 L362.10511098515485,495.8868365839756 M362.10511098515485,495.8868365839756 L367.96859424202887,496.14009469403663 M537.2702786341374,492.55568727179076 L367.96859424202887,496.14009469403663 M537.2702786341374,492.55568727179076 L542.3091811474528,492.0999503252995 M542.3091811474528,492.0999503252995 L547.2794417042161,490.95389274613933 M547.2794417042161,490.95389274613933 L552.1361422496274,489.13255152914036 M552.1361422496274,489.13255152914036 L556.8359499266047,486.65679320250655 M556.8359499266047,486.65679320250655 L561.3374883105733,483.55300112254383 M561.3374883105733,483.55300112254383 L565.6015978094639,479.85269012454046 M565.6015978094639,479.85269012454046 L569.5916130876928,475.59214709101514 M569.5112636644452,538.1958308359531 L569.5916130876928,475.59214709101514 M329.5768268500363,548.345991126962 L323.76191748648347,548.61194383717 M323.76191748648347,548.61194383717 L318.4052003050095,548.8984680089056 M318.4052003050095,548.8984680089056 L313.5673269977418,549.2025491071386 M313.5673269977418,549.2025491071386 L309.2938510878177,549.521403914659 M309.2938510878177,549.521403914659 L305.6263439231399,549.8519238589772 M305.6263439231399,549.8519238589772 L302.59865409056266,550.1908917489664 M302.59865409056266,550.1908917489664 L300.2366460297489,550.5350414760921 M300.2366460297489,550.5350414760921 L298.5581639994166,550.8811207998694 M298.5581639994166,550.8811207998694 L297.57330527098316,551.2259440008313 M297.57330527098316,551.2259440008313 L297.28490877617776,551.5664393533345 M297.28490877617776,551.5664393533345 L297.68928576919006,551.8996816020747 M297.68928576919006,551.8996816020747 L298.7770097379349,552.2229146930948 M298.7770097379349,552.2229146930948 L300.53378723901636,552.5335609786939 M300.53378723901636,552.5335609786939 L302.94126712649296,552.8292179582379 M302.94126712649296,552.8292179582379 L305.9777237106491,553.1076470505934 M305.9777237106491,553.1076470505934 L309.2877505808443,553.3456272386863 M309.2877505808443,553.3456272386863 L313.08986458002107,553.566235858148 M313.08986458002107,553.566235858148 L318.3179163499353,553.8077048194025 M318.3179163499353,553.8077048194025 L324.17875751304337,554.0183437087103 M324.17875751304337,554.0183437087103 L330.63216014342953,554.1961512916066 M330.63216014342953,554.1961512916066 L337.6189409012942,554.3387646728729 M337.6189409012942,554.3387646728729 L345.07729969499286,554.4441568668956 M345.07729969499286,554.4441568668956 L352.9376359056685,554.5105182176094 M352.9376359056685,554.5105182176094 L361.1218315464738,554.5363321168303 M361.1218315464738,554.5363321168303 L369.5429595273371,554.5204669480256 M369.5429595273371,554.5204669480256 L378.1056790895369,554.4622689873529 M378.1056790895369,554.4622689873529 L386.707254325216,554.3616562444796 M386.707254325216,554.3616562444796 L395.23920141031346,554.2192007017077 M395.23920141031346,554.2192007017077 L403.5896249624336,554.0361846823124 M403.5896249624336,554.0361846823124 L411.6461429620629,553.8146238343782 M411.6461429620629,553.8146238343782 L419.2989131690939,553.5572629663104 M419.2989131690939,553.5572629663104 L423.70358961340116,553.3849779368174 M423.70358961340116,553.3849779368174 L427.8955919338637,553.2017939939257 M427.8955919338637,553.2017939939257 L667.8791602493737,542.122485751156 M667.8791602493737,542.122485751156 L672.4975451179251,541.8889067016835 M672.4975451179251,541.8889067016835 L676.5776168514394,541.639854211797 M676.5776168514394,541.639854211797 L680.0770606649187,541.3784369730022 M680.0770606649187,541.3784369730022 L682.9695636749486,541.1074681368372 M682.9695636749486,541.1074681368372 L685.2357685951642,540.8299296352727 M685.2357685951642,540.8299296352727 L686.8655304142039,540.5487689724422 M686.8655304142039,540.5487689724422 L687.8573534767381,540.2668406073643 M687.8573534767381,540.2668406073643 L688.21758905757,539.9868522703538 M688.21758905757,539.9868522703538 L687.9594051517563,539.7113265883177 M687.9594051517563,539.7113265883177 L687.1016346018648,539.4425727830994 M687.1016346018648,539.4425727830994 L685.6675376575964,539.1826748737926 M685.6675376575964,539.1826748737926 L683.6836396065746,538.9334904967466 M683.6836396065746,538.9334904967466 L681.1786393816468,538.696661789723 M681.1786393816468,538.696661789723 L678.1825045850104,538.4736360750837 M678.1825045850104,538.4736360750837 L674.7257804847658,538.2656918525422 M674.7257804847658,538.2656918525422 L671.1838943145497,538.0895380658177 M671.1838943145497,538.0895380658177 L667.2988296022364,537.9275280136665 M667.2988296022364,537.9275280136665 L662.1716064601434,537.7515991002122 M662.1716064601434,537.7515991002122 L656.62982866723,537.599313933202 M656.62982866723,537.599313933202 L650.7082653677279,537.4716125941809 M650.7082653677279,537.4716125941809 L644.4560475563305,537.3697436118439 M644.4560475563305,537.3697436118439 L637.9210688926194,537.2947774642114 M637.9210688926194,537.2947774642114 L631.1549820465594,537.2477111320096 M631.1549820465594,537.2477111320096 L624.2139881636255,537.2294312903407 M624.2139881636255,537.2294312903407 L617.1593734267029,537.2406641556405 M617.1593734267029,537.2406641556405 L610.0576209549245,537.2819210907516 M610.0576209549245,537.2819210907516 L602.9801480381711,537.3534379441957 M602.9801480381711,537.3534379441957 L596.0026633763468,537.4551149501972 M596.0026633763468,537.4551149501972 L589.20406625055,537.5864656554928 M589.20406625055,537.5864656554928 L582.664906675373,537.7465794586249 M582.664906675373,537.7465794586249 L576.4657211062434,537.9340935670625 M576.4657211062434,537.9340935670625 L572.901422746367,538.0605496107512 M572.901422746367,538.0605496107512 L569.5112636644452,538.1958308359531 M313.08986458002107,553.566235858148 L312.68538619255025,445.4636678831697 M312.31376273598903,445.4636678831697 L308.14378303557174,445.4636678831697 M308.14378303557174,445.4636678831697 L304.5758255579278,445.4636678831697 M304.5758255579278,445.4636678831697 L301.66920811131024,445.4636678831697 M301.66920811131024,445.4636678831697 L299.43371087006324,445.4636678831697 M299.43371087006324,445.4636678831697 L297.8856857895471,445.4636678831697 M297.8856857895471,445.4636678831697 L297.03381911207174,445.4636678831697 M297.03381911207174,445.4636678831697 L296.87963866664023,445.4636678831697 M296.87963866664023,445.4636678831697 L297.4182862086264,445.4636678831697 M297.4182862086264,445.4636678831697 L298.6393230358398,445.4636678831697 M298.6393230358398,445.4636678831697 L300.52759335191047,445.4636678831697 M300.52759335191047,445.4636678831697 L303.0640011716127,445.4636678831697 M303.0640011716127,445.4636678831697 L306.2262014958149,445.4636678831697 M306.2262014958149,445.4636678831697 L309.2600319779523,445.4636678831697 M309.2600319779523,445.4636678831697 L312.68538619255025,445.4636678831697 M312.31376273598903,445.4636678831697 L314.2155812299951,452.29596486018505 M314.2155812299951,452.29596486018505 L316.6224417266738,458.9267533066379 M316.6224417266738,458.9267533066379 L319.0813222623452,464.29710299911517 M319.0813222623452,464.29710299911517 L322.34863607980293,470.01687809239564 M322.34863607980293,470.01687809239564 L325.5918492675628,474.58977926522283 M325.5918492675628,474.58977926522283 L329.33943103315386,478.89440049480936 M336.62956388756515,482.697070844572 L341.94505174485454,486.8734024916772 M341.94505174485454,486.8734024916772 L347.52740286890685,490.3120042370413 M347.52740286890685,490.3120042370413 L353.31805369910126,492.98317109778856 M353.31805369910126,492.98317109778856 L359.25707287336763,494.86558131734205 M359.25707287336763,494.86558131734205 L365.28393460077,495.9462798862616 M365.28393460077,495.9462798862616 L371.3380929160104,496.2205813754913 M316.49311517148914,445.4636678831697 L318.30395593713644,452.29047355050454 M318.30395593713644,452.29047355050454 L320.5958878065446,458.9119639339799 M320.5958878065446,458.9119639339799 L323.28024226736096,464.97160863287087 M323.28024226736096,464.97160863287087 L326.47263031689636,470.66874997965255 M326.47263031689636,470.66874997965255 L330.115986890149,475.82734294441286 M330.115986890149,475.82734294441286 L333.1857504892386,479.3755220510237 M333.1857504892386,479.3755220510237 L336.62956388756515,482.697070844572 M312.31376273598903,445.4636678831697 L316.49311517148914,445.4636678831697 M371.3380929160104,496.2205813754913 L367.96859424202887,496.14009469403663 M371.3380929160104,496.2205813754913 L540.6509424039183,492.6251829654098 M540.6509424039183,492.6251829654098 L537.2702786341374,492.55568727179076 M591.3304955251856,445.4636678831697 L588.820865929889,451.53461053681787 M588.820865929889,451.53461053681787 L585.86186249274,457.4505019184566 M585.86186249274,457.4505019184566 L582.659614231623,462.8963919628676 M582.659614231623,462.8963919628676 L579.163315081402,468.05320062714594 M579.163315081402,468.05320062714594 L575.5225328181064,472.76272512251546 M575.5225328181064,472.76272512251546 L572.703501032073,476.03069443560264 M572.703501032073,476.03069443560264 L569.7782941315809,479.1172060891188 M540.6509424039183,492.6251829654098 L545.8517321151452,492.14223713744974 M545.8517321151452,492.14223713744974 L550.9778263585725,490.9229583529618 M550.9778263585725,490.9229583529618 L555.9798689713598,488.9842409009254 M555.9798689713598,488.9842409009254 L560.8103825688502,486.34959318371216 M560.8103825688502,486.34959318371216 L565.4240827133468,483.04874026105523 M565.4240827133468,483.04874026105523 L569.7782941315809,479.1172060891188 M587.1274533783247,445.4636678831697 L584.6959970524734,451.54085944260913 M584.6959970524734,451.54085944260913 L581.8304457991696,457.4663810478665 M581.8304457991696,457.4663810478665 L579.1155593437895,462.29203359588445 M579.1155593437895,462.29203359588445 L575.7942669579766,467.4656823906217 M575.7942669579766,467.4656823906217 L572.7770476724223,471.6342621402908 M572.7770476724223,471.6342621402908 L569.5916130876928,475.59214709101514 M587.1274533783247,445.4636678831697 L591.3304955251856,445.4636678831697 M667.5946541785697,445.4636678831697 L662.4575964171153,445.4636678831697 M662.4575964171153,445.4636678831697 L656.9053421059771,445.4636678831697 M656.9053421059771,445.4636678831697 L650.9727217724803,445.4636678831697 M650.9727217724803,445.4636678831697 L644.7089526021066,445.4636678831697 M644.7089526021066,445.4636678831697 L638.1620097084347,445.4636678831697 M638.1620097084347,445.4636678831697 L631.3836320283386,445.4636678831697 M631.3836320283386,445.4636678831697 L624.4301133666338,445.4636678831697 M624.4301133666338,445.4636678831697 L617.3628401407082,445.4636678831697 M617.3628401407082,445.4636678831697 L610.2484037970363,445.4636678831697 M610.2484037970363,445.4636678831697 L603.1583379884269,445.4636678831697 M603.1583379884269,445.4636678831697 L596.1684751784014,445.4636678831697 M596.1684751784014,445.4636678831697 L591.58863265618,445.4636678831697 M591.58863265618,445.4636678831697 L587.1274533783247,445.4636678831697 M667.2988296022364,537.9275280136665 L667.5946541785697,445.4636678831697 M427.8955919338637,553.2017939939257 L427.7348907693105,445.4636678831697 M312.68538619255025,445.4636678831697 L317.9236337344311,445.4636678831697 M317.9236337344311,445.4636678831697 L323.79617579300117,445.4636678831697 M323.79617579300117,445.4636678831697 L330.26270273930777,445.4636678831697 M330.26270273930777,445.4636678831697 L337.26390639314377,445.4636678831697 M337.26390639314377,445.4636678831697 L344.7378509852894,445.4636678831697 M344.7378509852894,445.4636678831697 L352.6147790868808,445.4636678831697 M352.6147790868808,445.4636678831697 L360.81639346799676,445.4636678831697 M360.81639346799676,445.4636678831697 L369.2555651681816,445.4636678831697 M369.2555651681816,445.4636678831697 L377.8367304705282,445.4636678831697 M377.8367304705282,445.4636678831697 L386.4569125456117,445.4636678831697 M386.4569125456117,445.4636678831697 L395.0073733908422,445.4636678831697 M395.0073733908422,445.4636678831697 L403.3759565466651,445.4636678831697 M403.3759565466651,445.4636678831697 L411.4500196959278,445.4636678831697 M411.4500196959278,445.4636678831697 L419.1194688796624,445.4636678831697 M419.1194688796624,445.4636678831697 L423.5337481977234,445.4636678831697 M423.5337481977234,445.4636678831697 L427.7348907693105,445.4636678831697 M427.7348907693105,445.4636678831697 L668.1895305084327,445.4636678831697 M667.8791602493737,542.122485751156 L668.1895305084327,445.4636678831697 M470.32276658028235,466.65410080988534 L470.21322916875,467.9224271372305 M470.21322916875,467.9224271372305 L469.88926844544136,469.1193750460456 M469.88926844544136,469.1193750460456 L469.36955366568884,470.17566874423335 M469.36955366568884,470.17566874423335 L468.6840485641966,471.0300752408444 M468.6840485641966,471.0300752408444 L467.87233570484625,471.632910995012 M467.87233570484625,471.632910995012 L466.98136608294504,471.9489742908522 M466.98136608294504,471.9489742908522 L466.06278423004164,471.9595770780145 M466.06278423004164,471.9595770780145 L465.1699586501044,471.66374308419336 M465.1699586501044,471.66374308419336 L464.3548822362102,471.0783470463372 M464.3548822362102,471.0783470463372 L463.6651273429242,470.23716792258665 M463.6651273429242,470.23716792258665 L463.14103736442473,469.1890334932318 M463.14103736442473,469.1890334932318 L462.813314346381,467.9949578234729 M462.813314346381,467.9949578234729 L462.70118963652914,466.7245887364607 M462.70118963652914,466.7245887364607 L462.8112650179002,465.4521013827414 M462.8112650179002,465.4521013827414 L463.1370899401902,464.251806186157 M463.1370899401902,464.251806186157 L463.6595680806036,463.1937457515479 M463.6595680806036,463.1937457515479 L464.34810267527206,462.3395578079624 M464.34810267527206,462.3395578079624 L465.1624171287101,461.738875843541 M465.1624171287101,461.738875843541 L466.0549644526365,461.42640814044944 M466.0549644526365,461.42640814044944 L466.97373868327105,461.4200190633537 M466.97373868327105,461.4200190633537 L467.8653272450174,461.71971956271994 M467.8653272450174,461.71971956271994 L468.6780206323918,462.30774914457527 M468.6780206323918,462.30774914457527 L469.36479241053144,463.1497255235687 M469.36479241053144,463.1497255235687 L469.8859825926582,464.19663828617576 M469.8859825926582,464.19663828617576 L470.2115534176605,465.38775323843237 M470.2115534176605,465.38775323843237 L470.32276658028235,466.65410080988534 M639.197016558568,465.0922723561696 L639.0992094478453,466.26708159064043 M639.0992094478453,466.26708159064043 L638.817646943573,467.37561606823476 M638.817646943573,467.37561606823476 L638.3685659702487,468.35369755709246 M638.3685659702487,468.35369755709246 L637.7778738646606,469.1446165574543 M637.7778738646606,469.1446165574543 L637.0796958957482,469.70238231087257 M637.0796958957482,469.70238231087257 L636.3144310555303,469.9944370422057 M636.3144310555303,469.9944370422057 L635.5264471279305,470.0035323948356 M635.5264471279305,470.0035323948356 L634.7615271838469,469.7288308719041 M634.7615271838469,469.7288308719041 L634.0642100312066,469.1860252825189 M634.0642100312066,469.1860252825189 L633.4751832103287,468.4064529091779 M633.4751832103287,468.4064529091779 L633.0288835340059,467.4353704342897 M633.0288835340059,467.4353704342897 L632.7514414102498,466.3292996002968 M632.7514414102498,466.3292996002968 L632.6591272440128,465.1527378300949 M632.6591272440128,465.1527378300949 L632.7573733909477,463.9743594197804 M632.7573733909477,463.9743594197804 L633.0404262984775,462.86295459977487 M633.0404262984775,462.86295459977487 L633.4917076074449,461.8833591536098 M633.4917076074449,461.8833591536098 L634.0848059295517,461.0926294107648 M634.0848059295517,461.0926294107648 L634.7850447516739,460.5367127864892 M634.7850447516739,460.5367127864892 L635.5515529656806,460.24774342027087 M635.5515529656806,460.24774342027087 L636.3396779456006,460.24226286684456 M636.3396779456006,460.24226286684456 L637.1036043069629,460.5202805057139 M637.1036043069629,460.5202805057139 L637.7990208611361,461.06534385623996 M637.7990208611361,461.06534385623996 L638.3856754699846,461.84559839810333 M638.3856754699846,461.84559839810333 L638.8296747752728,462.8156311798628 M638.8296747752728,462.8156311798628 L639.1054153371697,463.9191609332932 M639.1054153371697,463.9191609332932 L639.197016558568,465.0922723561696 M668.1895305084327,445.4636678831697 L672.8158897043635,445.4636678831697 M672.8158897043635,445.4636678831697 L676.9028264020296,445.4636678831697 M676.9028264020296,445.4636678831697 L680.4079612200861,445.4636678831697 M680.4079612200861,445.4636678831697 L683.3049482415582,445.4636678831697 M683.3049482415582,445.4636678831697 L685.57441267934,445.4636678831697 M685.57441267934,445.4636678831697 L687.2062105632056,445.4636678831697 M687.2062105632056,445.4636678831697 L688.1988639525177,445.4636678831697 M688.1988639525177,445.4636678831697 L688.5587562225504,445.4636678831697 M688.5587562225504,445.4636678831697 L688.2990992475893,445.4636678831697 M688.2990992475893,445.4636678831697 L687.4387788119168,445.4636678831697 M687.4387788119168,445.4636678831697 L686.001114453053,445.4636678831697 M686.001114453053,445.4636678831697 L684.0126946575289,445.4636678831697 M684.0126946575289,445.4636678831697 L681.5022833067419,445.4636678831697 M681.5022833067419,445.4636678831697 L678.4999130036945,445.4636678831697 M678.4999130036945,445.4636678831697 L675.0361928515254,445.4636678831697 M675.0361928515254,445.4636678831697 L671.4872886739263,445.4636678831697 M671.4872886739263,445.4636678831697 L667.5946541785697,445.4636678831697 M316.82899693553424,445.4636678831697 L312.62577806832127,445.4636678831697 M312.62577806832127,445.4636678831697 L309.15882636043614,445.4636678831697 M309.15882636043614,445.4636678831697 L306.423752931233,445.4636678831697 M306.423752931233,445.4636678831697 L304.4572981078886,445.4636678831697 M304.4572981078886,445.4636678831697 L303.2808060105087,445.4636678831697 M303.2808060105087,445.4636678831697 L302.91412257899697,445.4636678831697 M302.91412257899697,445.4636678831697 L303.18430518224716,445.4636678831697 M303.18430518224716,445.4636678831697 L304.27756016497267,445.4636678831697 M304.27756016497267,445.4636678831697 L306.2147069454803,445.4636678831697 M306.2147069454803,445.4636678831697 L308.45599465403575,445.4636678831697 M308.45599465403575,445.4636678831697 L311.92084152170776,445.4636678831697 M311.92084152170776,445.4636678831697 L314.1101954814991,445.4636678831697 M314.1101954814991,445.4636678831697 L316.49311517148914,445.4636678831697 M427.9916879837783,445.4636678831697 L421.4691849322622,445.4636678831697 M421.4691849322622,445.4636678831697 L414.47930499213567,445.4636678831697 M414.47930499213567,445.4636678831697 L407.1387072099404,445.4636678831697 M407.1387072099404,445.4636678831697 L399.52453235708595,445.4636678831697 M399.52453235708595,445.4636678831697 L391.7326108712163,445.4636678831697 M391.7326108712163,445.4636678831697 L383.859293106965,445.4636678831697 M383.859293106965,445.4636678831697 L375.99988759842256,445.4636678831697 M375.99988759842256,445.4636678831697 L368.2495946016622,445.4636678831697 M368.2495946016622,445.4636678831697 L360.6918178644038,445.4636678831697 M360.6918178644038,445.4636678831697 L353.56761633022984,445.4636678831697 M353.56761633022984,445.4636678831697 L346.6069310794989,445.4636678831697 M346.6069310794989,445.4636678831697 L340.92631053010047,445.4636678831697 M340.92631053010047,445.4636678831697 L334.7331175260202,445.4636678831697 M334.7331175260202,445.4636678831697 L329.01585971366313,445.4636678831697 M329.01585971366313,445.4636678831697 L323.8050435972777,445.4636678831697 M323.8050435972777,445.4636678831697 L320.1644118477684,445.4636678831697 M320.1644118477684,445.4636678831697 L316.82899693553424,445.4636678831697 M661.348452715009,445.4636678831697 L427.9916879837783,445.4636678831697 M664.555518211781,445.4636678831697 L668.8727029672742,445.4636678831697 M668.8727029672742,445.4636678831697 L672.6600500721183,445.4636678831697 M672.6600500721183,445.4636678831697 L675.9177026303342,445.4636678831697 M675.9177026303342,445.4636678831697 L678.5986906652153,445.4636678831697 M678.5986906652153,445.4636678831697 L680.6693848812605,445.4636678831697 M680.6693848812605,445.4636678831697 L682.0948352833998,445.4636678831697 M682.0948352833998,445.4636678831697 L682.7210678794422,445.4636678831697 M682.7210678794422,445.4636678831697 L682.9271669370395,445.4636678831697 M682.9271669370395,445.4636678831697 L682.392881671537,445.4636678831697 M682.392881671537,445.4636678831697 L681.3711901513259,445.4636678831697 M681.3711901513259,445.4636678831697 L679.4222731727594,445.4636678831697 M679.4222731727594,445.4636678831697 L676.6835297468555,445.4636678831697 M676.6835297468555,445.4636678831697 L673.1615386280033,445.4636678831697 M673.1615386280033,445.4636678831697 L668.8788806915311,445.4636678831697 M668.8788806915311,445.4636678831697 L665.2849763342872,445.4636678831697 M665.2849763342872,445.4636678831697 L661.348452715009,445.4636678831697 M591.3304955251856,445.4636678831697 L597.6700337510694,445.4636678831697 M597.6700337510694,445.4636678831697 L604.2545851843828,445.4636678831697 M604.2545851843828,445.4636678831697 L610.3082220002184,445.4636678831697 M610.3082220002184,445.4636678831697 L616.7834585468527,445.4636678831697 M616.7834585468527,445.4636678831697 L623.1764115281703,445.4636678831697 M623.1764115281703,445.4636678831697 L629.2305893085639,445.4636678831697 M629.2305893085639,445.4636678831697 L635.3015563991784,445.4636678831697 M635.3015563991784,445.4636678831697 L641.1396341594372,445.4636678831697 M641.1396341594372,445.4636678831697 L646.0364547023546,445.4636678831697 M646.0364547023546,445.4636678831697 L651.3381467368071,445.4636678831697 M651.3381467368071,445.4636678831697 L656.3108229983692,445.4636678831697 M656.3108229983692,445.4636678831697 L660.5761308240735,445.4636678831697 M660.5761308240735,445.4636678831697 L664.555518211781,445.4636678831697 M569.7138522042613,529.1807193420532 L336.81097132833395,538.0763931537438 M336.81097132833395,538.0763931537438 L336.62956388756515,482.697070844572 M569.7138522042613,529.1807193420532 L569.7782941315809,479.1172060891188 M336.81097132833395,538.0763931537438 L330.7866714346045,538.3245146895715 M330.7866714346045,538.3245146895715 L325.226188648572,538.5909972254017 M325.226188648572,538.5909972254017 L320.2023382634602,538.8724944451661 M320.2023382634602,538.8724944451661 L315.7652830083594,539.1660967215249 M315.7652830083594,539.1660967215249 L311.9605029882233,539.4685280677502 M311.9605029882233,539.4685280677502 L308.8232238006585,539.7764477021467 M308.8232238006585,539.7764477021467 L306.3779874564836,540.0865408157722 M306.3779874564836,540.0865408157722 L304.63898143343494,540.3955969664512 M304.63898143343494,540.3955969664512 L303.61073822563986,540.7005762014753 M303.61073822563986,540.7005762014753 L303.28918213273687,540.9986644595047 M303.28918213273687,540.9986644595047 L303.6631210123152,541.2873022071906 M303.6631210123152,541.2873022071906 L304.71580746549864,541.5641960642953 M304.71580746549864,541.5641960642953 L306.4264757998846,541.8273119117753 M306.4264757998846,541.8273119117753 L308.77187687890773,542.0748453030529 M308.77187687890773,542.0748453030529 L311.72738022406077,542.3051822419317 M311.72738022406077,542.3051822419317 L314.2975380043529,542.4639748242689 M314.2975380043529,542.4639748242689 L317.1846169479422,542.612207437631 M317.1846169479422,542.612207437631 L316.82899693553424,445.4636678831697 M664.2937962967819,528.8167980895603 L659.512366231457,528.6699595921265 M659.512366231457,528.6699595921265 L654.3088461265492,528.5442750211159 M654.3088461265492,528.5442750211159 L648.7040737778551,528.4403419661406 M648.7040737778551,528.4403419661406 L642.7400044776471,528.3593148084833 M642.7400044776471,528.3593148084833 L636.4556041029703,528.3022237719483 M636.4556041029703,528.3022237719483 L629.8950332547677,528.2701175386354 M629.8950332547677,528.2701175386354 L623.1092412185884,528.264003718001 M623.1092412185884,528.264003718001 L616.1570971628245,528.2847734864251 M616.1570971628245,528.2847734864251 L609.1058397330647,528.333116916019 M609.1058397330647,528.333116916019 L602.0309480469381,528.4094316648011 M602.0309480469381,528.4094316648011 L595.0152740050806,528.513737713861 M595.0152740050806,528.513737713861 L588.1474342705994,528.6456041286076 M588.1474342705994,528.6456041286076 L581.5196549171984,528.8040940641621 M581.5196549171984,528.8040940641621 L575.4105379048164,528.9818024252498 M575.4105379048164,528.9818024252498 L569.7138522042613,529.1807193420532 M664.2937962967819,528.8167980895603 L664.555518211781,445.4636678831697 M470.32276658028235,466.65410080988534 L469.7147534980669,466.62516051743063 M469.7147534980669,466.62516051743063 L469.1083989074792,466.59629916609447 M469.1083989074792,466.59629916609447 L468.92810921740477,468.68336084591743 M468.92810921740477,468.68336084591743 L468.39473643937504,470.65326656414504 M468.39473643937504,470.65326656414504 L467.5388411901206,472.39230978528246 M467.5388411901206,472.39230978528246 L466.40952573003744,473.7998353878356 M466.40952573003744,473.7998353878356 L465.07173222707945,474.7939903019329 M465.07173222707945,474.7939903019329 L463.6025947001901,475.31651568669355 M463.6025947001901,475.31651568669355 L462.0871208341031,475.3362032682199 M462.0871208341031,475.3362032682199 L460.6133475912065,474.8509319804607 M460.6133475912065,474.8509319804607 L459.2672054233251,473.88801524596056 M459.2672054233251,473.88801524596056 L458.1274706121459,472.50278631709796 M458.1274706121459,472.50278631709796 L457.2610871155031,470.7755657477549 M457.2610871155031,470.7755657477549 L456.71908229176114,468.8070134653892 M456.71908229176114,468.8070134653892 L456.5334519492306,466.7122195172142 M456.5334519492306,466.7122195172142 L456.7152029258187,464.61386691341943 M456.7152029258187,464.61386691341943 L457.25364165422417,462.6348784154243 M457.25364165422417,462.6348784154243 L458.1170470196172,460.89104131802617 M458.1170470196172,460.89104131802617 L459.2545962614104,459.48410896130054 M459.2545962614104,459.48410896130054 L460.5994608792362,458.4957984326101 M460.5994608792362,458.4957984326101 L462.0728870291656,457.98302969989226 M462.0728870291656,457.98302969989226 L463.58888455684814,457.9747759780333 M463.58888455684814,457.9747759780333 L465.05929653455405,458.4705389045603 M465.05929653455405,458.4705389045603 L466.39896254267785,459.44060161633934 M466.39896254267785,459.44060161633934 L467.5305898274258,460.8279938342754 M467.5305898274258,460.8279938342754 L468.3890918278824,462.5518993385461 M468.3890918278824,462.5518993385461 L468.925246760685,464.5124176369492 M468.925246760685,464.5124176369492 L469.1083989074792,466.59629916609447 M639.197016558568,465.0922723561696 L638.4201016962111,465.0674384050286 M638.4201016962111,465.0674384050286 L637.6451502425275,465.0426672139113 M637.6451502425275,465.0426672139113 L637.4841217667023,466.9762311453794 M637.4841217667023,466.9762311453794 L637.020389907572,468.80097364967276 M637.020389907572,468.80097364967276 L636.2805549125414,470.4115144111981 M636.2805549125414,470.4115144111981 L635.3071038203173,471.7146076419382 M635.3071038203173,471.7146076419382 L634.1560628074405,472.6344759526043 M634.1560628074405,472.6344759526043 L632.8938392274309,473.11724636710215 M632.8938392274309,473.11724636710215 L631.5934945159681,473.13413919718795 M631.5934945159681,473.13413919718795 L630.3305743563845,472.68333439605016 M630.3305743563845,472.68333439605016 L629.178700093141,471.790269576434 M629.178700093141,471.790269576434 L628.2052475596945,470.50630740041197 M628.2052475596945,470.50630740041197 L627.4673531078403,468.9059103660732 M627.4673531078403,468.9059103660732 L627.0084369274501,467.08232853373175 M627.0084369274501,467.08232853373175 L626.8555615561411,465.1421294949942 M626.8555615561411,465.1421294949942 L627.0177829369907,463.1988782568004 M627.0177829369907,463.1988782568004 L627.4855663620602,461.3663452401018 M627.4855663620602,461.3663452401018 L628.2313834608611,459.7516954753893 M628.2313834608611,459.7516954753893 L629.211376750154,458.4491160751415 M629.211376750154,458.4491160751415 L630.3680212575586,457.5342666533558 M630.3680212575586,457.5342666533558 L631.6336259999733,457.05987042548713 M631.6336259999733,457.05987042548713 L632.9343549577693,457.0527887153686 M632.9343549577693,457.0527887153686 L634.1945744205892,457.512593898029 M634.1945744205892,457.512593898029 L635.3412817478466,458.41178653731896 M635.3412817478466,458.41178653731896 L636.3082847255068,459.69760018824434 M636.3082847255068,459.69760018824434 L637.0399245663385,461.29514813431894 M637.0399245663385,461.29514813431894 L637.4942139506513,463.11183300449 M637.4942139506513,463.11183300449 L637.6451502425275,465.0426672139113 M317.1846169479422,542.612207437631 L322.06332556029724,542.8124371818769 M322.06332556029724,542.8124371818769 L327.5729816934262,542.9850433940767 M327.5729816934262,542.9850433940767 L333.68879685666445,543.1286375105389 M333.68879685666445,543.1286375105389 L340.36072539422577,543.2411291982812 M340.36072539422577,543.2411291982812 L347.5384671116324,543.3206781358372 M347.5384671116324,543.3206781358372 L355.1626225411052,543.3655191597277 M355.1626225411052,543.3655191597277 L363.1627539489827,543.374066601557 M363.1627539489827,543.374066601557 L371.45614476614753,543.3450405873963 M371.45614476614753,543.3450405873963 L379.9476023011704,543.2776028852379 M379.9476023011704,543.2776028852379 L388.53022052984306,543.1714944523483 M388.53022052984306,543.1714944523483 L397.08731887952354,543.0271527111187 M397.08731887952354,543.0271527111187 L405.4955028606386,542.8457967897373 M405.4955028606386,542.8457967897373 L413.6285135353373,542.6294703251343 M413.6285135353373,542.6294703251343 L421.1337979946432,542.3890217564684 M421.1337979946432,542.3890217564684 L428.13537791852787,542.122485751156 M428.13537791852787,542.122485751156 L427.9916879837783,445.4636678831697 M428.13537791852787,542.122485751156 L661.0807077531564,532.4730518630303 M661.0807077531564,532.4730518630303 L661.348452715009,445.4636678831697 M661.0807077531564,532.4730518630303 L665.8992835114133,532.255178319353 M665.8992835114133,532.255178319353 L670.1737872764735,532.0236769821539 M670.1737872764735,532.0236769821539 L673.8527517750573,531.7818922705274 M673.8527517750573,531.7818922705274 L676.9073073770442,531.532679686346 M676.9073073770442,531.532679686346 L679.3165584942722,531.2790863788803 M679.3165584942722,531.2790863788803 L681.0710605550852,531.0240778472436 M681.0710605550852,531.0240778472436 L682.1721305178635,530.7704587759977 M682.1721305178635,530.7704587759977 L682.6305064359002,530.5208134932011 M682.6305064359002,530.5208134932011 L682.4647775096134,530.2774642590693 M682.4647775096134,530.2774642590693 L681.6996473711423,530.0424441687318 M681.6996473711423,530.0424441687318 L680.3640324230879,529.8174951073956 M680.3640324230879,529.8174951073956 L678.489306071092,529.6040804042552 M678.489306071092,529.6040804042552 L676.1077658485268,529.4034114016933 M676.1077658485268,529.4034114016933 L673.2512953093766,529.2164894585319 M673.2512953093766,529.2164894585319 L669.9505200195752,529.0441522815261 M669.9505200195752,529.0441522815261 L667.2336569817844,528.9262310157351 M667.2336569817844,528.9262310157351 L664.2937962967819,528.8167980895603" stroke="black"  stroke-width="4"  fill="red"/>
<path d="M470.7127666523402,466.67266417076536 L470.6259495916025,467.678056484938 M470.6259495916025,467.678056484938 L470.36919424626564,468.62681389087925 M470.36919424626564,468.62681389087925 L469.9573244820569,469.4639966563484 M469.9573244820569,469.4639966563484 L469.4141289860978,470.1410275860962 M469.4141289860978,470.1410275860962 L468.7710188205566,470.6185584969108 M468.7710188205566,470.6185584969108 L468.0652238119302,470.868717738306 M468.0652238119302,470.868717738306 L467.337679184071,470.8767767550918 M467.337679184071,470.8767767550918 L466.6306565495594,470.64204107417885 M466.6306565495594,470.64204107417885 L465.98531342457346,470.1779424005389 M465.98531342457346,470.1779424005389 L465.4392767250412,469.511314921505 M465.4392767250412,469.511314921505 L465.0244451331783,468.68084747013705 M465.0244451331783,468.68084747013705 L464.7650833114226,467.73488727796905 M464.7650833114226,467.73488727796905 L464.6763821235778,466.7285499113528 M464.6763821235778,466.7285499113528 L464.76353685154675,465.72054475081336 M464.76353685154675,465.72054475081336 L465.02146223095644,464.76968548404807 M465.02146223095644,464.76968548404807 L465.43506634136975,463.93139331157306 M465.43506634136975,463.93139331157306 L465.9801631760973,463.2544996228521 M465.9801631760973,463.2544996228521 L466.62490608628946,462.7783211238363 M466.62490608628946,462.7783211238363 L467.3316912217607,462.5304196663439 M467.3316912217607,462.5304196663439 L468.05935652726527,462.52500656656616 M468.05935652726527,462.52500656656616 L468.7656027446718,462.7621701524354 M468.7656027446718,462.7621701524354 L469.4094502303708,463.2279225090193 M469.4094502303708,463.2279225090193 L469.9536146848409,463.89505063131384 M469.9536146848409,463.89505063131384 L470.36662634407907,464.72475096167074 M470.36662634407907,464.72475096167074 L470.62463747544143,465.6688520432041 M470.62463747544143,465.6688520432041 L470.7127666523402,466.67266417076536 M470.7127666523402,466.67266417076536 L469.93344861320503,466.63556991607857 M469.93344861320503,466.63556991607857 L469.15684624107035,466.5986051362535 M469.15684624107035,466.5986051362535 L468.3829507587809,466.56176931398795 M468.3829507587809,466.56176931398795 L468.15677010161363,463.9894733793525 M468.15677010161363,463.9894733793525 L467.49464770917035,461.5691226840473 M467.49464770917035,461.5691226840473 L466.4343120194656,459.4403375347913 M466.4343120194656,459.4403375347913 L465.0363615349752,457.72639778779643 M465.0363615349752,457.72639778779643 L463.3809891189089,456.52718593497355 M463.3809891189089,456.52718593497355 L461.56355564832194,455.9133128853063 M461.56355564832194,455.9133128853063 L459.68922456757076,455.92182859415396 M459.68922456757076,455.92182859415396 L457.8670046362648,456.5537304661944 M457.8670046362648,456.5537304661944 L456.20333715692163,457.7735634349189 M456.20333715692163,457.7735634349189 L454.79583523854524,459.5112126041515 M454.79583523854524,459.5112126041515 L453.72738733132496,461.665775577467 M453.72738733132496,461.665775577467 L453.06105582275234,464.11141458182624 M453.06105582275234,464.11141458182624 L452.8362552234198,466.7048048700536 M452.8362552234198,466.7048048700536 L453.0662207929391,469.2937484062578 M453.0662207929391,469.2937484062578 L453.737282577417,471.72635545387607 M453.737282577417,471.72635545387607 L454.8096479065149,473.8601980950058 M454.8096479065149,473.8601980950058 L456.2199786301392,475.5708377219161 M456.2199786301392,475.5708377219161 L457.88523985687874,476.75914800462493 M457.88523985687874,476.75914800462493 L459.7078053592247,477.3570155038025 M459.7078053592247,477.3570155038025 L461.581336059956,477.3310567635712 M461.581336059956,477.3310567635712 L463.3970065570606,476.6842704924191 M463.3970065570606,476.6842704924191 L465.04987586809096,475.45552141716774 M465.04987586809096,475.45552141716774 L466.4448045674605,473.71696708929755 M466.4448045674605,473.71696708929755 L467.5017904618088,471.5697173067943 M467.5017904618088,471.5697173067943 L468.1603807832553,469.137934622046 M468.1603807832553,469.137934622046 L468.3829507587809,466.56176931398795 M470.7127666523402,466.67266417076536 L534.4885793095792,467.28078465582587 M534.4885793095792,467.28078465582587 L534.4004884491783,468.31501648358096 M534.4004884491783,468.31501648358096 L534.1425259421869,469.29104200819614 M534.1425259421869,469.29104200819614 L533.7295826905955,470.1523477871503 M533.7295826905955,470.1523477871503 L533.1855054202261,470.8489597352076 M533.1855054202261,470.8489597352076 L532.5417517743283,471.34039136827465 M532.5417517743283,471.34039136827465 L531.8355851091541,471.59795641388536 M531.8355851091541,471.59795641388536 L531.1079600405507,471.6064848082586 M531.1079600405507,471.6064848082586 L530.4011528286852,471.3652416374777 M530.4011528286852,471.3652416374777 L529.7563106360604,470.888024594634 M529.7563106360604,470.888024594634 L529.2110351223723,470.20242206881943 M529.2110351223723,470.20242206881943 L528.7971854244933,469.348222787207 M528.7971854244933,469.348222787207 L528.5389735383139,468.3751574657764 M528.5389735383139,468.3751574657764 L528.4515266651013,467.3399256068501 M528.4515266651013,467.3399256068501 L528.5399683176254,466.3029286781373 M528.5399683176254,466.3029286781373 L528.7991373029123,465.3246785612674 M528.7991373029123,465.3246785612674 L529.2138663149232,464.46219828087266 M529.2138663149232,464.46219828087266 L529.7598995297368,463.76573103117255 M529.7598995297368,463.76573103117255 L530.4053312076007,463.2757301083773 M530.4053312076007,463.2757301083773 L531.1125135943497,463.0205540503115 M531.1125135943497,463.0205540503115 L531.8402593792136,463.01482562415976 M531.8402593792136,463.01482562415976 L532.5462646476432,463.2586383076391 M532.5462646476432,463.2586383076391 L533.1895659575812,463.7376057567716 M533.1895659575812,463.7376057567716 L533.7329146298923,464.42373860786336 M533.7329146298923,464.42373860786336 L534.1448929535641,465.27712660734255 M534.1448929535641,465.27712660734255 L534.4017176472787,466.24822493270545 M534.4017176472787,466.24822493270545 L534.4885793095792,467.28078465582587" stroke="black"  stroke-width="4"  fill="red"/>
<path d="M639.6952741966863,465.108199127915 L639.6177612242392,466.03940134221335 M639.6177612242392,466.03940134221335 L639.3946339743368,466.91802470342026 M639.3946339743368,466.91802470342026 L639.0387816232933,467.6931784507052 M639.0387816232933,467.6931784507052 L638.5707674737808,468.31987803474703 M638.5707674737808,468.31987803474703 L638.0176659940009,468.7617011212003 M638.0176659940009,468.7617011212003 L637.4115058959774,468.9928678211055 M637.4115058959774,468.9928678211055 L636.7874497233595,468.99978049556955 M636.7874497233595,468.99978049556955 L636.1817575655211,468.78184344108365 M636.1817575655211,468.78184344108365 L635.629684740349,468.3515418910896 M635.629684740349,468.3515418910896 L635.1634125835757,467.7337658348285 M635.1634125835757,467.7337658348285 L634.810170662302,466.9643720541534 M634.810170662302,466.9643720541534 L634.5906119124398,466.0881478701867 M634.5906119124398,466.0881478701867 L634.5175894929662,465.1561348985434 M634.5175894929662,465.1561348985434 L634.5953780095971,464.22269165613517 M634.5953780095971,464.22269165613517 L634.8194405827487,463.34226606410266 M634.8194405827487,463.34226606410266 L635.1766737539277,462.56616171594254 M635.1766737539277,462.56616171594254 L635.6461978897885,461.93958096868823 M635.6461978897885,461.93958096868823 L636.2005925923173,461.49891890104135 M636.2005925923173,461.49891890104135 L636.8075329022255,461.2696894460122 M636.8075329022255,461.2696894460122 L637.4316775344579,461.26504643617716 M637.4316775344579,461.26504643617716 L638.0367461347738,461.48506562424194 M638.0367461347738,461.48506562424194 L638.5876262386855,461.9167847796197 M638.5876262386855,461.9167847796197 L639.0524097354511,462.53498917493187 M639.0524097354511,462.53498917493187 L639.4042080996701,463.303723872652 M639.4042080996701,463.303723872652 L639.6226991008944,464.17835257105435 M639.6226991008944,464.17835257105435 L639.6952741966863,465.108199127915 M639.6952741966863,465.108199127915 L638.6995661890967,465.07637138871195 M638.6995661890967,465.07637138871195 L637.7070688680124,465.04464661621967 M637.7070688680124,465.04464661621967 L636.7177877505288,465.01302431157995 M636.7177877505288,465.01302431157995 L636.5313309508537,462.62936573312516 M636.5313309508537,462.62936573312516 L635.9701586141211,460.38634229401873 M635.9701586141211,460.38634229401873 L635.0663039493611,458.41341585514607 M635.0663039493611,458.41341585514607 L633.8714675243845,456.82486998823936 M633.8714675243845,456.82486998823936 L632.4542577334275,455.713260783122 M632.4542577334275,455.713260783122 L630.8963650226449,455.1439776713751 M630.8963650226449,455.1439776713751 L629.2879590056781,455.15128519430425 M629.2879590056781,455.15128519430425 L627.7225749321989,455.73603928426576 M627.7225749321989,455.73603928426576 L626.2916127047864,456.86534409341095 M626.2916127047864,456.86534409341095 L625.0789694561686,458.47423592965 M625.0789694561686,458.47423592965 L624.155980833081,460.4692835934911 M624.155980833081,460.4692835934911 L623.5770720130832,462.73400853987465 M623.5770720130832,462.73400853987465 L623.3764250259751,465.1357699607528 M623.3764250259751,465.1357699607528 L623.5658440997478,467.5337172729478 M623.5658440997478,467.5337172729478 L624.1340788083075,469.78726408537585 M624.1340788083075,469.78726408537585 L625.047491698776,471.76453765084403 M625.047491698776,471.76453765084403 L626.252178774709,473.35025865055036 M626.252178774709,473.35025865055036 L627.6772799238032,474.45251816266256 M627.6772799238032,474.45251816266256 L629.2392969250084,475.00806870040014 M629.2392969250084,475.00806870040014 L630.8471153791518,474.9857915412515 M630.8471153791518,474.9857915412515 L632.4073346408337,474.38826023066457 M632.4073346408337,474.38826023066457 L633.8297379479701,473.25129757554294 M633.8297379479701,473.25129757554294 L635.0323888801648,471.6416216552234 M635.0323888801648,471.6416216552234 L635.9462359756013,469.6528434124928 M635.9462359756013,469.6528434124928 L636.5189620301983,467.4000050078478 M636.5189620301983,467.4000050078478 L636.7177877505288,465.01302431157995 M639.6952741966863,465.108199127915 L703.1203613333598,465.62881231947125 M703.1203613333598,465.62881231947125 L703.0419114137973,466.58470256812325 M703.0419114137973,466.58470256812325 L702.8185284548742,467.48666206417056 M702.8185284548742,467.48666206417056 L702.4631144790853,468.2824525895831 M702.4631144790853,468.2824525895831 L701.9962046043099,468.92589422030994 M701.9962046043099,468.92589422030994 L701.4448062388832,469.3795913869379 M701.4448062388832,469.3795913869379 L700.840846814625,469.6170687491019 M700.840846814625,469.6170687491019 L700.219359702984,469.6243531149308 M700.219359702984,469.6243531149308 L699.6164557745727,469.40081675534617 M699.6164557745727,469.40081675534617 L699.0672297256325,468.9592606515279 M699.0672297256325,468.9592606515279 L698.6036999013563,468.32522239774056 M698.6036999013563,468.32522239774056 L698.252939385583,467.53550159810885 M698.252939385583,467.53550159810885 L698.035459568185,466.6360703349699 M698.035459568185,466.6360703349699 L697.9639946650838,465.6793257813458 M697.9639946650838,465.6793257813458 L698.0427293868148,464.7210739501294 M698.0427293868148,464.7210739501294 L698.2670710272254,463.817215088782 M698.2670710272254,463.817215088782 L698.6238979303221,463.0204224983858 M698.6238979303221,463.0204224983858 L699.0923512920735,462.37710570243803 M699.0923512920735,462.37710570243803 L699.6450700995625,461.92463163888686 M699.6450700995625,461.92463163888686 L700.2498244384161,461.68919547040133 M700.2498244384161,461.68919547040133 L700.8713988275148,461.68430276877416 M700.8713988275148,461.68430276877416 L701.4736624022055,461.9100333638151 M701.4736624022055,461.9100333638151 L702.0216671675195,462.3530835957588 M702.0216671675195,462.3530835957588 L702.4836745461936,462.987573602736 M702.4836745461936,462.987573602736 L702.8329602361558,463.7766002594712 M702.8329602361558,463.7766002594712 L703.0493507163565,464.6743505364722 M703.0493507163565,464.6743505364722 L703.1203613333598,465.62881231947125" stroke="black"  stroke-width="4"  fill="red"/></svg>