<svg viewBox="0 0 1000 1000" xmlns="http://www.w3.org/2000/svg"><path d="M1512.0461891316304,92.63679883774239 L-1986.7141131481349,1570.4072141153288 M-1986.7141131481349,1570.4072141153288 L-1994.4247189586135,673.793111127939 M-1994.4247189586135,673.793111127939 L-1927.965437523132,706.5334201751051 M-1927.965437523132,706.5334201751051 L-1857.371175364763,729.1669407608333 M-1857.371175364763,729.1669407608333 L-1783.3046615010944,741.5029362313903 M-1783.3046615010944,741.5029362313903 L-1706.4581935278156,743.4466880017893 M-1706.4581935278156,743.4466880017893 L-1627.5468527682942,734.9992242132342 M-1627.5468527682942,734.9992242132342 L-1547.3024204051628,716.2572102281196 M-1547.3024204051628,716.2572102281196 L-1466.4660003708057,687.4108290377682 M1008.7081311851924,-347.28915363556723 L-1466.4660003708057,687.4108290377682 M1008.7081311851924,-347.28915363556723 L1086.8423525119138,-384.81228529759187 M1086.8423525119138,-384.81228529759187 L1164.1950619298282,-431.67570995539154 M1164.1950619298282,-431.67570995539154 L1240.0582668618622,-487.43681899921876 M1240.0582668618622,-487.43681899921876 L1313.739027916688,-551.573819002213 M1313.739027916688,-551.573819002213 L1384.5660729282863,-623.4906817920471 M1384.5660729282863,-623.4906817920471 L1451.894974245539,-702.5227898347252 M1451.894974245539,-702.5227898347252 L1515.113839261791,-787.9427375494581 M1512.0461891316304,92.63679883774239 L1515.113839261791,-787.9427375494581 M-1986.7141131481349,1570.4072141153288 L-2064.388842050922,1606.0495460226202 M-2064.388842050922,1606.0495460226202 L-2134.831232119346,1644.2872654256194 M-2134.831232119346,1644.2872654256194 L-2197.258328559742,1684.685934092918 M-2197.258328559742,1684.685934092918 L-2251.1151004377325,1726.8473639566753 M-2251.1151004377325,1726.8473639566753 L-2295.9253525533495,1770.336691028925 M-2295.9253525533495,1770.336691028925 L-2331.3378037620832,1814.7124210604804 M-2331.3378037620832,1814.7124210604804 L-2357.1251470861807,1859.535044288446 M-2357.1251470861807,1859.535044288446 L-2373.1794897596037,1904.3755929171773 M-2373.1794897596037,1904.3755929171773 L-2379.5035456346905,1948.8224236463004 M-2379.5035456346905,1948.8224236463004 L-2376.1990491356237,1992.4869237321263 M-2376.1990491356237,1992.4869237321263 L-2363.4524438878734,2035.0069493638491 M-2363.4524438878734,2035.0069493638491 L-2341.5204310060826,2076.048772575775 M-2341.5204310060826,2076.048772575775 L-2310.715229304996,2115.307148225799 M-2310.715229304996,2115.307148225799 L-2271.391513629117,2152.5037327534455 M-2271.391513629117,2152.5037327534455 L-2223.9357777244404,2187.384498729116 M-2223.9357777244404,2187.384498729116 L-2173.71594417956,2217.084547224674 M-2173.71594417956,2217.084547224674 L-2117.2617168329753,2244.5237694150264 M-2117.2617168329753,2244.5237694150264 L-2041.0869351846868,2274.4557216077137 M-2041.0869351846868,2274.4557216077137 L-1957.0934949121756,2300.479527876626 M-1957.0934949121756,2300.479527876626 L-1865.8442196992046,2322.3846635947393 M-1865.8442196992046,2322.3846635947393 L-1768.1475317373229,2339.912859931619 M-1768.1475317373229,2339.912859931619 L-1664.821950972053,2352.842836204708 M-1664.821950972053,2352.842836204708 L-1556.7708491335943,2360.974125705783 M-1556.7708491335943,2360.974125705783 L-1444.9934535425043,2364.1349869415735 M-1444.9934535425043,2364.1349869415735 L-1330.5909431020918,2362.1924693286446 M-1330.5909431020918,2362.1924693286446 L-1214.7644091721972,2355.0629056453354 M-1214.7644091721972,2355.0629056453354 L-1098.805508414706,2342.7229921689204 M-1098.805508414706,2342.7229921689204 L-984.0796885273012,2325.2200785061596 M-984.0796885273012,2325.2200785061596 L-872.0009153311198,2302.680036305281 M-872.0009153311198,2302.680036305281 L-763.9987385321256,2275.3118235163142 M-763.9987385321256,2275.3118235163142 L-661.4835872881506,2243.4094612931185 M-661.4835872881506,2243.4094612931185 L-602.4991974952072,2221.985505635172 M-602.4991974952072,2221.985505635172 L-546.3718350614613,2199.146545960626 M-546.3718350614613,2199.146545960626 L2952.3959210176063,692.8890495792295 M2952.3959210176063,692.8890495792295 L3026.257603486585,658.2435204676508 M3026.257603486585,658.2435204676508 L3092.633499868467,621.1591902857247 M3092.633499868467,621.1591902857247 L3150.7996013365937,582.0732256367519 M3150.7996013365937,582.0732256367519 L3200.262680969877,541.3845402753366 M3200.262680969877,541.3845402753366 L3240.617756030175,499.5238865865602 M3240.617756030175,499.5238865865602 L3271.5893952305632,456.9242384110264 M3271.5893952305632,456.9242384110264 L3293.028113516283,414.0122245923275 M3293.028113516283,414.0122245923275 L3304.903110571402,371.1998682454306 M3304.903110571402,371.1998682454306 L3307.2910331298235,328.87826053863944 M3307.2910331298235,328.87826053863944 L3300.3622718735132,287.41246011107756 M3300.3622718735132,287.41246011107756 L3284.3650453636974,247.13870391780245 M3284.3650453636974,247.13870391780245 L3259.60978451139,208.3631326025631 M3259.60978451139,208.3631326025631 L3226.4537230643073,171.36234656160195 M3226.4537230643073,171.36234656160195 L3185.287570832159,136.38552389916032 M3185.287570832159,136.38552389916032 L3136.524895651798,103.65745658048229 M3136.524895651798,103.65745658048229 L3085.593939461626,75.84447916315548 M3085.593939461626,75.84447916315548 L3028.900599095702,50.19278493854404 M3028.900599095702,50.19278493854404 L2953.0732502953424,22.25892977591093 M2953.0732502953424,22.25892977591093 L2870.1167795049832,-1.9869126120132705 M2870.1167795049832,-1.9869126120132705 L2780.575794535307,-22.3661603546243 M2780.575794535307,-22.3661603546243 L2685.2261101320846,-38.6541002451163 M2685.2261101320846,-38.6541002451163 L2584.8417123985346,-50.658222617609454 M2584.8417123985346,-50.658222617609454 L2480.268923051398,-58.20250994970911 M2480.268923051398,-58.20250994970911 L2372.437638596155,-61.13419569274333 M2372.437638596155,-61.13419569274333 L2262.368184351605,-59.332584333866976 M2262.368184351605,-59.332584333866976 L2151.170839934034,-52.71838859228012 M2151.170839934034,-52.71838859228012 L2040.0388210481485,-41.26380307357738 M2040.0388210481485,-41.26380307357738 L1930.2346045339548,-25.002107640383997 M1930.2346045339548,-25.002107640383997 L1823.0684781031337,-4.035345666185208 M1823.0684781031337,-4.035345666185208 L1719.8699059412897,21.460714875026838 M1719.8699059412897,21.460714875026838 L1621.9570675337054,51.233677674022374 M1621.9570675337054,51.233677674022374 L1565.63392313809,71.25968963141918 M1565.63392313809,71.25968963141918 L1512.0461891316304,92.63679883774239 M-2117.2617168329753,2244.5237694150264 L-2129.419396256363,904.4463469120756 M-2220.738202484751,361.37541665013293 L-2273.142183875618,403.14649692899934 M-2273.142183875618,403.14649692899934 L-2316.526363843238,446.305313099934 M-2316.526363843238,446.305313099934 L-2350.2349213719835,490.0916116221255 M-2350.2349213719835,490.0916116221255 L-2374.2437924364685,534.2343511152158 M-2374.2437924364685,534.2343511152158 L-2388.4670390450083,578.3143181170767 M-2388.4670390450083,578.3143181170767 L-2392.927540278034,621.9304412062186 M-2392.927540278034,621.9304412062186 L-2387.7451697600472,664.7052220409778 M-2387.7451697600472,664.7052220409778 L-2373.1220120976423,706.2876089775798 M-2373.1220120976423,706.2876089775798 L-2349.3277843009655,746.3546593019014 M-2349.3277843009655,746.3546593019014 L-2316.6853057112066,784.6113384934531 M-2316.6853057112066,784.6113384934531 L-2275.5579957726277,820.7886849020148 M-2275.5579957726277,820.7886849020148 L-2226.339239938351,854.640952996512 M-2226.339239938351,854.640952996512 L-2180.362436416036,880.439470751314 M-2180.362436416036,880.439470751314 L-2129.419396256363,904.4463469120756 M-2220.738202484751,361.37541665013293 L-2195.9099371416587,432.6456617708213 M-2195.9099371416587,432.6456617708213 L-2164.333971435688,498.51430502418214 M-2164.333971435688,498.51430502418214 L-2131.8738950565676,549.3229303209228 M-2131.8738950565676,549.3229303209228 L-2088.4330926483954,600.6951820441732 M-2088.4330926483954,600.6951820441732 L-2044.9891659184477,639.4724497358352 M-2044.9891659184477,639.4724497358352 L-1994.4247189586135,673.793111127939 M-1890.0984886854285,722.9658918480569 L-1817.941427250923,748.199110322139 M-1817.941427250923,748.199110322139 L-1741.965904116937,762.4806929911068 M-1741.965904116937,762.4806929911068 L-1662.9288770290382,765.6909034934195 M-1662.9288770290382,765.6909034934195 L-1581.6149920300877,757.8194375669489 M-1581.6149920300877,757.8194375669489 L-1498.8275843019476,738.9640470828904 M-1498.8275843019476,738.9640470828904 L-1415.3819405274653,709.3293478773145 M-2157.1919770779887,388.6400180645229 L-2133.7289649695795,459.1905257875527 M-2133.7289649695795,459.1905257875527 L-2103.8748776262873,524.2013618555109 M-2103.8748776262873,524.2013618555109 L-2068.6618812212164,580.5168031771447 M-2068.6618812212164,580.5168031771447 L-2026.451321105585,630.3706890886233 M-2026.451321105585,630.3706890886233 L-1977.8749615617403,672.5064301396127 M-1977.8749615617403,672.5064301396127 L-1936.645972394751,699.5016071800674 M-1936.645972394751,699.5016071800674 L-1890.0984886854285,722.9658918480569 M-2220.738202484751,361.37541665013293 L-2157.1919770779887,388.6400180645229 M-1415.3819405274653,709.3293478773145 L-1466.4660003708057,687.4108290377682 M-1415.3819405274653,709.3293478773145 L1059.7999986741552,-326.0747588159189 M1059.7999986741552,-326.0747588159189 L1008.7081311851924,-347.28915363556723 M1857.2836318940927,-1274.1774410497937 L1817.420220198148,-1179.4623549688054 M1817.420220198148,-1179.4623549688054 L1770.4648707044955,-1084.5496842479906 M1770.4648707044955,-1084.5496842479906 L1719.6838610551602,-994.2777071715984 M1719.6838610551602,-994.2777071715984 L1664.2685204797776,-905.4625074747644 M1664.2685204797776,-905.4625074747644 L1606.5886787601917,-820.5670064713358 M1606.5886787601917,-820.5670064713358 L1561.9432257433862,-758.8093720037073 M1561.9432257433862,-758.8093720037073 L1515.6291049986123,-697.5900711362804 M1059.7999986741552,-326.0747588159189 L1140.4535704626949,-364.99412107679143 M1140.4535704626949,-364.99412107679143 L1220.251579043286,-413.8560736855304 M1220.251579043286,-413.8560736855304 L1298.4154547800401,-472.1689512077835 M1298.4154547800401,-472.1689512077835 L1374.1849745138838,-539.3517010353025 M1374.1849745138838,-539.3517010353025 L1446.824156535498,-614.7393866766863 M1446.824156535498,-614.7393866766863 L1515.6291049986123,-697.5900711362804 M1793.7221358669606,-1300.035488697099 L1755.0263887195551,-1204.5728675264784 M1755.0263887195551,-1204.5728675264784 L1709.4665304947782,-1108.731646131845 M1709.4665304947782,-1108.731646131845 L1666.328926141963,-1028.1474445672084 M1666.328926141963,-1028.1474445672084 L1613.5796546069844,-938.4996134278774 M1613.5796546069844,-938.4996134278774 L1565.6760793937353,-863.0799727059921 M1565.6760793937353,-863.0799727059921 L1515.113839261791,-787.9427375494581 M1793.7221358669606,-1300.035488697099 L1857.2836318940927,-1274.1774410497937 M3040.255130274353,-1254.6152787123503 L2964.082482300012,-1282.0958207359565 M2964.082482300012,-1282.0958207359565 L2880.7496607284475,-1305.9481110797367 M2880.7496607284475,-1305.9481110797367 L2790.8037160408485,-1325.9965048298586 M2790.8037160408485,-1325.9965048298586 L2695.0239306127687,-1342.0199708009295 M2695.0239306127687,-1342.0199708009295 L2594.187725080985,-1353.82915363874 M2594.187725080985,-1353.82915363874 L2489.1451598549693,-1361.2509161088265 M2489.1451598549693,-1361.2509161088265 L2380.83022609591,-1364.1349869415733 M2380.83022609591,-1364.1349869415733 L2270.2677325893,-1362.3626365565465 M2270.2677325893,-1362.3626365565465 L2158.572832295038,-1355.855861767638 M2158.572832295038,-1355.855861767638 L2046.943976920709,-1344.5872953782966 M2046.943976920709,-1344.5872953782966 L1936.649185979293,-1328.589653676976 M1936.649185979293,-1328.589653676976 L1864.2793322540795,-1315.297993774402 M1864.2793322540795,-1315.297993774402 L1793.7221358669606,-1300.035488697099 M3028.900599095702,50.19278493854404 L3040.255130274353,-1254.6152787123503 M-546.3718350614613,2199.146545960626 L-551.2281517472211,859.791660086835 M-2129.419396256363,904.4463469120756 L-2052.896146884659,933.9018532842747 M-2052.896146884659,933.9018532842747 L-1968.5168722536487,959.5115238594772 M-1968.5168722536487,959.5115238594772 L-1876.847005099442,981.0681405956229 M-1876.847005099442,981.0681405956229 L-1778.6987334850528,998.3175049806329 M-1778.6987334850528,998.3175049806329 L-1674.894419473323,1011.0418235602858 M-1674.894419473323,1011.0418235602858 L-1566.3416958151552,1019.0437928241487 M-1566.3416958151552,1019.0437928241487 L-1454.0445194059077,1022.1543861343408 M-1454.0445194059077,1022.1543861343408 L-1339.1092931762048,1020.2427606742519 M-1339.1092931762048,1020.2427606742519 L-1222.7428136847157,1013.2265840429602 M-1222.7428136847157,1013.2265840429602 L-1106.2428753896795,1001.0829386831701 M-1106.2428753896795,1001.0829386831701 L-990.9814119747693,983.858447884077 M-990.9814119747693,983.858447884077 L-878.3790984486709,961.6770183398158 M-878.3790984486709,961.6770183398158 L-769.8722558005825,934.7443299178972 M-769.8722558005825,934.7443299178972 L-666.8779775767971,903.349778353559 M-666.8779775767971,903.349778353559 L-607.617881594093,882.266921524389 M-607.617881594093,882.266921524389 L-551.2281517472211,859.791660086835 M-551.2281517472211,859.791660086835 L2963.519354768021,-622.3186597794825 M2952.3959210176063,692.8890495792295 L2963.519354768021,-622.3186597794825 M29.01037751584255,883.3643161819535 L27.512052908596388,900.032368515604 M27.512052908596388,900.032368515604 L23.052345965560846,917.0219067729322 M23.052345965560846,917.0219067729322 L15.890325545106407,933.3467522274482 M15.890325545106407,933.3467522274482 L6.441637994706184,948.0593880251469 M6.441637994706184,948.0593880251469 L-4.7453642638319025,960.3054748850948 M-4.7453642638319025,960.3054748850948 L-17.021432989505456,969.3738782309224 M-17.021432989505456,969.3738782309224 L-29.67391369527934,974.7371962756731 M-29.67391369527934,974.7371962756731 L-41.96797293828536,976.0829870485459 M-41.96797293828536,976.0829870485459 L-53.189219955353565,973.33210817001 M-53.189219955353565,973.33210817001 L-62.685194652495056,966.6430319266011 M-62.685194652495056,966.6430319266011 L-69.90332094182224,956.4035955000977 M-69.90332094182224,956.4035955000977 L-74.42330208035082,943.2082327985925 M-74.42330208035082,943.2082327985925 L-75.98157971281785,927.823718505603 M-75.98157971281785,927.823718505603 L-74.48683134341229,911.1446086790431 M-74.48683134341229,911.1446086790431 L-70.02571878941694,894.1412349167821 M-70.02571878941694,894.1412349167821 L-62.85763293069567,877.8029454694064 M-62.85763293069567,877.8029454694064 L-53.399609555886514,863.080336990306 M-53.399609555886514,863.080336990306 L-42.20213982575308,850.8300335247634 M-42.20213982575308,850.8300335247634 L-29.91686998102739,841.7641354272221 M-29.91686998102739,841.7641354272221 L-17.25856236094171,836.4094707305511 M-17.25856236094171,836.4094707305511 L-4.963385304651581,835.0764989962483 M-4.963385304651581,835.0764989962483 L6.25401437602784,837.8414258098144 M6.25401437602784,837.8414258098144 L15.742057940769485,844.5425607898661 M15.742057940769485,844.5425607898661 L22.949986283514704,854.789304163178 M22.949986283514704,854.789304163178 L27.459838819811637,867.9855481614691 M27.459838819811637,867.9855481614691 L29.01037751584255,883.3643161819535 M2505.870976043665,-165.4754688476345 L2504.287003511371,-149.03347461925205 M2504.287003511371,-149.03347461925205 L2499.8455681061705,-132.29873134458614 M2499.8455681061705,-132.29873134458614 L2492.8046729625466,-116.24264527263449 M2492.8046729625466,-116.24264527263449 L2483.572944180184,-101.79715295796973 M2483.572944180184,-101.79715295796973 L2472.686159866783,-89.8010973851625 M2472.686159866783,-89.8010973851625 L2460.7761625164567,-80.95110263648417 M2460.7761625164567,-80.95110263648417 L2448.5343757360206,-75.76187552234694 M2448.5343757360206,-75.76187552234694 L2436.6717963275796,-74.53572295188962 M2436.6717963275796,-74.53572295188962 L2425.877751613797,-77.34480553986907 M2425.877751613797,-77.34480553986907 L2416.7798690332065,-84.02722844384652 M2416.7798690332065,-84.02722844384652 L2409.9075604092377,-94.1955070689645 M2409.9075604092377,-94.1955070689645 L2405.6609873695643,-107.25931796700684 M2405.6609873695643,-107.25931796700684 L2404.2877744070565,-122.45952219707044 M2404.2877744070565,-122.45952219707044 L2405.8684470407125,-138.91228276694483 M2405.8684470407125,-138.91228276694483 L2410.311329266924,-155.6604491268913 M2410.311329266924,-155.6604491268913 L2417.358086489844,-171.7295399836364 M2417.358086489844,-171.7295399836364 L2426.5987497521755,-186.18463959822202 M2426.5987497521755,-186.18463959822202 L2437.4954941500055,-198.18470393049438 M2437.4954941500055,-198.18470393049438 L2449.4141954288507,-207.0321907297032 M2449.4141954288507,-207.0321907297032 L2461.661436027979,-212.2129675630714 M2461.661436027979,-212.2129675630714 L2473.524969722007,-213.4266634097305 M2473.524969722007,-213.4266634097305 L2484.3152506012257,-210.60397144368574 M2484.3152506012257,-210.60397144368574 L2493.405513451813,-203.90990413774784 M2493.405513451813,-203.90990413774784 L2500.268092091459,-193.7346137563793 M2500.268092091459,-193.7346137563793 L2504.5050538494525,-180.67002998606165 M2504.5050538494525,-180.67002998606165 L2505.870976043665,-165.4754688476345 M2963.519354768021,-622.3186597794825 L3037.7097713617586,-656.405050658007 M3037.7097713617586,-656.405050658007 L3104.379674169012,-692.8906975095244 M3104.379674169012,-692.8906975095244 L3162.801883986187,-731.3454569251965 M3162.801883986187,-731.3454569251965 L3212.4810628950554,-771.3768278665361 M3212.4810628950554,-771.3768278665361 L3253.0105400300117,-812.5609930742442 M3253.0105400300117,-812.5609930742442 L3284.1137965905727,-854.4719590816239 M3284.1137965905727,-854.4719590816239 L3305.6408380909206,-896.6899847434386 M3305.6408380909206,-896.6899847434386 L3317.5608936663184,-938.8097084240535 M3317.5608936663184,-938.8097084240535 L3319.9511217341933,-980.4463714391325 M3319.9511217341933,-980.4463714391325 L3312.9828397720294,-1021.2408352630296 M3312.9828397720294,-1021.2408352630296 L3296.9055322291924,-1060.8623243973354 M3296.9055322291924,-1060.8623243973354 L3272.0311613736358,-1099.0096790356392 M3272.0311613736358,-1099.0096790356392 L3238.7186862106328,-1135.4108065983546 M3238.7186862106328,-1135.4108065983546 L3197.3606745437355,-1169.8205966920448 M3197.3606745437355,-1169.8205966920448 L3148.372636756051,-1202.0179328344839 M3148.372636756051,-1202.0179328344839 L3097.2077140263355,-1229.3797665619181 M3097.2077140263355,-1229.3797665619181 L3040.255130274353,-1254.6152787123503 M-2075.9400046025967,882.1112266469952 L-2138.647722763222,851.3883596614279 M-2138.647722763222,851.3883596614279 L-2191.891304133718,817.6235505881745 M-2191.891304133718,817.6235505881745 L-2235.6967048226434,780.8121762293115 M-2235.6967048226434,780.8121762293115 L-2269.443719707646,741.3421906253375 M-2269.443719707646,741.3421906253375 L-2292.7260352727553,699.4962831168548 M-2292.7260352727553,699.4962831168548 L-2305.1419439005376,655.5729264383364 M-2305.1419439005376,655.5729264383364 L-2307.0779334868957,621.272265280632 M-2307.0779334868957,621.272265280632 L-2299.517257626997,574.6033800916189 M-2299.517257626997,574.6033800916189 L-2280.1704423666624,526.9682369868949 M-2280.1704423666624,526.9682369868949 L-2255.117767905691,487.15331810997105 M-2255.117767905691,487.15331810997105 L-2213.9494598284227,439.10626611062673 M-2213.9494598284227,439.10626611062673 L-2187.0341629734967,413.5783468910562 M-2187.0341629734967,413.5783468910562 L-2157.1919770779887,388.6400180645229 M-550.496831684035,815.199123138874 L-638.2789516719633,849.3210652148655 M-638.2789516719633,849.3210652148655 L-732.3531650785355,880.3422009794563 M-732.3531650785355,880.3422009794563 L-831.1760933311339,907.7445118283571 M-831.1760933311339,907.7445118283571 L-933.752260582253,931.2882722623892 M-933.752260582253,931.2882722623892 L-1038.847674714392,950.7344125648832 M-1038.847674714392,950.7344125648832 L-1145.230237149968,965.9191737756212 M-1145.230237149968,965.9191737756212 L-1251.6859764512874,976.7504924232111 M-1251.6859764512874,976.7504924232111 L-1357.0009398409031,983.2043740256613 M-1357.0009398409031,983.2043740256613 L-1460.1148203628993,985.329633024423 M-1460.1148203628993,985.329633024423 L-1557.7883991411773,983.3236155703278 M-1557.7883991411773,983.3236155703278 L-1653.7810727707597,977.2358053615947 M-1653.7810727707597,977.2358053615947 L-1732.6329408722086,968.8602833547225 M-1732.6329408722086,968.8602833547225 L-1819.2590101508304,955.666694285534 M-1819.2590101508304,955.666694285534 L-1900.0046836394977,938.9567101210664 M-1900.0046836394977,938.9567101210664 L-1974.4501303550314,918.9391359992712 M-1974.4501303550314,918.9391359992712 L-2027.098062384463,901.4543036679354 M-2027.098062384463,901.4543036679354 L-2075.9400046025967,882.1112266469952 M2860.859330779821,-622.3186597794825 L-550.496831684035,815.199123138874 M2990.2821902570304,-1233.744592065189 L3053.327507289886,-1204.989328512784 M3053.327507289886,-1204.989328512784 L3107.566773959061,-1173.3242799887585 M3107.566773959061,-1173.3242799887585 L3153.0133245707684,-1138.7271290650829 M3153.0133245707684,-1138.7271290650829 L3189.0155374591805,-1101.544075783417 M3189.0155374591805,-1101.544075783417 L3215.128956758268,-1062.0238450669763 M3215.128956758268,-1062.0238450669763 L3230.9046126205876,-1020.4316839301559 M3230.9046126205876,-1020.4316839301559 L3235.689699405102,-987.8729092724673 M3235.689699405102,-987.8729092724673 L3232.264382876937,-943.4628917364582 M3232.264382876937,-943.4628917364582 L3217.388282669882,-898.0007671005872 M3217.388282669882,-898.0007671005872 L3196.226400540495,-859.8989057584952 M3196.226400540495,-859.8989057584952 L3159.898777163776,-813.7934293017815 M3159.898777163776,-813.7934293017815 L3111.834199434301,-768.1198425964019 M3111.834199434301,-768.1198425964019 L3052.3063551260884,-723.5043906237813 M3052.3063551260884,-723.5043906237813 L2981.82034654542,-680.5886782693306 M2981.82034654542,-680.5886782693306 L2923.7137936334075,-650.6295599550826 M2923.7137936334075,-650.6295599550826 L2860.859330779821,-622.3186597794825 M1857.2836318940927,-1274.1774410497937 L1957.3258512581076,-1293.336410390096 M1957.3258512581076,-1293.336410390096 L2061.079942264054,-1308.8082942585793 M2061.079942264054,-1308.8082942585793 L2156.2847858070045,-1319.2570018519632 M2156.2847858070045,-1319.2570018519632 L2257.8717545796653,-1326.5330496290985 M2257.8717545796653,-1326.5330496290985 L2357.8543229371962,-1329.7645405609985 M2357.8543229371962,-1329.7645405609985 L2452.185774884577,-1329.118317008261 M2452.185774884577,-1329.118317008261 L2546.359268289456,-1324.6716231136654 M2546.359268289456,-1324.6716231136654 L2636.439852237764,-1316.5376915784539 M2636.439852237764,-1316.5376915784539 L2711.559372269866,-1306.5103656647414 M2711.559372269866,-1306.5103656647414 L2792.3449768166156,-1291.9401845201128 M2792.3449768166156,-1291.9401845201128 L2867.4884613736867,-1274.2119009995467 M2867.4884613736867,-1274.2119009995467 L2931.340817896087,-1255.2608584466632 M2931.340817896087,-1255.2608584466632 L2990.2821902570304,-1233.744592065189 M1513.1793516680982,5.045542484538487 L-1884.2054318286382,1438.0236144133785 M-1884.2054318286382,1438.0236144133785 L-1890.0984886854285,722.9658918480569 M1513.1793516680982,5.045542484538487 L1515.6291049986123,-697.5900711362804 M-1884.2054318286382,1438.0236144133785 L-1964.907182069379,1474.894820970109 M-1964.907182069379,1474.894820970109 L-2038.2905083525147,1514.3221483007487 M-2038.2905083525147,1514.3221483007487 L-2103.4129447507976,1555.7784018022821 M-2103.4129447507976,1555.7784018022821 L-2159.664983252983,1598.8080800874209 M-2159.664983252983,1598.8080800874209 L-2206.5286190784054,1642.9099376825436 M-2206.5286190784054,1642.9099376825436 L-2243.646430394746,1687.5826335889974 M-2243.646430394746,1687.5826335889974 L-2270.8211577374077,1732.3384460215743 M-2270.8211577374077,1732.3384460215743 L-2288.0045549287615,1776.714525047763 M-2288.0045549287615,1776.714525047763 L-2295.281422371062,1820.2817876152628 M-2295.281422371062,1820.2817876152628 L-2292.849462473636,1862.6517934278004 M-2292.849462473636,1862.6517934278004 L-2280.9942432352354,1903.4794653513184 M-2280.9942432352354,1903.4794653513184 L-2260.064438108652,1942.463230639379 M-2260.064438108652,1942.463230639379 L-2230.4486833916444,1979.3425175618463 M-2230.4486833916444,1979.3425175618463 L-2192.5537581984236,2013.892155531009 M-2192.5537581984236,2013.892155531009 L-2146.7895816413347,2045.9156088722236 M-2146.7895816413347,2045.9156088722236 L-2108.0187593193787,2067.9219888154776 M-2108.0187593193787,2067.9219888154776 L-2065.2194269391057,2088.4133192027834 M-2065.2194269391057,2088.4133192027834 L-2075.9400046025967,882.1112266469952 M2980.256279175356,-58.58216245670724 L2909.5235027594617,-84.3763497823146 M2909.5235027594617,-84.3763497823146 L2831.5928449798866,-106.51017416653656 M2831.5928449798866,-106.51017416653656 L2746.7961299207473,-124.85230617079412 M2746.7961299207473,-124.85230617079412 L2655.7937617892358,-139.1764878605652 M2655.7937617892358,-139.1764878605652 L2559.215939887863,-149.28209615919866 M2559.215939887863,-149.28209615919866 L2457.7859295060234,-154.96987502447473 M2457.7859295060234,-154.96987502447473 L2352.345068621,-156.0533523616209 M2352.345068621,-156.0533523616209 L2243.8699834822937,-152.37308122235902 M2243.8699834822937,-152.37308122235902 L2133.4782276498718,-143.81241516798707 M2133.4782276498718,-143.81241516798707 L2022.4237678425459,-130.31417141093448 M2022.4237678425459,-130.31417141093448 L1912.079676693981,-111.89574887982678 M1912.079676693981,-111.89574887982678 L1803.9082102048305,-88.6614830327378 M1803.9082102048305,-88.6614830327378 L1699.4216785569336,-60.81103786026631 M1699.4216785569336,-60.81103786026631 L1603.0606605155558,-29.68010657615514 M1603.0606605155558,-29.68010657615514 L1513.1793516680982,5.045542484538487 M2980.256279175356,-58.58216245670724 L2990.2821902570304,-1233.744592065189 M29.01037751584255,883.3643161819535 L19.99563133098792,865.0427615357966 M19.99563133098792,865.0427615357966 L10.986036756754004,846.7316770142072 M10.986036756754004,846.7316770142072 L8.51667844932365,874.2201818371763 M8.51667844932365,874.2201818371763 L1.1634413002355473,902.2366101422334 M1.1634413002355473,902.2366101422334 L-10.646755457761742,929.1560509137846 M-10.646755457761742,929.1560509137846 L-26.228967854482107,953.4171894361219 M-26.228967854482107,953.4171894361219 L-44.67961950827805,973.6122312376373 M-44.67961950827805,973.6122312376373 L-64.9289853465308,988.568702927726 M-64.9289853465308,988.568702927726 L-85.802443406718,997.4166953847855 M-85.802443406718,997.4166953847855 L-106.08810191374869,999.6399191593266 M-106.08810191374869,999.6399191593266 L-124.60735273772173,995.1063523797858 M-124.60735273772173,995.1063523797858 L-140.2831609084667,984.0761026274599 M-140.2831609084667,984.0761026274599 L-152.2024983812994,967.1874043298924 M-152.2024983812994,967.1874043298924 L-159.67029660925607,945.4200521203804 M-159.67029660925607,945.4200521203804 L-162.25029304358213,920.0388717888976 M-162.25029304358213,920.0388717888976 L-159.7906739119461,892.5202797517538 M-159.7906739119461,892.5202797517538 L-152.43361789026085,864.4662081698744 M-152.43361789026085,864.4662081698744 L-140.6069188757474,837.5101915949507 M-140.6069188757474,837.5101915949507 L-124.9993013120868,813.2219238471395 M-124.9993013120868,813.2219238471395 L-106.52016188189384,793.0154144450476 M-106.52016188189384,793.0154144450476 L-86.24575164258397,778.0657636376585 M-86.24575164258397,778.0657636376585 L-65.35642989979067,769.2413182782838 M-65.35642989979067,769.2413182782838 L-45.067722734984955,767.0529732615237 M-45.067722734984955,767.0529732615237 L-26.55893655861678,771.6247600660405 M-26.55893655861678,771.6247600660405 L-10.904709165154884,782.6878157079793 M-10.904709165154884,782.6878157079793 L0.9868754210085058,799.5963900383452 M0.9868754210085058,799.5963900383452 L8.427106548590586,821.3661351057153 M8.427106548590586,821.3661351057153 L10.986036756754004,846.7316770142072 M2505.870976043665,-165.4754688476345 L2496.307343591656,-183.2024648295146 M2496.307343591656,-183.2024648295146 L2486.749087048054,-200.91949611364976 M2486.749087048054,-200.91949611364976 L2484.1385255999476,-173.80362812788292 M2484.1385255999476,-173.80362812788292 L2476.8153730924414,-146.20712799159742 M2476.8153730924414,-146.20712799159742 L2465.204793566387,-119.73059967677534 M2465.204793566387,-119.73059967677534 L2449.980177426546,-95.90971974958723 M2449.980177426546,-95.90971974958723 L2432.0244073101585,-76.12677808656701 M2432.0244073101585,-76.12677808656701 L2412.378568222128,-61.53035035750122 M2412.378568222128,-61.53035035750122 L2392.182325917054,-52.96942101551224 M2392.182325917054,-52.96942101551224 L2372.6082965096894,-50.94354722239973 M2372.6082965096894,-50.94354722239973 L2354.793769748644,-55.57320005152735 M2354.793769748644,-55.57320005152735 L2339.7748108532287,-66.59258560501462 M2339.7748108532287,-66.59258560501462 L2328.4261959697715,-83.36400309056728 M2328.4261959697715,-83.36400309056728 L2321.409717057105,-104.91440495495124 M2321.409717057105,-104.91440495495124 L2319.135290735946,-129.9915491446809 M2319.135290735946,-129.9915491446809 L2321.7368650350845,-157.1367123091302 M2321.7368650350845,-157.1367123091302 L2329.063948750186,-184.76973396207563 M2329.063948750186,-184.76973396207563 L2340.690477431993,-211.28164357327535 M2340.690477431993,-211.28164357327535 L2355.9394069110876,-235.12865912030622 M2355.9394069110876,-235.12865912030622 L2373.922284388066,-254.92250330705565 M2373.922284388066,-254.92250330705565 L2393.5918151003543,-269.5121030490461 M2393.5918151003543,-269.5121030490461 L2413.80290585105,-278.050037797665 M2413.80290585105,-278.050037797665 L2433.3795388057106,-280.0420183691283 M2433.3795388057106,-280.0420183691283 L2451.1838278985297,-275.3753383049335 M2451.1838278985297,-275.3753383049335 L2466.182053092556,-264.32427366309946 M2466.182053092556,-264.32427366309946 L2477.5041882029236,-247.53378281155528 M2477.5041882029236,-247.53378281155528 L2484.494507509002,-225.981282741173 M2484.494507509002,-225.981282741173 L2486.749087048054,-200.91949611364976 M-2065.2194269391057,2088.4133192027834 L-1994.1537941373444,2116.013848855644 M-1994.1537941373444,2116.013848855644 L-1915.229830818113,2139.734294867607 M-1915.229830818113,2139.734294867607 L-1828.7926366578363,2159.4169249456386 M-1828.7926366578363,2159.4169249456386 L-1735.5289151101988,2174.8041726480133 M-1735.5289151101988,2174.8041726480133 L-1636.1051954237737,2185.6683317714574 M-1636.1051954237737,2185.6683317714574 L-1531.2932033068223,2191.7861683688507 M-1531.2932033068223,2191.7861683688507 L-1421.995949499198,2192.951823259624 M-1421.995949499198,2192.951823259624 L-1309.2653002660352,2188.992749937921 M-1309.2653002660352,2188.992749937921 L-1194.3068498415296,2179.787203318039 M-1194.3068498415296,2179.787203318039 L-1078.473456387741,2165.2824629673164 M-1078.473456387741,2165.2824629673164 L-963.244621091837,2145.5110480838284 M-963.244621091837,2145.5110480838284 L-850.192054941379,2120.6035116836897 M-850.192054941379,2120.6035116836897 L-740.9352714491336,2090.796470595981 M-740.9352714491336,2090.796470595981 L-640.1487834861,2057.541702288553 M-640.1487834861,2057.541702288553 L-546.1301971279631,2020.525484220106 M-546.1301971279631,2020.525484220106 L-550.496831684035,815.199123138874 M-546.1301971279631,2020.525484220106 L2851.261035854095,561.9029159235854 M2851.261035854095,561.9029159235854 L2860.859330779821,-622.3186597794825 M2851.261035854095,561.9029159235854 L2928.1183844375337,526.0647559407677 M2928.1183844375337,526.0647559407677 L2997.4033580647865,487.8317133519766 M2997.4033580647865,487.8317133519766 L3058.242071903841,447.7307385309922 M3058.242071903841,447.7307385309922 L3110.093383701471,406.21528346980995 M3110.093383701471,406.21528346980995 L3152.5180559414666,363.7785687997278 M3152.5180559414666,363.7785687997278 L3185.2411113821245,320.90891597248793 M3185.2411113821245,320.90891597248793 L3208.1478100888053,278.07644619210913 M3208.1478100888053,278.07644619210913 L3221.269253756507,235.7224889866992 M3221.269253756507,235.7224889866992 L3224.763638618918,194.25153619929608 M3224.763638618918,194.25153619929608 L3218.893923243877,154.02534415871122 M3218.893923243877,154.02534415871122 L3204.001511191259,115.36112818938966 M3204.001511191259,115.36112818938966 L3180.4809069639778,78.53225224913967 M3180.4809069639778,78.53225224913967 L3148.75662852833,43.771401433709 M3148.75662852833,43.771401433709 L3109.2620567930207,11.276599756651422 M3109.2620567930207,11.276599756651422 L3062.4252958182688,-18.781789290822758 M3062.4252958182688,-18.781789290822758 L3023.206142946169,-39.404148810294714 M3023.206142946169,-39.404148810294714 L2980.256279175356,-58.58216245670724" stroke="black"  stroke-width="4"  fill="red"/>
<path d="M34.78249515993423,895.0956073121506 L33.59545493772691,908.2988268508137 M33.59545493772691,908.2988268508137 L30.062563313116698,921.7569827038653 M30.062563313116698,921.7569827038653 L24.389089565857205,934.6889099540786 M24.389089565857205,934.6889099540786 L16.904432344630663,946.3435432423232 M16.904432344630663,946.3435432423232 L8.04313834423641,956.0441875652509 M8.04313834423641,956.0441875652509 L-1.68044764768581,963.2272825490788 M-1.68044764768581,963.2272825490788 L-11.701693262648234,967.4752578759015 M-11.701693262648234,967.4752578759015 L-21.43851148071701,968.5407725311857 M-21.43851148071701,968.5407725311857 L-30.325067936808978,966.3611743114278 M-30.325067936808978,966.3611743114278 L-37.84478248156836,961.062468668652 M-37.84478248156836,961.062468668652 L-43.56014591242263,952.9517989743877 M-43.56014591242263,952.9517989743877 L-47.13845223031046,942.5003628336775 M-47.13845223031046,942.5003628336775 L-48.3711747412076,930.3152577217327 M-48.3711747412076,930.3152577217327 L-47.18637764876337,917.1051009801128 M-47.18637764876337,917.1051009801128 L-43.652603743394366,903.6382648811983 M-43.652603743394366,903.6382648811983 L-37.97532451331642,890.6979027442532 M-37.97532451331642,890.6979027442532 L-30.484810349554436,879.0370124241135 M-30.484810349554436,879.0370124241135 L-21.616949781582434,869.3337222256785 M-21.616949781582434,869.3337222256785 L-11.887591840144978,862.1521987178289 M-11.887591840144978,862.1521987178289 L-1.8626912053795195,857.9096521836129 M-1.8626912053795195,857.9096521836129 L7.874827783594355,856.8521799688133 M7.874827783594355,856.8521799688133 L16.758970229666204,859.0405918470242 M16.758970229666204,859.0405918470242 L24.273708987323914,864.3468632982534 M24.273708987323914,864.3468632982534 L29.982674732862336,872.4621176861924 M29.982674732862336,872.4621176861924 L33.554627163477164,882.9141071093229 M33.554627163477164,882.9141071093229 L34.78249515993423,895.0956073121506 M34.78249515993423,895.0956073121506 L23.24037177185687,871.6373172918859 M23.24037177185687,871.6373172918859 L11.70661185324991,848.1961529537864 M11.70661185324991,848.1961529537864 L0.18128518254906112,824.7721970540682 M0.18128518254906112,824.7721970540682 L-2.98283696347022,793.418246384837 M-2.98283696347022,793.418246384837 L-12.181004523352499,766.5059802780804 M-12.181004523352499,766.5059802780804 L-26.882175272769132,745.599750299165 M-26.882175272769132,745.599750299165 L-46.23562350867064,731.917130680672 M-46.23562350867064,731.917130680672 L-69.11936211204625,726.2575751803669 M-69.11936211204625,726.2575751803669 L-94.20479313070052,728.9548994081654 M-94.20479313070052,728.9548994081654 L-120.03385147851259,739.857131878131 M-120.03385147851259,739.857131878131 L-145.10312747048602,758.3336540018848 M-145.10312747048602,758.3336540018848 L-167.95261470927073,783.3115209466089 M-167.95261470927073,783.3115209466089 L-187.25060584972493,813.3376608475662 M-187.25060584972493,813.3376608475662 L-201.87210925943043,846.6634437513707 M-201.87210925943043,846.6634437513707 L-210.96548125510674,881.3474422147233 M-210.96548125510674,881.3474422147233 L-214.00143902182037,915.3688570879588 M-214.00143902182037,915.3688570879588 L-210.80511813472992,946.7467072390407 M-210.80511813472992,946.7467072390407 L-201.56473859655478,973.6552875043251 M-201.56473859655478,973.6552875043251 L-186.8212353111412,994.5311848482672 M-186.8212353111412,994.5311848482672 L-167.43480963108595,1008.1636797481474 M-167.43480963108595,1008.1636797481474 L-144.53508365989683,1013.7648354571938 M-144.53508365989683,1013.7648354571938 L-119.45431776664759,1011.014214994696 M-119.45431776664759,1011.014214994696 L-93.64950843516328,1000.0759992751242 M-93.64950843516328,1000.0759992751242 L-68.61850994469705,981.5890506046858 M-68.61850994469705,981.5890506046858 L-45.81256006575438,956.6287019250367 M-45.81256006575438,956.6287019250367 L-26.55339222204975,926.6440121200935 M-26.55339222204975,926.6440121200935 L-11.95702373542207,893.3740815096403 M-11.95702373542207,893.3740815096403 L-2.86956251399954,858.7476363894491 M-2.86956251399954,858.7476363894491 L0.18128518254906112,824.7721970540682 M34.78249515993423,895.0956073121506 L915.9482915889878,1270.6190443359183 M915.9482915889878,1270.6190443359183 L914.7225519572141,1283.8860634420034 M914.7225519572141,1283.8860634420034 L911.1532081079628,1297.4163218738404 M911.1532081079628,1297.4163218738404 L905.4476444328166,1310.4244733303121 M905.4476444328166,1310.4244733303121 L897.9371215354533,1322.1550300470644 M897.9371215354533,1322.1550300470644 L889.0576850339046,1331.9268919762817 M889.0576850339046,1331.9268919762817 L879.3247310046747,1339.1723640704945 M879.3247310046747,1339.1723640704945 L869.3034343195392,1343.4702510021798 M869.3034343195392,1343.4702510021798 L859.575884958803,1344.5703071877363 M859.575884958803,1344.5703071877363 L850.7073805357601,1342.4078657369373 M850.7073805357601,1342.4078657369373 L843.2134551616665,1337.1079271602957 M843.2134551616665,1337.1079271602957 L837.5301235649015,1328.9776975310997 M837.5301235649015,1328.9776975310997 L833.9882331747585,1318.4895064572934 M833.9882331747585,1318.4895064572934 L832.7941976953832,1306.2525840753312 M832.7941976953832,1306.2525840753312 L834.0177052103437,1292.9785621787387 M834.0177052103437,1292.9785621787387 L837.5879619647244,1279.4395301309792 M837.5879619647244,1279.4395301309792 L843.2973743428242,1266.422844023998 M843.2973743428242,1266.422844023998 L850.8138000971222,1254.6859469741132 M850.8138000971222,1254.6859469741132 L859.6998412564448,1244.9113914131062 M859.6998412564448,1244.9113914131062 L869.4385887753594,1237.667489524285 M869.4385887753594,1237.667489524285 L879.4635405358116,1233.375076891174 M879.4635405358116,1233.375076891174 L889.191769225596,1232.2831450037709 M889.191769225596,1232.2831450037709 L898.0578216115042,1234.4544995697306 M898.0578216115042,1234.4544995697306 L905.546725297494,1239.7620982266599 M905.546725297494,1239.7620982266599 L911.2236159494422,1247.8969800396899 M911.2236159494422,1247.8969800396899 L914.7591217448264,1258.38574964304 M914.7591217448264,1258.38574964304 L915.9482915889878,1270.6190443359183" stroke="black"  stroke-width="4"  fill="red"/>
<path d="M2511.994498978761,-154.12496068735288 L2510.7396050351053,-141.10083378938725 M2510.7396050351053,-141.10083378938725 L2507.221194486401,-127.84454901459867 M2507.221194486401,-127.84454901459867 L2501.6436899402997,-115.1255641338297 M2501.6436899402997,-115.1255641338297 L2494.330925408415,-103.68258965040513 M2494.330925408415,-103.68258965040513 L2485.707476138755,-94.18003998489212 M2485.707476138755,-94.18003998489212 L2476.273894504845,-87.16997452855958 M2476.273894504845,-87.16997452855958 L2466.577984428057,-83.05990794005152 M2466.577984428057,-83.05990794005152 L2457.1829455838797,-82.08915559379227 M2457.1829455838797,-82.08915559379227 L2448.6347575553054,-84.31484229113676 M2448.6347575553054,-84.31484229113676 L2441.4303334398664,-89.60826236839375 M2441.4303334398664,-89.60826236839375 L2435.988841123746,-97.66255491196773 M2435.988841123746,-97.66255491196773 L2432.627043103862,-108.00978578591912 M2432.627043103862,-108.00978578591912 L2431.5408568651965,-120.0489042392602 M2431.5408568651965,-120.0489042392602 L2432.7936810442943,-133.07978566623865 M2432.7936810442943,-133.07978566623865 L2436.312999712266,-146.3444919140445 M2436.312999712266,-146.3444919140445 L2441.8941821394274,-159.07163608828193 M2441.8941821394274,-159.07163608828193 L2449.2125518000084,-170.52063832940723 M2449.2125518000084,-170.52063832940723 L2457.842249303878,-180.0257034367529 M2457.842249303878,-180.0257034367529 L2467.2812909562217,-187.0341957057368 M2467.2812909562217,-187.0341957057368 L2476.980621985328,-191.1389609040117 M2476.980621985328,-191.1389609040117 L2486.3762590184433,-192.10189813960028 M2486.3762590184433,-192.10189813960028 L2494.9220854405503,-189.86767296238304 M2494.9220854405503,-189.86767296238304 L2502.1217291535186,-184.56694706508256 M2502.1217291535186,-184.56694706508256 L2507.557117390739,-176.50825506513524 M2507.557117390739,-176.50825506513524 L2510.912886086556,-166.1605389588451 M2510.912886086556,-166.1605389588451 L2511.994498978761,-154.12496068735288 M2511.994498978761,-154.12496068735288 L2499.749656929196,-176.82189202542293 M2499.749656929196,-176.82189202542293 L2487.513468504765,-199.50249225131438 M2487.513468504765,-199.50249225131438 L2475.286238056615,-222.1667789847645 M2475.286238056615,-222.1667789847645 L2472.4982040215828,-253.1453164898105 M2472.4982040215828,-253.1453164898105 L2463.8559515138695,-279.7889534680777 M2463.8559515138695,-279.7889534680777 L2449.858623630749,-300.5490838829825 M2449.858623630749,-300.5490838829825 L2431.3159808840855,-314.2166326022708 M2431.3159808840855,-314.2166326022708 L2409.303075664392,-319.9932007862848 M2409.303075664392,-319.9932007862848 L2385.0979252007437,-317.5383267359874 M2385.0979252007437,-317.5383267359874 L2360.1073834338467,-306.99002519807345 M2360.1073834338467,-306.99002519807345 L2335.7859879259577,-288.9584147382079 M2335.7859879259577,-288.9584147382079 L2313.5501118481816,-264.49058389257675 M2313.5501118481816,-264.49058389257675 L2294.695618784125,-235.00988951094416 M2294.695618784125,-235.00988951094416 L2280.3215009268097,-202.2330973856782 M2280.3215009268097,-202.2330973856782 L2271.2651891449405,-168.069673602438 M2271.2651891449405,-168.069673602438 L2268.053589088786,-134.50991535954256 M2268.053589088786,-134.50991535954256 L2270.8719584753944,-103.50790765111844 M2270.8719584753944,-103.50790765111844 L2279.5541146895603,-76.86743992710888 M2279.5541146895603,-76.86743992710888 L2293.591987483869,-56.13648277315292 M2293.591987483869,-56.13648277315292 L2312.16631349802,-42.51733747786989 M2312.16631349802,-42.51733747786989 L2334.19485944849,-36.79734686843449 M2334.19485944849,-36.79734686843449 L2358.3960250951395,-39.304011459652656 M2358.3960250951395,-39.304011459652656 L2383.3638692564064,-49.887452010611355 M2383.3638692564064,-49.887452010611355 L2407.6490543505206,-67.92949965167736 M2407.6490543505206,-67.92949965167736 L2429.843502307346,-92.38067529022487 M2429.843502307346,-92.38067529022487 L2448.6608402594284,-121.82143734811496 M2448.6608402594284,-121.82143734811496 L2463.010510544528,-154.5441352950262 M2463.010510544528,-154.5441352950262 L2472.060897334698,-188.65178615704576 M2472.060897334698,-188.65178615704576 L2475.286238056615,-222.1667789847645 M2511.994498978761,-154.12496068735288 L3392.927540278034,209.17354768009187 M3392.927540278034,209.17354768009187 L3391.6342012358145,222.2598256499798 M3391.6342012358145,222.2598256499798 L3388.0800259039297,235.5860785854847 M3388.0800259039297,235.5860785854847 L3382.471512092221,248.3787910047513 M3382.471512092221,248.3787910047513 L3375.1342931468716,259.89497470630494 M3375.1342931468716,259.89497470630494 L3366.4943614908516,269.4659675843199 M3366.4943614908516,269.4659675843199 L3357.0532246346593,276.5357365338764 M3357.0532246346593,276.5357365338764 L3347.3591239175557,280.6932971865089 M3347.3591239175557,280.6932971865089 L3337.9751540251355,281.6965702127937 M3337.9751540251355,281.6965702127937 L3329.4466531985872,279.4865338668067 M3329.4466531985872,279.4865338668067 L3322.269393363714,274.1909767883622 M3322.269393363714,274.1909767883622 L3316.8609677636196,266.1168755749511 M3316.8609677636196,266.1168755749511 L3313.5362198754583,255.73331113134276 M3313.5362198754583,255.73331113134276 L3312.488917028684,243.6434425935857 M3312.488917028684,243.6434425935857 L3313.780198528525,230.5503469420392 M3313.780198528525,230.5503469420392 L3317.3353120650063,217.2155832843493 M3317.3353120650063,217.2155832843493 L3322.9475448141366,204.41461667070467 M3322.9475448141366,204.41461667070467 L3330.2904115097463,192.89232640097038 M3330.2904115097463,192.89232640097038 L3338.9366258226655,183.3187734147362 M3338.9366258226655,183.3187734147362 L3348.3832410354225,176.25057736311652 M3348.3832410354225,176.25057736311652 L3358.0807607573506,172.09836225436578 M3358.0807607573506,172.09836225436578 L3367.4653070517415,171.10298282040856 M3367.4653070517415,171.10298282040856 L3375.99140963655,173.32165247667837 M3375.99140963655,173.32165247667837 L3383.1638459778997,178.62460483022585 M3383.1638459778997,178.62460483022585 L3388.566127823932,186.70316908639012 M3388.566127823932,186.70316908639012 L3391.884819218105,197.0872419130037 M3391.884819218105,197.0872419130037 L3392.927540278034,209.17354768009187" stroke="black"  stroke-width="4"  fill="red"/></svg>