<svg viewBox="0 0 1000 1000" xmlns="http://www.w3.org/2000/svg"><path d="M648.1479037711733,440.36833004876416 L135.9835281261329,656.6910548705224 M135.9835281261329,656.6910548705224 L134.85481473350762,525.4406225525798 M134.85481473350762,525.4406225525798 L144.58342528166168,530.233297240995 M144.58342528166168,530.233297240995 L154.91733303147367,533.5464944702779 M154.91733303147367,533.5464944702779 L165.7595247084722,535.3522933453883 M165.7595247084722,535.3522933453883 L177.00865865583512,535.6368285309644 M177.00865865583512,535.6368285309644 L188.56005803151652,534.4002505309709 M188.56005803151652,534.4002505309709 L200.30660139245333,531.656709658862 M200.30660139245333,531.656709658862 L212.13980258926006,527.4340457620673 M574.4669997039387,375.969977114518 L212.13980258926006,527.4340457620673 M574.4669997039387,375.969977114518 L585.904640818203,370.47717119483116 M585.904640818203,370.47717119483116 L597.2278806805236,363.61709089301377 M597.2278806805236,363.61709089301377 L608.3330801316347,355.4545272615188 M608.3330801316347,355.4545272615188 L619.1188035657628,346.0658627848825 M619.1188035657628,346.0658627848825 L629.4867871236852,335.5383467658213 M629.4867871236852,335.5383467658213 L639.3426965678243,323.96926892838997 M639.3426965678243,323.96926892838997 L648.5969602877308,311.46511019524047 M648.1479037711733,440.36833004876416 L648.5969602877308,311.46511019524047 M135.9835281261329,656.6910548705224 L124.61314959349318,661.9085408057368 M124.61314959349318,661.9085408057368 L114.30147356789337,667.5059513146438 M114.30147356789337,667.5059513146438 L105.16311251729644,673.4196913617673 M105.16311251729644,673.4196913617673 L97.2793143830902,679.5914723747172 M97.2793143830902,679.5914723747172 L90.7197867748863,685.957636993845 M90.7197867748863,685.957636993845 L85.5359518172404,692.4535572918417 M85.5359518172404,692.4535572918417 L81.76108373481566,699.0148958394882 M81.76108373481566,699.0148958394882 L79.41097635924973,705.5788583884662 M79.41097635924973,705.5788583884662 L78.4852324245486,712.0851867285212 M78.4852324245486,712.0851867285212 L78.9689595850412,718.47699396657 M78.9689595850412,718.47699396657 L80.8348653786029,724.701267851778 M80.8348653786029,724.701267851778 L84.04537273371443,730.7091557733866 M84.04537273371443,730.7091557733866 L88.55477764652778,736.455974565326 M88.55477764652778,736.455974565326 L94.31116120731542,741.9009790368575 M94.31116120731542,741.9009790368575 L101.25794671147167,747.0069835025847 M101.25794671147167,747.0069835025847 L108.60935334420162,751.3546110849727 M108.60935334420162,751.3546110849727 L116.87337877133552,755.3712886756467 M116.87337877133552,755.3712886756467 L128.02418823301025,759.7528633712942 M128.02418823301025,759.7528633712942 L140.31952834745567,763.5623459702995 M140.31952834745567,763.5623459702995 L153.67701043534316,766.7689189244904 M153.67701043534316,766.7689189244904 L167.97829399568934,769.3347756730113 M167.97829399568934,769.3347756730113 L183.1035603725611,771.2275241475772 M183.1035603725611,771.2275241475772 L198.92056992157012,772.4178191237131 M198.92056992157012,772.4178191237131 L215.28305122297178,772.8805203039782 M215.28305122297178,772.8805203039782 L232.02980872269552,772.5961657799609 M232.02980872269552,772.5961657799609 L248.98502122887365,771.5525079649045 M248.98502122887365,771.5525079649045 L265.9596101906403,769.7461355543554 M265.9596101906403,769.7461355543554 L282.7536951911794,767.1839797981536 M282.7536951911794,767.1839797981536 L299.16029351107034,763.8844663581207 M299.16029351107034,763.8844663581207 L314.97014119126715,759.8781834451561 M314.97014119126715,759.8781834451561 L329.97677322513795,755.2081712071076 M329.97677322513795,755.2081712071076 L338.61117528789777,752.0720355689361 M338.61117528789777,752.0720355689361 L346.8273527490263,748.7287652355914 M346.8273527490263,748.7287652355914 L858.9928195149598,528.2359724906389 M858.9928195149598,528.2359724906389 L869.8050270449148,523.164403062244 M869.8050270449148,523.164403062244 L879.5214313113504,517.7358308901335 M879.5214313113504,517.7358308901335 L888.0360486238646,512.0142504012153 M888.0360486238646,512.0142504012153 L895.2766781923874,506.05805639719404 M895.2766781923874,506.05805639719404 L901.184036809924,499.93030436267037 M901.184036809924,499.93030436267037 L905.7178055975241,493.69437496896364 M905.7178055975241,493.69437496896364 L908.8561022559952,487.41272007799995 M908.8561022559952,487.41272007799995 L910.5944180956251,481.14565349901375 M910.5944180956251,481.14565349901375 L910.943973012384,474.95042492810546 M910.943973012384,474.95042492810546 L909.9297095658371,468.88047330187777 M909.9297095658371,468.88047330187777 L907.5879631129253,462.985018508313 M907.5879631129253,462.985018508313 L903.9641759360527,457.3088748010664 M903.9641759360527,457.3088748010664 L899.1106415287861,451.89253219860336 M899.1106415287861,451.89253219860336 L893.0845537622281,446.77246652011604 M893.0845537622281,446.77246652011604 L885.9464525689973,441.9815838313483 M885.9464525689973,441.9815838313483 L878.4909485834435,437.9101942581635 M878.4909485834435,437.9101942581635 L870.1919207098208,434.15518310514875 M870.1919207098208,434.15518310514875 L859.0919700416225,430.06609890026436 M859.0919700416225,430.06609890026436 L846.9484262154347,426.51688270488575 M846.9484262154347,426.51688270488575 L833.8410113886018,423.53367614186135 M833.8410113886018,423.53367614186135 L819.8832928365457,421.1493737479186 M819.8832928365457,421.1493737479186 L805.188570149711,419.39215595964407 M805.188570149711,419.39215595964407 L789.8807317331903,418.287789018984 M789.8807317331903,418.287789018984 L774.0959000480825,417.85863558506907 M774.0959000480825,417.85863558506907 L757.9834349346486,418.1223636135861 M757.9834349346486,418.1223636135861 L741.7058641505332,419.09057953571613 M741.7058641505332,419.09057953571613 L725.437856013544,420.7673536309968 M725.437856013544,420.7673536309968 L709.3642176000919,423.14781424244387 M709.3642176000919,423.14781424244387 L693.6767547584748,426.21702379898784 M693.6767547584748,426.21702379898784 L678.5700804760752,429.94925258870785 M678.5700804760752,429.94925258870785 L664.2371558347447,434.3075536969931 M664.2371558347447,434.3075536969931 L655.9923189235253,437.239052006305 M655.9923189235253,437.239052006305 L648.1479037711733,440.36833004876416 M116.87337877133552,755.3712886756467 L115.09368260663547,559.2046876184022 M101.72602225387072,479.7075057887856 L94.05489016949241,485.8221456619729 M94.05489016949241,485.8221456619729 L87.70411745965276,492.1399285987927 M87.70411745965276,492.1399285987927 L82.76970617421688,498.5495652434674 M82.76970617421688,498.5495652434674 L79.2551789141836,505.01137933144844 M79.2551789141836,505.01137933144844 L77.17311567190836,511.4640044979258 M77.17311567190836,511.4640044979258 L76.52016730399987,517.8487300921461 M76.52016730399987,517.8487300921461 L77.27878616650861,524.1102961975214 M77.27878616650861,524.1102961975214 L79.4193901996698,530.1973142848532 M79.4193901996698,530.1973142848532 L82.90249700624372,536.0625105373439 M82.90249700624372,536.0625105373439 L87.68085082932123,541.6626964659504 M87.68085082932123,541.6626964659504 L93.70125268506632,546.9585002464386 M93.70125268506632,546.9585002464386 L100.90611702957796,551.9139485352193 M100.90611702957796,551.9139485352193 L107.63640971490918,555.6904523814092 M107.63640971490918,555.6904523814092 L115.09368260663547,559.2046876184022 M101.72602225387072,479.7075057887856 L105.36049615867313,490.1403669855134 M105.36049615867313,490.1403669855134 L109.98272899658713,499.7825172421234 M109.98272899658713,499.7825172421234 L114.73438195814333,507.22011387757505 M114.73438195814333,507.22011387757505 L121.09344331722065,514.7402167014736 M121.09344331722065,514.7402167014736 L127.4529620286666,520.4166087319823 M127.4529620286666,520.4166087319823 L134.85481473350762,525.4406225525798 M150.12656071634933,532.6387568517027 L160.6892381006512,536.3325096294716 M160.6892381006512,536.3325096294716 L171.81087919874778,538.4231123684215 M171.81087919874778,538.4231123684215 L183.3806771082924,538.8930375177764 M183.3806771082924,538.8930375177764 L195.28377178860637,537.740776692988 M195.28377178860637,537.740776692988 L207.40256739821882,534.9806392555879 M207.40256739821882,534.9806392555879 L219.61771858082727,530.6425777981733 M111.02820647004762,483.698621599581 L114.4628284244082,494.0261243770253 M114.4628284244082,494.0261243770253 L118.83300491082463,503.5427049336334 M118.83300491082463,503.5427049336334 L123.98764277116697,511.78641423400353 M123.98764277116697,511.78641423400353 L130.166615692851,519.084251795123 M130.166615692851,519.084251795123 L137.27744315955994,525.2522723633397 M137.27744315955994,525.2522723633397 L143.31272928116954,529.2039486143085 M143.31272928116954,529.2039486143085 L150.12656071634933,532.6387568517027 M101.72602225387072,479.7075057887856 L111.02820647004762,483.698621599581 M219.61771858082727,530.6425777981733 L212.13980258926006,527.4340457620673 M219.61771858082727,530.6425777981733 L581.9460586140256,379.07543628827534 M581.9460586140256,379.07543628827534 L574.4669997039387,375.969977114518 M698.6853238986721,240.28787259684515 L692.849937190691,254.15269577299327 M692.849937190691,254.15269577299327 L685.9764005151603,268.04644228339436 M685.9764005151603,268.04644228339436 L678.5428463832211,281.2608630447846 M678.5428463832211,281.2608630447846 L670.4308979057976,294.2620341369795 M670.4308979057976,294.2620341369795 L661.9874614970881,306.68942198580186 M661.9874614970881,306.68942198580186 L655.4520579271884,315.729784161461 M655.4520579271884,315.729784161461 L648.6723872194409,324.69134262711566 M581.9460586140256,379.07543628827534 L593.7524936566615,373.3782438113129 M593.7524936566615,373.3782438113129 L605.4336874828764,366.225609938582 M605.4336874828764,366.225609938582 L616.8756695439586,357.68950688265386 M616.8756695439586,357.68950688265386 L627.9671549315465,347.85499175536495 M627.9671549315465,347.85499175536495 L638.6004073104605,336.8194009711991 M638.6004073104605,336.8194009711991 L648.6723872194409,324.69134262711566 M689.380904299939,236.50265449543576 L683.7164456158287,250.4769052428881 M683.7164456158287,250.4769052428881 L677.0471872711043,264.5065772054562 M677.0471872711043,264.5065772054562 L670.7325094162691,276.3028575206048 M670.7325094162691,276.3028575206048 L663.0108321971011,289.4259129735577 M663.0108321971011,289.4259129735577 L655.9984899471126,300.46618148710184 M655.9984899471126,300.46618148710184 L648.5969602877308,311.46511019524047 M689.380904299939,236.50265449543576 L698.6853238986721,240.28787259684515 M871.8540483977524,243.151470498449 L860.7035512729315,239.1287443234845 M860.7035512729315,239.1287443234845 L848.5049155152519,235.63713805835505 M848.5049155152519,235.63713805835505 L835.3382208512276,232.70236340087803 M835.3382208512276,232.70236340087803 L821.3175421636295,230.35677589681393 M821.3175421636295,230.35677589681393 L806.5566818054763,228.62809424032423 M806.5566818054763,228.62809424032423 L791.1800754686317,227.54166304376554 M791.1800754686317,227.54166304376554 L775.3244450084383,227.11947969602176 M775.3244450084383,227.11947969602176 L759.1398065753126,227.37892437069115 M759.1398065753126,227.37892437069115 L742.7894013090042,228.3314155273597 M742.7894013090042,228.3314155273597 L726.448663997131,229.9809593001787 M726.448663997131,229.9809593001787 L710.3032130776717,232.32276653070284 M710.3032130776717,232.32276653070284 L699.7093861943192,234.26845989267804 M699.7093861943192,234.26845989267804 L689.380904299939,236.50265449543576 M870.1919207098208,434.15518310514875 L871.8540483977524,243.151470498449 M346.8273527490263,748.7287652355914 L346.11646312287047,552.6679323618127 M115.09368260663547,559.2046876184022 L126.29550235154659,563.5165180174713 M126.29550235154659,563.5165180174713 L138.64732264647046,567.2653775584 M138.64732264647046,567.2653775584 L152.0663728871815,570.4209327258956 M152.0663728871815,570.4209327258956 L166.43376130737977,572.9459727907339 M166.43376130737977,572.9459727907339 L181.6291068246012,574.8086161609043 M181.6291068246012,574.8086161609043 L197.5195460469531,575.9799806551472 M197.5195460469531,575.9799806551472 L213.95811521811555,576.4353233888469 M213.95811521811555,576.4353233888469 L230.78285406724478,576.1554909980439 M230.78285406724478,576.1554909980439 L247.81710624963517,575.1284312930852 M247.81710624963517,575.1284312930852 L264.8708947359982,573.3507894981617 M264.8708947359982,573.3507894981617 L281.74338966151964,570.8293905414589 M281.74338966151964,570.8293905414589 L298.226626185526,567.5823724459214 M298.226626185526,567.5823724459214 L314.11034913787046,563.6398435618859 M314.11034913787046,563.6398435618859 L329.1871179485618,559.0441669474782 M329.1871179485618,559.0441669474782 L337.8618791317931,555.957962900379 M337.8618791317931,555.957962900379 L346.11646312287047,552.6679323618127 M346.11646312287047,552.6679323618127 L860.6211181149235,335.70991265500686 M858.9928195149598,528.2359724906389 L860.6211181149235,335.70991265500686 M431.05440639139755,556.1186044994224 L430.83507485088484,558.5585494739669 M430.83507485088484,558.5585494739669 L430.18224275474165,561.0455550137267 M430.18224275474165,561.0455550137267 L429.13383377553583,563.4352598112421 M429.13383377553583,563.4352598112421 L427.7506921076821,565.58896205901 M427.7506921076821,565.58896205901 L426.1130880616574,567.3815997045879 M426.1130880616574,567.3815997045879 L424.3160615348149,568.7090736486266 M424.3160615348149,568.7090736486266 L422.4639341179093,569.4941804294442 M422.4639341179093,569.4941804294442 L420.66427405767746,569.6911833765989 M420.66427405767746,569.6911833765989 L419.02165710883685,569.2884972702136 M419.02165710883685,569.2884972702136 L417.631593334324,568.3093200011635 M417.631593334324,568.3093200011635 L416.5749713239818,566.8104249322672 M416.5749713239818,566.8104249322672 L415.9133160181772,564.8788279906241 M415.9133160181772,564.8788279906241 L415.68520828236177,562.626773126409 M415.68520828236177,562.626773126409 L415.90401631698603,560.1852095059836 M415.90401631698603,560.1852095059836 L416.5570541728261,557.6961786623635 M416.5570541728261,557.6961786623635 L417.6063510383501,555.3045058722983 M417.6063510383501,555.3045058722983 L418.99085932645403,553.1493437782699 M418.99085932645403,553.1493437782699 L420.6299956483682,551.3560888868719 M420.6299956483682,551.3560888868719 L422.4283690766808,550.0289816724214 M422.4283690766808,550.0289816724214 L424.281349463688,549.2451416078785 M424.281349463688,549.2451416078785 L426.0811731544898,549.050015169635 M426.0811731544898,549.050015169635 L427.7232269128089,549.4547576763598 M427.7232269128089,549.4547576763598 L429.1121296922484,550.4357001578826 M429.1121296922484,550.4357001578826 L430.16725888099296,551.9356648507389 M430.16725888099296,551.9356648507389 L430.82743151614,553.8673908005962 M430.82743151614,553.8673908005962 L431.05440639139755,556.1186044994224 M793.6284761778359,402.58468755708833 L793.3966071062355,404.99154112257884 M793.3966071062355,404.99154112257884 L792.7464496805353,407.4412486190497 M792.7464496805353,407.4412486190497 L791.7157715678145,409.7916112011866 M791.7157715678145,409.7916112011866 L790.3643893068283,411.90620777626617 M790.3643893068283,411.90620777626617 L788.7707325230181,413.66224470987567 M788.7707325230181,413.66224470987567 L787.0272931816919,414.95774701449636 M787.0272931816919,414.95774701449636 L785.2352850012242,415.71736957659664 M785.2352850012242,415.71736957659664 L783.4987869129425,415.89685934195285 M783.4987869129425,415.89685934195285 L781.9187057716547,415.48565311302934 M781.9187057716547,415.48565311302934 L780.5869165237475,414.5074497899318 M780.5869165237475,414.5074497899318 L779.580916869144,413.0189711222091 M779.580916869144,413.0189711222091 L778.9592842788579,411.1066313292313 M778.9592842788579,411.1066313292313 L778.7582671474152,408.88155660659453 M778.7582671474152,408.88155660659453 L778.9896531649106,406.4731270152857 M778.9896531649106,406.4731270152857 L779.6400223828216,404.02145458681105 M779.6400223828216,404.02145458681105 L780.6715586132536,401.66918830538964 M780.6715586132536,401.66918830538964 L782.0242487438736,399.5531853702452 M782.0242487438736,399.5531853702452 L783.6193635299426,397.7965616162732 M783.6193635299426,397.7965616162732 L785.364076991737,396.50142643665197 M785.364076991737,396.50142643665197 L787.1568835268802,395.7430408649142 M787.1568835268802,395.7430408649142 L788.8935213078071,395.56537457119225 M788.8935213078071,395.56537457119225 L790.4730514819487,395.97857300250115 M790.4730514819487,395.97857300250115 L791.8037253192751,396.9584808858841 M791.8037253192751,396.9584808858841 L792.808300654716,398.44798596623644 M792.808300654716,398.44798596623644 L793.428526302069,400.36043889575757 M793.428526302069,400.36043889575757 L793.6284761778359,402.58468755708833 M860.6211181149235,335.70991265500686 L871.4814472345884,330.720192412978 M871.4814472345884,330.720192412978 L881.2408894928485,325.3792582176469 M881.2408894928485,325.3792582176469 L889.7929971051708,319.75007640891465 M889.7929971051708,319.75007640891465 L897.0652602641644,313.89010306606315 M897.0652602641644,313.89010306606315 L902.9981486470922,307.8613784785789 M902.9981486470922,307.8613784785789 L907.5511841798457,301.7262614990408 M907.5511841798457,301.7262614990408 L910.702409990407,295.54619573690206 M910.702409990407,295.54619573690206 L912.447321700263,289.3805198638886 M912.447321700263,289.3805198638886 L912.7972141079351,283.285556598424 M912.7972141079351,283.285556598424 L911.7771654415133,277.3138782640934 M911.7771654415133,277.3138782640934 L909.4236963643762,271.51390527612506 M909.4236963643762,271.51390527612506 L905.7824733258908,265.9297227706512 M905.7824733258908,265.9297227706512 L900.9060423706369,260.60116089152336 M900.9060423706369,260.60116089152336 L894.8518693512692,255.56410000800756 M894.8518693512692,255.56410000800756 L887.6807785591232,250.8509081520004 M887.6807785591232,250.8509081520004 L880.1910254920963,246.84555903494785 M880.1910254920963,246.84555903494785 L871.8540483977524,243.151470498449 M122.92223811481949,555.9351715792303 L113.74279838614336,551.4378191948913 M113.74279838614336,551.4378191948913 L105.94876185498765,546.4951735536598 M105.94876185498765,546.4951735536598 L99.53632894865069,541.1065578908898 M99.53632894865069,541.1065578908898 L94.59628810126861,535.3287626757085 M94.59628810126861,535.3287626757085 L91.18811732512097,529.2031692538278 M91.18811732512097,529.2031692538278 L89.3706204002043,522.7734694156225 M89.3706204002043,522.7734694156225 L89.08722147827575,517.7523833198984 M89.08722147827575,517.7523833198984 L90.19398744584328,510.92078058640845 M90.19398744584328,510.92078058640845 L93.02606186719555,503.9477326439426 M93.02606186719555,503.9477326439426 L96.69338579481104,498.11944453438826 M96.69338579481104,498.11944453438826 L102.71978914373955,491.0860995027797 M102.71978914373955,491.0860995027797 L106.65977217144854,487.3492070954635 M106.65977217144854,487.3492070954635 L111.02820647004762,483.698621599581 M346.22351706518094,546.1402748856777 L333.3735728586228,551.1351992729697 M333.3735728586228,551.1351992729697 L319.60256352646576,555.6762135917612 M319.60256352646576,555.6762135917612 L305.1364158126806,559.6874879331369 M305.1364158126806,559.6874879331369 L290.12085197939984,563.1339301930354 M290.12085197939984,563.1339301930354 L274.7365093803737,565.9805442638088 M274.7365093803737,565.9805442638088 L259.16374818440556,568.2033583673498 M259.16374818440556,568.2033583673498 L243.58027502748052,569.788895835847 M243.58027502748052,569.788895835847 L228.16379381401276,570.7336442483783 M228.16379381401276,570.7336442483783 L213.06951707734288,571.0447492839177 M213.06951707734288,571.0447492839177 L198.77161634393246,570.7510993656194 M198.77161634393246,570.7510993656194 L184.71977411742773,569.8599381412939 M184.71977411742773,569.8599381412939 L173.17708061873077,568.6338913050599 M173.17708061873077,568.6338913050599 L160.49636434966817,566.7025539957463 M160.49636434966817,566.7025539957463 L148.67644704312534,564.2564708499369 M148.67644704312534,564.2564708499369 L137.77878545943997,561.3262077092077 M137.77878545943997,561.3262077092077 L130.07194277596534,558.7666987801731 M130.07194277596534,558.7666987801731 L122.92223811481949,555.9351715792303 M845.5932789527603,335.70991265500686 L346.22351706518094,546.1402748856777 M864.5387831575351,246.2066161135864 L873.7676421377962,250.41594179795234 M873.7676421377962,250.41594179795234 L881.7074315914956,255.05121498214555 M881.7074315914956,255.05121498214555 L888.3601034547553,260.115702592336 M888.3601034547553,260.115702592336 L893.6302703975489,265.55872629881037 M893.6302703975489,265.55872629881037 L897.4528709576844,271.3438766210674 M897.4528709576844,271.3438766210674 L899.7621828959304,277.4323255000852 M899.7621828959304,277.4323255000852 L900.4626455666087,282.1984263625699 M900.4626455666087,282.1984263625699 L899.9612322231762,288.69936582072455 M899.9612322231762,288.69936582072455 L897.7836013149902,295.3543174801613 M897.7836013149902,295.3543174801613 L894.685829186614,300.93184047093916 M894.685829186614,300.93184047093916 L889.3680271830638,307.6809688830465 M889.3680271830638,307.6809688830465 L882.3321166557209,314.3668753177309 M882.3321166557209,314.3668753177309 L873.6181612602211,320.8978871989362 M873.6181612602211,320.8978871989362 L863.3001001592918,327.1800834983103 M863.3001001592918,327.1800834983103 L854.7941998340609,331.56563489384183 M854.7941998340609,331.56563489384183 L845.5932789527603,335.70991265500686 M698.6853238986721,240.28787259684515 L713.32995696637,237.48329591184472 M713.32995696637,237.48329591184472 L728.5179506125921,235.21845149355443 M728.5179506125921,235.21845149355443 L742.4544667036735,233.68892236365764 M742.4544667036735,233.68892236365764 L757.3252271845272,232.6238215436582 M757.3252271845272,232.6238215436582 L771.9611282677927,232.15078126866115 M771.9611282677927,232.15078126866115 L785.7697933423449,232.24537839844993 M785.7697933423449,232.24537839844993 L799.5553357301999,232.89630558563857 M799.5553357301999,232.89630558563857 L812.7417394988618,234.08698731469468 M812.7417394988618,234.08698731469468 L823.7380749868707,235.5548326862795 M823.7380749868707,235.5548326862795 L835.5638375825058,237.6876817768876 M835.5638375825058,237.6876817768876 L846.5636811061929,240.28282819336357 M846.5636811061929,240.28282819336357 L855.910678181257,243.05696761371644 M855.910678181257,243.05696761371644 L864.5387831575351,246.2066161135864 M648.3137812342898,427.5463253252991 L150.98921306316254,637.3121441052399 M150.98921306316254,637.3121441052399 L150.12656071634933,532.6387568517027 M648.3137812342898,427.5463253252991 L648.6723872194409,324.69134262711566 M150.98921306316254,637.3121441052399 L139.17572544053826,642.7095182760576 M139.17572544053826,642.7095182760576 L128.4335418550927,648.4810689800289 M128.4335418550927,648.4810689800289 L118.90062473679865,654.5496230839956 M118.90062473679865,654.5496230839956 L110.66619662823115,660.8485022323484 M110.66619662823115,660.8485022323484 L103.80608541474089,667.3043318429894 M103.80608541474089,667.3043318429894 L98.37261212257016,673.843723350433 M98.37261212257016,673.843723350433 L94.3946524853497,680.3952818313275 M94.3946524853497,680.3952818313275 L91.87926899702211,686.8912532167388 M91.87926899702211,686.8912532167388 L90.81404819072418,693.2688263865579 M90.81404819072418,693.2688263865579 L91.17004949257023,699.4711396913347 M91.17004949257023,699.4711396913347 L92.905470165834,705.4476791776563 M92.905470165834,705.4476791776563 L95.96926981168104,711.1542992613591 M95.96926981168104,711.1542992613591 L100.30455808907732,716.5528562727018 M100.30455808907732,716.5528562727018 L105.85178882936412,721.610388721469 M105.85178882936412,721.610388721469 L112.55095621673803,726.298126825681 M112.55095621673803,726.298126825681 L118.22640474484399,729.5195203679881 M118.22640474484399,729.5195203679881 L124.4915648166226,732.5191340960598 M124.4915648166226,732.5191340960598 L122.92223811481949,555.9351715792303 M863.0711448954705,418.2322137659202 L852.7169608014412,414.45634382756435 M852.7169608014412,414.45634382756435 L841.309118240956,411.2162943909123 M841.309118240956,411.2162943909123 L828.8961911259671,408.5312900538509 M828.8961911259671,408.5312900538509 L815.5748524146738,406.434451477345 M815.5748524146738,406.434451477345 L801.4373535345578,404.95514677578814 M801.4373535345578,404.95514677578814 L786.5895693336695,404.1225439508839 M786.5895693336695,404.1225439508839 L771.1546586747527,403.96393963222175 M771.1546586747527,403.96393963222175 L755.2755845304314,404.50267438607625 M755.2755845304314,404.50267438607625 L739.1159394511637,405.75582344632653 M739.1159394511637,405.75582344632653 L722.8592847632863,407.73175748834444 M722.8592847632863,407.73175748834444 L706.70661705627,410.4279295781743 M706.70661705627,410.4279295781743 L690.8719879846744,413.8290666190261 M690.8719879846744,413.8290666190261 L675.5767763607482,417.90594089186516 M675.5767763607482,417.90594089186516 L661.4710142113593,422.46302757596476 M661.4710142113593,422.46302757596476 L648.3137812342898,427.5463253252991 M863.0711448954705,418.2322137659202 L864.5387831575351,246.2066161135864 M431.05440639139755,556.1186044994224 L429.73478702554496,553.4366123692153 M429.73478702554496,553.4366123692153 L428.4159217757819,550.7561529032517 M428.4159217757819,550.7561529032517 L428.0544459253371,554.780044708843 M428.0544459253371,554.780044708843 L426.978045775553,558.8812163442117 M426.978045775553,558.8812163442117 L425.2492156968353,562.8218059772 M425.2492156968353,562.8218059772 L422.9682208890073,566.373261289996 M422.9682208890073,566.373261289996 L420.267330954263,569.3295029532671 M420.267330954263,569.3295029532671 L417.30313709251175,571.5188990030667 M417.30313709251175,571.5188990030667 L414.2475857853865,572.8141082031736 M414.2475857853865,572.8141082031736 L411.2780792384441,573.1395537661822 M411.2780792384441,573.1395537661822 L408.56714744654806,572.4759097327296 M408.56714744654806,572.4759097327296 L406.2724516655111,570.8612518283492 M406.2724516655111,570.8612518283492 L404.52764507476,568.3890076985083 M404.52764507476,568.3890076985083 L403.4344749555117,565.2026041181983 M403.4344749555117,565.2026041181983 L403.05680339507586,561.4871920137631 M403.05680339507586,561.4871920137631 L403.41685358086823,557.4588959055241 M403.41685358086823,557.4588959055241 L404.4938127545152,553.3522138768432 M404.4938127545152,553.3522138768432 L406.22505850826496,549.4062701121397 M406.22505850826496,549.4062701121397 L408.50977223946575,545.8508435004762 M408.50977223946575,545.8508435004762 L411.21483234391343,542.8929231579066 M411.21483234391343,542.8929231579066 L414.18269231849405,540.704525579802 M414.18269231849405,540.704525579802 L417.2405658233108,539.4127633104767 M417.2405658233108,539.4127633104767 L420.21051864658284,539.0924234579654 M420.21051864658284,539.0924234579654 L422.919918575978,539.7616623117365 M422.919918575978,539.7616623117365 L425.21145526511714,541.3811224907856 M425.21145526511714,541.3811224907856 L426.95219926265077,543.8562761643072 M426.95219926265077,543.8562761643072 L428.0413339849208,547.0430300219855 M428.0413339849208,547.0430300219855 L428.4159217757819,550.7561529032517 M793.6284761778359,402.58468755708833 L792.228508354807,399.98972961635536 M792.228508354807,399.98972961635536 L790.8293274815933,397.39623035319926 M790.8293274815933,397.39623035319926 L790.4471816760401,401.36557389123885 M790.4471816760401,401.36557389123885 L789.3751854523159,405.4052745398027 M789.3751854523159,405.4052745398027 L787.6755762478888,409.2810286418408 M787.6755762478888,409.2810286418408 L785.4469279993602,412.7680369079613 M785.4469279993602,412.7680369079613 L782.8184810649152,415.6639534869453 M782.8184810649152,415.6639534869453 L779.9426341816668,417.8006446714296 M779.9426341816668,417.8006446714296 L776.9862167832489,419.0538322729136 M776.9862167832489,419.0538322729136 L774.120881726215,419.3503888520279 M774.120881726215,419.3503888520279 L771.5131106336833,418.6726793075534 M771.5131106336833,418.6726793075534 L769.3145674238222,417.0596117537926 M769.3145674238222,417.0596117537926 L767.6533057899701,414.6045357202691 M767.6533057899701,414.6045357202691 L766.6262018356949,411.44989031384324 M766.6262018356949,411.44989031384324 L766.2932610120645,407.7789843965317 M766.2932610120645,407.7789843965317 L766.6740912380574,403.8053524975863 M766.6740912380574,403.8053524975863 L767.7466629297503,399.76030566404216 M767.7466629297503,399.76030566404216 L769.448606843815,395.8793722876316 M769.448606843815,395.8793722876316 L771.6808141890358,392.3885381711348 M771.6808141890358,392.3885381711348 L774.3132292216678,389.4910256313602 M774.3132292216678,389.4910256313602 L777.1925441921521,387.3553339585414 M777.1925441921521,387.3553339585414 L780.151135173275,386.1055124097559 M780.151135173275,386.1055124097559 L783.0168513493509,385.8139172738971 M783.0168513493509,385.8139172738971 L785.6231238056512,386.49704703270226 M785.6231238056512,386.49704703270226 L787.8186319224194,388.1147519148601 M787.8186319224194,388.1147519148601 L789.4760173271845,390.5726199940628 M789.4760173271845,390.5726199940628 L790.499291919795,393.7275725453835 M790.499291919795,393.7275725453835 L790.8293274815933,397.39623035319926 M124.4915648166226,732.5191340960598 L134.89447393560897,736.5594246035057 M134.89447393560897,736.5594246035057 L146.44772105873642,740.0317308983448 M146.44772105873642,740.0317308983448 L159.10078893273771,742.9129634133012 M159.10078893273771,742.9129634133012 L172.753154796628,745.1654184063591 M172.753154796628,745.1654184063591 L187.30724908091656,746.7557632124154 M187.30724908091656,746.7557632124154 L202.6501030820075,747.6513198354744 M202.6501030820075,747.6513198354744 L218.6495299989141,747.8219536765414 M218.6495299989141,747.8219536765414 L235.1515528848323,747.242406596788 M235.1515528848323,747.242406596788 L251.97969139675732,745.8948569993003 M251.97969139675732,745.8948569993003 L268.93590803110345,743.7715874284239 M268.93590803110345,743.7715874284239 L285.8036267048226,740.8773581916217 M285.8036267048226,740.8773581916217 L302.3527732467537,737.2312802305447 M302.3527732467537,737.2312802305447 L318.34627593564323,732.8679905880491 M318.34627593564323,732.8679905880491 L333.0998584109584,728.0000070236144 M333.0998584109584,728.0000070236144 L346.8627248038829,722.5814054110908 M346.8627248038829,722.5814054110908 L346.22351706518094,546.1402748856777 M346.8627248038829,722.5814054110908 L844.1882370798751,509.06162913302524 M844.1882370798751,509.06162913302524 L845.5932789527603,335.70991265500686 M844.1882370798751,509.06162913302524 L855.4389637802212,503.81547699739394 M855.4389637802212,503.81547699739394 L865.581211946311,498.21875110172766 M865.581211946311,498.21875110172766 L874.4870583594318,492.3485888278032 M874.4870583594318,492.3485888278032 L882.0772881662306,486.2713685314669 M882.0772881662306,486.2713685314669 L888.287603790192,480.05929008206095 M888.287603790192,480.05929008206095 L893.0777528175608,473.7838361848401 M893.0777528175608,473.7838361848401 L896.4309390971559,467.513825310386 M896.4309390971559,467.513825310386 L898.351715435921,461.3138612733895 M898.351715435921,461.3138612733895 L898.863239314866,455.24315542139806 M898.863239314866,455.24315542139806 L898.0040037998426,449.3546632838774 M898.0040037998426,449.3546632838774 L895.8239850898419,443.69482027639 M895.8239850898419,443.69482027639 L892.3809325403404,438.30364265288836 M892.3809325403404,438.30364265288836 L887.7369890134871,433.2151919112999 M887.7369890134871,433.2151919112999 L881.9555947690735,428.45845570339344 M881.9555947690735,428.45845570339344 L875.0994176179154,424.0583726084287 M875.0994176179154,424.0583726084287 L869.3583404338117,421.0395782426827 M869.3583404338117,421.0395782426827 L863.0711448954705,418.2322137659202" stroke="black"  stroke-width="4"  fill="red"/>
<path d="M431.8993551086359,557.8358840150534 L431.7255907859196,559.768631076096 M431.7255907859196,559.768631076096 L431.2084301127632,561.7386968692058 M431.2084301127632,561.7386968692058 L430.3779213358086,563.6317309366373 M430.3779213358086,563.6317309366373 L429.28228332078686,565.3377889302517 M429.28228332078686,565.3377889302517 L427.98512698053634,566.7578131713435 M427.98512698053634,566.7578131713435 L426.56174443405587,567.8093071405629 M426.56174443405587,567.8093071405629 L425.0947891241341,568.4311450039913 M425.0947891241341,568.4311450039913 L423.66946958447403,568.5871198639463 M423.66946958447403,568.5871198639463 L422.3686152115685,568.2680604071861 M422.3686152115685,568.2680604071861 L421.2678453467864,567.4924118823385 M421.2678453467864,567.4924118823385 L420.43120456826813,566.3051353268912 M420.43120456826813,566.3051353268912 L419.9073958866693,564.775206779882 M419.9073958866693,564.775206779882 L419.7269443836824,562.9914959187058 M419.7269443836824,562.9914959187058 L419.90038034690696,561.0577333584822 M419.90038034690696,561.0577333584822 L420.41767017231587,559.0863969116783 M420.41767017231587,559.0863969116783 L421.2487360130769,557.1921281073335 M421.2487360130769,557.1921281073335 L422.34523139386755,555.4851541810579 M422.34523139386755,555.4851541810579 L423.64334897801393,554.0647426247285 M423.64334897801393,554.0647426247285 L425.0675764486001,553.0134786952788 M425.0675764486001,553.0134786952788 L426.53506679687086,552.392435523094 M426.53506679687086,552.392435523094 L427.9604889185492,552.2376379519937 M427.9604889185492,552.2376379519937 L429.26098991773716,552.5579875919871 M429.26098991773716,552.5579875919871 L430.3610314042727,553.3347436341346 M430.3610314042727,553.3347436341346 L431.1967356606453,554.5226913178017 M431.1967356606453,554.5226913178017 L431.71961423145433,556.052700856797 M431.71961423145433,556.052700856797 L431.8993551086359,557.8358840150534 M431.8993551086359,557.8358840150534 L430.2097668236595,554.4019533013372 M430.2097668236595,554.4019533013372 L428.5214028212144,550.9705295225226 M428.5214028212144,550.9705295225226 L426.834273315784,547.541624792839 M426.834273315784,547.541624792839 L426.3710947887141,542.9518915213002 M426.3710947887141,542.9518915213002 L425.02462537144197,539.0123521482319 M425.02462537144197,539.0123521482319 L422.87260142935594,535.95200353925 M422.87260142935594,535.95200353925 L420.0395560430057,533.9490797237694 M420.0395560430057,533.9490797237694 L416.68973076729725,533.1206083628267 M416.68973076729725,533.1206083628267 L413.01761178644443,533.5154548969383 M413.01761178644443,533.5154548969383 L409.2366372699602,535.111373051857 M409.2366372699602,535.111373051857 L405.56688313506385,537.8160500231368 M405.56688313506385,537.8160500231368 L402.22207172919644,541.4724232877911 M402.22207172919644,541.4724232877911 L399.39714440359086,545.8677856066627 M399.39714440359086,545.8677856066627 L397.2567825274303,550.7461646092734 M397.2567825274303,550.7461646092734 L395.9256535593672,555.8233653555726 M395.9256535593672,555.8233653555726 L395.4812363144761,560.8035741157319 M395.4812363144761,560.8035741157319 L395.94912823906185,565.3968059016421 M395.94912823906185,565.3968059016421 L397.30177683685486,569.3358057245462 M397.30177683685486,569.3358057245462 L399.45999760724436,572.3917141050727 M399.45999760724436,572.3917141050727 L402.2978703811937,574.3873004372749 M402.2978703811937,574.3873004372749 L405.6500359601945,575.2072229723356 M405.6500359601945,575.2072229723356 L409.32147203886655,574.80457469406 M409.32147203886655,574.80457469406 L413.0988968745397,573.2033891481296 M413.0988968745397,573.2033891481296 L416.76304777544254,570.497185891734 M416.76304777544254,570.497185891734 L420.1014859854365,566.8433770300452 M420.1014859854365,566.8433770300452 L422.9207301810697,562.4540823639168 M422.9207301810697,562.4540823639168 L425.05741269337767,557.5838792729094 M425.05741269337767,557.5838792729094 L426.3876764155412,552.5151034455871 M426.3876764155412,552.5151034455871 L426.834273315784,547.541624792839 M431.8993551086359,557.8358840150534 L560.8883943617068,612.8067051193276 M560.8883943617068,612.8067051193276 L560.7089650441849,614.7487914499377 M560.7089650441849,614.7487914499377 L560.1864683293277,616.7294119450148 M560.1864683293277,616.7294119450148 L559.3512620834238,618.6336040569064 M559.3512620834238,618.6336040569064 L558.251837733608,620.3507760657717 M558.251837733608,620.3507760657717 L556.9520256118881,621.7812254625497 M556.9520256118881,621.7812254625497 L555.5272717296875,622.8418504756346 M555.5272717296875,622.8418504756346 L554.0603089438825,623.4709946257855 M554.0603089438825,623.4709946257855 L552.6363462215288,623.632025831348 M552.6363462215288,623.632025831348 L551.3381343869617,623.3154778601149 M551.3381343869617,623.3154778601149 L550.2411396577565,622.5396488528249 M550.2411396577565,622.5396488528249 L549.4091878441543,621.349509025534 M549.4091878441543,621.349509025534 L548.8907098909524,619.8142001249895 M548.8907098909524,619.8142001249895 L548.7159215708166,618.0229040171965 M548.7159215708166,618.0229040171965 L548.8950241409723,616.0797925864027 M548.8950241409723,616.0797925864027 L549.4176544910163,614.0978877696995 M549.4176544910163,614.0978877696995 L550.2534241274855,612.1924463170211 M550.2534241274855,612.1924463170211 L551.3537125642281,610.4743461814824 M551.3537125642281,610.4743461814824 L552.654491505659,609.043502478686 M552.654491505659,609.043502478686 L554.0800934651131,607.9831073193764 M554.0800934651131,607.9831073193764 L555.5475912973932,607.3547645218387 M555.5475912973932,607.3547645218387 L556.971653463009,607.1949225878273 M556.971653463009,607.1949225878273 L558.2695063572776,607.5127753012166 M558.2695063572776,607.5127753012166 L559.3657659890396,608.2897256257444 M559.3657659890396,608.2897256257444 L560.1967749479745,609.4805464607704 M560.1967749479745,609.4805464607704 L560.7143182952859,611.0159400490891 M560.7143182952859,611.0159400490891 L560.8883943617068,612.8067051193276" stroke="black"  stroke-width="4"  fill="red"/>
<path d="M794.5248651927557,404.2462263373747 L794.3411681350481,406.1527570067298 M794.3411681350481,406.1527570067298 L793.826127267354,408.09327199731905 M793.826127267354,408.09327199731905 L793.0096668966191,409.95513459649544 M793.0096668966191,409.95513459649544 L791.9391913118036,411.63020901585656 M791.9391913118036,411.63020901585656 L790.6768517602134,413.02123526401147 M790.6768517602134,413.02123526401147 L789.2959213648157,414.047400387508 M789.2959213648157,414.047400387508 L787.8765901441109,414.6490505453628 M787.8765901441109,414.6490505453628 L786.5013018167988,414.7911536694333 M786.5013018167988,414.7911536694333 L785.2499793464658,414.46534757263254 M785.2499793464658,414.46534757263254 L784.1953631223819,413.6904727727989 M784.1953631223819,413.6904727727989 L783.3988128377432,412.51144895994884 M783.3988128377432,412.51144895994884 L782.9066976211686,410.9967744517354 M782.9066976211686,410.9967744517354 L782.747696761236,409.23443377868205 M782.747696761236,409.23443377868205 L782.9310908374357,407.32691435078516 M782.9310908374357,407.32691435078516 L783.4462646397403,405.3851665868427 M783.4462646397403,405.3851665868427 L784.2632633953583,403.5221095933427 M784.2632633953583,403.5221095933427 L785.3345594842926,401.8461528035152 M785.3345594842926,401.8461528035152 L786.5978136806989,400.4547583335948 M786.5978136806989,400.4547583335948 L787.9795433383181,399.4288235003859 M787.9795433383181,399.4288235003859 L789.3993753335135,398.82794938403845 M789.3993753335135,398.82794938403845 L790.7747512264311,398.6869902712552 M790.7747512264311,398.6869902712552 L792.0257279941159,399.0140462694024 M792.0257279941159,399.0140462694024 L793.0796444412404,399.78999052825526 M793.0796444412404,399.78999052825526 L793.87530118317,400.9696583534502 M793.87530118317,400.9696583534502 L794.3665337999862,402.4844038921705 M794.3665337999862,402.4844038921705 L794.5248651927557,404.2462263373747 M794.5248651927557,404.2462263373747 L792.732409768158,400.9237467550363 M792.732409768158,400.9237467550363 L790.9412211003919,397.60365779484675 M790.9412211003919,397.60365779484675 L789.1513437417561,394.2859568775492 M789.1513437417561,394.2859568775492 L788.743218695322,389.75117828487737 M788.743218695322,389.75117828487737 L787.4781266406033,385.850962060006 M787.4781266406033,385.850962060006 L785.4291344043286,382.81200016675166 M785.4291344043286,382.81200016675166 L782.714778396869,380.81128249773866 M782.714778396869,380.81128249773866 L779.49242965505,379.96568229031413 M779.49242965505,379.96568229031413 L775.9491701278023,380.3250378696141 M775.9491701278023,380.3250378696141 L772.2909414652859,381.86914601207855 M772.2909414652859,381.86914601207855 L768.7306654620977,384.5086947994116 M768.7306654620977,384.5086947994116 L765.4756772364472,388.0904066704065 M765.4756772364472,388.0904066704065 L762.7156711674506,392.40592420434916 M762.7156711674506,392.40592420434916 L760.6115227086254,397.203939450934 M760.6115227086254,397.203939450934 L759.2858187824704,402.2049361183648 M759.2858187824704,402.2049361183648 L758.8156902239323,407.117565490566 M758.8156902239323,407.117565490566 L759.22825589649,411.6557797578828 M759.22825589649,411.6557797578828 L760.4991892364458,415.55553205296536 M760.4991892364458,415.55553205296536 L762.5541166204102,418.5902234321838 M762.5541166204102,418.5902234321838 L765.2731105680282,420.5838555888173 M765.2731105680282,420.5838555888173 L768.4977488708405,421.42117371468834 M768.4977488708405,421.42117371468834 L772.0404250825322,421.05423680149755 M772.0404250825322,421.05423680149755 L775.6953311667605,419.50498485119226 M775.6953311667605,419.50498485119226 L779.2503065256174,416.8639082220148 M779.2503065256174,416.8639082220148 L782.4992303153342,413.28463441564855 M782.4992303153342,413.28463441564855 L785.2537974507993,408.9749623560712 M785.2537974507993,408.9749623560712 L787.3543671633033,404.1848656602557 M787.3543671633033,404.1848656602557 L788.6792037623447,399.19203328557626 M788.6792037623447,399.19203328557626 L789.1513437417561,394.2859568775492 M794.5248651927557,404.2462263373747 L923.4798326960001,457.42750702972336 M923.4798326960001,457.42750702972336 L923.2905078706831,459.3431356544102 M923.2905078706831,459.3431356544102 L922.7702315920817,461.2938929011852 M922.7702315920817,461.2938929011852 L921.9492319446356,463.16654807128964 M921.9492319446356,463.16654807128964 L920.8751766120461,464.8523391874962 M920.8751766120461,464.8523391874962 L919.6104242941071,466.25338446301214 M919.6104242941071,466.25338446301214 L918.2283879310614,467.28828925418776 M918.2283879310614,467.28828925418776 L916.8093215726201,467.89689180820517 M916.8093215726201,467.89689180820517 L915.4356535685868,468.0437554566733 M915.4356535685868,468.0437554566733 L914.1872130000315,467.72024032917005 M914.1872130000315,467.72024032917005 L913.136573206338,466.94505270542606 M913.136573206338,466.94505270542606 L912.3448633773194,465.76312920979046 M912.3448633773194,465.76312920979046 L911.8581717267916,464.24313602913 M911.8581717267916,464.24313602913 L911.7048627938307,462.47336632892046 M911.7048627938307,462.47336632892046 L911.8938864267777,460.55673970112156 M911.8938864267777,460.55673970112156 L912.4143000440158,458.60473661629607 M912.4143000440158,458.60473661629607 L913.2358440863616,456.73087315984316 M913.2358440863616,456.73087315984316 L914.3107261622074,455.04418813653524 M914.3107261622074,455.04418813653524 L915.5763981639116,453.642768100786 M915.5763981639116,453.642768100786 L916.9592364735975,452.6080935575325 M916.9592364735975,452.6080935575325 L918.3788033214464,452.0002735084335 M918.3788033214464,452.0002735084335 L919.7525557018103,451.85456535975277 M919.7525557018103,451.85456535975277 L921.0006452048801,452.17934427030735 M921.0006452048801,452.17934427030735 L922.0505789137508,452.95561444790724 M922.0505789137508,452.95561444790724 L922.8413893922304,454.1381912639499 M922.8413893922304,454.1381912639499 L923.327194465744,455.6582588640168 M923.327194465744,455.6582588640168 L923.4798326960001,457.42750702972336" stroke="black"  stroke-width="4"  fill="red"/></svg>