<svg viewBox="0 0 1000 1000" xmlns="http://www.w3.org/2000/svg"><path d="M5252.717689699651,-682.3978943906341 L2761.779785191001,54.712159710601554 M2761.779785191001,54.712159710601554 L2393.706825381998,-779.9698704638324 M2393.706825381998,-779.9698704638324 L2545.0983755634497,-729.5267265709238 M2545.0983755634497,-729.5267265709238 L2689.886611154392,-691.8508623532666 M2689.886611154392,-691.8508623532666 L2827.5051849965266,-665.9664352566654 M2827.5051849965266,-665.9664352566654 L2957.599717586876,-650.9200432039133 M2957.599717586876,-650.9200432039133 L3079.9803607473295,-645.8055340035055 M3079.9803607473295,-645.8055340035055 L3194.5802726847296,-649.7789524502982 M3194.5802726847296,-649.7789524502982 L3301.4224411849154,-662.0675463033899 M5084.393679899704,-942.6545212903914 L3301.4224411849154,-662.0675463033899 M5084.393679899704,-942.6545212903914 L5115.91079167265,-950.0332884001082 M5115.91079167265,-950.0332884001082 L5146.5421493625,-961.9674718520546 M5146.5421493625,-961.9674718520546 L5176.1333635383435,-978.2159821635737 M5176.1333635383435,-978.2159821635737 L5204.546571550632,-998.54003868125 M5204.546571550632,-998.54003868125 L5231.65810192687,-1022.705178829905 M5231.65810192687,-1022.705178829905 L5257.355828041752,-1050.482633010168 M5257.355828041752,-1050.482633010168 L5281.536967990068,-1081.649653967371 M5252.717689699651,-682.3978943906341 L5281.536967990068,-1081.649653967371 M2761.779785191001,54.712159710601554 L2634.5282742716217,94.08924203669199 M2634.5282742716217,94.08924203669199 L2501.1808662397457,138.91839994339477 M2501.1808662397457,138.91839994339477 L2361.901711099721,189.47223486776863 M2361.901711099721,189.47223486776863 L2216.716186780449,246.10407267371056 M2216.716186780449,246.10407267371056 L2065.821197490578,309.1461343261549 M2065.821197490578,309.1461343261549 L1909.5392585718555,378.9232500909234 M1909.5392585718555,378.9232500909234 L1748.3530965732762,455.7389495264972 M1748.3530965732762,455.7389495264972 L1582.9440609775124,539.8582566851799 M1582.9440609775124,539.8582566851799 L1414.2396879909184,631.4840085213973 M1414.2396879909184,631.4840085213973 L1243.4673072938845,730.7269890494033 M1243.4673072938845,730.7269890494033 L1072.2181958367873,837.5663481410945 M1072.2181958367873,837.5663481410945 L902.5166610096762,951.8002417490629 M902.5166610096762,951.8002417490629 L736.8941797990901,1072.9844119361546 M736.8941797990901,1072.9844119361546 L578.4616013281652,1200.3580999274434 M578.4616013281652,1200.3580999274434 L430.96708546225955,1332.7597406491896 M430.96708546225955,1332.7597406491896 L309.29120124316523,1456.9674466677147 M309.29120124316523,1456.9674466677147 L204.1797372384808,1582.517959970378 M204.1797372384808,1582.517959970378 L105.4116071234057,1733.0843295930622 M105.4116071234057,1733.0843295930622 L45.611145130952536,1877.2786280675195 M45.611145130952536,1877.2786280675195 L32.62329643128032,2009.6407147961359 M32.62329643128032,2009.6407147961359 L73.48359474511017,2123.7146969095593 M73.48359474511017,2123.7146969095593 L173.10029076021874,2213.000386028744 M173.10029076021874,2213.000386028744 L333.1785004659764,2271.5590837807927 M333.1785004659764,2271.5590837807927 L551.3202089564902,2294.849630518867 M551.3202089564902,2294.849630518867 L820.6719335637822,2280.500729357185 M820.6719335637822,2280.500729357185 L1130.3458759894588,2228.798276063517 M1130.3458759894588,2228.798276063517 L1466.5966040166727,2142.733804970725 M1466.5966040166727,2142.733804970725 L1814.5019844594103,2027.5787638520624 M1814.5019844594103,2027.5787638520624 L2159.7386675788357,1890.09806935302 M2159.7386675788357,1890.09806935302 L2490.0389909175983,1737.6207722171102 M2490.0389909175983,1737.6207722171102 L2796.0603896887633,1577.1987210426173 M2796.0603896887633,1577.1987210426173 L2967.266272707642,1478.5896814698863 M2967.266272707642,1478.5896814698863 L3126.230785573656,1380.5974273044653 M3126.230785573656,1380.5974273044653 L6083.112662105329,-504.691691161717 M6083.112662105329,-504.691691161717 L6100.092582403369,-517.5933564801197 M6100.092582403369,-517.5933564801197 L6111.543968870794,-530.9591240588506 M6111.543968870794,-530.9591240588506 L6117.599381344628,-544.5735502568177 M6117.599381344628,-544.5735502568177 L6118.50430944875,-558.2568715826997 M6118.50430944875,-558.2568715826997 L6114.568617656441,-571.8402861232996 M6114.568617656441,-571.8402861232996 L6106.153602372851,-585.1759873255178 M6106.153602372851,-585.1759873255178 L6093.651968966599,-598.1382539309993 M6093.651968966599,-598.1382539309993 L6077.469839953858,-610.6235033835869 M6077.469839953858,-610.6235033835869 L6058.011640115956,-622.5491568507789 M6058.011640115956,-622.5491568507789 L6035.667927602299,-633.8518780389022 M6035.667927602299,-633.8518780389022 L6010.80632237822,-644.48516315191 M6010.80632237822,-644.48516315191 L5983.765555341918,-654.4167373474395 M5983.765555341918,-654.4167373474395 L5954.852037858115,-663.6258172664247 M5954.852037858115,-663.6258172664247 L5924.338924448202,-672.1004001237741 M5924.338924448202,-672.1004001237741 L5892.467052458855,-679.8347652433495 M5892.467052458855,-679.8347652433495 L5862.281136842314,-686.2642373267524 M5862.281136842314,-686.2642373267524 L5831.226614384474,-692.0809257918711 M5831.226614384474,-692.0809257918711 L5792.673744017005,-698.2951517279344 M5792.673744017005,-698.2951517279344 L5753.338577922333,-703.59031139788 M5753.338577922333,-703.59031139788 L5713.347280688982,-707.9719241356242 M5713.347280688982,-707.9719241356242 L5672.906450635893,-711.4294656745137 M5672.906450635893,-711.4294656745137 L5632.191955607332,-713.9528157889899 M5632.191955607332,-713.9528157889899 L5591.385783571706,-715.5280241308342 M5591.385783571706,-715.5280241308342 L5550.682241739562,-716.1379435833715 M5550.682241739562,-716.1379435833715 L5510.29301392444,-715.763274759001 M5510.29301392444,-715.763274759001 L5470.45065462814,-714.3837800279225 M5470.45065462814,-714.3837800279225 L5431.410865011654,-711.9798247538099 M5431.410865011654,-711.9798247538099 L5393.453733551201,-708.5341283279104 M5393.453733551201,-708.5341283279104 L5356.883536329575,-704.0335589574338 M5356.883536329575,-704.0335589574338 L5322.0269315150235,-698.4709217040668 M5322.0269315150235,-698.4709217040668 L5289.230782378201,-691.8469707939596 M5289.230782378201,-691.8469707939596 L5270.478456927451,-687.3117450661248 M5270.478456927451,-687.3117450661248 L5252.717689699651,-682.3978943906341 M204.1797372384808,1582.517959970378 L-3949.7735188245897,-1294.849630518866 M1515.9533792940483,-1294.8496305188667 L1277.2209726888605,-1294.8496305188662 M1277.2209726888605,-1294.8496305188662 L1018.1048319900397,-1294.8496305188667 M1018.1048319900397,-1294.8496305188667 L738.7466691404588,-1294.8496305188662 M738.7466691404588,-1294.8496305188662 L436.2800656605732,-1294.8496305188662 M436.2800656605732,-1294.8496305188662 L108.66960531882341,-1294.8496305188662 M108.66960531882341,-1294.8496305188662 L-246.16509035773652,-1294.8496305188662 M-246.16509035773652,-1294.8496305188662 L-630.2529552599262,-1294.8496305188664 M-630.2529552599262,-1294.8496305188664 L-1045.4007324117856,-1294.8496305188662 M-1045.4007324117856,-1294.8496305188662 L-1492.9280971133658,-1294.8496305188662 M-1492.9280971133658,-1294.8496305188662 L-1973.255556317672,-1294.849630518866 M-1973.255556317672,-1294.849630518866 L-2485.2861325439635,-1294.8496305188662 M-2485.2861325439635,-1294.8496305188662 L-3025.5131767550047,-1294.849630518866 M-3025.5131767550047,-1294.849630518866 L-3483.4496775483103,-1294.8496305188658 M-3483.4496775483103,-1294.8496305188658 L-3949.7735188245897,-1294.849630518866 M1515.9533792940483,-1294.8496305188667 L1675.152213070745,-1169.7544337320842 M1675.152213070745,-1169.7544337320842 L1838.1810286098607,-1057.9763100882742 M1838.1810286098607,-1057.9763100882742 L1976.7222697449215,-974.4940095342472 M1976.7222697449215,-974.4940095342472 L2131.756419699587,-892.5768546081968 M2131.756419699587,-892.5768546081968 L2262.712226664082,-832.3319453023989 M2262.712226664082,-832.3319453023989 L2393.706825381998,-779.9698704638324 M2518.789475712805,-726.8184359305021 L2672.41804550873,-685.2598967170356 M2672.41804550873,-685.2598967170356 L2818.1366762317875,-656.7046137063869 M2818.1366762317875,-656.7046137063869 L2955.5586252756502,-640.0470288011095 M2955.5586252756502,-640.0470288011095 L3084.4905721440578,-634.2401507414418 M3084.4905721440578,-634.2401507414418 L3204.8838947596055,-638.3145151294768 M3204.8838947596055,-638.3145151294768 L3316.7912464162205,-651.3876799031289 M1486.832312078177,-1294.8496305188664 L1652.2953959694496,-1166.1853061816876 M1652.2953959694496,-1166.1853061816876 L1820.983482668446,-1051.7330887787332 M1820.983482668446,-1051.7330887787332 L1982.811091060561,-956.0288822996013 M1982.811091060561,-956.0288822996013 L2142.6425252845665,-873.992117612318 M2142.6425252845665,-873.992117612318 L2295.7858926556983,-806.442647178056 M2295.7858926556983,-806.442647178056 L2407.5199688087905,-763.7947069034633 M2407.5199688087905,-763.7947069034633 L2518.789475712805,-726.8184359305021 M1515.9533792940483,-1294.8496305188667 L1486.832312078177,-1294.8496305188664 M3316.7912464162205,-651.3876799031289 L3301.4224411849154,-662.0675463033899 M3316.7912464162205,-651.3876799031289 L5109.508579187998,-939.3706508080745 M5109.508579187998,-939.3706508080745 L5084.393679899704,-942.6545212903914 M5429.984616977925,-1294.8496305188667 L5411.307906573456,-1251.4837878283176 M5411.307906573456,-1251.4837878283176 L5390.413807548003,-1209.4721900553923 M5390.413807548003,-1209.4721900553923 L5368.7186828746935,-1170.8800711118458 M5368.7186828746935,-1170.8800711118458 L5345.821877065012,-1134.252111239347 M5345.821877065012,-1134.252111239347 L5322.66007433249,-1100.5468314755426 M5322.66007433249,-1100.5468314755426 L5305.122338706392,-1076.8822822752354 M5305.122338706392,-1076.8822822752354 L5287.244879500365,-1054.1911432736156 M5109.508579187998,-939.3706508080745 L5141.974660147349,-947.1827547434909 M5141.974660147349,-947.1827547434909 L5173.510168718411,-959.8790333724546 M5173.510168718411,-959.8790333724546 L5203.94686345045,-977.1905960016522 M5203.94686345045,-977.1905960016522 L5233.13535841808,-998.85188711215 M5233.13535841808,-998.85188711215 L5260.941690042053,-1024.6030336184963 M5260.941690042053,-1024.6030336184963 L5287.244879500365,-1054.1911432736156 M5397.529078858267,-1294.8496305188667 L5379.740224885041,-1251.81682468589 M5379.740224885041,-1251.81682468589 L5359.828282628144,-1210.0827795478908 M5359.828282628144,-1210.0827795478908 L5341.675366114872,-1176.1490466821592 M5341.675366114872,-1176.1490466821592 L5320.163349931464,-1139.677384671154 M5320.163349931464,-1139.677384671154 L5301.150227393867,-1110.0828718425246 M5301.150227393867,-1110.0828718425246 L5281.536967990068,-1081.649653967371 M5397.529078858267,-1294.8496305188667 L5429.984616977925,-1294.8496305188667 M5938.092758063789,-1294.8496305188667 L5894.139747428629,-1294.849630518867 M5894.139747428629,-1294.849630518867 L5849.58540620344,-1294.8496305188667 M5849.58540620344,-1294.8496305188667 L5804.547830815495,-1294.849630518867 M5804.547830815495,-1294.849630518867 L5759.235967252704,-1294.849630518867 M5759.235967252704,-1294.849630518867 L5713.823520960734,-1294.8496305188667 M5713.823520960734,-1294.8496305188667 L5668.490712516498,-1294.8496305188667 M5668.490712516498,-1294.8496305188667 L5623.431173787567,-1294.8496305188667 M5623.431173787567,-1294.8496305188667 L5578.857590529789,-1294.8496305188667 M5578.857590529789,-1294.8496305188667 L5535.005706032714,-1294.8496305188667 M5535.005706032714,-1294.8496305188667 L5492.137077734212,-1294.849630518867 M5492.137077734212,-1294.849630518867 L5450.5408294540475,-1294.849630518867 M5450.5408294540475,-1294.849630518867 L5423.5870628950215,-1294.849630518867 M5423.5870628950215,-1294.849630518867 L5397.529078858267,-1294.8496305188667 M5831.226614384474,-692.0809257918711 L5938.092758063789,-1294.8496305188667 M3126.230785573656,1380.5974273044653 L1774.3740680303226,-1294.8496305188667 M-3949.7735188245897,-1294.849630518866 L-4577.500971985819,-1294.8496305188658 M-4577.500971985819,-1294.8496305188658 L-5166.706167244378,-1294.8496305188658 M-5166.706167244378,-1294.8496305188658 L-5669.628101556062,-1294.8496305188667 M-5669.628101556062,-1294.8496305188667 L-6024.480598856737,-1294.8496305188662 M-6024.480598856737,-1294.8496305188662 L-6164.850163030567,-1294.8496305188658 M-6164.850163030567,-1294.8496305188658 L-6034.175792999964,-1294.8496305188648 M-6034.175792999964,-1294.8496305188648 L-5605.140322488811,-1294.8496305188662 M-5605.140322488811,-1294.8496305188662 L-4894.882720982045,-1294.8496305188658 M-4894.882720982045,-1294.8496305188658 L-3965.982098047505,-1294.8496305188655 M-3965.982098047505,-1294.8496305188655 L-2910.389559131092,-1294.8496305188658 M-2910.389559131092,-1294.8496305188658 L-1824.3266736483547,-1294.8496305188655 M-1824.3266736483547,-1294.8496305188655 L-786.8050258897392,-1294.8496305188664 M-786.8050258897392,-1294.8496305188664 L150.53312887285756,-1294.8496305188662 M150.53312887285756,-1294.8496305188662 L962.7134643584141,-1294.8496305188662 M962.7134643584141,-1294.8496305188662 L1392.0830684444354,-1294.8496305188658 M1392.0830684444354,-1294.8496305188658 L1774.3740680303226,-1294.8496305188667 M1774.3740680303226,-1294.8496305188667 L6265.628328485716,-1294.849630518867 M6083.112662105329,-504.691691161717 L6265.628328485716,-1294.849630518867 M4104.333489954839,-777.8988430750362 L4104.975149704687,-749.1993139525564 M4104.975149704687,-749.1993139525564 L4099.275102121074,-721.2593821290282 M4099.275102121074,-721.2593821290282 L4087.56083810611,-695.5092552992771 M4087.56083810611,-695.5092552992771 L4070.426543989048,-673.2750742021096 M4070.426543989048,-673.2750742021096 L4048.7166927258595,-655.7377760942582 M4048.7166927258595,-655.7377760942582 L4023.507797029529,-643.8877098976643 M4023.507797029529,-643.8877098976643 L3996.0844531497974,-638.4763221430821 M3996.0844531497974,-638.4763221430821 L3967.9041910127844,-639.9609531512206 M3967.9041910127844,-639.9609531512206 L3940.544731290855,-648.4497245394002 M3940.544731290855,-648.4497245394002 L3915.6292551544147,-663.6542775900477 M3915.6292551544147,-663.6542775900477 L3894.7290957097657,-684.8581208037854 M3894.7290957097657,-684.8581208037854 L3879.246904003667,-710.9174821346182 M3879.246904003667,-710.9174821346182 L3870.2927229095067,-740.3024221700305 M3870.2927229095067,-740.3024221700305 L3868.5683892033585,-771.1855402411038 M3868.5683892033585,-771.1855402411038 L3874.279781672082,-801.574865069199 M3874.279781672082,-801.574865069199 L3887.097276297071,-829.4778649948578 M3887.097276297071,-829.4778649948578 L3906.173286450973,-853.0741324206756 M3906.173286450973,-853.0741324206756 L3930.217274375301,-870.8706484919362 M3930.217274375301,-870.8706484919362 L3957.617264626853,-881.8187698382312 M3957.617264626853,-881.8187698382312 L3986.587127855567,-885.3748593957944 M3986.587127855567,-885.3748593957944 L4015.316235815095,-881.5069370963965 M4015.316235815095,-881.5069370963965 L4042.1020840044457,-870.6520398900464 M4042.1020840044457,-870.6520398900464 L4065.4527769985925,-853.6392752130403 M4065.4527769985925,-853.6392752130403 L4084.1543835448033,-831.5987672231959 M4084.1543835448033,-831.5987672231959 L4097.306788974729,-805.8665282956806 M4097.306788974729,-805.8665282956806 L4104.333489954839,-777.8988430750362 M6097.454860921542,-1098.0748146531507 L6094.605204306081,-1086.6257751099693 M6094.605204306081,-1086.6257751099693 L6091.0086291868565,-1075.710754125903 M6091.0086291868565,-1075.710754125903 L6086.866412573877,-1065.934708349998 M6086.866412573877,-1065.934708349998 L6082.408374181288,-1057.8412533453372 M6082.408374181288,-1057.8412533453372 L6077.882006927419,-1051.8866541227596 M6077.882006927419,-1051.8866541227596 L6073.540554333785,-1048.4161367744325 M6073.540554333785,-1048.4161367744325 L6069.630606531058,-1047.644595427997 M6069.630606531058,-1047.644595427997 L6066.379033322276,-1049.6409573055628 M6066.379033322276,-1049.6409573055628 L6063.979953075153,-1054.318881827821 M6063.979953075153,-1054.318881827821 L6062.582442898747,-1061.435445914252 M6062.582442898747,-1061.435445914252 L6062.279643991445,-1070.598108242197 M6062.279643991445,-1070.598108242197 L6063.1006515199515,-1081.2828372445176 M6063.1006515199515,-1081.2828372445176 L6065.006141029976,-1092.8622367494231 M6065.006141029976,-1092.8622367494231 L6067.888640104352,-1104.643321820078 M6067.888640104352,-1104.643321820078 L6071.577862158094,-1115.9123884427338 M6071.577862158094,-1115.9123884427338 L6075.851302603932,-1125.9833480794503 M6075.851302603932,-1125.9833480794503 L6080.449071054649,-1134.245004543055 M6080.449071054649,-1134.245004543055 L6085.0916552558,-1140.2025584661656 M6085.0916552558,-1140.2025584661656 L6089.499189470308,-1143.5101347936302 M6089.499189470308,-1143.5101347936302 L6093.409953208836,-1143.9901862865515 M6093.409953208836,-1143.9901862865515 L6096.596899027981,-1141.6405677104042 M6096.596899027981,-1141.6405677104042 L6098.880716326413,-1136.6285300426307 M6098.880716326413,-1136.6285300426307 L6100.138725071753,-1129.2735094430145 M6100.138725071753,-1129.2735094430145 L6100.30973300212,-1120.0226660619642 M6100.30973300212,-1120.0226660619642 L6099.394831648395,-1109.4202453872458 M6099.394831648395,-1109.4202453872458 L6097.454860921542,-1098.0748146531507 M6265.628328485716,-1294.849630518867 L6281.672462792343,-1294.849630518867 M6281.672462792343,-1294.849630518867 L6291.193707834534,-1294.849630518867 M6291.193707834534,-1294.849630518867 L6294.447520698427,-1294.849630518867 M6294.447520698427,-1294.849630518867 L6291.808470899648,-1294.849630518867 M6291.808470899648,-1294.849630518867 L6283.717965656564,-1294.8496305188667 M6283.717965656564,-1294.8496305188667 L6270.66439164544,-1294.849630518867 M6270.66439164544,-1294.849630518867 L6253.158524800663,-1294.8496305188667 M6253.158524800663,-1294.8496305188667 L6231.712434635412,-1294.849630518867 M6231.712434635412,-1294.849630518867 L6206.822711118799,-1294.8496305188667 M6206.822711118799,-1294.8496305188667 L6178.957738775169,-1294.8496305188667 M6178.957738775169,-1294.8496305188667 L6148.54898718046,-1294.8496305188667 M6148.54898718046,-1294.8496305188667 L6115.986041657893,-1294.8496305188667 M6115.986041657893,-1294.8496305188667 L6081.614536289204,-1294.8496305188667 M6081.614536289204,-1294.8496305188667 L6045.736808358546,-1294.849630518867 M6045.736808358546,-1294.849630518867 L6008.614469102419,-1294.8496305188667 M6008.614469102419,-1294.8496305188667 L5973.734423465652,-1294.8496305188667 M5973.734423465652,-1294.8496305188667 L5938.092758063789,-1294.8496305188667 M-3198.295681781069,-1294.8496305188658 L-2704.4211253534577,-1294.8496305188667 M-2704.4211253534577,-1294.8496305188667 L-2207.764464394314,-1294.8496305188662 M-2207.764464394314,-1294.8496305188662 L-1719.3109544390527,-1294.8496305188658 M-1719.3109544390527,-1294.8496305188658 L-1250.0991808113977,-1294.8496305188662 M-1250.0991808113977,-1294.8496305188662 L-805.203897264948,-1294.8496305188667 M-805.203897264948,-1294.8496305188667 L-386.8620854718747,-1294.8496305188664 M-386.8620854718747,-1294.8496305188664 L-89.26594564246716,-1294.8496305188667 M-89.26594564246716,-1294.8496305188667 L281.40695732455833,-1294.8496305188667 M281.40695732455833,-1294.8496305188667 L625.8796166759853,-1294.8496305188662 M625.8796166759853,-1294.8496305188662 L892.1679455831759,-1294.8496305188664 M892.1679455831759,-1294.8496305188664 L1192.069199555057,-1294.8496305188667 M1192.069199555057,-1294.8496305188667 L1343.4434130512846,-1294.8496305188667 M1343.4434130512846,-1294.8496305188667 L1486.832312078177,-1294.8496305188664 M2116.844436474634,-1294.8496305188662 L1613.6475876259742,-1294.8496305188667 M1613.6475876259742,-1294.8496305188667 L1023.7321735664523,-1294.8496305188658 M1023.7321735664523,-1294.8496305188658 L351.5296097276814,-1294.849630518866 M351.5296097276814,-1294.849630518866 L-393.0740824488121,-1294.8496305188658 M-393.0740824488121,-1294.8496305188658 L-1186.7429596310412,-1294.8496305188658 M-1186.7429596310412,-1294.8496305188658 L-1992.6228244673803,-1294.8496305188667 M-1992.6228244673803,-1294.8496305188667 L-2762.247453683931,-1294.8496305188658 M-2762.247453683931,-1294.8496305188658 L-3441.6716580576685,-1294.849630518867 M-3441.6716580576685,-1294.849630518867 L-3982.271103597641,-1294.8496305188658 M-3982.271103597641,-1294.8496305188658 L-4343.73182030287,-1294.8496305188658 M-4343.73182030287,-1294.8496305188658 L-4530.279507066085,-1294.849630518866 M-4530.279507066085,-1294.849630518866 L-4547.893425121643,-1294.8496305188653 M-4547.893425121643,-1294.8496305188653 L-4422.960286891197,-1294.8496305188667 M-4422.960286891197,-1294.8496305188667 L-4172.640750567774,-1294.8496305188667 M-4172.640750567774,-1294.8496305188667 L-3831.2568212729366,-1294.8496305188658 M-3831.2568212729366,-1294.8496305188658 L-3527.2366869928774,-1294.8496305188662 M-3527.2366869928774,-1294.8496305188662 L-3198.295681781069,-1294.8496305188658 M6206.919122466692,-1294.849630518867 L2116.844436474634,-1294.8496305188662 M5925.842304269414,-1294.8496305188667 L5965.914495229513,-1294.8496305188667 M5965.914495229513,-1294.8496305188667 L6004.47222014711,-1294.8496305188667 M6004.47222014711,-1294.8496305188667 L6041.614397381694,-1294.849630518867 M6041.614397381694,-1294.849630518867 L6076.9406906195745,-1294.849630518867 M6076.9406906195745,-1294.849630518867 L6110.140536800564,-1294.8496305188667 M6110.140536800564,-1294.8496305188667 L6140.842026499924,-1294.849630518867 M6140.842026499924,-1294.849630518867 L6162.073846682008,-1294.8496305188667 M6162.073846682008,-1294.8496305188667 L6187.218712517767,-1294.8496305188667 M6187.218712517767,-1294.8496305188667 L6208.396886269144,-1294.849630518867 M6208.396886269144,-1294.849630518867 L6222.456109065441,-1294.849630518867 M6222.456109065441,-1294.849630518867 L6234.620097976447,-1294.8496305188667 M6234.620097976447,-1294.8496305188667 L6240.826845961634,-1294.849630518867 M6240.826845961634,-1294.849630518867 L6240.353924499319,-1294.8496305188667 M6240.353924499319,-1294.8496305188667 L6232.5463994218235,-1294.8496305188667 M6232.5463994218235,-1294.8496305188667 L6221.870439307655,-1294.8496305188667 M6221.870439307655,-1294.8496305188667 L6206.919122466692,-1294.849630518867 M5429.984616977925,-1294.8496305188667 L5467.541744584705,-1294.849630518867 M5467.541744584705,-1294.849630518867 L5507.021699022149,-1294.8496305188667 M5507.021699022149,-1294.8496305188667 L5543.839125995537,-1294.849630518867 M5543.839125995537,-1294.849630518867 L5583.896795536505,-1294.849630518867 M5583.896795536505,-1294.849630518867 L5624.280691495973,-1294.849630518867 M5624.280691495973,-1294.849630518867 L5663.456699814652,-1294.8496305188667 M5663.456699814652,-1294.8496305188667 L5703.85137259489,-1294.849630518867 M5703.85137259489,-1294.849630518867 L5743.97894154101,-1294.8496305188667 M5743.97894154101,-1294.8496305188667 L5778.822601467158,-1294.849630518867 M5778.822601467158,-1294.849630518867 L5818.0523757053015,-1294.849630518867 M5818.0523757053015,-1294.849630518867 L5856.625463337831,-1294.8496305188667 M5856.625463337831,-1294.8496305188667 L5891.459457211116,-1294.8496305188667 M5891.459457211116,-1294.8496305188667 L5925.842304269414,-1294.8496305188667 M5263.335079336181,-728.8684591112917 L2803.6447409747184,-52.76425435292174 M2803.6447409747184,-52.76425435292174 L2518.789475712805,-726.8184359305021 M5263.335079336181,-728.8684591112917 L5287.244879500365,-1054.1911432736156 M2803.6447409747184,-52.76425435292174 L2669.662761421837,-14.298388738317499 M2669.662761421837,-14.298388738317499 L2528.9259258015554,29.506924907158123 M2528.9259258015554,29.506924907158123 L2381.8241244775336,78.85536050286635 M2381.8241244775336,78.85536050286635 L2228.5102179916676,134.04800330669366 M2228.5102179916676,134.04800330669366 L2069.3949981720866,195.32976781323282 M2069.3949981720866,195.32976781323282 L1905.0635055172606,262.9102915393946 M1905.0635055172606,262.9102915393946 L1736.3044639146206,336.9489366685409 M1736.3044639146206,336.9489366685409 L1564.148573877666,417.53555025520564 M1564.148573877666,417.53555025520564 L1389.909593229323,504.6672117538967 M1389.909593229323,504.6672117538967 L1215.2254562330645,598.2219941263459 M1215.2254562330645,598.2219941263459 L1042.1091997703625,697.9252220778149 M1042.1091997703625,697.9252220778149 L872.9998586867405,803.3099302823134 M872.9998586867405,803.3099302823134 L710.8115275904238,913.670473486786 M710.8115275904238,913.670473486786 L558.9833227318977,1028.006422157875 M558.9833227318977,1028.006422157875 L421.5083017003344,1144.9615028550393 M421.5083017003344,1144.9615028550393 L331.51665627672537,1232.3297769539963 M331.51665627672537,1232.3297769539963 L253.8056321375825,1319.444351697075 M253.8056321375825,1319.444351697075 L-3198.295681781069,-1294.8496305188658 M5829.030289358321,-742.5340004732454 L5792.514190746488,-747.8952525857208 M5792.514190746488,-747.8952525857208 L5755.076629176373,-752.416821291592 M5755.076629176373,-752.416821291592 L5716.760393660933,-756.1099028911303 M5716.760393660933,-756.1099028911303 L5677.745645047933,-758.9606756980922 M5677.745645047933,-758.9606756980922 L5638.17163710109,-760.9545617808867 M5638.17163710109,-760.9545617808867 L5598.194072457953,-762.0705553336993 M5598.194072457953,-762.0705553336993 L5557.993589407223,-762.282637318858 M5557.993589407223,-762.282637318858 L5517.7822902002545,-761.5615953199283 M5517.7822902002545,-761.5615953199283 L5477.807723560426,-759.8771333107516 M5477.807723560426,-759.8771333107516 L5438.355275397373,-757.2003309916975 M5438.355275397373,-757.2003309916975 L5399.748457253827,-753.5061923803462 M5399.748457253827,-753.5061923803462 L5362.346931583572,-748.7762593678594 M5362.346931583572,-748.7762593678594 L5326.542980769655,-743.0012369944104 M5326.542980769655,-743.0012369944104 L5293.7484669593905,-736.405907478897 M5293.7484669593905,-736.405907478897 L5263.335079336181,-728.8684591112917 M5829.030289358321,-742.5340004732454 L5925.842304269414,-1294.8496305188667 M4104.333489954839,-777.8988430750362 L4110.569707543345,-791.9626320162122 M4110.569707543345,-791.9626320162122 L4116.475595789282,-805.281469055207 M4116.475595789282,-805.281469055207 L4117.399046043969,-760.3642682721847 M4117.399046043969,-760.3642682721847 L4108.485732168123,-716.8179876907905 M4108.485732168123,-716.8179876907905 L4090.2435599947316,-676.7017646286345 M4090.2435599947316,-676.7017646286345 L4063.522644057661,-641.9331891020158 M4063.522644057661,-641.9331891020158 L4029.506679128145,-614.2584626764874 M4029.506679128145,-614.2584626764874 L3989.713714962669,-595.2077915890909 M3989.713714962669,-595.2077915890909 L3945.9988127392908,-586.0305613640569 M3945.9988127392908,-586.0305613640569 L3900.542935457919,-587.6035621653596 M3900.542935457919,-587.6035621653596 L3855.8099341629127,-600.317848379339 M3855.8099341629127,-600.317848379339 L3814.4569572547903,-623.9576547405857 M3814.4569572547903,-623.9576547405857 L3779.185639386262,-657.5923173945523 M3779.185639386262,-657.5923173945523 L3752.529848355611,-699.5163587247816 M3752.529848355611,-699.5163587247816 L3736.600161123993,-747.2715971403031 M3736.600161123993,-747.2715971403031 L3732.821411604828,-797.7782585946666 M3732.821411604828,-797.7782585946666 L3741.7143127048835,-847.5800726118155 M3741.7143127048835,-847.5800726118155 L3762.7788434334216,-893.1770036770022 M3762.7788434334216,-893.1770036770022 L3794.5138748939735,-931.3889185706462 M3794.5138748939735,-931.3889185706462 L3834.578776906866,-959.6807254521789 M3834.578776906866,-959.6807254521789 L3880.064957015431,-976.3877673777088 M3880.064957015431,-976.3877673777088 L3927.8158017766436,-980.8053644861316 M3927.8158017766436,-980.8053644861316 L3974.7335975625847,-973.1491961933884 M3974.7335975625847,-973.1491961933884 L4018.02587431962,-954.4162966876165 M4018.02587431962,-954.4162966876165 L4055.3647860438055,-926.1928657183244 M4055.3647860438055,-926.1928657183244 L4084.9612080493257,-890.455699297826 M4084.9612080493257,-890.455699297826 L4105.573982466443,-849.3957214882967 M4105.573982466443,-849.3957214882967 L4116.475595789282,-805.281469055207 M6097.454860921542,-1098.0748146531507 L6078.875712084311,-1100.1474507602586 M6078.875712084311,-1100.1474507602586 L6060.683873361819,-1102.1768796711976 M6060.683873361819,-1102.1768796711976 L6056.176512895797,-1083.6871376263289 M6056.176512895797,-1083.6871376263289 L6050.418191791893,-1066.0807243624988 M6050.418191791893,-1066.0807243624988 L6043.723709676722,-1050.3042915654041 M6043.723709676722,-1050.3042915654041 L6036.453676002305,-1037.2108644947398 M6036.453676002305,-1037.2108644947398 L6028.999730196844,-1027.524135897108 M6028.999730196844,-1027.524135897108 L6021.7682992058035,-1021.8044851866739 M6021.7682992058035,-1021.8044851866739 L6015.163079852191,-1020.417827191073 M6015.163079852191,-1020.417827191073 L6009.565442771149,-1023.5073558076494 M6009.565442771149,-1023.5073558076494 L6005.3130442831025,-1030.971824043288 M6005.3130442831025,-1030.971824043288 L6002.677891670023,-1042.4542904635316 M6002.677891670023,-1042.4542904635316 L6001.845182389516,-1057.3447139476248 M6001.845182389516,-1057.3447139476248 L6002.895127614984,-1074.8015947176168 M6002.895127614984,-1074.8015947176168 L6005.790748253856,-1093.794281414147 M6005.790748253856,-1093.794281414147 L6010.374134477988,-1113.1657363777144 M6010.374134477988,-1113.1657363777144 L6016.372779113245,-1131.7120154398224 M6016.372779113245,-1131.7120154398224 L6023.416808322703,-1148.2709788292843 M6023.416808322703,-1148.2709788292843 L6031.065465165596,-1161.8101902680871 M6031.065465165596,-1161.8101902680871 L6038.840310751123,-1171.503849592036 M6038.840310751123,-1171.503849592036 L6046.2614109198375,-1176.790152694599 M6046.2614109198375,-1176.790152694599 L6052.881679302087,-1177.4026168009127 M6052.881679302087,-1177.4026168009127 L6058.31636512565,-1173.375441787512 M6058.31636512565,-1173.375441787512 L6062.265157767968,-1165.024546188728 M6062.265157767968,-1165.024546188728 L6064.5255475411695,-1152.9097541942956 M6064.5255475411695,-1152.9097541942956 L6064.998120759081,-1137.7858999356881 M6064.998120759081,-1137.7858999356881 L6063.685138377268,-1120.5480563956085 M6063.685138377268,-1120.5480563956085 L6060.683873361819,-1102.1768796711976 M253.8056321375825,1319.444351697075 L165.58026409727972,1446.6389470128474 M165.58026409727972,1446.6389470128474 L117.69242909632067,1566.1753467713215 M117.69242909632067,1566.1753467713215 L117.33349495307084,1673.50029741662 M117.33349495307084,1673.50029741662 L170.888088398744,1763.1313881751062 M170.888088398744,1763.1313881751062 L282.57885605089814,1829.7191630970715 M282.57885605089814,1829.7191630970715 L453.47546718733247,1868.4980767376092 M453.47546718733247,1868.4980767376092 L680.6314618404531,1875.9953668627904 M680.6314618404531,1875.9953668627904 L956.7616130361489,1850.6736937638484 M956.7616130361489,1850.6736937638484 L1270.6810316396027,1793.319923589274 M1270.6810316396027,1793.319923589274 L1608.4935580502174,1707.045433019271 M1608.4935580502174,1707.045433019271 L1955.2872400755068,1596.868008405882 M1955.2872400755068,1596.868008405882 L2296.9102582730175,1468.9888815102786 M2296.9102582730175,1468.9888815102786 L2621.4044532635917,1329.9635462219667 M2621.4044532635917,1329.9635462219667 L2911.2243823163967,1190.359306908833 M2911.2243823163967,1190.359306908833 L3170.599416303283,1051.311635572363 M3170.599416303283,1051.311635572363 L2116.844436474634,-1294.8496305188662 M3170.599416303283,1051.311635572363 L6047.433484068554,-574.3749110105368 M6047.433484068554,-574.3749110105368 L6206.919122466692,-1294.849630518867 M6047.433484068554,-574.3749110105368 L6065.9730299684625,-586.7134190824545 M6065.9730299684625,-586.7134190824545 L6078.866943973537,-599.4334020985523 M6078.866943973537,-599.4334020985523 L6086.232020958478,-612.3084446134794 M6086.232020958478,-612.3084446134794 L6088.330940829899,-625.1609680964254 M6088.330940829899,-625.1609680964254 L6085.499185891019,-637.8242616570978 M6085.499185891019,-637.8242616570978 L6078.1319788793035,-650.1558241623572 M6078.1319788793035,-650.1558241623572 L6066.659936074776,-662.0386274842303 M6066.659936074776,-662.0386274842303 L6051.5261574886745,-673.3805954038182 M6051.5261574886745,-673.3805954038182 L6033.167500125601,-684.1128796890393 M6033.167500125601,-684.1128796890393 L6011.999663143648,-694.1874692031781 M6011.999663143648,-694.1874692031781 L5988.406036749068,-703.5739805131798 M5988.406036749068,-703.5739805131798 L5962.730661139482,-712.2563116415599 M5962.730661139482,-712.2563116415599 L5935.274783158533,-720.2292876447752 M5935.274783158533,-720.2292876447752 L5906.296078263043,-727.4952733088458 M5906.296078263043,-727.4952733088458 L5876.0110388050725,-734.061170068406 M5876.0110388050725,-734.061170068406 L5852.822037060059,-738.4821877354602 M5852.822037060059,-738.4821877354602 L5829.030289358321,-742.5340004732454" stroke="black"  stroke-width="4"  fill="red"/>
<path d="M4100.1558832098835,-768.4776794855031 L4100.68761582205,-745.3460726061096 M4100.68761582205,-745.3460726061096 L4096.092072294751,-722.7944051100824 M4096.092072294751,-722.7944051100824 L4086.634037016528,-702.0069083679277 M4086.634037016528,-702.0069083679277 L4072.8067812675313,-684.0811790209584 M4072.8067812675313,-684.0811790209584 L4055.3156517856064,-669.9865294969161 M4055.3156517856064,-669.9865294969161 L4035.0571061794108,-660.5243655487814 M4035.0571061794108,-660.5243655487814 L4013.0927502648515,-656.2861185484503 M4013.0927502648515,-656.2861185484503 L3990.6128700802055,-657.611442016223 M3990.6128700802055,-657.611442016223 L3968.887575641943,-664.5492916428848 M3968.887575641943,-664.5492916428848 L3949.2028075181097,-676.8273202003456 M3949.2028075181097,-676.8273202003456 L3932.7829270558827,-693.8380795962532 M3932.7829270558827,-693.8380795962532 L3920.7024366897645,-714.6472802953349 M3920.7024366897645,-714.6472802953349 L3913.7960188781885,-738.0346766080042 M3913.7960188781885,-738.0346766080042 L3912.577963384732,-762.5641179168235 M3912.577963384732,-762.5641179168235 L3917.184781643207,-786.6850720316352 M3917.184781643207,-786.6850720316352 L3927.3492724912167,-808.8533383118888 M3927.3492724912167,-808.8533383118888 L3942.416060418373,-827.6545272858991 M3942.416060418373,-827.6545272858991 L3961.3953078772392,-841.9187835951566 M3961.3953078772392,-841.9187835951566 L3983.049370478688,-850.8062651019816 M3983.049370478688,-850.8062651019816 L4005.997108787172,-853.8576994297669 M4005.997108787172,-853.8576994297669 L4028.8234456201185,-851.0054527662287 M4028.8234456201185,-851.0054527662287 L4050.1792897680725,-842.5500246566332 M4050.1792897680725,-842.5500246566332 L4068.8632837738437,-829.1108870491364 M4068.8632837738437,-829.1108870491364 L4083.8798847362386,-811.5612359079876 M4083.8798847362386,-811.5612359079876 L4094.475625489822,-790.959048385007 M4094.475625489822,-790.959048385007 L4100.1558832098835,-768.4776794855031 M4100.1558832098835,-768.4776794855031 L4108.364182096069,-786.988691009484 M4108.364182096069,-786.988691009484 L4116.014684177435,-804.2419976321391 M4116.014684177435,-804.2419976321391 L4123.162382367179,-820.3614998655507 M4123.162382367179,-820.3614998655507 L4110.151266939527,-873.4958586426496 M4110.151266939527,-873.4958586426496 L4085.410930049965,-923.2674141462085 M4085.410930049965,-923.2674141462085 L4049.694887816429,-966.9707284274832 M4049.694887816429,-966.9707284274832 L4004.3720366267617,-1001.9199366485013 M4004.3720366267617,-1001.9199366485013 L3951.5023462030476,-1025.6089074485358 M3951.5023462030476,-1025.6089074485358 L3893.8626967557643,-1035.9370117269948 M3893.8626967557643,-1035.9370117269948 L3834.8835287818993,-1031.483078156139 M3834.8835287818993,-1031.483078156139 L3778.4651354523717,-1011.7880351048307 M3778.4651354523717,-1011.7880351048307 L3728.6573774504177,-977.5786240522625 M3728.6573774504177,-977.5786240522625 L3689.2384515629406,-930.8580107014266 M3689.2384515629406,-930.8580107014266 L3663.258040310727,-874.8073199032217 M3663.258040310727,-874.8073199032217 L3652.6460125455314,-813.4843407090968 M3652.6460125455314,-813.4843407090968 L3657.985584043325,-751.369662668576 M3657.985584043325,-751.369662668576 L3678.494313914184,-692.8553360163387 M3678.494313914184,-692.8553360163387 L3712.2146722648586,-641.7887624779974 M3712.2146722648586,-641.7887624779974 L3756.3382379133704,-601.1539894717628 M3756.3382379133704,-601.1539894717628 L3807.586661215837,-572.925778005969 M3807.586661215837,-572.925778005969 L3862.5576925552964,-558.0790297323924 M3862.5576925552964,-558.0790297323924 L3917.9945876194734,-556.7066630282229 M3917.9945876194734,-556.7066630282229 L3970.9578117489946,-568.19016606895 M3970.9578117489946,-568.19016606895 L4018.908162704092,-591.3737923634228 M4018.908162704092,-591.3737923634228 L4059.7298216013214,-624.71472183068 M4059.7298216013214,-624.71472183068 L4091.71384614198,-666.3937419210949 M4091.71384614198,-666.3937419210949 L4113.531960373575,-714.3847722786873 M4113.531960373575,-714.3847722786873 L4124.216917754469,-766.4914085886344 M4124.216917754469,-766.4914085886344 L4123.162382367179,-820.3614998655507 M4100.1558832098835,-768.4776794855031 L6459.40961911522,-41.97007182710752 M6459.40961911522,-41.97007182710752 L6442.313098755008,7.187089925952478 M6442.313098755008,7.187089925952478 L6423.1021170948525,57.83107287134021 M6423.1021170948525,57.83107287134021 L6402.666401089061,107.65941906407522 M6402.666401089061,107.65941906407522 L6381.927877599175,154.41466718194636 M6381.927877599175,154.41466718194636 L6361.836336942412,195.89755948386437 M6361.836336942412,195.89755948386437 L6343.363966640207,229.99075940652506 M6343.363966640207,229.99075940652506 L6327.490361347503,254.7139167651128 M6327.490361347503,254.7139167651128 L6315.1713552263445,268.31974752424026 M6315.1713552263445,268.31974752424026 L6307.28648619171,269.43752327943184 M6307.28648619171,269.43752327943184 L6304.562431375912,257.2599094441773 M6304.562431375912,257.2599094441773 L6307.478103852442,231.748316126374 M6307.478103852442,231.748316126374 L6316.161457410688,193.8222757013708 M6316.161457410688,193.8222757013708 L6330.304298414205,145.46485040859068 M6330.304298414205,145.46485040859068 L6349.118386456091,89.69742595230889 M6349.118386456091,89.69742595230889 L6371.362722471047,30.37180860725084 M6371.362722471047,30.37180860725084 L6395.44850365582,-28.205896409904653 M6395.44850365582,-28.205896409904653 L6419.609907439419,-81.75589423669919 M6419.609907439419,-81.75589423669919 L6442.108536947611,-126.51719711568762 M6442.108536947611,-126.51719711568762 L6461.423351502113,-159.633216101539 M6461.423351502113,-159.633216101539 L6476.389137782158,-179.36606709092416 M6476.389137782158,-179.36606709092416 L6486.263816949691,-185.1209634385798 M6486.263816949691,-185.1209634385798 L6490.727056297708,-177.3177954861717 M6490.727056297708,-177.3177954861717 L6489.829382660987,-157.174584141163 M6489.829382660987,-157.174584141163 L6483.914781854347,-126.46466970931601 M6483.914781854347,-126.46466970931601 L6473.54120738239,-87.30201958554142 M6473.54120738239,-87.30201958554142 L6459.40961911522,-41.97007182710752" stroke="black"  stroke-width="4"  fill="red"/>
<path d="M6109.5545103520835,-1096.725011106511 L6107.266416185461,-1087.5939518177934 M6107.266416185461,-1087.5939518177934 L6104.389879082262,-1078.885455228494 M6104.389879082262,-1078.885455228494 L6101.08708817214,-1071.0867630425266 M6101.08708817214,-1071.0867630425266 L6097.543106552376,-1064.6356842030143 M6097.543106552376,-1064.6356842030143 L6093.9565578467445,-1059.8980431794903 M6093.9565578467445,-1059.8980431794903 L6090.529737352664,-1057.1488214272429 M6090.529737352664,-1057.1488214272429 L6087.458275102095,-1056.5561513885336 M6087.458275102095,-1056.5561513885336 L6084.920564871103,-1058.1698144913075 M6084.920564871103,-1058.1698144913075 L6083.067476966546,-1061.9149516387583 M6083.067476966546,-1061.9149516387583 L6082.012806963694,-1067.5920511988343 M6082.012806963694,-1067.5920511988343 L6081.82540661653,-1074.8845512447651 M6081.82540661653,-1074.8845512447651 L6082.52331437748,-1083.3736968657495 M6082.52331437748,-1083.3736968657495 L6084.07117940631,-1092.5621559762365 M6084.07117940631,-1092.5621559762365 L6086.380906377071,-1101.9031874983734 M6086.380906377071,-1101.9031874983734 L6089.3164700984635,-1110.8355889959844 M6089.3164700984635,-1110.8355889959844 L6092.7021577943,-1118.8208193393461 M6092.7021577943,-1118.8208193393461 L6096.3339112366075,-1125.3783230300503 M6096.3339112366075,-1125.3783230300503 L6099.992996117653,-1130.117899477049 M6099.992996117653,-1130.117899477049 L6103.460500750512,-1132.7641306201333 M6103.460500750512,-1132.7641306201333 L6106.531478350115,-1133.172488356365 M6106.531478350115,-1133.172488356365 L6109.027649841518,-1131.3354165583748 M6109.027649841518,-1131.3354165583748 L6110.807661626661,-1127.3789471035925 M6110.807661626661,-1127.3789471035925 L6111.774455601502,-1121.5509942447063 M6111.774455601502,-1121.5509942447063 L6111.879307446162,-1114.2026755447932 M6111.879307446162,-1114.2026755447932 L6111.123088535878,-1105.7655380855103 M6111.123088535878,-1105.7655380855103 L6109.5545103520835,-1096.725011106511 M6109.5545103520835,-1096.725011106511 L6085.518963309125,-1099.4063504982225 M6085.518963309125,-1099.4063504982225 L6062.125209029177,-1102.0160826430542 M6062.125209029177,-1102.0160826430542 L6039.34806471899,-1104.5570382336364 M6039.34806471899,-1104.5570382336364 L6042.918464025191,-1127.0192710959686 M6042.918464025191,-1127.0192710959686 L6044.403805747835,-1148.1456080069654 M6044.403805747835,-1148.1456080069654 L6043.685816115383,-1166.7408651197811 M6043.685816115383,-1166.7408651197811 L6040.76095417392,-1181.7013793821197 M6040.76095417392,-1181.7013793821197 L6035.750706533875,-1192.0825254393765 M6035.750706533875,-1192.0825254393765 L6028.905458011544,-1197.169171424182 M6028.905458011544,-1197.169171424182 L6020.599686611858,-1196.5419439582856 M6020.599686611858,-1196.5419439582856 L6011.316613740542,-1190.1309193318468 M6011.316613740542,-1190.1309193318468 L6001.620448603684,-1178.2458820062964 M6001.620448603684,-1178.2458820062964 L5992.118347072668,-1161.574522488359 M5992.118347072668,-1161.574522488359 L5983.414710856171,-1141.1445016351242 M5983.414710856171,-1141.1445016351242 L5976.063254353779,-1118.249792329082 M5976.063254353779,-1118.249792329082 L5970.523111287754,-1094.3493924539528 M5970.523111287754,-1094.3493924539528 L5967.124319940053,-1070.9508684458365 M5967.124319940053,-1070.9508684458365 L5966.0472811705695,-1049.4942339674517 M5966.0472811705695,-1049.4942339674517 L5967.316713837634,-1031.2499323519542 M5967.316713837634,-1031.2499323519542 L5970.809836235538,-1017.2409968686643 M5970.809836235538,-1017.2409968686643 L5976.275170437301,-1008.1942204840782 M5976.275170437301,-1008.1942204840782 L5983.358193826474,-1004.519454675564 M5983.358193826474,-1004.519454675564 L5991.629921490208,-1006.312933289069 M5991.629921490208,-1006.312933289069 L6000.614775420545,-1013.3773284701233 M6000.614775420545,-1013.3773284701233 L6009.816722469562,-1025.2528161734683 M6009.816722469562,-1025.2528161734683 L6018.741819794454,-1041.2535256365818 M6018.741819794454,-1041.2535256365818 L6026.917963215527,-1060.5053933698682 M6026.917963215527,-1060.5053933698682 L6033.912507996437,-1081.984681450425 M6033.912507996437,-1081.984681450425 L6039.34806471899,-1104.5570382336364 M6109.5545103520835,-1096.725011106511 L7147.823715648871,-1041.4086848069812 M7147.823715648871,-1041.4086848069812 L7143.253443847378,-1029.8198814438426 M7143.253443847378,-1029.8198814438426 L7138.822042154312,-1018.7276178226932 M7138.822042154312,-1018.7276178226932 L7134.774964181424,-1008.7459656551391 M7134.774964181424,-1008.7459656551391 L7131.3371045253625,-1000.429689835737 M7131.3371045253625,-1000.429689835737 L7128.701739918295,-994.2469208868454 M7128.701739918295,-994.2469208868454 L7127.0209273148685,-990.5558017971487 M7127.0209273148685,-990.5558017971487 L7126.396886411758,-989.5838574177005 M7126.396886411758,-989.5838574177005 L7126.875140854144,-991.412112085178 M7126.875140854144,-991.412112085178 L7128.439851321802,-995.9650043304537 M7128.439851321802,-995.9650043304537 L7131.012004546963,-1003.0077615004852 M7131.012004546963,-1003.0077615004852 L7134.451361154037,-1012.1534056897742 M7134.451361154037,-1012.1534056897742 L7138.56221504786,-1022.8794377906102 M7138.56221504786,-1022.8794377906102 L7143.103989259242,-1034.5565927010127 M7143.103989259242,-1034.5565927010127 L7147.805239591769,-1046.4858651106981 M7147.805239591769,-1046.4858651106981 L7152.38127747336,-1057.9441257045733 M7152.38127747336,-1057.9441257045733 L7156.55350726663,-1068.2334377512898 M7156.55350726663,-1068.2334377512898 L7160.068351580874,-1076.7285253721425 M7160.068351580874,-1076.7285253721425 L7162.714899803723,-1082.9203021943656 M7162.714899803723,-1082.9203021943656 L7164.338540786313,-1086.4485820817406 M7164.338540786313,-1086.4485820817406 L7164.850163030567,-1087.123171797229 M7164.850163030567,-1087.123171797229 L7164.229999094755,-1084.9311721243819 M7164.229999094755,-1084.9311721243819 L7162.52639068514,-1080.0314543269747 M7162.52639068514,-1080.0314543269747 L7159.850159411368,-1072.7382156840126 M7159.850159411368,-1072.7382156840126 L7156.365383325672,-1063.4958067181478 M7156.365383325672,-1063.4958067181478 L7152.278178418647,-1052.84890756857 M7152.278178418647,-1052.84890756857 L7147.823715648871,-1041.4086848069812" stroke="black"  stroke-width="4"  fill="red"/></svg>