<svg viewBox="0 0 1000 1000" xmlns="http://www.w3.org/2000/svg"><path d="M625.2247594865809,527.3005157936409 L201.5996460104323,588.4206477661697 M201.5996460104323,588.4206477661697 L198.87334041256184,464.016098141758 M198.87334041256184,464.016098141758 L208.40741469676527,471.48599297174013 M208.40741469676527,471.48599297174013 L218.44035193726899,477.68648085683066 M218.44035193726899,477.68648085683066 L228.86908466764748,482.5741178455945 M228.86908466764748,482.5741178455945 L239.589234023691,486.1196555146707 M239.589234023691,486.1196555146707 L250.4963377280219,488.3076138888585 M250.4963377280219,488.3076138888585 L261.48686343101383,489.1358043403356 M261.48686343101383,489.1358043403356 L272.4592792802754,488.6146195442153 M572.1153176951151,456.00652847161285 L272.4592792802754,488.6146195442153 M572.1153176951151,456.00652847161285 L580.5636125147704,454.4989941988981 M580.5636125147704,454.4989941988981 L588.8770177746898,451.84370222148044 M588.8770177746898,451.84370222148044 L596.9834329103429,448.0765466038626 M596.9834329103429,448.0765466038626 L604.8140041487571,443.2419741232765 M604.8140041487571,443.2419741232765 L612.3035794175325,437.3922964699062 M612.3035794175325,437.3922964699062 L619.3909701895425,430.58694430214774 M619.3909701895425,430.58694430214774 L626.0192386232679,422.8918099329645 M625.2247594865809,527.3005157936409 L626.0192386232679,422.8918099329645 M201.5996460104323,588.4206477661697 L190.47217390988004,590.1489349295476 M190.47217390988004,590.1489349295476 L180.0754394259332,592.0187436502521 M180.0754394259332,592.0187436502521 L170.52722181643958,594.0120769340366 M170.52722181643958,594.0120769340366 L161.91990590848877,596.1122244652012 M161.91990590848877,596.1122244652012 L154.3418205287644,598.3000555104613 M154.3418205287644,598.3000555104613 L147.86970512086862,600.5553665438792 M147.86970512086862,600.5553665438792 L142.56773884143695,602.8572240549976 M142.56773884143695,602.8572240549976 L138.48688645273643,605.1843487130254 M138.48688645273643,605.1843487130254 L135.6647809076578,607.5154539941359 M135.6647809076578,607.5154539941359 L134.12598994425974,609.8295713646147 M134.12598994425974,609.8295713646147 L133.88277525096385,612.1062933662091 M133.88277525096385,612.1062933662091 L134.9360187866792,614.3259660991715 M134.9360187866792,614.3259660991715 L137.27638560398083,616.4698011182192 M137.27638560398083,616.4698011182192 L140.88546734992684,618.5199092285568 M140.88546734992684,618.5199092285568 L145.7367754819834,620.4592831290244 M145.7367754819834,620.4592831290244 L151.23792397011414,622.1236650857513 M151.23792397011414,622.1236650857513 L157.7316964007764,623.672144255347 M157.7316964007764,623.672144255347 L166.8688755700466,625.3732442635624 M166.8688755700466,625.3732442635624 L177.31482516755364,626.8624721743386 M177.31482516755364,626.8624721743386 L188.9978256266055,628.1234584396727 M188.9978256266055,628.1234584396727 L201.8082179223037,629.1374285399851 M201.8082179223037,629.1374285399851 L215.6272304777567,629.8882374009403 M215.6272304777567,629.8882374009403 L230.31774450749776,630.3616387778403 M230.31774450749776,630.3616387778403 L245.72310029222274,630.545922303896 M245.72310029222274,630.545922303896 L261.6668796339351,630.4326530616429 M261.6668796339351,630.4326530616429 L277.95421141614105,630.0173940680071 M277.95421141614105,630.0173940680071 L294.3744675099296,629.3004000121664 M294.3744675099296,629.3004000121664 L310.70534219802227,628.2871823498516 M310.70534219802227,628.2871823498516 L326.7183747630627,626.9888373326561 M326.7183747630627,626.9888373326561 L342.18562459425044,625.422083169354 M342.18562459425044,625.422083169354 L356.88644760890566,623.6090571147929 M356.88644760890566,623.6090571147929 L365.3493314308428,622.3994775151709 M365.3493314308428,622.3994775151709 L373.40380282951827,621.1169803824012 M373.40380282951827,621.1169803824012 L797.4887404835837,549.8790116046691 M797.4887404835837,549.8790116046691 L804.9407260395124,548.5000395719658 M804.9407260395124,548.5000395719658 L811.4120006178865,547.0348413353105 M811.4120006178865,547.0348413353105 L816.8400562585072,545.5025580340277 M816.8400562585072,545.5025580340277 L821.1905957733611,543.9203705537557 M821.1905957733611,543.9203705537557 L824.4426444810964,542.3062035688463 M824.4426444810964,542.3062035688463 L826.5916123012447,540.6775150866179 M826.5916123012447,540.6775150866179 L827.6478127712469,539.0509542273585 M827.6478127712469,539.0509542273585 L827.6346044027048,537.4420628724761 M827.6346044027048,537.4420628724761 L826.5862218315972,535.8650784382494 M826.5862218315972,535.8650784382494 L824.5454824547318,534.3328038617906 M824.5454824547318,534.3328038617906 L821.5614527867581,532.8565778352305 M821.5614527867581,532.8565778352305 L817.6873335176375,531.4463078046081 M817.6873335176375,531.4463078046081 L812.9785532996824,530.1105709110284 M812.9785532996824,530.1105709110284 L807.4912500334234,528.8567674948392 M807.4912500334234,528.8567674948392 L801.2811628124273,527.6913002502281 M801.2811628124273,527.6913002502281 L795.0095000950205,526.7066788704205 M795.0095000950205,526.7066788704205 L788.2078279827778,525.803268060814 M788.2078279827778,525.803268060814 L779.3252839683025,524.8245703990601 M779.3252839683025,524.8245703990601 L769.8167000038957,523.9793543254775 M769.8167000038957,523.9793543254775 L759.7387989896216,523.271974887585 M759.7387989896216,523.271974887585 L749.171613992524,522.7085966922168 M749.171613992524,522.7085966922168 L738.1916973272921,522.2945157162335 M738.1916973272921,522.2945157162335 L726.8807585144494,522.0347634312478 M726.8807585144494,522.0347634312478 L715.327069306922,521.9339257576414 M715.327069306922,521.9339257576414 L703.6264788487948,521.9958869149468 M703.6264788487948,521.9958869149468 L691.8827778550551,522.2235462579038 M691.8827778550551,522.2235462579038 L680.2074954813826,522.6184941471656 M680.2074954813826,522.6184941471656 L668.7191251477796,523.1806814057513 M668.7191251477796,523.1806814057513 L657.5416447449431,523.9081261748798 M657.5416447449431,523.9081261748798 L646.8023414624214,524.7966814732687 M646.8023414624214,524.7966814732687 L636.6294279397094,525.839839298711 M636.6294279397094,525.839839298711 L630.7833279706718,526.5448802480441 M630.7833279706718,526.5448802480441 L625.2247594865809,527.3005157936409 M157.7316964007764,623.672144255347 L152.67210464279572,421.58847710243043 M164.25270411726035,406.55451692428016 L155.69959274799294,407.6417946563538 M155.69959274799294,407.6417946563538 L148.17672795234625,408.7766232149538 M148.17672795234625,408.7766232149538 L141.81667884682128,409.94000506422606 M141.81667884682128,409.94000506422606 L136.65210011135702,411.1253421842937 M136.65210011135702,411.1253421842937 L132.73252593934075,412.32170337242684 M132.73252593934075,412.32170337242684 L130.09406745041855,413.51817802318595 M130.09406745041855,413.51817802318595 L128.7596997854368,414.7040420543351 M128.7596997854368,414.7040420543351 L128.74010486743458,415.86887218541995 M128.74010486743458,415.86887218541995 L130.0346348075429,417.00264051966735 M130.0346348075429,417.00264051966735 L132.6324767780663,418.0957666782424 M132.6324767780663,418.0957666782424 L136.51375575411214,419.1391287079444 M136.51375575411214,419.1391287079444 L141.65056433494954,420.1240460321635 M141.65056433494954,420.1240460321635 L146.76044939175563,420.8803004051958 M146.76044939175563,420.8803004051958 L152.67210464279572,421.58847710243043 M164.25270411726035,406.55451692428016 L168.34036627328464,418.60430975696585 M168.34036627328464,418.60430975696585 L173.38977701518291,430.16555674348626 M173.38977701518291,430.16555674348626 L178.44854997547742,439.42367414881073 M178.44854997547742,439.42367414881073 L185.0552262609961,449.16871423408406 M185.0552262609961,449.16871423408406 L191.5120477904702,456.86330416436317 M191.5120477904702,456.86330416436317 L198.87334041256184,464.016098141758 M212.21840123669756,470.87463737934445 L222.49595530796967,477.5282979453423 M222.49595530796967,477.5282979453423 L233.21369270871463,482.7851027621808 M233.21369270871463,482.7851027621808 L244.25687376211494,486.6105888349506 M244.25687376211494,486.6105888349506 L255.5103850889953,488.9860959223296 M255.5103850889953,488.9860959223296 L266.8602026894823,489.9081148865138 M266.8602026894823,489.9081148865138 L278.1943959009466,489.3875464139853 M171.34881845573386,407.26297442904405 L175.27545000988817,419.30635284091403 M175.27545000988817,419.30635284091403 L180.12277650250417,430.8496842656801 M180.12277650250417,430.8496842656801 L185.6804630914139,441.2817828479454 M185.6804630914139,441.2817828479454 L192.16760888165868,450.9603075620831 M192.16760888165868,450.9603075620831 L199.447836217072,459.5989282871275 M199.447836217072,459.5989282871275 L205.50073852878404,465.4597463768158 M205.50073852878404,465.4597463768158 L212.21840123669756,470.87463737934445 M164.25270411726035,406.55451692428016 L171.34881845573386,407.26297442904405 M278.1943959009466,489.3875464139853 L272.4592792802754,488.6146195442153 M278.1943959009466,489.3875464139853 L577.9108070010611,456.6067668670108 M577.9108070010611,456.6067668670108 L572.1153176951151,456.00652847161285 M662.5943363581606,371.07407829913046 L658.347222067376,381.44871325092373 M658.347222067376,381.44871325092373 L653.364138654517,391.60764383841666 M653.364138654517,391.60764383841666 L647.9917295227953,401.01885810278577 M647.9917295227953,401.01885810278577 L642.143715374606,410.00330071196606 M642.143715374606,410.00330071196606 L636.0693607953758,418.2950523259827 M636.0693607953758,418.2950523259827 L631.3749071138691,424.1160255595741 M631.3749071138691,424.1160255595741 L626.5107592768776,429.683490356684 M577.9108070010611,456.6067668670108 L586.6295942228217,455.0249062332174 M586.6295942228217,455.0249062332174 L595.2024842438915,452.21807363100345 M595.2024842438915,452.21807363100345 L603.5503002972553,448.22638048958146 M603.5503002972553,448.22638048958146 L611.5976709458301,443.09962194625655 M611.5976709458301,443.09962194625655 L619.2733605605044,436.8964390161943 M619.2733605605044,436.8964390161943 L626.5107592768776,429.683490356684 M655.3581392975531,370.605456675366 L651.251800990726,380.98790293982756 M651.251800990726,380.98790293982756 L646.4356264056242,391.16359749161495 M646.4356264056242,391.16359749161495 L641.8887189292295,399.502466691442 M641.8887189292295,399.502466691442 L636.342092384438,408.5135230008658 M636.342092384438,408.5135230008658 L631.3154698418774,415.8465251666856 M631.3154698418774,415.8465251666856 L626.0192386232679,422.8918099329645 M655.3581392975531,370.605456675366 L662.5943363581606,371.07407829913046 M791.1301873898004,371.4302028890887 L782.1434278755746,370.9303191758895 M782.1434278755746,370.9303191758895 L772.525739676023,370.4986401312939 M772.525739676023,370.4986401312939 L762.3344085308594,370.1373779638926 M762.3344085308594,370.1373779638926 L751.6502641627501,369.8496705030523 M751.6502641627501,369.8496705030523 L740.5505814330652,369.63821364097583 M740.5505814330652,369.63821364097583 L729.1178192219851,369.5055701854601 M729.1178192219851,369.5055701854601 L717.4410428688809,369.4540776961041 M717.4410428688809,369.4540776961041 L705.6169533285313,369.48571795373243 M705.6169533285313,369.48571795373243 L693.750259830609,369.60197259213885 M693.750259830609,369.60197259213885 L681.9534806284277,369.8036577310965 M681.9534806284277,369.8036577310965 L670.3461682292586,370.0907552119041 M670.3461682292586,370.0907552119041 L662.7507250582581,370.32998156538406 M662.7507250582581,370.32998156538406 L655.3581392975531,370.605456675366 M788.2078279827778,525.803268060814 L791.1301873898004,371.4302028890887 M373.40380282951827,621.1169803824012 L371.4052914468162,420.2746402849041 M152.67210464279572,421.58847710243043 L161.91768240103818,422.4632921508232 M161.91768240103818,422.4632921508232 L172.4942767284764,423.22923318615483 M172.4942767284764,423.22923318615483 L184.32930343220016,423.87784627823527 M184.32930343220016,423.87784627823527 L197.3116233494914,424.3994426617396 M197.3116233494914,424.3994426617396 L211.32071832060024,424.7856897703957 M211.32071832060024,424.7856897703957 L226.21733990697362,425.02923728551747 M226.21733990697362,425.02923728551747 L241.84230292940555,425.1240465002272 M241.84230292940555,425.1240465002272 L258.01627536883075,425.0657721962911 M258.01627536883075,425.0657721962911 L274.54112105595306,424.8521353141656 M274.54112105595306,424.8521353141656 L291.20266002948216,424.48328022307305 M291.20266002948216,424.48328022307305 L307.77483888369994,423.9620650295261 M307.77483888369994,423.9620650295261 L324.02536958786504,423.2942290483056 M324.02536958786504,423.2942290483056 L339.72253842688724,422.48840977318486 M339.72253842688724,422.48840977318486 L354.6421143007885,421.5560356099795 M354.6421143007885,421.5560356099795 L363.2309544593919,420.93405709912685 M363.2309544593919,420.93405709912685 L371.4052914468162,420.2746402849041 M371.4052914468162,420.2746402849041 L800.746439063996,383.73782566571504 M797.4887404835837,549.8790116046691 L800.746439063996,383.73782566571504 M453.1173408654784,452.6119213595285 L452.91989580941197,454.97640120933664 M452.91989580941197,454.97640120933664 L452.31869149587,457.24624652810587 M452.31869149587,457.24624652810587 L451.3482309919454,459.29068288524627 M451.3482309919454,459.29068288524627 L450.0641444143557,460.9916697254103 M450.0641444143557,460.9916697254103 L448.54015116786076,462.2505511946532 M448.54015116786076,462.2505511946532 L446.86396619481343,462.99381606128514 M446.86396619481343,462.99381606128514 L445.1324021344161,463.1773516379973 M445.1324021344161,463.1773516379973 L443.4458827558222,462.78928760364596 M443.4458827558222,462.78928760364596 L441.9026521995295,461.8509610975452 M441.9026521995295,461.8509610975452 L440.5930150357621,460.4158830766066 M440.5930150357621,460.4158830766066 L439.59395308299077,458.566959705774 M439.59395308299077,458.566959705774 L438.96443507675457,456.41171993446176 M438.96443507675457,456.41171993446176 L438.7418016346584,454.07607840853876 M438.7418016346584,454.07607840853876 L438.9394233409684,451.69686494233787 M438.9394233409684,451.69686494233787 L439.5457869159049,449.41362140861634 M439.5457869159049,449.41362140861634 L440.52520734173584,447.36019160202784 M440.52520734173584,447.36019160202784 L441.82000194966076,445.65667635221996 M441.82000194966076,445.65667635221996 L443.353998207946,444.40231079897603 M443.353998207946,444.40231079897603 L445.03718960891337,443.6695714616214 M445.03718960891337,443.6695714616214 L446.7711584568534,443.5001598593057 M446.7711584568534,443.5001598593057 L448.45493008609463,443.9027106631403 M448.45493008609463,443.9027106631403 L449.99088984057954,444.85256802421674 M449.99088984057954,444.85256802421674 L451.29039876319104,446.29357942539974 M451.29039876319104,446.29357942539974 L452.2787953182136,448.14147941545383 M452.2787953182136,448.14147941545383 L452.89955400049433,450.2889734811574 M452.89955400049433,450.2889734811574 L453.1173408654784,452.6119213595285 M752.2915390650764,422.1408549082048 L752.1001003946764,424.20572598375196 M752.1001003946764,424.20572598375196 L751.6037195437829,426.1831576380769 M751.6037195437829,426.1831576380769 L750.8309376475819,427.9590945460752 M750.8309376475819,427.9590945460752 L749.8261435100225,429.4309094212007 M749.8261435100225,429.4309094212007 L748.6471288138359,430.5132059325635 M748.6471288138359,430.5132059325635 L747.361853565863,431.14281249703316 M747.361853565863,431.14281249703316 L746.0446297999117,431.28243044653453 M746.0446297999117,431.28243044653453 L744.7718909461161,430.92302566799674 M744.7718909461161,430.92302566799674 L743.6177750726903,430.0845640829723 M743.6177750726903,430.0845640829723 L742.6497797929094,428.8149992923053 M742.6497797929094,428.8149992923053 L741.9247453375842,427.18774793814134 M741.9247453375842,427.18774793814134 L741.4854057916205,425.2974470108907 M741.4854057916205,425.2974470108907 L741.3577833057041,423.25446430470794 M741.3577833057041,423.25446430470794 L741.5495649126364,421.178365884119 M741.5495649126364,421.178365884119 L742.0495654493382,419.1907748036507 M742.0495654493382,419.1907748036507 L742.8284145408566,417.4080737799812 M742.8284145408566,417.4080737799812 L743.8403335056242,415.9344396659971 M743.8403335056242,415.9344396659971 L745.0258984193148,414.8556856089714 M745.0258984193148,414.8556856089714 L746.3156487017244,414.23417153575895 M746.3156487017244,414.23417153575895 L747.6342471568064,414.10534230255115 M747.6342471568064,414.10534230255115 L748.904945434436,414.4757604380493 M748.904945434436,414.4757604380493 L750.0540729443859,415.3229370120071 M750.0540729443859,415.3229370120071 L751.0152748255659,416.59692193639944 M751.0152748255659,416.59692193639944 L751.7332671535708,418.2232859590678 M751.7332671535708,418.2232859590678 L752.1669290542426,420.1075953677263 M752.1669290542426,420.1075953677263 L752.2915390650764,422.1408549082048 M800.746439063996,383.73782566571504 L808.2707002805479,383.0323390823503 M808.2707002805479,383.0323390823503 L814.801406492737,382.28281220324106 M814.801406492737,382.28281220324106 L820.275629199569,381.4990485313082 M820.275629199569,381.4990485313082 L824.6589934508115,380.6898455083975 M824.6589934508115,380.6898455083975 L827.9306354918774,379.86437742735575 M827.9306354918774,379.86437742735575 L830.0862766273389,379.03157606004436 M830.0862766273389,379.03157606004436 L831.1367104989704,378.1999556883469 M831.1367104989704,378.1999556883469 L831.1059096674392,377.37746078416916 M831.1059096674392,377.37746078416916 L830.0288210029274,376.57136556932204 M830.0288210029274,376.57136556932204 L827.94903773665,375.7882080587002 M827.94903773665,375.7882080587002 L824.9164339006015,375.03377541670784 M824.9164339006015,375.03377541670784 L820.9850225589155,374.31312141171406 M820.9850225589155,374.31312141171406 L816.2110275800054,373.63061857161534 M816.2110275800054,373.63061857161534 L810.6513491749536,372.99003714671846 M810.6513491749536,372.99003714671846 L804.3624459229083,372.3946371083085 M804.3624459229083,372.3946371083085 L798.0135633867403,371.89166261685074 M798.0135633867403,371.89166261685074 L791.1301873898004,371.4302028890887 M161.0604408479606,420.92947617669677 L153.83128922119795,420.029048655228 M153.83128922119795,420.029048655228 L148.09116006864508,419.0474678164477 M148.09116006864508,419.0474678164477 L143.82445443607463,417.9867446516749 M143.82445443607463,417.9867446516749 L141.08166361042703,416.860186417403 M141.08166361042703,416.860186417403 L139.8847574934406,415.6778119626531 M139.8847574934406,415.6778119626531 L140.2509425720026,414.44981689265785 M140.2509425720026,414.44981689265785 L141.56852393994944,413.5000280879483 M141.56852393994944,413.5000280879483 L144.6947471384741,412.22049127744947 M144.6947471384741,412.22049127744947 L149.38179584635475,410.9293595261005 M149.38179584635475,410.9293595261005 L154.4229575589107,409.86155208154486 M154.4229575589107,409.86155208154486 L161.8683678554965,408.5865150203341 M161.8683678554965,408.5865150203341 L166.44490697344906,407.91502117800684 M166.44490697344906,407.91502117800684 L171.34881845573386,407.26297442904405 M372.3115250103053,418.9773066514079 L359.65887610617835,419.96871032407574 M359.65887610617835,419.96871032407574 L346.09705174248575,420.8774397920593 M346.09705174248575,420.8774397920593 L331.85660878895527,421.6861062141686 M331.85660878895527,421.6861062141686 L317.0940979006235,422.3854050199422 M317.0940979006235,422.3854050199422 L302.00451830380393,422.9661616026933 M302.00451830380393,422.9661616026933 L286.78538369625005,423.4216587091705 M286.78538369625005,423.4216587091705 L271.63287844032516,423.74764688159286 M271.63287844032516,423.74764688159286 L256.74272301887186,423.94231797565976 M256.74272301887186,423.94231797565976 L242.28682133028087,424.00649346554735 M242.28682133028087,424.00649346554735 L228.73408617824055,423.9459177342359 M228.73408617824055,423.9459177342359 L215.57948203882847,423.76227439922155 M215.57948203882847,423.76227439922155 L204.92320820574793,423.51008748597224 M204.92320820574793,423.51008748597224 L193.4067951795135,423.11392169068023 M193.4067951795135,423.11392169068023 L182.89402105754664,422.6140786095029 M182.89402105754664,422.6140786095029 L173.44158026605686,422.0180885316413 M173.44158026605686,422.0180885316413 L166.93288549209933,421.4999800927521 M166.93288549209933,421.4999800927521 L161.0604408479606,420.92947617669677 M788.8694129895757,383.73782566571504 L372.3115250103053,418.9773066514079 M786.2744056801149,371.8116807606925 L793.9213697316421,372.3398826766514 M793.9213697316421,372.3398826766514 L800.7334252871042,372.92505977579975 M800.7334252871042,372.92505977579975 L806.7106905784615,373.5686878134295 M806.7106905784615,373.5686878134295 L811.767625390066,374.2654401262508 M811.767625390066,374.2654401262508 L815.8410921754254,375.01175041625305 M815.8410921754254,375.01175041625305 L818.86409047275,375.8036785727459 M818.86409047275,375.8036785727459 L820.4060345525199,376.42830723826694 M820.4060345525199,376.42830723826694 L821.4124416609865,377.2870319655414 M821.4124416609865,377.2870319655414 L821.1742724010618,378.1742515536803 M821.1742724010618,378.1742515536803 L819.991830430084,378.92426743701094 M819.991830430084,378.92426743701094 L817.3328974044208,379.83978434292777 M817.3328974044208,379.83978434292777 L813.2976440459973,380.7554297450891 M813.2976440459973,380.7554297450891 L807.8789085527695,381.6583467950476 M807.8789085527695,381.6583467950476 L801.0977160208511,382.5348883087987 M801.0977160208511,382.5348883087987 L795.3006191601229,383.1515162105858 M795.3006191601229,383.1515162105858 L788.8694129895757,383.73782566571504 M662.5943363581606,371.07407829913046 L673.1196288336891,370.726632517028 M673.1196288336891,370.726632517028 L684.0665511923387,370.4470133604299 M684.0665511923387,370.4470133604299 L694.148112385125,370.25866067504427 M694.148112385125,370.25866067504427 L704.9549480916014,370.12772935531194 M704.9549480916014,370.12772935531194 L715.6535271136713,370.06963954272777 M715.6535271136713,370.06963954272777 L725.817816663736,370.08125319708336 M725.817816663736,370.08125319708336 L736.0491306035666,370.1612075054343 M736.0491306035666,370.1612075054343 L745.932522796038,370.3076426035758 M745.932522796038,370.3076426035758 L754.2631956985417,370.48848903592904 M754.2631956985417,370.48848903592904 L763.3336383760651,370.75190832765463 M763.3336383760651,370.75190832765463 L771.9003588890956,371.07345218478054 M771.9003588890956,371.07345218478054 L779.3054879413102,371.41842813914985 M779.3054879413102,371.41842813914985 L786.2744056801149,371.8116807606925 M625.8707629226642,513.3781189128459 L214.30312737153713,570.139179720815 M214.30312737153713,570.139179720815 L212.21840123669756,470.87463737934445 M625.8707629226642,513.3781189128459 L626.5107592768776,429.683490356684 M214.30312737153713,570.139179720815 L202.78720432411143,571.8449621917518 M202.78720432411143,571.8449621917518 L192.0119927275747,573.6849735985979 M192.0119927275747,573.6849735985979 L182.11913262575405,575.6377194599715 M182.11913262575405,575.6377194599715 L173.2109472993094,577.6844275303355 M173.2109472993094,577.6844275303355 L165.38486385891304,579.8034276671804 M165.38486385891304,579.8034276671804 L158.72217430177488,581.9721707575367 M158.72217430177488,581.9721707575367 L153.2865076518898,584.1678245878487 M153.2865076518898,584.1678245878487 L149.12362761749876,586.3678135681818 M149.12362761749876,586.3678135681818 L146.26190544942187,588.5503009243786 M146.26190544942187,588.5503009243786 L144.71347033420113,590.6946207166505 M144.71347033420113,590.6946207166505 L144.47631483725536,592.7815386259739 M144.47631483725536,592.7815386259739 L145.53666715888824,594.7934029196133 M145.53666715888824,594.7934029196133 L147.87147638606433,596.7141674046429 M147.87147638606433,596.7141674046429 L151.45106753417065,598.5292486021202 M151.45106753417065,598.5292486021202 L156.2411118069603,600.2253066048481 M156.2411118069603,600.2253066048481 L160.55178568737358,601.398549076973 M160.55178568737358,601.398549076973 L165.5011175114313,602.4967235816742 M165.5011175114313,602.4967235816742 L161.0604408479606,420.92947617669677 M783.6817100914857,511.2245306207634 L775.3889571363424,510.35905393507625 M775.3889571363424,510.35905393507625 L766.452661418592,509.61983874566755 M766.452661418592,509.61983874566755 L756.9061493906272,509.00965207337197 M756.9061493906272,509.00965207337197 L746.81801818628,508.53463204213284 M746.81801818628,508.53463204213284 L736.250541714214,508.2002978406331 M736.250541714214,508.2002978406331 L725.2736693784265,508.0124094927265 M725.2736693784265,508.0124094927265 L713.9676601805709,507.9766415759885 M713.9676601805709,507.9766415759885 L702.4249918284185,508.0981656379683 M702.4249918284185,508.0981656379683 L690.7512135137258,508.3811760093714 M690.7512135137258,508.3811760093714 L679.0649297789867,508.8283701285234 M679.0649297789867,508.8283701285234 L667.4966643545677,509.4404526002813 M667.4966643545677,509.4404526002813 L656.1865871338819,510.21569340995745 M656.1865871338819,510.21569340995745 L645.2813951074105,511.1495734772396 M645.2813951074105,511.1495734772396 L635.2352334065527,512.199457875119 M635.2352334065527,512.199457875119 L625.8707629226642,513.3781189128459 M783.6817100914857,511.2245306207634 L786.2744056801149,371.8116807606925 M453.1173408654784,452.6119213595285 L452.06039946228054,452.01314010199826 M452.06039946228054,452.01314010199826 L451.0087430330165,451.41735290197073 M451.0087430330165,451.41735290197073 L450.6848638149476,455.2992015636465 M450.6848638149476,455.2992015636465 L449.69742606840623,459.025858468098 M449.69742606840623,459.025858468098 L448.1026221205739,462.3838228412777 M448.1026221205739,462.3838228412777 L445.9910808043934,465.1800154963403 M445.9910808043934,465.1800154963403 L443.4830768988749,467.25251770069013 M443.4830768988749,467.25251770069013 L440.7220360592446,468.4798931800185 M440.7220360592446,468.4798931800185 L437.8667758470461,468.7883886090823 M437.8667758470461,468.7883886090823 L435.0826737633713,468.15682218160464 M435.0826737633713,468.15682218160464 L432.532136082759,466.61856124806326 M432.532136082759,466.61856124806326 L430.36504526167306,464.2602891162957 M430.36504526167306,464.2602891162957 L428.7097202570207,461.2176625871415 M428.7097202570207,461.2176625871415 L427.66485441603453,457.66771990459915 M427.66485441603453,457.66771990459915 L427.2932158506825,453.81855678074106 M427.2932158506825,453.81855678074106 L427.6175562247964,449.8968373026422 M427.6175562247964,449.8968373026422 L428.6189791244079,446.1339276467676 M428.6189791244079,446.1339276467676 L430.23808845834446,442.75163386503925 M430.23808845834446,442.75163386503925 L432.37868706688795,439.94860872896675 M432.37868706688795,439.94860872896675 L434.91384312167366,437.88833580474324 M434.91384312167366,437.88833580474324 L437.6939111003453,436.6894494771189 M437.6939111003453,436.6894494771189 L440.5557147617562,436.41917677841764 M440.5557147617562,436.41917677841764 L443.33237767193935,437.0899430730429 M443.33237767193935,437.0899430730429 L445.863197802694,438.65940120945436 M445.863197802694,438.65940120945436 L448.0028093144803,441.03372129484825 M448.0028093144803,441.03372129484825 L449.6291884551919,444.0735697050278 M449.6291884551919,444.0735697050278 L450.6502730803362,447.60254436273544 M450.6502730803362,447.60254436273544 L451.0087430330165,451.41735290197073 M752.2915390650764,422.1408549082048 L750.7146952526484,421.68493176998913 M750.7146952526484,421.68493176998913 L749.144734792107,421.2309988602087 M749.144734792107,421.2309988602087 L748.8305890463471,424.6231229291814 M748.8305890463471,424.6231229291814 L748.01461998363,427.8717694847191 M748.01461998363,427.8717694847191 L746.7434079687175,430.7904790916376 M746.7434079687175,430.7904790916376 L745.0894354929079,433.21118908509607 M745.0894354929079,433.21118908509607 L743.1472000688027,434.99363619456824 M743.1472000688027,434.99363619456824 L741.0280461808844,436.0334523803036 M741.0280461808844,436.0334523803036 L738.8540793019946,436.2683377480919 M738.8540793019946,436.2683377480919 L736.7513254108576,435.68215292635495 M736.7513254108576,435.68215292635495 L734.8424416470956,434.3064287022949 M734.8424416470956,434.3064287022949 L733.23950254857,432.21906335111754 M733.23950254857,432.21906335111754 L732.0372621465632,429.54032911831746 M732.0372621465632,429.54032911831746 L731.3072361591047,426.426092771165 M731.3072361591047,426.426092771165 L731.0931747221533,423.0587244563791 M731.0931747221533,423.0587244563791 L731.4082364894923,419.6361946996772 M731.4082364894923,419.6361946996772 L732.2340262517289,416.36003707139406 M732.2340262517289,416.36003707139406 L733.5217139083721,413.42301357806303 M733.5217139083721,413.42301357806303 L735.195042464561,410.9973823879635 M735.195042464561,410.9973823879635 L737.1550799358585,409.22453389815854 M737.1550799358585,409.22453389815854 L739.2864038279324,408.20663704079436 M739.2864038279324,408.20663704079436 L741.4641207635531,408.000970439296 M741.4641207635531,408.000970439296 L743.5613457112565,408.61697969714174 M743.5613457112565,408.61697969714174 L745.4566881659404,410.01630186824826 M745.4566881659404,410.01630186824826 L747.0411754831313,412.1156328896988 M747.0411754831313,412.1156328896988 L748.2242807652547,414.7919590309192 M748.2242807652547,414.7919590309192 L748.9388719560801,417.88996504577517 M748.9388719560801,417.88996504577517 L749.144734792107,421.2309988602087 M165.5011175114313,602.4967235816742 L174.04528667605103,603.9846663150827 M174.04528667605103,603.9846663150827 L183.88734931436386,605.2715494785523 M183.88734931436386,605.2715494785523 L194.98329025793396,606.3451180043826 M194.98329025793396,606.3451180043826 L207.24071127857906,607.1880549667043 M207.24071127857906,607.1880549667043 L220.56288696178626,607.7851532718249 M220.56288696178626,607.7851532718249 L234.8327149970853,608.1221025621423 M234.8327149970853,608.1221025621423 L249.90897875620246,608.1863610103505 M249.90897875620246,608.1863610103505 L265.6241138124842,607.9681870963358 M265.6241138124842,607.9681870963358 L281.784213337476,607.4617240568931 M281.784213337476,607.4617240568931 L298.1711486037008,606.666061606671 M298.1711486037008,606.666061606671 L314.5472216972807,605.5860942473922 M314.5472216972807,605.5860942473922 L330.66217075672307,604.2330773310053 M330.66217075672307,604.2330773310053 L346.26176903866383,602.6248008916641 M346.26176903866383,602.6248008916641 L360.66033815019796,600.8443495318751 M360.66033815019796,600.8443495318751 L374.09026600880065,598.8794825274315 M374.09026600880065,598.8794825274315 L372.3115250103053,418.9773066514079 M374.09026600880065,598.8794825274315 L786.0564331298445,533.435976611855 M786.0564331298445,533.435976611855 L788.8694129895757,383.73782566571504 M786.0564331298445,533.435976611855 L793.8611434751757,532.0757606509808 M793.8611434751757,532.0757606509808 L800.6741216082877,530.6356854027283 M800.6741216082877,530.6356854027283 L806.4183682459617,529.1373526965967 M806.4183682459617,529.1373526965967 L811.0561098592508,527.5990613123331 M811.0561098592508,527.5990613123331 L814.5647869858522,526.0400187470037 M814.5647869858522,526.0400187470037 L816.941937993715,524.4786343007519 M816.941937993715,524.4786343007519 L818.2033598125298,522.9320432948257 M818.2033598125298,522.9320432948257 L818.3802449369739,521.4157701399264 M818.3802449369739,521.4157701399264 L817.5160432515282,519.9435137936475 M817.5160432515282,519.9435137936475 L815.6631661316536,518.5270305839782 M815.6631661316536,518.5270305839782 L812.8795683482344,517.1761719473784 M812.8795683482344,517.1761719473784 L809.2257035714679,515.8990091819226 M809.2257035714679,515.8990091819226 L804.7619657847091,514.7020369541051 M804.7619657847091,514.7020369541051 L799.546552575536,513.5904619756062 M799.546552575536,513.5904619756062 L793.634205311502,512.5685092165402 M793.634205311502,512.5685092165402 L788.831005538974,511.87083266576167 M788.831005538974,511.87083266576167 L783.6817100914857,511.2245306207634" stroke="black"  stroke-width="4"  fill="red"/>
<path d="M453.7965719682342,452.99672299650587 L453.639910919122,454.8724170232901 M453.639910919122,454.8724170232901 L453.1630551664384,456.67299921362905 M453.1630551664384,456.67299921362905 L452.39344608279845,458.2945782613879 M452.39344608279845,458.2945782613879 L451.3753324256638,459.64336263577 M451.3753324256638,459.64336263577 L450.1673199202385,460.6411205435961 M450.1673199202385,460.6411205435961 L448.8390668507188,461.22962001772174 M448.8390668507188,461.22962001772174 L447.4673929714649,461.37410176421724 M447.4673929714649,461.37410176421724 L446.1318836887424,461.0654120617791 M446.1318836887424,461.0654120617791 L444.9103024628271,460.320706910683 M444.9103024628271,460.320706910683 L443.8740210495267,459.1826524224702 M443.8740210495267,459.1826524224702 L443.083817427299,457.71704652225833 M443.083817427299,457.71704652225833 L442.5861904884867,456.0091507637283 M442.5861904884867,456.0091507637283 L442.4105367168846,454.15860167556826 M442.4105367168846,454.15860167556826 L442.567309940605,452.27364782606963 M442.567309940605,452.27364782606963 L443.0474064317356,450.46464482807704 M443.0474064317356,450.46464482807704 L443.8226423322514,448.83741294422015 M443.8226423322514,448.83741294422015 L444.8474798496893,447.487038870425 M444.8474798496893,447.487038870425 L446.0617728393137,446.4921184328838 M446.0617728393137,446.4921184328838 L447.3944243106006,445.91023363557196 M447.3944243106006,445.91023363557196 L448.76760687636266,445.774628394848 M448.76760687636266,445.774628394848 L450.10138951697877,446.09242294847087 M450.10138951697877,446.09242294847087 L451.3184043370721,446.84437548154756 M451.3184043370721,446.84437548154756 L452.34832563237353,447.986159668348 M452.34832563237353,447.986159668348 L453.13183246115244,449.45112305069983 M453.13183246115244,449.45112305069983 L453.6239601191823,451.15415135162885 M453.6239601191823,451.15415135162885 L453.7965719682342,452.99672299650587 M453.7965719682342,452.99672299650587 L452.44029082752485,452.2283553510477 M452.44029082752485,452.2283553510477 L451.09268179881394,451.464905389946 M451.09268179881394,451.464905389946 L449.7536715065269,450.70632933062166 M449.7536715065269,450.70632933062166 L449.3111302627111,446.0031480199672 M449.3111302627111,446.0031480199672 L448.0510261170604,441.65066132774035 M448.0510261170604,441.65066132774035 L446.0435459054036,437.8990918138641 M446.0435459054036,437.8990918138641 L443.4016139732248,434.96605901929513 M443.4016139732248,434.96605901929513 L440.2752018614953,433.0240470882656 M440.2752018614953,433.0240470882656 L436.8434169364037,432.1899180064937 M436.8434169364037,432.1899180064937 L433.3046608378233,432.517261138491 M433.3046608378233,432.517261138491 L429.8654396568528,433.9920570391964 M429.8654396568528,433.9920570391964 L426.7280645792258,436.532348004144 M426.7280645792258,436.532348004144 L424.0784318986084,439.99216311384487 M424.0784318986084,439.99216311384487 L422.0743777643366,444.16956605785765 M422.0743777643366,444.16956605785765 L420.8355491907162,448.8186037204331 M420.8355491907162,448.8186037204331 L420.43583634388335,453.66430805175986 M420.43583634388335,453.66430805175986 L420.89848283772346,458.4198179504554 M420.89848283772346,458.4198179504554 L422.1948897595016,462.8042460183312 M422.1948897595016,462.8042460183312 L424.24652230608837,466.56005592945866 M424.24652230608837,466.56005592945866 L426.93037207346435,469.4686542131165 M426.93037207346435,469.4686542131165 L430.08685389678857,471.36315605254623 M430.08685389678857,471.36315605254623 L433.5299723947864,472.1375832736922 M433.5299723947864,472.1375832736922 L437.05872972731686,471.75202236780035 M437.05872972731686,471.75202236780035 L440.46891016489434,470.23382982577516 M440.46891016489434,470.23382982577516 L443.5648546691377,467.6749045239012 M443.5648546691377,467.6749045239012 L446.17015789238866,464.2254871652002 M446.17015789238866,464.2254871652002 L448.1371504846837,460.08513170419377 M448.1371504846837,460.08513170419377 L449.35464553494535,455.49130717765735 M449.35464553494535,455.49130717765735 L449.7536715065269,450.70632933062166 M453.7965719682342,452.99672299650587 L573.7782407925461,465.9225860691079 M573.7782407925461,465.9225860691079 L573.6057471582258,467.89880176635296 M573.6057471582258,467.89880176635296 L573.1139454393095,469.79782546698374 M573.1139454393095,469.79782546698374 L572.3311242302967,471.51012721707355 M572.3311242302967,471.51012721707355 L571.3022706099853,472.9366973348218 M571.3022706099853,472.9366973348218 L570.0865825366287,473.9948030941911 M570.0865825366287,473.9948030941911 L568.7541378866792,474.622682223967 M568.7541378866792,474.622682223967 L567.3819847253526,474.78322762632047 M567.3819847253526,474.78322762632047 L566.049735894204,474.4662694761885 M566.049735894204,474.4662694761885 L564.8349799971187,473.68935715842366 M564.8349799971187,473.68935715842366 L563.8087183883588,472.49695783425267 M563.8087183883588,472.49695783425267 L563.0311789745537,470.9579874829888 M563.0311789745537,470.9579874829888 L562.548154828548,469.1619751456067 M562.548154828548,469.1619751456067 L562.3882158676078,467.21371933335945 M562.3882158676078,467.21371933335945 L562.5609105321387,465.22722196248407 M562.5609105321387,465.22722196248407 L563.0562020719543,463.3188286063933 M563.0562020719543,463.3188286063933 L563.8450023417903,461.60021553075376 M563.8450023417903,461.60021553075376 L564.8809545300704,460.1718384528285 M564.8809545300704,460.1718384528285 L566.1032344152846,459.11684388565936 M566.1032344152846,459.11684388565936 L567.4402540975574,458.4962814358831 M567.4402540975574,458.4962814358831 L568.8139174160858,458.3455819992394 M568.8139174160858,458.3455819992394 L570.1442655802588,458.672659829087 M570.1442655802588,458.672659829087 L571.3541454182924,459.4576472426856 M571.3541454182924,459.4576472426856 L572.3736725601289,460.6542272546223 M572.3736725601289,460.6542272546223 L573.1441618950071,462.19252602358665 M573.1441618950071,462.19252602358665 L573.6214354728007,463.9831684504617 M573.6214354728007,463.9831684504617 L573.7782407925461,465.9225860691079" stroke="black"  stroke-width="4"  fill="red"/>
<path d="M753.3043493803574,422.4336961740404 L753.1524704090155,424.07138182489916 M753.1524704090155,424.07138182489916 L752.7588655718408,425.6396802637507 M752.7588655718408,425.6396802637507 L752.1462185752196,427.04802219408526 M752.1462185752196,427.04802219408526 L751.3498109312416,428.2148933473459 M751.3498109312416,428.2148933473459 L750.4155525803276,429.07259333634977 M750.4155525803276,429.07259333634977 L749.3973800258473,429.57108173972597 M749.3973800258473,429.57108173972597 L748.3542276971721,429.6809595121231 M748.3542276971721,429.6809595121231 L747.3466448165676,429.39526267357945 M747.3466448165676,429.39526267357945 L746.4332992955304,428.72999861803055 M746.4332992955304,428.72999861803055 L745.6675298855655,427.7233677720448 M745.6675298855655,427.7233677720448 L745.0942122859362,426.4336153649787 M745.0942122859362,426.4336153649787 L744.747044546712,424.93577234756435 M744.747044546712,424.93577234756435 L744.6465121485501,423.317178111727 M744.6465121485501,423.317178111727 L744.7986074736081,421.67243800309467 M744.7986074736081,421.67243800309467 L745.194485319742,420.09775597088424 M745.194485319742,420.09775597088424 L745.8109412182268,418.68516359922586 M745.8109412182268,418.68516359922586 L746.6118210834808,417.51714901036235 M746.6118210834808,417.51714901036235 L747.5501904036828,416.66167442825076 M747.5501904036828,416.66167442825076 L748.5711709506774,416.16827051508415 M748.5711709506774,416.16827051508415 L749.6151850084153,416.065171494496 M749.6151850084153,416.065171494496 L750.6214859470763,416.3577884266955 M750.6214859470763,416.3577884266955 L751.5316995412684,417.02852860245747 M751.5316995412684,417.02852860245747 L752.2932044893096,418.03793713650987 M752.2932044893096,418.03793713650987 L752.8621020387699,419.3271323872864 M752.8621020387699,419.3271323872864 L753.2057067404528,420.8212111090989 M753.2057067404528,420.8212111090989 L753.3043493803574,422.4336961740404 M753.3043493803574,422.4336961740404 L751.2815667364802,421.84883421024915 M751.2815667364802,421.84883421024915 L749.270070022976,421.2672407606916 M749.270070022976,421.2672407606916 L747.2698016650284,420.68888850246714 M747.2698016650284,420.68888850246714 L747.0151018185727,416.5683722501913 M747.0151018185727,416.5683722501913 L746.1322993138682,412.7463038902606 M746.1322993138682,412.7463038902606 L744.6707431818888,409.44269428186345 M744.6707431818888,409.44269428186345 L742.7128704593965,406.84919481734596 M742.7128704593965,406.84919481734596 L740.3700772767075,405.11804694008606 M740.3700772767075,405.11804694008606 L737.7767436637051,404.35288856759223 M737.7767436637051,404.35288856759223 L735.0828172321542,404.60208299945157 M735.0828172321542,404.60208299945157 L732.445350798606,405.8549719474397 M732.445350798606,405.8549719474397 L730.0191811791594,408.041621530274 M730.0191811791594,408.041621530274 L727.9476452601604,411.0362501494045 M727.9476452601604,411.0362501494045 L726.353688401447,414.66419706515984 M726.353688401447,414.66419706515984 L725.3321190126666,418.71222586953076 M725.3321190126666,418.71222586953076 L724.9436126543765,422.94145563954424 M724.9436126543765,422.94145563954424 L725.210841958654,427.1021019441347 M725.210841958654,427.1021019441347 L726.1172091100954,430.9489062818888 M726.1172091100954,430.9489062818888 L727.6079892065655,434.25618907682764 M727.6079892065655,434.25618907682764 L729.5940274319232,436.8314600825807 M729.5940274319232,436.8314600825807 L731.9574836930558,438.5266532907434 M731.9574836930558,438.5266532907434 L734.559244609303,439.2463674836497 M734.559244609303,439.2463674836497 L737.2474320860443,438.95264935540536 M737.2474320860443,438.95264935540536 L739.8663079272715,437.6663571798409 M739.8663079272715,437.6663571798409 L742.2652938040551,435.4650767288305 M742.2652938040551,435.4650767288305 L744.3072801340143,432.47794190468215 M744.3072801340143,432.47794190468215 L745.8760829415494,428.8778980056444 M745.8760829415494,428.8778980056444 L746.8826794480947,424.87178683701893 M746.8826794480947,424.87178683701893 L747.2698016650284,420.68888850246714 M753.3043493803574,422.4336961740404 L871.2598951325655,432.20110943019137 M871.2598951325655,432.20110943019137 L871.094631918753,433.9149082884889 M871.094631918753,433.9149082884889 L870.6918173612305,435.5573672540306 M870.6918173612305,435.5573672540306 L870.0746585520662,437.03366115980793 M870.0746585520662,437.03366115980793 L869.2786856168667,438.25836147800914 M869.2786856168667,438.25836147800914 L868.3497699298688,439.1604191556401 M868.3497699298688,439.1604191556401 L867.3415283776482,439.6871997318406 M867.3415283776482,439.6871997318406 L866.3123147585312,439.80762033738654 M866.3123147585312,439.80762033738654 L865.3218715150249,439.51404970868106 M865.3218715150249,439.51404970868106 L864.4278797299901,438.82289567350057 M864.4278797299901,438.82289567350057 L863.6825665829908,437.77381742317993 M863.6825665829908,437.77381742317993 L863.1296330211147,436.4275013645546 M863.1296330211147,436.4275013645546 L862.8016038650445,434.8622693376691 M862.8016038650445,434.8622693376691 L862.7178592221394,433.1694046517615 M862.7178592221394,433.1694046517615 L862.8834158999052,431.447878798707 M862.8834158999052,431.447878798707 L863.2886394690261,429.79841658909703 M863.2886394690261,429.79841658909703 L863.9097709178321,428.3174474219973 M863.9097709178321,428.3174474219973 L864.710370034967,427.0914710121753 M864.710370034967,427.0914710121753 L865.6435056038716,426.1918286280349 M865.6435056038716,426.1918286280349 L866.6545940639841,425.67060147452753 M866.6545940639841,425.67060147452753 L867.6846294158582,425.5576001697996 M867.6846294158582,425.5576001697996 L868.6736809725024,425.8587563174251 M868.6736809725024,425.8587563174251 L869.5643864785067,426.55592433392536 M869.5643864785067,426.55592433392536 L870.3052715620163,427.60806735752027 M870.3052715620163,427.60806735752027 L870.853649702528,428.9537967933798 M870.853649702528,428.9537967933798 L871.1780396922001,430.5149252621371 M871.1780396922001,430.5149252621371 L871.2598951325655,432.20110943019137" stroke="black"  stroke-width="4"  fill="red"/></svg>