<svg viewBox="0 0 1000 1000" xmlns="http://www.w3.org/2000/svg"><path d="M685.1848797139667,425.4604125609553 L44.97941015766622,695.863818588153 M44.97941015766622,695.863818588153 L43.56851841688467,531.8007781907249 M43.56851841688467,531.8007781907249 L55.72928160207715,537.7916215512437 M55.72928160207715,537.7916215512437 L68.64666628934219,541.9331180878473 M68.64666628934219,541.9331180878473 L82.19940588559035,544.1903666817354 M82.19940588559035,544.1903666817354 L96.26082331979399,544.5460356637057 M96.26082331979399,544.5460356637057 L110.7000725393957,543.0003131637138 M110.7000725393957,543.0003131637138 L125.38325174056678,539.5708870735775 M125.38325174056678,539.5708870735775 L140.1747532365752,534.2925572025842 M593.0837496299234,344.9624713931476 L140.1747532365752,534.2925572025842 M593.0837496299234,344.9624713931476 L607.3808010227541,338.0964639935391 M607.3808010227541,338.0964639935391 L621.5348508506546,329.5213636162673 M621.5348508506546,329.5213636162673 L635.4163501645435,319.3181590768986 M635.4163501645435,319.3181590768986 L648.8985044572038,307.5823284811032 M648.8985044572038,307.5823284811032 L661.8584839046068,294.42293345727677 M661.8584839046068,294.42293345727677 L674.1783707097804,279.9615861604875 M674.1783707097804,279.9615861604875 L685.7462003596636,264.33138774405074 M685.1848797139667,425.4604125609553 L685.7462003596636,264.33138774405074 M44.97941015766622,695.863818588153 L30.766436991866556,702.3856760071712 M30.766436991866556,702.3856760071712 L17.87684195986685,709.3824391433047 M17.87684195986685,709.3824391433047 L6.453890646620721,716.7746142022092 M6.453890646620721,716.7746142022092 L-3.400857021137199,724.4893404683967 M-3.400857021137199,724.4893404683967 L-11.60026653139198,732.4470462423062 M-11.60026653139198,732.4470462423062 L-18.08006022844927,740.5669466148022 M-18.08006022844927,740.5669466148022 L-22.798645331480316,748.7686197993603 M-22.798645331480316,748.7686197993603 L-25.736279550937752,756.9735729855829 M-25.736279550937752,756.9735729855829 L-26.893459469314053,765.1064834106517 M-26.893459469314053,765.1064834106517 L-26.288800518698395,773.0962424582128 M-26.288800518698395,773.0962424582128 L-23.95641827674615,780.8765848147227 M-23.95641827674615,780.8765848147227 L-19.943284082856962,788.3864447167334 M-19.943284082856962,788.3864447167334 L-14.306527941840272,795.5699682066577 M-14.306527941840272,795.5699682066577 L-7.111048490855694,802.376223796072 M-7.111048490855694,802.376223796072 L1.5724333893397215,808.758729378231 M1.5724333893397215,808.758729378231 L10.761691680252113,814.1932638562159 M10.761691680252113,814.1932638562159 L21.091723464169604,819.2141108445585 M21.091723464169604,819.2141108445585 L35.03023529126284,824.691079214118 M35.03023529126284,824.691079214118 L50.39941043431969,829.4529324628745 M50.39941043431969,829.4529324628745 L67.09626304417901,833.461148655613 M67.09626304417901,833.461148655613 L84.97286749461176,836.6684695912643 M84.97286749461176,836.6684695912643 L103.8794504657015,839.0344051844718 M103.8794504657015,839.0344051844718 L123.65071240196278,840.5222739046415 M123.65071240196278,840.5222739046415 L144.1038140287149,841.1006503799726 M144.1038140287149,841.1006503799726 L165.03726090336949,840.7452072249512 M165.03726090336949,840.7452072249512 L186.23127653609214,839.4406349561307 M186.23127653609214,839.4406349561307 L207.44951273830054,837.1826694429444 M207.44951273830054,837.1826694429444 L228.44211898897436,833.979974747692 M228.44211898897436,833.979974747692 L248.95036688883806,829.8555829476509 M248.95036688883806,829.8555829476509 L268.712676489084,824.8477293064454 M268.712676489084,824.8477293064454 L287.4709665314226,819.0102140088845 M287.4709665314226,819.0102140088845 L298.26396910987233,815.0900444611702 M298.26396910987233,815.0900444611702 L308.5341909362831,810.9109565444894 M308.5341909362831,810.9109565444894 L948.7410243937001,535.2949656132988 M948.7410243937001,535.2949656132988 L962.2562838061436,528.9555038278052 M962.2562838061436,528.9555038278052 L974.4017891391879,522.169788612667 M974.4017891391879,522.169788612667 L985.045060779831,515.0178130015194 M985.045060779831,515.0178130015194 L994.0958477404846,507.57257049649263 M994.0958477404846,507.57257049649263 L1001.4800460124051,499.91288045333806 M1001.4800460124051,499.91288045333806 L1007.1472569969053,492.1179687112047 M1007.1472569969053,492.1179687112047 L1011.0701278199942,484.26590009750004 M1011.0701278199942,484.26590009750004 L1013.2430226195314,476.43206687376716 M1013.2430226195314,476.43206687376716 L1013.6799662654804,468.688031160132 M1013.6799662654804,468.688031160132 L1012.4121369572966,461.1005916273473 M1012.4121369572966,461.1005916273473 L1009.4849538911569,453.7312731353913 M1009.4849538911569,453.7312731353913 L1004.9552199200662,446.63609350133316 M1004.9552199200662,446.63609350133316 L998.8883019109827,439.86566524825434 M998.8883019109827,439.86566524825434 L991.3556922027852,433.46558315014505 M991.3556922027852,433.46558315014505 L982.4330657112467,427.4769797891855 M982.4330657112467,427.4769797891855 L973.1136857293046,422.3877428227045 M973.1136857293046,422.3877428227045 L962.7399008872758,417.6939788814361 M962.7399008872758,417.6939788814361 L948.8649625520284,412.5826236253305 M948.8649625520284,412.5826236253305 L933.6855327692936,408.14610338110725 M933.6855327692936,408.14610338110725 L917.3012642357525,404.4170951773268 M917.3012642357525,404.4170951773268 L899.8541160456823,401.43671718489827 M899.8541160456823,401.43671718489827 L881.4857126871389,399.2401949495552 M881.4857126871389,399.2401949495552 L862.3509146664877,397.85973627373016 M862.3509146664877,397.85973627373016 L842.6198750601033,397.3232944813365 M842.6198750601033,397.3232944813365 L822.4792936683109,397.6529545169827 M822.4792936683109,397.6529545169827 L802.1323301881666,398.8632244196453 M802.1323301881666,398.8632244196453 L781.79732001693,400.9591920387462 M781.79732001693,400.9591920387462 L761.7052720001151,403.9347678030549 M761.7052720001151,403.9347678030549 L742.0959434480936,407.77127974873486 M742.0959434480936,407.77127974873486 L723.2126005950942,412.4365657358849 M723.2126005950942,412.4365657358849 L705.2964447934311,417.88444212124153 M705.2964447934311,417.88444212124153 L694.9903986544067,421.5488150078812 M694.9903986544067,421.5488150078812 L685.1848797139667,425.4604125609553 M21.091723464169604,819.2141108445585 L18.86710325829455,574.005859523003 M2.1575278173385186,474.6343822359822 L-7.431387288134374,482.27768207746624 M-7.431387288134374,482.27768207746624 L-15.36985317543406,490.1749107484911 M-15.36985317543406,490.1749107484911 L-21.53786728222883,498.1869565543344 M-21.53786728222883,498.1869565543344 L-25.931026357270525,506.2642241643107 M-25.931026357270525,506.2642241643107 L-28.533605410114433,514.3300056224074 M-28.533605410114433,514.3300056224074 L-29.349790870000106,522.3109126151827 M-29.349790870000106,522.3109126151827 L-28.401517291864252,530.1378702469019 M-28.401517291864252,530.1378702469019 L-25.725762250412572,537.7466428560667 M-25.725762250412572,537.7466428560667 L-21.371878742195236,545.07813817168 M-21.371878742195236,545.07813817168 L-15.398936463348264,552.0783705824379 M-15.398936463348264,552.0783705824379 L-7.873434143666998,558.6981253080482 M-7.873434143666998,558.6981253080482 L1.1326462869724878,564.8924356690243 M1.1326462869724878,564.8924356690243 L9.545512143636529,569.6130654767617 M9.545512143636529,569.6130654767617 L18.86710325829455,574.005859523003 M2.1575278173385186,474.6343822359822 L6.700620198341483,487.67545873189187 M6.700620198341483,487.67545873189187 L12.478411245734037,499.7281465526544 M12.478411245734037,499.7281465526544 L18.417977447679164,509.02514234696895 M18.417977447679164,509.02514234696895 L26.366804146525908,518.4252708768422 M26.366804146525908,518.4252708768422 L34.31620253583338,525.5207609149779 M34.31620253583338,525.5207609149779 L43.56851841688467,531.8007781907249 M62.65820089543678,540.7984460646286 L75.86154762581424,545.4156370368396 M75.86154762581424,545.4156370368396 L89.76359899843487,548.0288904605268 M89.76359899843487,548.0288904605268 L104.22584638536557,548.6162968972205 M104.22584638536557,548.6162968972205 L119.10471473575808,547.175970866235 M119.10471473575808,547.175970866235 L134.2532092477736,543.725799069485 M134.2532092477736,543.725799069485 L149.52214822603423,538.3032222477166 M13.785258087559612,479.6232769994764 L18.07853553051035,492.53265547128177 M18.07853553051035,492.53265547128177 L23.541256138530912,504.4283811670418 M23.541256138530912,504.4283811670418 L29.98455346395889,514.7330177925045 M29.98455346395889,514.7330177925045 L37.70826961606383,523.855314743904 M37.70826961606383,523.855314743904 L46.59680394945008,531.5653404541747 M46.59680394945008,531.5653404541747 L54.140911601461994,536.5049357678859 M54.140911601461994,536.5049357678859 L62.65820089543678,540.7984460646286 M2.1575278173385186,474.6343822359822 L13.785258087559612,479.6232769994764 M149.52214822603423,538.3032222477166 L140.1747532365752,534.2925572025842 M149.52214822603423,538.3032222477166 L602.432573267532,348.84429536034423 M602.432573267532,348.84429536034423 L593.0837496299234,344.9624713931476 M748.3566548733402,175.35984074605636 L741.0624214883641,192.6908697162417 M741.0624214883641,192.6908697162417 L732.4705006439505,210.05805285424304 M732.4705006439505,210.05805285424304 L723.1785579790266,226.57607880598084 M723.1785579790266,226.57607880598084 L713.038622382247,242.82754267122442 M713.038622382247,242.82754267122442 L702.4843268713603,258.3617774822524 M702.4843268713603,258.3617774822524 L694.3150724089857,269.66223020182633 M694.3150724089857,269.66223020182633 L685.8404840243012,280.86417828389466 M602.432573267532,348.84429536034423 L617.190617070827,341.7228047641412 M617.190617070827,341.7228047641412 L631.7921093535957,332.78201242322757 M631.7921093535957,332.78201242322757 L646.0945869299483,322.11188360331744 M646.0945869299483,322.11188360331744 L659.9589436644333,309.8187396942062 M659.9589436644333,309.8187396942062 L673.2505091380757,296.02425121399904 M673.2505091380757,296.02425121399904 L685.8404840243012,280.86417828389466 M736.7261303749239,170.6283181192947 L729.645557019786,188.09613155361023 M729.645557019786,188.09613155361023 L721.3089840888806,205.6332215068204 M721.3089840888806,205.6332215068204 L713.4156367703366,220.37857190075601 M713.4156367703366,220.37857190075601 L703.7635402463766,236.78239121694708 M703.7635402463766,236.78239121694708 L694.998112433891,250.58272685887738 M694.998112433891,250.58272685887738 L685.7462003596636,264.33138774405074 M736.7261303749239,170.6283181192947 L748.3566548733402,175.35984074605636 M964.8175604971906,178.93933812306142 L950.8794390911646,173.91093040435578 M950.8794390911646,173.91093040435578 L935.6311443940651,169.5464225729438 M935.6311443940651,169.5464225729438 L919.1727760640345,165.87795425109766 M919.1727760640345,165.87795425109766 L901.6469277045369,162.9459698710175 M901.6469277045369,162.9459698710175 L883.1958522568456,160.78511780040537 M883.1958522568456,160.78511780040537 L863.9750943357897,159.42707880470698 M863.9750943357897,159.42707880470698 L844.1555562605479,158.8993496200273 M844.1555562605479,158.8993496200273 L823.9247582191408,159.22365546336414 M823.9247582191408,159.22365546336414 L803.4867516362553,160.41426940919968 M803.4867516362553,160.41426940919968 L783.0608299964139,162.4761991252235 M783.0608299964139,162.4761991252235 L762.8790163470895,165.4034581633788 M762.8790163470895,165.4034581633788 L749.6367327428993,167.83557486584778 M749.6367327428993,167.83557486584778 L736.7261303749239,170.6283181192947 M962.7399008872758,417.6939788814361 L964.8175604971906,178.93933812306142 M308.5341909362831,810.9109565444894 L307.64557890358816,565.834915452266 M18.86710325829455,574.005859523003 L32.86937793943338,579.3956475218392 M32.86937793943338,579.3956475218392 L48.30915330808807,584.081721948 M48.30915330808807,584.081721948 L65.08296610897708,588.0261659073695 M65.08296610897708,588.0261659073695 L83.04220163422485,591.1824659884176 M83.04220163422485,591.1824659884176 L102.03638353075166,593.5107702011304 M102.03638353075166,593.5107702011304 L121.8994325586915,594.9749758189341 M121.8994325586915,594.9749758189341 L142.44764402264457,595.5441542360588 M142.44764402264457,595.5441542360588 L163.47856758405607,595.1943637475549 M163.47856758405607,595.1943637475549 L184.77138281204407,593.9105391163566 M184.77138281204407,593.9105391163566 L206.08861841999794,591.6884868727022 M206.08861841999794,591.6884868727022 L227.1792370768997,588.5367381768237 M227.1792370768997,588.5367381768237 L247.7832827319076,584.4779655574017 M247.7832827319076,584.4779655574017 L267.6379364223382,579.5498044523574 M267.6379364223382,579.5498044523574 L286.4838974357024,573.8052086843478 M286.4838974357024,573.8052086843478 L297.3273489147415,569.9474536254739 M297.3273489147415,569.9474536254739 L307.64557890358816,565.834915452266 M307.64557890358816,565.834915452266 L950.7763976436545,294.6373908187586 M948.7410243937001,535.2949656132988 L950.7763976436545,294.6373908187586 M413.8180079892471,570.1482556242781 L413.5438435636061,573.1981868424587 M413.5438435636061,573.1981868424587 L412.72780344342726,576.3069437671586 M412.72780344342726,576.3069437671586 L411.41729221941995,579.2940747640528 M411.41729221941995,579.2940747640528 L409.6883651346027,581.9862025737627 M409.6883651346027,581.9862025737627 L407.6413600770719,584.226999630735 M407.6413600770719,584.226999630735 L405.3950769185188,585.8863420607832 M405.3950769185188,585.8863420607832 L403.0799176473867,586.8677255368053 M403.0799176473867,586.8677255368053 L400.830342572097,587.1139792207489 M400.830342572097,587.1139792207489 L398.77707138604615,586.6106215877672 M398.77707138604615,586.6106215877672 L397.03949166790517,585.3866500014544 M397.03949166790517,585.3866500014544 L395.7187141549774,583.5130311653342 M395.7187141549774,583.5130311653342 L394.8916450227217,581.0985349882801 M394.8916450227217,581.0985349882801 L394.60651035295234,578.2834664080115 M394.60651035295234,578.2834664080115 L394.8800203962326,575.2315118824797 M394.8800203962326,575.2315118824797 L395.69631771603275,572.1202233279546 M395.69631771603275,572.1202233279546 L397.00793879793775,569.130632340373 M397.00793879793775,569.130632340373 L398.73857415806765,566.4366797228374 M398.73857415806765,566.4366797228374 L400.78749456046035,564.19511110859 M400.78749456046035,564.19511110859 L403.03546134585105,562.5362270905268 M403.03546134585105,562.5362270905268 L405.3516868296101,561.5564270098483 M405.3516868296101,561.5564270098483 L407.6014664431124,561.3125189620439 M407.6014664431124,561.3125189620439 L409.65403364101127,561.81844709545 M409.65403364101127,561.81844709545 L411.3901621153106,563.0446251973533 M411.3901621153106,563.0446251973533 L412.70907360124136,564.919581063424 M412.70907360124136,564.919581063424 L413.5342893951751,567.3342385007454 M413.5342893951751,567.3342385007454 L413.8180079892471,570.1482556242781 M867.0355952222948,378.23085944636045 L866.7457588827945,381.2394264032236 M866.7457588827945,381.2394264032236 L865.9330621006693,384.3015607738122 M865.9330621006693,384.3015607738122 L864.6447144597682,387.23951400148326 M864.6447144597682,387.23951400148326 L862.9554866335357,389.88275972033284 M862.9554866335357,389.88275972033284 L860.9634156537725,392.07780588734477 M860.9634156537725,392.07780588734477 L858.7841164771149,393.69718376812057 M858.7841164771149,393.69718376812057 L856.5441062515301,394.64671197074597 M856.5441062515301,394.64671197074597 L854.3734836411784,394.8710741774412 M854.3734836411784,394.8710741774412 L852.3983822145683,394.35706639128676 M852.3983822145683,394.35706639128676 L850.7336456546846,393.1343122374149 M850.7336456546846,393.1343122374149 L849.4761460864299,391.27371390276153 M849.4761460864299,391.27371390276153 L848.6991053485726,388.88328916153927 M848.6991053485726,388.88328916153927 L848.447833934269,386.1019457582433 M848.447833934269,386.1019457582433 L848.7370664561383,383.0914087691073 M848.7370664561383,383.0914087691073 L849.5500279785272,380.0268182335138 M849.5500279785272,380.0268182335138 L850.8394482665673,377.0864853817372 M850.8394482665673,377.0864853817372 L852.530310929842,374.44148171280654 M852.530310929842,374.44148171280654 L854.5242044124283,372.2457020203416 M854.5242044124283,372.2457020203416 L856.7050962396713,370.62678304581516 M856.7050962396713,370.62678304581516 L858.9461044086006,369.6788010811427 M858.9461044086006,369.6788010811427 L861.1169016347592,369.45671821399037 M861.1169016347592,369.45671821399037 L863.091314352436,369.9732162531265 M863.091314352436,369.9732162531265 L864.7546566490942,371.1981011073553 M864.7546566490942,371.1981011073553 L866.0103758183951,373.0599824577957 M866.0103758183951,373.0599824577957 L866.7856578775863,375.4505486196971 M866.7856578775863,375.4505486196971 L867.0355952222948,378.23085944636045 M950.7763976436545,294.6373908187586 L964.3518090432357,288.4002405162226 M964.3518090432357,288.4002405162226 L976.551111866061,281.72407277205866 M976.551111866061,281.72407277205866 L987.2412463814635,274.6875955111434 M987.2412463814635,274.6875955111434 L996.3315753302057,267.362628832579 M996.3315753302057,267.362628832579 L1003.7476858088655,259.82672309822374 M1003.7476858088655,259.82672309822374 L1009.4389802248076,252.15782687380118 M1009.4389802248076,252.15782687380118 L1013.3780124880088,244.43274467112764 M1013.3780124880088,244.43274467112764 L1015.559152125329,236.7256498298609 M1015.559152125329,236.7256498298609 L1015.9965176349192,229.10694574803017 M1015.9965176349192,229.10694574803017 L1014.7214568018918,221.6423478301167 M1014.7214568018918,221.6423478301167 L1011.7796204554704,214.3923815951564 M1011.7796204554704,214.3923815951564 L1007.2280916573636,207.4121534633142 M1007.2280916573636,207.4121534633142 L1001.1325529632963,200.7514511144044 M1001.1325529632963,200.7514511144044 L993.5648366890867,194.4551250100095 M993.5648366890867,194.4551250100095 L984.600973198904,188.56363519000064 M984.600973198904,188.56363519000064 L975.2387818651206,183.55694879368502 M975.2387818651206,183.55694879368502 L964.8175604971906,178.93933812306142 M28.652797643524423,569.9189644740381 L17.178497982679346,564.2972739936142 M17.178497982679346,564.2972739936142 L7.435952318734735,558.1189669420748 M7.435952318734735,558.1189669420748 L-0.5795888141864793,551.3831973636122 M-0.5795888141864793,551.3831973636122 L-6.754639873414135,544.1609533446358 M-6.754639873414135,544.1609533446358 L-11.014853343598588,536.5039615672849 M-11.014853343598588,536.5039615672849 L-13.286724499744537,528.4668367695281 M-13.286724499744537,528.4668367695281 L-13.640973152155311,522.1904791498732 M-13.640973152155311,522.1904791498732 L-12.257515692695847,513.6509757330107 M-12.257515692695847,513.6509757330107 L-8.717422666005461,504.9346658049283 M-8.717422666005461,504.9346658049283 L-4.133267756486134,497.64930566798546 M-4.133267756486134,497.64930566798546 L3.39973642967459,488.85762437847467 M3.39973642967459,488.85762437847467 L8.3247152143108,484.18650886932943 M8.3247152143108,484.18650886932943 L13.785258087559612,479.6232769994764 M307.7793963314763,557.6753436070973 L291.7169660732786,563.9189990912123 M291.7169660732786,563.9189990912123 L274.50320440808224,569.5952669897017 M274.50320440808224,569.5952669897017 L256.4205197658508,574.6093599164212 M256.4205197658508,574.6093599164212 L237.65106497424983,578.9174127412945 M237.65106497424983,578.9174127412945 L218.42063672546726,582.4756803297612 M218.42063672546726,582.4756803297612 L198.95468523050704,585.2541979591873 M198.95468523050704,585.2541979591873 L179.4753437843508,587.2361197948088 M179.4753437843508,587.2361197948088 L160.2047422675161,588.4170553104728 M160.2047422675161,588.4170553104728 L141.33689634667877,588.8059366048972 M141.33689634667877,588.8059366048972 L123.4645204299157,588.4388742070244 M123.4645204299157,588.4388742070244 L105.89971764678478,587.3249226766175 M105.89971764678478,587.3249226766175 L91.47135077341352,585.792364131325 M91.47135077341352,585.792364131325 L75.6204554370853,583.378192494683 M75.6204554370853,583.378192494683 L60.84555880390673,580.3205885624213 M60.84555880390673,580.3205885624213 L47.22348182430005,576.6577596365097 M47.22348182430005,576.6577596365097 L37.58992846995682,573.4583734752164 M37.58992846995682,573.4583734752164 L28.652797643524423,569.9189644740381 M931.9915986909506,294.6373908187586 L307.7793963314763,557.6753436070973 M955.6734789469192,182.75827014198308 L967.2095526722455,188.01992724744053 M967.2095526722455,188.01992724744053 L977.1342894893697,193.81401872768197 M977.1342894893697,193.81401872768197 L985.4501293184443,200.14462824042 M985.4501293184443,200.14462824042 L992.0378379969362,206.94840787351308 M992.0378379969362,206.94840787351308 L996.8160886971057,214.17984577633433 M996.8160886971057,214.17984577633433 L999.7027286199132,221.79040687510678 M999.7027286199132,221.79040687510678 L1000.5783069582611,227.74803295321254 M1000.5783069582611,227.74803295321254 L999.9515402789704,235.8742072759057 M999.9515402789704,235.8742072759057 L997.2295016437379,244.19289685020163 M997.2295016437379,244.19289685020163 L993.3572864832677,251.16480058867396 M993.3572864832677,251.16480058867396 L986.7100339788296,259.6012111038083 M986.7100339788296,259.6012111038083 L977.9151458196512,267.9585941471637 M977.9151458196512,267.9585941471637 L967.0227015752766,276.12235899867034 M967.0227015752766,276.12235899867034 L954.1251251991149,283.9751043728881 M954.1251251991149,283.9751043728881 L943.4927497925764,289.45704361730225 M943.4927497925764,289.45704361730225 L931.9915986909506,294.6373908187586 M748.3566548733402,175.35984074605636 L766.6624462079625,171.85411988980604 M766.6624462079625,171.85411988980604 L785.6474382657401,169.02306436694312 M785.6474382657401,169.02306436694312 L803.0680833795919,167.1111529545721 M803.0680833795919,167.1111529545721 L821.6565339806593,165.7797769295728 M821.6565339806593,165.7797769295728 L839.951410334741,165.1884765858265 M839.951410334741,165.1884765858265 L857.2122416779313,165.30672299806247 M857.2122416779313,165.30672299806247 L874.44416966275,166.12038198204846 M874.44416966275,166.12038198204846 L890.9271743735773,167.6087341433685 M890.9271743735773,167.6087341433685 L904.6725937335885,169.44354085784943 M904.6725937335885,169.44354085784943 L919.4547969781325,172.1096022211097 M919.4547969781325,172.1096022211097 L933.2046013827412,175.3535352417045 M933.2046013827412,175.3535352417045 L944.8883477265714,178.82120951714552 M944.8883477265714,178.82120951714552 L955.6734789469192,182.75827014198308 M685.3922265428623,409.432906656624 L63.736516328953314,671.6401801315499 M63.736516328953314,671.6401801315499 L62.65820089543678,540.7984460646286 M685.3922265428623,409.432906656624 L685.8404840243012,280.86417828389466 M63.736516328953314,671.6401801315499 L48.969656800672965,678.3868978450721 M48.969656800672965,678.3868978450721 L35.54192731886599,685.6013362250362 M35.54192731886599,685.6013362250362 L23.625780920998466,693.1870288549947 M23.625780920998466,693.1870288549947 L13.332745785289035,701.0606277904358 M13.332745785289035,701.0606277904358 L4.757606768426228,709.1304148037368 M4.757606768426228,709.1304148037368 L-2.0342348467871716,717.3046541880415 M-2.0342348467871716,717.3046541880415 L-7.006684393312696,725.4941022891594 M-7.006684393312696,725.4941022891594 L-10.150913753722193,733.6140665209236 M-10.150913753722193,733.6140665209236 L-11.482439761594662,741.5860329831976 M-11.482439761594662,741.5860329831976 L-11.037438134287129,749.3389246141685 M-11.037438134287129,749.3389246141685 L-8.868162292707439,756.8095989720703 M-8.868162292707439,756.8095989720703 L-5.038412735398595,763.9428740766991 M-5.038412735398595,763.9428740766991 L0.3806976113467613,770.6910703408773 M0.3806976113467613,770.6910703408773 L7.314736036705199,777.0129859018364 M7.314736036705199,777.0129859018364 L15.688695270922665,782.8726585321015 M15.688695270922665,782.8726585321015 L22.78300593105513,786.8994004599851 M22.78300593105513,786.8994004599851 L30.614456020778334,790.648917620075 M30.614456020778334,790.648917620075 L28.652797643524423,569.9189644740381 M953.8389311193384,397.7902672074004 L940.8962010018016,393.0704297844556 M940.8962010018016,393.0704297844556 L926.636397801195,389.0203679886406 M926.636397801195,389.0203679886406 L911.1202389074592,385.6641125673138 M911.1202389074592,385.6641125673138 L894.4685655183425,383.0430643466813 M894.4685655183425,383.0430643466813 L876.7966919181974,381.19393346973527 M876.7966919181974,381.19393346973527 L858.2369616670871,380.153179938605 M858.2369616670871,380.153179938605 L838.9433233434409,379.9549245402774 M838.9433233434409,379.9549245402774 L819.0944806630392,380.6283429825954 M819.0944806630392,380.6283429825954 L798.8949243139548,382.19477930790833 M798.8949243139548,382.19477930790833 L778.5741059541078,384.6646968604307 M778.5741059541078,384.6646968604307 L758.3832713203377,388.034911972718 M758.3832713203377,388.034911972718 L738.589984980843,392.2863332737826 M738.589984980843,392.2863332737826 L719.4709704509355,397.38242611483156 M719.4709704509355,397.38242611483156 L701.8387677641991,403.07878446995613 M701.8387677641991,403.07878446995613 L685.3922265428623,409.432906656624 M953.8389311193384,397.7902672074004 L955.6734789469192,182.75827014198308 M413.8180079892471,570.1482556242781 L412.16848378193134,566.7957654615193 M412.16848378193134,566.7957654615193 L410.5199022197275,563.4451911290648 M410.5199022197275,563.4451911290648 L410.06805740667147,568.4750558860538 M410.06805740667147,568.4750558860538 L408.7225572194414,573.6015204302647 M408.7225572194414,573.6015204302647 L406.5615196210442,578.5272574715002 M406.5615196210442,578.5272574715002 L403.7102761112593,582.9665766124951 M403.7102761112593,582.9665766124951 L400.33416369282884,586.661878691584 M400.33416369282884,586.661878691584 L396.62892136563977,589.3986237538335 M396.62892136563977,589.3986237538335 L392.8094822317332,591.0176352539672 M392.8094822317332,591.0176352539672 L389.0975990480552,591.4244422077279 M389.0975990480552,591.4244422077279 L385.7089343081852,590.5948871659122 M385.7089343081852,590.5948871659122 L382.840564581889,588.5765647854365 M382.840564581889,588.5765647854365 L380.65955634345016,585.4862596231355 M380.65955634345016,585.4862596231355 L379.2930936943897,581.5032551477482 M379.2930936943897,581.5032551477482 L378.8210042438449,576.858990017204 M378.8210042438449,576.858990017204 L379.2710669760854,571.8236198819054 M379.2710669760854,571.8236198819054 L380.61726594314416,566.6902673460543 M380.61726594314416,566.6902673460543 L382.7813231353313,561.7578376401748 M382.7813231353313,561.7578376401748 L385.6372152993323,557.3135543755955 M385.6372152993323,557.3135543755955 L389.01854042989197,553.6161539473834 M389.01854042989197,553.6161539473834 L392.72836539811766,550.8806569747526 M392.72836539811766,550.8806569747526 L396.5507072791387,549.265954138096 M396.5507072791387,549.265954138096 L400.26314830822866,548.865529322457 M400.26314830822866,548.865529322457 L403.64989821997256,549.7020778896708 M403.64989821997256,549.7020778896708 L406.51431908139654,551.7264031134822 M406.51431908139654,551.7264031134822 L408.6902490783137,554.8203452053842 M408.6902490783137,554.8203452053842 L410.0516674811512,558.803787527482 M410.0516674811512,558.803787527482 L410.5199022197275,563.4451911290648 M867.0355952222948,378.23085944636045 L865.2856354435089,374.9871620204444 M865.2856354435089,374.9871620204444 L863.536659351992,371.7452879414991 M863.536659351992,371.7452879414991 L863.0589770950502,376.70696736404864 M863.0589770950502,376.70696736404864 L861.7189818153948,381.7565931747534 M861.7189818153948,381.7565931747534 L859.5944703098612,386.6012858023011 M859.5944703098612,386.6012858023011 L856.8086599992006,390.9600461349517 M856.8086599992006,390.9600461349517 L853.5231013311441,394.5799418586817 M853.5231013311441,394.5799418586817 L849.9282927270837,397.2508058392872 M849.9282927270837,397.2508058392872 L846.232770979061,398.817290341142 M846.232770979061,398.817290341142 L842.6511021577688,399.1879860650349 M842.6511021577688,399.1879860650349 L839.3913882921042,398.3408491344418 M839.3913882921042,398.3408491344418 L836.6432092797779,396.32451469224094 M836.6432092797779,396.32451469224094 L834.5666322374627,393.25566965033653 M834.5666322374627,393.25566965033653 L833.2827522946188,389.3123628923042 M833.2827522946188,389.3123628923042 L832.8665762650807,384.72373049566477 M832.8665762650807,384.72373049566477 L833.3426140475718,379.7566906219829 M833.3426140475718,379.7566906219829 L834.6833286621879,374.70038208005275 M834.6833286621879,374.70038208005275 L836.8107585547689,369.84921535953964 M836.8107585547689,369.84921535953964 L839.6010177362949,365.48567271391863 M839.6010177362949,365.48567271391863 L842.8915365270851,361.8637820392003 M842.8915365270851,361.8637820392003 L846.4906802401904,359.1941674481769 M846.4906802401904,359.1941674481769 L850.188918966594,357.6318905121949 M850.188918966594,357.6318905121949 L853.7710641866888,357.2673965923716 M853.7710641866888,357.2673965923716 L857.028904757064,358.1213087908779 M857.028904757064,358.1213087908779 L859.7732899030244,360.1434398935752 M859.7732899030244,360.1434398935752 L861.8450216589807,363.21577499257864 M861.8450216589807,363.21577499257864 L863.1241148997439,367.15946568172944 M863.1241148997439,367.15946568172944 L863.536659351992,371.7452879414991 M30.614456020778334,790.648917620075 L43.618092419511356,795.6992807543822 M43.618092419511356,795.6992807543822 L58.05965132342067,800.0396636229311 M58.05965132342067,800.0396636229311 L73.87598616592226,803.6412042666266 M73.87598616592226,803.6412042666266 L90.94144349578505,806.4567730079489 M90.94144349578505,806.4567730079489 L109.1340613511457,808.4447040155194 M109.1340613511457,808.4447040155194 L128.31262885250942,809.5641497943432 M128.31262885250942,809.5641497943432 L148.31191249864276,809.7774420956766 M148.31191249864276,809.7774420956766 L168.9394411060406,809.0530082459852 M168.9394411060406,809.0530082459852 L189.97461424594673,807.3685712491254 M189.97461424594673,807.3685712491254 L211.16988503887933,804.7144842855298 M211.16988503887933,804.7144842855298 L232.2545333810284,801.0966977395274 M232.2545333810284,801.0966977395274 L252.94096655844226,796.5391002881811 M252.94096655844226,796.5391002881811 L272.9328449195541,791.0849882350615 M272.9328449195541,791.0849882350615 L291.3748230136981,785.0000087795181 M291.3748230136981,785.0000087795181 L308.5784060048538,778.2267567638637 M308.5784060048538,778.2267567638637 L307.7793963314763,557.6753436070973 M308.5784060048538,778.2267567638637 L930.235296349844,511.32703641628154 M930.235296349844,511.32703641628154 L931.9915986909506,294.6373908187586 M930.235296349844,511.32703641628154 L944.2987047252768,504.76934624674243 M944.2987047252768,504.76934624674243 L956.976514932889,497.7734388771596 M956.976514932889,497.7734388771596 L968.1088229492897,490.4357360347541 M968.1088229492897,490.4357360347541 L977.5966102077886,482.8392106643338 M977.5966102077886,482.8392106643338 L985.35950473774,475.07411260257635 M985.35950473774,475.07411260257635 L991.3471910219512,467.2297952310502 M991.3471910219512,467.2297952310502 L995.5386738714451,459.39228163798265 M995.5386738714451,459.39228163798265 L997.9396442949015,451.64232659173695 M997.9396442949015,451.64232659173695 L998.5790491435826,444.0539442767476 M998.5790491435826,444.0539442767476 L997.5050047498036,436.69332910484684 M997.5050047498036,436.69332910484684 L994.7799813623026,429.6185253454876 M994.7799813623026,429.6185253454876 L990.4761656754256,422.8795533161105 M990.4761656754256,422.8795533161105 L984.6712362668592,416.51898988912507 M984.6712362668592,416.51898988912507 L977.4444934613422,410.573069629242 M977.4444934613422,410.573069629242 L968.8742720223944,405.07296576053596 M968.8742720223944,405.07296576053596 L961.6979255422648,401.2994728033534 M961.6979255422648,401.2994728033534 L953.8389311193384,397.7902672074004" stroke="black"  stroke-width="4"  fill="red"/>
<path d="M414.8741938857951,572.2948550188166 L414.65698848239964,574.7107888451201 M414.65698848239964,574.7107888451201 L414.0105376409541,577.1733710865072 M414.0105376409541,577.1733710865072 L412.9724016697608,579.5396636707967 M412.9724016697608,579.5396636707967 L411.6028541509837,581.6722361628149 M411.6028541509837,581.6722361628149 L409.9814087256706,583.4472664641796 M409.9814087256706,583.4472664641796 L408.20218054257,584.7616339257038 M408.20218054257,584.7616339257038 L406.36848640516774,585.5389312549892 M406.36848640516774,585.5389312549892 L404.5868369805926,585.733899829933 M404.5868369805926,585.733899829933 L402.96076901446077,585.3350755089828 M402.96076901446077,585.3350755089828 L401.5848066834831,584.3655148529232 M401.5848066834831,584.3655148529232 L400.53900571033535,582.8814191586141 M400.53900571033535,582.8814191586141 L399.88424485833673,580.9690084748526 M399.88424485833673,580.9690084748526 L399.6586804796031,578.7393698983823 M399.6586804796031,578.7393698983823 L399.8754754336338,576.3221666981028 M399.8754754336338,576.3221666981028 L400.52208771539495,573.8579961395981 M400.52208771539495,573.8579961395981 L401.5609200163463,571.4901601341669 M401.5609200163463,571.4901601341669 L402.93153924233457,569.3564427263224 M402.93153924233457,569.3564427263224 L404.5541862225175,567.5809282809107 M404.5541862225175,567.5809282809107 L406.33447056075033,566.2668483690984 M406.33447056075033,566.2668483690984 L408.1688334960887,565.4905444038676 M408.1688334960887,565.4905444038676 L409.9506111481866,565.2970474399923 M409.9506111481866,565.2970474399923 L411.57623739717155,565.6974844899838 M411.57623739717155,565.6974844899838 L412.95128925534095,566.6684295426684 M412.95128925534095,566.6684295426684 L413.9959195758067,568.1533641472522 M413.9959195758067,568.1533641472522 L414.64951778931805,570.0658760709964 M414.64951778931805,570.0658760709964 L414.8741938857951,572.2948550188166 M414.8741938857951,572.2948550188166 L412.7622085295745,568.0024416266715 M412.7622085295745,568.0024416266715 L410.6517535265181,563.7131619031534 M410.6517535265181,563.7131619031534 L408.5428416447301,559.4270309910489 M408.5428416447301,559.4270309910489 L407.96386848589276,553.6898644016255 M407.96386848589276,553.6898644016255 L406.2807817143026,548.7654401852899 M406.2807817143026,548.7654401852899 L403.590751786695,544.9400044240625 M403.590751786695,544.9400044240625 L400.04944505375727,542.4363496547119 M400.04944505375727,542.4363496547119 L395.86216345912163,541.4007604535334 M395.86216345912163,541.4007604535334 L391.27201473305564,541.8943186211729 M391.27201473305564,541.8943186211729 L386.5457965874504,543.8892163148214 M386.5457965874504,543.8892163148214 L381.95860391882997,547.270062528921 M381.95860391882997,547.270062528921 L377.7775896614957,551.840529109739 M377.7775896614957,551.840529109739 L374.2464305044887,557.3347320083286 M374.2464305044887,557.3347320083286 L371.57097815928796,563.4327057615917 M371.57097815928796,563.4327057615917 L369.9070669492092,569.7792066944658 M369.9070669492092,569.7792066944658 L369.35154539309525,576.0044676446649 M369.35154539309525,576.0044676446649 L369.9364102988274,581.7460073770528 M369.9364102988274,581.7460073770528 L371.62722104606877,586.6697571556829 M371.62722104606877,586.6697571556829 L374.32499700905555,590.489642631341 M374.32499700905555,590.489642631341 L377.87233797649225,592.9841255465938 M377.87233797649225,592.9841255465938 L382.0625449502432,594.0090287154195 M382.0625449502432,594.0090287154195 L386.6518400485833,593.505718367575 M386.6518400485833,593.505718367575 L391.3736210931748,591.5042364351622 M391.3736210931748,591.5042364351622 L395.95380971930337,588.1214823646676 M395.95380971930337,588.1214823646676 L400.1268574817958,583.5542212875566 M400.1268574817958,583.5542212875566 L403.65091272633725,578.0676029548958 M403.65091272633725,578.0676029548958 L406.3217658667222,571.9798490911368 M406.3217658667222,571.9798490911368 L407.9845955194266,565.6438793069841 M407.9845955194266,565.6438793069841 L408.5428416447301,559.4270309910489 M414.8741938857951,572.2948550188166 L576.1104929521338,641.0083813991596 M576.1104929521338,641.0083813991596 L575.8862063052314,643.4359893124224 M575.8862063052314,643.4359893124224 L575.2330854116598,645.9117649312689 M575.2330854116598,645.9117649312689 L574.18907760428,648.292005071133 M574.18907760428,648.292005071133 L572.81479716701,650.4384700822147 M572.81479716701,650.4384700822147 L571.1900320148602,652.2265318281873 M571.1900320148602,652.2265318281873 L569.4090896621095,653.5523130945433 M569.4090896621095,653.5523130945433 L567.5753861798532,654.3387432822321 M567.5753861798532,654.3387432822321 L565.7954327769111,654.5400322891851 M565.7954327769111,654.5400322891851 L564.1726679837021,654.1443473251436 M564.1726679837021,654.1443473251436 L562.8014245721957,653.1745610660314 M562.8014245721957,653.1745610660314 L561.761484805193,651.6868862819176 M561.761484805193,651.6868862819176 L561.1133873636904,649.7677501562371 M561.1133873636904,649.7677501562371 L560.894901963521,647.5286300214957 M560.894901963521,647.5286300214957 L561.1187801762155,645.0997407330037 M561.1187801762155,645.0997407330037 L561.7720681137704,642.6223597121243 M561.7720681137704,642.6223597121243 L562.8167801593569,640.2405578962764 M562.8167801593569,640.2405578962764 L564.1921407052852,638.092932726853 M564.1921407052852,638.092932726853 L565.818114382074,636.3043780983576 M565.818114382074,636.3043780983576 L567.6001168313913,634.9788841492204 M567.6001168313913,634.9788841492204 L569.4344891217416,634.1934556522986 M569.4344891217416,634.1934556522986 L571.2145668287616,633.9936532347842 M571.2145668287616,633.9936532347842 L572.836882946597,634.390969126521 M572.836882946597,634.390969126521 L574.2072074862996,635.3621570321807 M574.2072074862996,635.3621570321807 L575.2459686849681,636.8506830759629 M575.2459686849681,636.8506830759629 L575.8928978691075,638.7699250613614 M575.8928978691075,638.7699250613614 L576.1104929521338,641.0083813991596" stroke="black"  stroke-width="4"  fill="red"/>
<path d="M868.1560814909448,380.3077829217185 L867.9264601688102,382.6909462584124 M867.9264601688102,382.6909462584124 L867.2826590841925,385.1165899966489 M867.2826590841925,385.1165899966489 L866.262083620774,387.4439182456194 M866.262083620774,387.4439182456194 L864.9239891397548,389.53776126982086 M864.9239891397548,389.53776126982086 L863.3460647002668,391.27654408001445 M863.3460647002668,391.27654408001445 L861.61990170602,392.55925048438513 M861.61990170602,392.55925048438513 L859.8457376801389,393.31131318170367 M859.8457376801389,393.31131318170367 L858.1266272709986,393.4889420867917 M858.1266272709986,393.4889420867917 L856.5624741830826,393.08168446579083 M856.5624741830826,393.08168446579083 L855.2442039029775,392.11309096599865 M855.2442039029775,392.11309096599865 L854.2485160471791,390.63931119993623 M854.2485160471791,390.63931119993623 L853.633372026461,388.74596806466946 M853.633372026461,388.74596806466946 L853.4346209515452,386.54304222335264 M853.4346209515452,386.54304222335264 L853.6638635467948,384.1586429384816 M853.6638635467948,384.1586429384816 L854.3078307996756,381.7314582335535 M854.3078307996756,381.7314582335535 L855.329079244198,379.40263699167843 M855.329079244198,379.40263699167843 L856.6681993553659,377.307691004394 M856.6681993553659,377.307691004394 L858.247267100874,375.5684479169936 M858.247267100874,375.5684479169936 L859.9744291728977,374.2860293754825 M859.9744291728977,374.2860293754825 L861.7492191668921,373.53493673004823 M861.7492191668921,373.53493673004823 L863.4684390330391,373.35873783906914 M863.4684390330391,373.35873783906914 L865.032159992645,373.7675578367531 M865.032159992645,373.7675578367531 L866.3495555515507,374.7374881603192 M866.3495555515507,374.7374881603192 L867.3441264789627,376.2120729418128 M867.3441264789627,376.2120729418128 L867.9581672499831,378.10550486521333 M867.9581672499831,378.10550486521333 L868.1560814909448,380.3077829217185 M868.1560814909448,380.3077829217185 L865.9155122101978,376.1546834437954 M865.9155122101978,376.1546834437954 L863.6765263754901,372.0045722435585 M863.6765263754901,372.0045722435585 L861.439179677195,367.8574460969366 M861.439179677195,367.8574460969366 L860.9290233691528,362.1889728560967 M860.9290233691528,362.1889728560967 L859.3476583007541,357.3137025750076 M859.3476583007541,357.3137025750076 L856.786418005411,353.51500020843974 M856.786418005411,353.51500020843974 L853.3934729960865,351.0141031221734 M853.3934729960865,351.0141031221734 L849.3655370688126,349.9571028628927 M849.3655370688126,349.9571028628927 L844.936462659753,350.4062973370177 M844.936462659753,350.4062973370177 L840.3636768316076,352.3364325150983 M840.3636768316076,352.3364325150983 L835.9133318276224,355.6358684992647 M835.9133318276224,355.6358684992647 L831.8445965455592,360.11300833800817 M831.8445965455592,360.11300833800817 L828.3945889593133,365.50740525543654 M828.3945889593133,365.50740525543654 L825.764403385782,371.5049243136677 M825.764403385782,371.5049243136677 L824.1072734780882,377.75617014795614 M824.1072734780882,377.75617014795614 L823.5196127799154,383.89695686320755 M823.5196127799154,383.89695686320755 L824.0353198706126,389.56972469735365 M824.0353198706126,389.56972469735365 L825.6239865455575,394.4444150662068 M825.6239865455575,394.4444150662068 L828.1926457755128,398.23777929022987 M828.1926457755128,398.23777929022987 L831.5913882100352,400.7298194860217 M831.5913882100352,400.7298194860217 L835.6221860885508,401.77646714336055 M835.6221860885508,401.77646714336055 L840.0505313531655,401.3177960018721 M840.0505313531655,401.3177960018721 L844.6191639584506,399.38123106399036 M844.6191639584506,399.38123106399036 L849.0628831570217,396.0798852775186 M849.0628831570217,396.0798852775186 L853.1240378941679,391.6057930195609 M853.1240378941679,391.6057930195609 L856.5672468134994,386.2187029450892 M856.5672468134994,386.2187029450892 L859.1929589541295,380.23108207531965 M859.1929589541295,380.23108207531965 L860.8490047029311,373.9900416069706 M860.8490047029311,373.9900416069706 L861.439179677195,367.8574460969366 M868.1560814909448,380.3077829217185 L1029.34979087,446.78438378715435 M1029.34979087,446.78438378715435 L1029.1131348383537,449.17891956801293 M1029.1131348383537,449.17891956801293 L1028.4627894901023,451.6173661264816 M1028.4627894901023,451.6173661264816 L1027.4365399307947,453.95818508911213 M1027.4365399307947,453.95818508911213 L1026.0939707650577,456.06542398437045 M1026.0939707650577,456.06542398437045 L1024.5130303676342,457.81673057876526 M1024.5130303676342,457.81673057876526 L1022.7854849138268,459.11036156773474 M1022.7854849138268,459.11036156773474 L1021.0116519657754,459.87111476025643 M1021.0116519657754,459.87111476025643 L1019.2945669607337,460.0546943208418 M1019.2945669607337,460.0546943208418 L1017.7340162500396,459.6503004114627 M1017.7340162500396,459.6503004114627 L1016.4207165079225,458.6813158817826 M1016.4207165079225,458.6813158817826 L1015.4310792216494,457.20391151223816 M1015.4310792216494,457.20391151223816 L1014.8227146584898,455.30392003641265 M1014.8227146584898,455.30392003641265 L1014.6310784922885,453.0917079111506 M1014.6310784922885,453.0917079111506 L1014.8673580334721,450.69592462640196 M1014.8673580334721,450.69592462640196 L1015.5178750550201,448.25592077037027 M1015.5178750550201,448.25592077037027 L1016.5448051079519,445.913591449804 M1016.5448051079519,445.913591449804 L1017.8884077027594,443.80523517066916 M1017.8884077027594,443.80523517066916 L1019.4704977048896,442.05346012598244 M1019.4704977048896,442.05346012598244 L1021.1990455919968,440.76011694691573 M1021.1990455919968,440.76011694691573 L1022.9735041518084,440.00034188554207 M1022.9735041518084,440.00034188554207 L1024.6906946272632,439.8182066996912 M1024.6906946272632,439.8182066996912 L1026.2508065061004,440.2241803378844 M1026.2508065061004,440.2241803378844 L1027.5632236421884,441.19451805988416 M1027.5632236421884,441.19451805988416 L1028.5517367402883,442.6727390799376 M1028.5517367402883,442.6727390799376 L1029.15899308218,444.572823580021 M1029.15899308218,444.572823580021 L1029.34979087,446.78438378715435" stroke="black"  stroke-width="4"  fill="red"/></svg>