<svg viewBox="0 0 1000 1000" xmlns="http://www.w3.org/2000/svg"><path d="M476.4889602102028,500.2035455918508 L476.40908307435143,501.1357744321187 M476.40908307435143,501.1357744321187 L476.1838916529849,502.0222599108492 M476.1838916529849,502.0222599108492 L475.82640100588446,502.81166443871564 M475.82640100588446,502.81166443871564 L475.3572728953643,503.4581912015236 M475.3572728953643,503.4581912015236 L474.8036462046782,503.92428333681033 M474.8036462046782,503.92428333681033 L474.19757644922265,504.18276670169763 M474.19757644922265,504.18276670169763 L473.5742145851531,504.2184662812295 M473.5742145851531,504.2184662812295 L472.96977286996923,504.02911558516297 M472.96977286996923,504.02911558516297 L472.4194270337422,503.6255320818745 M472.4194270337422,503.6255320818745 L471.9552532720837,503.0310397367707 M471.9552532720837,503.0310397367707 L471.6043577037565,502.2801244705723 M471.6043577037565,502.2801244705723 L471.3872589547234,501.4164820963459 M471.3872589547234,501.4164820963459 L471.31667248950043,500.4904094619739 M471.31667248950043,500.4904094619739 L471.3967384950521,499.55591378615856 M471.3967384950521,499.55591378615856 L471.6227951504501,498.6675060031971 M471.6227951504501,498.6675060031971 L471.9816291690863,497.8769640414138 M471.9816291690863,497.8769640414138 L472.4522710382588,497.23034532617476 M472.4522710382588,497.23034532617476 L473.0072350795284,496.7652277526961 M473.0072350795284,496.7652277526961 L473.61415942166946,496.508562222908 M473.61415942166946,496.508562222908 L474.23769732856204,496.47510730027926 M474.23769732856204,496.47510730027926 L474.8415962137433,496.66661525314316 M474.8415962137433,496.66661525314316 L475.3908047066459,497.07177440674036 M475.3908047066459,497.07177440674036 L475.8535071510338,497.6668998510125 M475.8535071510338,497.6668998510125 L476.2029344955437,498.4173606031258 M476.2029344955437,498.4173606031258 L476.41890447176854,499.2795650022181 M476.41890447176854,499.2795650022181 L476.4889602102028,500.2035455918508 M476.4889602102028,500.2035455918508 L475.49546467793107,500.01307437723335 M475.49546467793107,500.01307437723335 L474.50515920589805,499.82321677599344 M474.50515920589805,499.82321677599344 L473.51804944887476,499.63396982771627 M473.51804944887476,499.63396982771627 L473.33790680709944,497.26514277921433 M473.33790680709944,497.26514277921433 L472.7830294377245,495.05358065752864 M472.7830294377245,495.05358065752864 L471.885050238552,493.12700356217823 M471.885050238552,493.12700356217823 L470.69531409926174,491.5971162995964 M470.69531409926174,491.5971162995964 L469.2821422931678,490.5531804166078 M469.2821422931678,490.5531804166078 L467.7270214602927,490.0567417111328 M467.7270214602927,490.0567417111328 L466.1200056175769,490.1378752235918 M466.1200056175769,490.1378752235918 L464.554599037877,490.7931328178092 M464.554599037877,490.7931328178092 L463.12224567370754,491.9854553471015 M463.12224567370754,491.9854553471015 L461.90694916042526,493.6461115074753 M461.90694916042526,493.6461115074753 L460.9802019226586,495.6785419858071 M460.9802019226586,495.6785419858071 L460.39662634895546,497.9639892968456 M460.39662634895546,497.9639892968456 L460.19063550317094,500.36853950371955 M460.19063550317094,500.36853950371955 L460.3742943584376,502.7511657855182 M460.3742943584376,502.7511657855182 L460.9366393380834,504.97221401333906 M460.9366393380834,504.97221401333906 L461.844340452742,506.9017902087369 M461.844340452742,506.9017902087369 L463.0438119022135,508.4275032687338 M463.0438119022135,508.4275032687338 L464.46450711934733,509.4610476998292 M464.46450711934733,509.4610476998292 L466.0232159835713,509.94325828886724 M466.0232159835713,509.94325828886724 L467.62906253376707,509.8473193383425 M467.62906253376707,509.8473193383425 L469.18881036944697,509.1800708474698 M469.18881036944697,509.1800708474698 L470.6123118260107,507.9813187891981 M470.6123118260107,507.9813187891981 L471.817591105034,506.321267473746 M471.817591105034,506.321267473746 L472.73544568675266,504.2963379957141 M472.73544568675266,504.2963379957141 L473.3133041302424,502.023568678584 M473.3133041302424,502.023568678584 L473.51804944887476,499.63396982771627 M476.4889602102028,500.2035455918508 L539.8093644968292,503.31875563903276 M539.8093644968292,503.31875563903276 L539.7273120963123,504.27558005440824 M539.7273120963123,504.27558005440824 L539.5006924768753,505.1856829181665 M539.5006924768753,505.1856829181665 L539.1426015696461,505.996363411267 M539.1426015696461,505.996363411267 L538.6737332762268,506.66059316723704 M538.6737332762268,506.66059316723704 L538.1212084709633,507.1397873576502 M538.1212084709633,507.1397873576502 L537.517016370146,507.4060060712763 M537.517016370146,507.4060060712763 L536.8961976028494,507.4436166423105 M536.8961976028494,507.4436166423105 L536.2948168150809,507.25023130775276 M536.2948168150809,507.25023130775276 L535.7478733688499,506.8368920161868 M535.7478733688499,506.8368920161868 L535.287248250298,506.2274824463819 M535.287248250298,506.2274824463819 L534.9398442848193,505.4573520831396 M534.9398442848193,505.4573520831396 L534.7259798110924,504.5713157519977 M534.7259798110924,504.5713157519977 L534.658184174823,503.62097770368257 M534.658184174823,503.62097770368257 L534.7404358938645,502.6617651069332 M534.7404358938645,502.6617651069332 L534.9679451744942,501.7496359424414 M534.9679451744942,501.7496359424414 L535.3274122625908,500.9377551906246 M535.3274122625908,500.9377551906246 L535.7978279897981,500.27342622357713 M535.7978279897981,500.27342622357713 L536.3517169718517,499.7952565635743 M536.3517169718517,499.7952565635743 L536.9567774913794,499.53095143466567 M536.9567774913794,499.53095143466567 L537.5777699705515,499.49570511571 M537.5777699705515,499.49570511571 L538.1785899684038,499.69136375014114 M538.1785899684038,499.69136375014114 L538.7243665969046,500.10636459870796 M538.7243665969046,500.10636459870796 L539.1834861611601,500.71644335877613 M539.1834861611601,500.71644335877613 L539.5293907466581,501.48609721391284 M539.5293907466581,501.48609721391284 L539.7421055098263,502.3706205308069 M539.7421055098263,502.3706205308069 L539.8093644968292,503.31875563903276" stroke="black"  stroke-width="4"  fill="red"/></svg>