<svg viewBox="0 0 500 500" xmlns="http://www.w3.org/2000/svg"><path d="M284.67978130610607,265.22901301992556 L165.06485790786206,275.32235903431706 M165.06485790786206,275.32235903431706 L164.8293007117537,240.76490942291076 M164.8293007117537,240.76490942291076 L167.28337091175558,242.94426078453344 M167.28337091175558,242.94426078453344 L169.88247497253985,244.78688571181647 M169.88247497253985,244.78688571181647 L172.6008147610406,246.27748596148578 M172.6008147610406,246.27748596148578 L175.41178173256682,247.40441338789006 M175.41178173256682,247.40441338789006 L178.28825910596015,248.15967802686546 M178.28825910596015,248.15967802686546 L181.2028854378101,248.53894114412137 M181.2028854378101,248.53894114412137 L184.12835119131555,248.54144129407808 M268.613511998106,243.18472207410832 L184.12835119131555,248.54144129407808 M268.613511998106,243.18472207410832 L271.12906497237645,242.85129190739426 M271.12906497237645,242.85129190739426 L273.61072645910974,242.17527974816352 M273.61072645910974,242.17527974816352 L276.03616001713954,241.16506981022204 M276.03616001713954,241.16506981022204 L278.3838064517357,239.83189514110128 M278.3838064517357,239.83189514110128 L280.6330657771208,238.18967804712463 M280.6330657771208,238.18967804712463 L282.7644245451793,236.25483741400086 M282.7644245451793,236.25483741400086 L284.75959239906274,234.04610914666276 M284.67978130610607,265.22901301992556 L284.75959239906274,234.04610914666276 M165.06485790786206,275.32235903431706 L162.1678033840282,275.5866624585738 M162.1678033840282,275.5866624585738 L159.49932901664494,275.8714005977263 M159.49932901664494,275.8714005977263 L157.08964665219224,276.1735758154223 M157.08964665219224,276.1735758154223 L154.96143881746707,276.49042063534876 M154.96143881746707,276.49042063534876 L153.1353968495814,276.8188446206272 M153.1353968495814,276.8188446206272 L151.62835821893466,277.15564983049 M151.62835821893466,277.15564983049 L150.45317740556436,277.49759019508656 M150.45317740556436,277.49759019508656 L149.61870925280857,277.8414339293381 M149.61870925280857,277.8414339293381 L149.12994645555,278.1840158532095 M149.12994645555,278.1840158532095 L148.9882644053007,278.5222845410816 M148.9882644053007,278.5222845410816 L149.19178650801973,278.85333455141506 M149.19178650801973,278.85333455141506 L149.73577887300272,279.17442895860273 M149.73577887300272,279.17442895860273 L150.6130851225296,279.4830084364679 M150.6130851225296,279.4830084364679 L151.81453028604886,279.77668795401786 M151.81453028604886,279.77668795401786 L153.32926168604743,280.0532455538572 M153.32926168604743,280.0532455538572 L154.9800364327113,280.28961901442057 M154.9800364327113,280.28961901442057 L156.87587549420368,280.50873233236945 M156.87587549420368,280.50873233236945 L159.482313106604,280.74855813824934 M159.482313106604,280.74855813824934 L162.4038259757312,280.9577581514051 M162.4038259757312,280.9577581514051 L165.62036335566137,281.1343471299563 M165.62036335566137,281.1343471299563 L169.10243343057226,281.2759804645764 M169.10243343057226,281.2759804645764 L172.819248284297,281.38064688458525 M172.819248284297,281.38064688458525 L176.7361398109381,281.44655058383796 M176.7361398109381,281.44655058383796 L180.81420219071012,281.4721863234771 M180.81420219071012,281.4721863234771 L185.01014589172132,281.4564306603192 M185.01014589172132,281.4564306603192 L189.27649367746378,281.39863414801755 M189.27649367746378,281.39863414801755 L193.56208670584482,281.2987145047445 M193.56208670584482,281.2987145047445 L197.81290354625725,281.1572383028617 M197.81290354625725,281.1572383028617 L201.97322230344815,280.97547701713177 M201.97322230344815,280.97547701713177 L205.98707591426322,280.7554299709868 M205.98707591426322,280.7554299709868 L209.79975815804184,280.4998203694182 M209.79975815804184,280.4998203694182 L211.9942049997557,280.3287034036412 M211.9942049997557,280.3287034036412 L214.08269425543875,280.1467576465757 M214.08269425543875,280.1467576465757 L333.7216852980672,269.13510667874573 M333.7216852980672,269.13510667874573 L336.0257050452077,268.90280078889725 M336.0257050452077,268.90280078889725 L338.06143776080285,268.65509882457025 M338.06143776080285,268.65509882457025 L339.80776091020596,268.39509141772805 M339.80776091020596,268.39509141772805 L341.25152915625256,268.1255755543307 M341.25152915625256,268.1255755543307 L342.3830619460317,267.8495164187095 M342.3830619460317,267.8495164187095 L343.19727063692244,267.5698453127425 M343.19727063692244,267.5698453127425 L343.69337899569905,267.28940135823893 M343.69337899569905,267.28940135823893 L343.87452422150875,267.01087808567195 M343.87452422150875,267.01087808567195 L343.74724422250733,266.73678523284445 M343.74724422250733,266.73678523284445 L343.3209040481455,266.4694205499312 M343.3209040481455,266.4694205499312 L342.60707941482076,266.21085801336153 M342.60707941482076,266.21085801336153 L341.61897745822034,265.96294659809644 M341.61897745822034,265.96294659809644 L340.3708926706113,265.7273210516454 M340.3708926706113,265.7273210516454 L338.8777556269812,265.50542242004735 M338.8777556269812,265.50542242004735 L337.15478829476524,265.2985238616322 M337.15478829476524,265.2985238616322 L335.3891498558701,265.12325194989575 M335.3891498558701,265.12325194989575 L333.4522460382407,264.9620497842508 M333.4522460382407,264.9620497842508 L330.89583215807,264.78699471361364 M330.89583215807,264.78699471361364 L328.13249566170873,264.635463048156 M328.13249566170873,264.635463048156 L325.1795801734827,264.50839149461035 M325.1795801734827,264.50839149461035 L322.0615941462896,264.4070235421588 M322.0615941462896,264.4070235421588 L318.8024326090723,264.3324253363654 M318.8024326090723,264.3324253363654 L315.4278683759261,264.285589677202 M315.4278683759261,264.285589677202 L311.9659455736331,264.267399356037 M311.9659455736331,264.267399356037 L308.4472469415407,264.27857721606097 M308.4472469415407,264.27857721606097 L304.9049491742386,264.3196319977902 M304.9049491742386,264.3196319977902 L301.3746912448005,264.3907979600084 M301.3746912448005,264.3907979600084 L297.8942530395142,264.49197507401703 M297.8942530395142,264.49197507401703 L294.50300537983026,264.62267822006544 M294.50300537983026,264.62267822006544 L291.24114099178234,264.7819999519571 M291.24114099178234,264.7819999519571 L288.1488434193857,264.9685826568256 M288.1488434193857,264.9685826568256 L286.37088197028334,265.09440827384054 M286.37088197028334,265.09440827384054 L284.67978130610607,265.22901301992556 M156.87587549420368,280.50873233236945 L156.4744736771491,226.7119628905462 M156.2727917546018,224.5565177967848 L154.19141634864198,224.71747030942223 M154.19141634864198,224.71747030942223 L152.41080052240463,224.88459406606756 M152.41080052240463,224.88459406606756 L150.9605361783866,225.05500989479856 M150.9605361783866,225.05500989479856 L149.84548735770696,225.22769887716723 M149.84548735770696,225.22769887716723 L149.07379412402582,225.40103676257664 M149.07379412402582,225.40103676257664 L148.64976765629808,225.57343726546517 M148.64976765629808,225.57343726546517 L148.5741444700333,225.74337538826174 M148.5741444700333,225.74337538826174 L148.8444728852631,225.9094018709571 M148.8444728852631,225.9094018709571 L149.45551600945407,226.0701536924389 M149.45551600945407,226.0701536924389 L150.39968341498803,226.22435767687662 M150.39968341498803,226.22435767687662 L151.66741949664737,226.3708277430482 M151.66741949664737,226.3708277430482 L153.24754889457336,226.50845797382766 M153.24754889457336,226.50845797382766 L154.76329746311444,226.61371927817274 M154.76329746311444,226.61371927817274 L156.4744736771491,226.7119628905462 M156.2727917546018,224.5565177967848 L157.23470086481024,227.90046981800262 M157.23470086481024,227.90046981800262 L158.44808430523014,231.13180272202007 M158.44808430523014,231.13180272202007 L159.68491354664835,233.73811492201165 M159.68491354664835,233.73811492201165 L161.32557591656737,236.50239579698876 M161.32557591656737,236.50239579698876 L162.95194331751452,238.70274995500876 M162.95194331751452,238.70274995500876 L164.8293007117537,240.76490942291076 M168.47412669588917,242.659435229969 L171.13284764192926,244.6276299477074 M171.13284764192926,244.6276299477074 L173.9232017677634,246.22243162352746 M173.9232017677634,246.22243162352746 L176.81603061802485,247.43041881503956 M176.81603061802485,247.43041881503956 L179.78152571249507,248.2423441611969 M179.78152571249507,248.2423441611969 L182.78960780127838,248.65310530604037 M182.78960780127838,248.65310530604037 L185.81020625207302,248.66168175661642 M158.36084523618464,224.66148526549455 L159.2770240253084,228.00050152369892 M159.2770240253084,228.00050152369892 L160.43272860110585,231.22459632415053 M160.43272860110585,231.22459632415053 L161.7830360687352,234.16162873445438 M161.7830360687352,234.16162873445438 L163.38597391711588,236.90988467774363 M163.38597391711588,236.90988467774363 L165.21274745237304,239.38573782899832 M165.21274745237304,239.38573782899832 L166.75038490634563,241.08042203021859 M166.75038490634563,241.08042203021859 L168.47412669588917,242.659435229969 M156.2727917546018,224.5565177967848 L158.36084523618464,224.66148526549455 M185.81020625207302,248.66168175661642 L184.12835119131555,248.54144129407808 M185.81020625207302,248.66168175661642 L270.3008846760363,243.28861547616657 M270.3008846760363,243.28861547616657 L268.613511998106,243.18472207410832 M295.6411307947054,218.814858179223 L294.3821015056591,221.87389185190102 M294.3821015056591,221.87389185190102 L292.89899494283634,224.8629506261586 M292.89899494283634,224.8629506261586 L291.2950797359904,227.62378595958353 M291.2950797359904,227.62378595958353 L289.54484213753096,230.24891715852345 M289.54484213753096,230.24891715852345 L287.72310436301757,232.6588591986197 M287.72310436301757,232.6588591986197 L286.31302519871065,234.34065930493279 M286.31302519871065,234.34065930493279 L284.8502193343993,235.93882960442943 M270.3008846760363,243.28861547616657 L272.8972753777367,242.937886308947 M272.8972753777367,242.937886308947 L275.4568052202561,242.22178095632594 M275.4568052202561,242.22178095632594 L277.95492985050794,241.1496986029821 M277.95492985050794,241.1496986029821 L280.3680263007037,239.73426900305842 M280.3680263007037,239.73426900305842 L282.6735459623602,237.9911526560056 M282.6735459623602,237.9911526560056 L284.8502193343993,235.93882960442943 M293.54134085134194,218.73206799899012 L292.32160044440616,221.79589640139378 M292.32160044440616,221.79589640139378 L290.88539629101956,224.791873507198 M290.88539629101956,224.791873507198 L289.52558129747547,227.23982602288646 M289.52558129747547,227.23982602288646 L287.8628851547754,229.87487406662711 M287.8628851547754,229.87487406662711 L286.35305449283817,232.0085251838379 M286.35305449283817,232.0085251838379 L284.75959239906274,234.04610914666276 M293.54134085134194,218.73206799899012 L295.6411307947054,218.814858179223 M333.74626820395224,218.87764169666872 L331.1800844993505,218.78948165514885 M331.1800844993505,218.78948165514885 L328.4063392025927,218.71316928326831 M328.4063392025927,218.71316928326831 L325.44243696926515,218.64917588502556 M325.44243696926515,218.64917588502556 L322.3129719494011,218.5981273085507 M322.3129719494011,218.5981273085507 L319.0419201817299,218.5605601488146 M319.0419201817299,218.5605601488146 L315.65514028978316,218.53697413448495 M315.65514028978316,218.53697413448495 L312.18076857802043,218.52781367652292 M312.18076857802043,218.52781367652292 L308.6494875054851,218.53344272990267 M308.6494875054851,218.53344272990267 L305.09458154043944,218.5541175306637 M305.09458154043944,218.5541175306637 L301.5518054233057,218.58995619480123 M301.5518054233057,218.58995619480123 L298.0590621660598,218.64090860073884 M298.0590621660598,218.64090860073884 L295.77055887648237,218.6833080668987 M295.77055887648237,218.6833080668987 L293.54134085134194,218.73206799899012 M333.4522460382407,264.9620497842508 L333.74626820395224,218.87764169666872 M214.08269425543875,280.1467576465757 L213.92320976477134,226.52944758602942 M156.4744736771491,226.7119628905462 L159.0910387137071,226.8328909841134 M159.0910387137071,226.8328909841134 L162.02417099534296,226.93837839101647 M162.02417099534296,226.93837839101647 L165.25373864086006,227.02742329018608 M165.25373864086006,227.02742329018608 L168.75012592351763,227.09884271189648 M168.75012592351763,227.09884271189648 L172.48241032018274,227.15162186244055 M172.48241032018274,227.15162186244055 L176.41576819830317,227.18485472197338 M176.41576819830317,227.18485472197338 L180.51111599891922,227.1977819474504 M180.51111599891922,227.1977819474504 L184.72496404107935,227.18983690308517 M184.72496404107935,227.18983690308517 L189.00961404925255,227.16069217392896 M189.00961404925255,227.16069217392896 L193.31366834203678,227.11030655568933 M193.31366834203678,227.11030655568933 L197.5828535060223,227.0389662419531 M197.5828535060223,227.0389662419531 L201.76118881369976,226.947313064269 M201.76118881369976,226.947313064269 L205.79244912335236,226.83635602256032 M205.79244912335236,226.83635602256032 L209.62167861404194,226.70746922808357 M209.62167861404194,226.70746922808357 L211.82565246697942,226.62118784605642 M211.82565246697942,226.62118784605642 L213.92320976477134,226.52944758602942 M213.92320976477134,226.52944758602942 L334.0300384269801,220.97960485472416 M333.7216852980672,269.13510667874573 L334.0300384269801,220.97960485472416 M235.19513270091173,236.11217872899195 L235.14087146429347,236.74680221115204 M235.14087146429347,236.74680221115204 L234.979564494064,237.35076457632783 M234.979564494064,237.35076457632783 L234.7205138804082,237.88911849861614 M234.7205138804082,237.88911849861614 L234.3786582706757,238.33066941962193 M234.3786582706757,238.33066941962193 L233.97373669996776,238.64975880151732 M233.97373669996776,238.64975880151732 L233.5291664669819,238.8277740228327 M233.5291664669819,238.8277740228327 L233.07070992042256,238.85421963659806 M233.07070992042256,238.85421963659806 L232.62499471071274,238.72738096664267 M232.62499471071274,238.72738096664267 L232.21796914546732,238.4544645015498 M232.21796914546732,238.4544645015498 L231.87338425584537,238.05119741444972 M231.87338425584537,238.05119741444972 L231.6113928853246,237.5409701547223 M231.6113928853246,237.5409701547223 L231.44734502152954,236.95346876494952 M231.44734502152954,236.95346876494952 L231.39087270728805,236.3229498882835 M231.39087270728805,236.3229498882835 L231.4453083816782,235.6862235014309 M231.4453083816782,235.6862235014309 L231.60746989687797,235.08047496125263 M231.60746989687797,235.08047496125263 L231.86785939560215,234.5410607799779 M231.86785939560215,234.5410607799779 L232.21123151967015,234.09941840771873 M232.21123151967015,234.09941840771873 L232.61749981335095,233.78122734215754 M232.61749981335095,233.78122734215754 L233.0629384598077,233.60489439517215 M233.0629384598077,233.60489439517215 L233.5215861678516,233.58052963754974 M233.5215861678516,233.58052963754974 L233.9667714940539,233.70937104055187 M233.9667714940539,233.70937104055187 L234.37266752205272,233.98375331772144 M234.37266752205272,233.98375331772144 L234.7157819821371,234.38761349227758 M234.7157819821371,234.38761349227758 L234.97629889444096,234.89742524795017 M234.97629889444096,234.89742524795017 L235.13920603997315,235.48359773118685 M235.13920603997315,235.48359773118685 L235.19513270091173,236.11217872899195 M319.5170789815978,231.4404069780894 L319.46668989651084,232.02845876306853 M319.46668989651084,232.02845876306853 L319.3246130876994,232.58767628509185 M319.3246130876994,232.58767628509185 L319.0990470639505,233.08569084290718 M319.0990470639505,233.08569084290718 L318.8030076472214,233.49363889734818 M318.8030076472214,233.49363889734818 L318.4535975492488,233.7878135511621 M318.4535975492488,233.7878135511621 L318.0710319385994,233.9510598870098 M318.0710319385994,233.9510598870098 L317.6774857997764,233.97376120791856 M317.6774857997764,233.97376120791856 L317.2958187946839,233.85444548994758 M317.2958187946839,233.85444548994758 L316.94824870592356,233.59990593614407 M316.94824870592356,233.59990593614407 L316.6550522536912,233.2248204511035 M316.6550522536912,233.2248204511035 L316.43337007862453,232.75094900771472 M316.43337007862453,232.75094900771472 L316.2961837624914,232.2058603836242 M316.2961837624914,232.2058603836242 L316.25154348529827,231.62133065402543 M316.25154348529827,231.62133065402543 L316.3020829851349,231.0314737208456 M316.3020829851349,231.0314737208456 L316.44484911352345,230.47072541499372 M316.44484911352345,230.47072541499372 L316.6714854461144,229.9718051175768 M316.6714854461144,229.9718051175768 L316.9687309754513,229.56378386120122 M316.9687309754513,229.56378386120122 L317.31920667955023,229.27038532113343 M317.31920667955023,229.27038532113343 L317.70245327219527,229.10858660269508 M317.70245327219527,229.10858660269508 L318.09613976436106,229.08767278192894 M318.09613976436106,229.08767278192894 L318.4773743406946,229.20870638281485 M318.4773743406946,229.20870638281485 L318.8240382839267,229.46450065939885 M318.8240382839267,229.46450065939885 L319.11606245952,229.8400902619641 M319.11606245952,229.8400902619641 L319.33657478606835,230.31359973254092 M319.33657478606835,230.31359973254092 L319.4728616704185,230.85754321902562 M319.4728616704185,230.85754321902562 L319.5170789815978,231.4404069780894 M334.0300384269801,220.97960485472416 L336.3419878750693,220.86257469098194 M336.3419878750693,220.86257469098194 L338.3845489362426,220.73779069031187 M338.3845489362426,220.73779069031187 L340.13653474570947,220.60681021319536 M340.13653474570947,220.60681021319536 L341.5847669841637,220.47104259338138 M341.5847669841637,220.47104259338138 L342.7195475291884,220.331981785678 M342.7195475291884,220.331981785678 L343.5357885829736,220.19110455580528 M343.5357885829736,220.19110455580528 L344.03273132286483,220.0498411113888 M344.03273132286483,220.0498411113888 L344.2135446584655,219.90954820143463 M344.2135446584655,219.90954820143463 L344.08480992395835,219.7714898834053 M344.08480992395835,219.7714898834053 L343.655944616228,219.63682333521447 M343.655944616228,219.63682333521447 L342.93858322462813,219.50659293533877 M342.93858322462813,219.50659293533877 L341.94599556563594,219.38172966247564 M341.94599556563594,219.38172966247564 L340.69254057296905,219.2630565402703 M340.69254057296905,219.2630565402703 L339.19321333662356,219.15129899272426 M339.19321333662356,219.15129899272426 L337.46329920114204,219.0470978610615 M337.46329920114204,219.0470978610615 L335.6906909215469,218.95882629798427 M335.6906909215469,218.95882629798427 L333.74626820395224,218.87764169666872 M158.54289352061681,226.62055147644742 L156.443090924065,226.49521000795545 M156.443090924065,226.49521000795545 L154.71081735962153,226.357987937478 M154.71081735962153,226.357987937478 L153.3438891637258,226.2090127187121 M153.3438891637258,226.2090127187121 L152.3606757079031,226.05000146659447 M152.3606757079031,226.05000146659447 L151.77185772166902,225.88223020028818 M151.77185772166902,225.88223020028818 L151.58737061153082,225.7070219839868 M151.58737061153082,225.7070219839868 L151.72122859918602,225.5708291203519 M151.72122859918602,225.5708291203519 L152.26575105153623,225.38640942497037 M152.26575105153623,225.38640942497037 L153.23170979892004,225.19921196766597 M153.23170979892004,225.19921196766597 L154.34982841835676,225.04354676785292 M154.34982841835676,225.04354676785292 L156.07880431228313,224.85665875739522 M156.07880431228313,224.85665875739522 L157.17147125468313,224.75778854919668 M157.17147125468313,224.75778854919668 L158.36084523618464,224.66148526549455 M214.05090430415567,226.34815618967372 L210.7942852938579,226.48679249662382 M210.7942852938579,226.48679249662382 L207.30431112562457,226.61332179430673 M207.30431112562457,226.61332179430673 L203.63922319424879,226.72548210458268 M203.63922319424879,226.72548210458268 L199.83752860416064,226.82214376672596 M199.83752860416064,226.82214376672596 L195.9470633838796,226.90218848646313 M195.9470633838796,226.90218848646313 L192.01592134804517,226.96482263783687 M192.01592134804517,226.96482263783687 L188.09167531179455,227.009569673447 M188.09167531179455,227.009569673447 L184.22184432812642,227.03626011907315 M184.22184432812642,227.03626011907315 L180.44805865358077,227.04505380742322 M180.44805865358077,227.04505380742322 L176.89067526358727,227.0367534454364 M176.89067526358727,227.0367534454364 L173.4148325166696,227.01157599532425 M173.4148325166696,227.01157599532425 L170.57809503562916,226.97696736849386 M170.57809503562916,226.97696736849386 L167.48526588655577,226.92252063588268 M167.48526588655577,226.92252063588268 L164.62996472918152,226.85368646319102 M164.62996472918152,226.85368646319102 L162.02742557697607,226.7714088908209 M162.02742557697607,226.7714088908209 L160.20899230982587,226.69970309621448 M160.20899230982587,226.69970309621448 L158.54289352061681,226.62055147644742 M330.61245791486203,220.97960485472416 L214.05090430415567,226.34815618967372 M332.22734501874424,218.94476874377457 L334.38381681097087,219.03749944811815 M334.38381681097087,219.03749944811815 L336.27546557696235,219.13994258199003 M336.27546557696235,219.13994258199003 L337.9023637260344,219.25226776509723 M337.9023637260344,219.25226776509723 L339.24105380081187,219.37345217650113 M339.24105380081187,219.37345217650113 L340.27474406541467,219.50278352536154 M340.27474406541467,219.50278352536154 L340.98598544155163,219.63948868355735 M340.98598544155163,219.63948868355735 L341.2981147907924,219.7469301085152 M341.2981147907924,219.7469301085152 L341.4000582231764,219.89408844119333 M341.4000582231764,219.89408844119333 L341.13207085745137,220.04546550200374 M341.13207085745137,220.04546550200374 L340.6207481230531,220.17290952671627 M340.6207481230531,220.17290952671627 L339.6460112499019,220.32782998358906 M339.6460112499019,220.32782998358906 L338.27671555977383,220.48206662716714 M338.27671555977383,220.48206662716714 L336.5161758679459,220.63347295858586 M336.5161758679459,220.63347295858586 L334.3757001335649,220.77980893637803 M334.3757001335649,220.77980893637803 L332.5796289852457,220.88237313099486 M332.5796289852457,220.88237313099486 L330.61245791486203,220.97960485472416 M295.6411307947054,218.814858179223 L298.8089177905762,218.75349479394566 M298.8089177905762,218.75349479394566 L302.0991111103149,218.70403142716052 M302.0991111103149,218.70403142716052 L305.12398720595525,218.67067287367496 M305.12398720595525,218.67067287367496 L308.3594904654592,218.64746512679565 M308.3594904654592,218.64746512679565 L311.5538317031462,218.6371636598797 M311.5538317031462,218.6371636598797 L314.57884552273833,218.6392234337887 M314.57884552273833,218.6392234337887 L317.6121852463343,218.65340064947898 M317.6121852463343,218.65340064947898 L320.52909033687183,218.6793509962618 M320.52909033687183,218.6793509962618 L322.97564492369065,218.7113727457485 M322.97564492369065,218.7113727457485 L325.6243995422375,218.75796249422118 M325.6243995422375,218.75796249422118 L328.10868081822105,218.81474769711502 M328.10868081822105,218.81474769711502 L330.23947895418996,218.87556766935154 M330.23947895418996,218.87556766935154 L332.22734501874424,218.94476874377457 M284.7862037007966,260.87759923713554 L168.65415166892035,270.218309121948 M168.65415166892035,270.218309121948 L168.47412669588917,242.659435229969 M284.7862037007966,260.87759923713554 L284.8502193343993,235.93882960442943 M168.65415166892035,270.218309121948 L165.65207801416636,270.47869452343605 M165.65207801416636,270.47869452343605 L162.88142915001382,270.7583394353548 M162.88142915001382,270.7583394353548 L160.37848410030347,271.0537305106012 M160.37848410030347,271.0537305106012 L158.1682255881686,271.36181301149463 M158.1682255881686,271.36181301149463 L156.2732949789013,271.6791481753162 M156.2732949789013,271.6791481753162 L154.71121698749891,272.00222973657355 M154.71121698749891,272.00222973657355 L153.4941873889904,272.3275792026891 M153.4941873889904,272.3275792026891 L152.62923872800616,272.65182811157706 M152.62923872800616,272.65182811157706 L152.11859067004988,272.9717873821214 M152.11859067004988,272.9717873821214 L151.96017331359025,273.28450538946043 M151.96017331359025,273.28450538946043 L152.14837199093466,273.5872979402084 M152.14837199093466,273.5872979402084 L152.67480637258467,273.87776039005985 M152.67480637258467,273.87776039005985 L153.52909716721618,274.1537603324598 M153.52909716721618,274.1537603324598 L154.69963142072916,274.41340648150845 M154.69963142072916,274.41340648150845 L156.1741118861426,274.65500745816223 M156.1741118861426,274.65500745816223 L157.4560656470816,274.82156132535744 M157.4560656470816,274.82156132535744 L158.89588844866543,274.97703609546227 M158.89588844866543,274.97703609546227 L158.54289352061681,226.62055147644742 M331.96717451426014,260.4952497858309 L329.58272184759176,260.3409707592953 M329.58272184759176,260.3409707592953 L326.98756674099593,260.208915304661 M326.98756674099593,260.208915304661 L324.19210679812215,260.09971236685953 M324.19210679812215,260.09971236685953 L321.21727409445646,260.0145757733286 M321.21727409445646,260.0145757733286 L318.08251279593026,259.9545887443159 M318.08251279593026,259.9545887443159 L314.80986098196115,259.92085370575916 M314.80986098196115,259.92085370575916 L311.4247458490306,259.914429704943 M311.4247458490306,259.914429704943 L307.9565479443205,259.93625319220234 M307.9565479443205,259.93625319220234 L304.43882517796624,259.98704902329655 M304.43882517796624,259.98704902329655 L300.90924795971137,260.06723449685626 M300.90924795971137,260.06723449685626 L297.4091655656953,260.17682976342513 M297.4091655656953,260.17682976342513 L293.98280295183656,260.31538089292064 M293.98280295183656,260.31538089292064 L290.6761843732187,260.48190214045724 M290.6761843732187,260.48190214045724 L287.62831554436684,260.6686117521249 M287.62831554436684,260.6686117521249 L284.7862037007966,260.87759923713554 M331.96717451426014,260.4952497858309 L332.22734501874424,218.94476874377457 M235.19513270091173,236.11217872899195 L234.89151606147237,236.02564037882925 M234.89151606147237,236.02564037882925 L234.58872385625517,235.93933701307822 M234.58872385625517,235.93933701307822 L234.4994391505127,236.98362296459038 M234.4994391505127,236.98362296459038 L234.2338913004515,237.977551622972 M234.2338913004515,237.977551622972 L233.80731235770745,238.8637740224452 M233.80731235770745,238.8637740224452 L233.2441838829487,239.59103264252215 M233.2441838829487,239.59103264252215 L232.57688782443293,240.11708143526332 M232.57688782443293,240.11708143526332 L231.8438877230163,240.41114881950347 M231.8438877230163,240.41114881950347 L231.08757792564563,240.4557512958883 M231.08757792564563,240.4557512958883 L230.35187190570656,240.2478144299298 M230.35187190570656,240.2478144299298 L229.6796455428859,239.79896267806336 M229.6796455428859,239.79896267806336 L229.11022324547827,239.13493349715128 M229.11022324547827,239.13493349715128 L228.67704598587997,238.29418036775198 M228.67704598587997,238.29418036775198 L228.40563222001558,237.3256592555322 M228.40563222001558,237.3256592555322 L228.31201886935565,236.28596423188762 M228.31201886935565,236.28596423188762 L228.4017768520328,235.23597196338307 M228.4017768520328,235.23597196338307 L228.66964656672775,234.23719662637913 M228.66964656672775,234.23719662637913 L229.09986407602184,233.34809750541433 M229.09986407602184,233.34809750541433 L229.66711425537366,232.62059114507568 M229.66711425537366,232.62059114507568 L230.3380708847595,232.09698031282562 M230.3380708847595,232.09698031282562 L231.07343187110715,231.80747807762083 M231.07343187110715,231.80747807762083 L231.8302620201956,231.76852215489916 M231.8302620201956,231.76852215489916 L232.56452865150925,231.98189338695383 M232.56452865150925,231.98189338695383 L233.23368563793647,232.43472240111475 M233.23368563793647,232.43472240111475 L233.7991116878558,233.1003606207089 M233.7991116878558,233.1003606207089 L234.22828134815927,233.9399859111527 M234.22828134815927,233.9399859111527 L234.49659426396158,234.90490067684453 M234.49659426396158,234.90490067684453 L234.58872385625517,235.93933701307822 M319.5170789815978,231.4404069780894 L319.12948264225633,231.36609792965203 M319.12948264225633,231.36609792965203 L318.742861722666,231.29197588636976 M318.742861722666,231.29197588636976 L318.6599321853706,232.25982005947762 M318.6599321853706,232.25982005947762 L318.42596748381015,233.18029168621382 M318.42596748381015,233.18029168621382 L318.0544026293609,234.00025191380573 M318.0544026293609,234.00025191380573 L317.5665838466417,234.67225833048565 M317.5665838466417,234.67225833048565 L316.9905871801319,235.15727165827752 M316.9905871801319,235.15727165827752 L316.3596359432629,235.42693246101794 M316.3596359432629,235.42693246101794 L315.71023785885893,235.4652299454941 M315.71023785885893,235.4652299454941 L315.08010453127406,235.26952394188658 M315.08010453127406,235.26952394188658 L314.5059544398754,234.85079387158922 M314.5059544398754,234.85079387158922 L314.02136122130344,234.2330764064962 M314.02136122130344,234.2330764064962 L313.65476570161263,233.45215450510995 M313.65476570161263,233.45215450510995 L313.42774581667527,232.55349487383856 M313.42774581667527,232.55349487383856 L313.3537025230438,231.58958892840133 M313.3537025230438,231.58958892840133 L313.4370402594834,230.6168452275523 M313.4370402594834,230.6168452275523 L313.67287849732054,229.69221888417536 M313.67287849732054,229.69221888417536 L314.0473530417489,228.86980054848857 M314.0473530417489,228.86980054848857 L314.53845108454107,228.19759575744848 M314.53845108454107,228.19759575744848 L315.1173453116329,227.714689205783 M315.1173453116329,227.714689205783 L315.7501486447801,227.44895768974345 M315.7501486447801,227.44895768974345 L316.3999290693662,227.41551188154367 M316.3999290693662,227.41551188154367 L317.0288873906645,227.6158804590662 M317.0288873906645,227.6158804590662 L317.6005743142824,228.0380158871708 M317.6005743142824,228.0380158871708 L318.0819804543971,228.65710138710807 M318.0819804543971,228.65710138710807 L318.445395128663,229.43704056482093 M318.445395128663,229.43704056482093 L318.66996910083674,230.33259184196595 M318.66996910083674,230.33259184196595 L318.742861722666,231.29197588636976 M158.89588844866543,274.97703609546227 L161.32861595473497,275.1870438212642 M161.32861595473497,275.1870438212642 L164.0755920875823,275.36807482521783 M164.0755920875823,275.36807482521783 L167.12445913506792,275.5186746902247 M167.12445913506792,275.5186746902247 L170.45027269544886,275.6366527918777 M170.45027269544886,275.6366527918777 L174.02796842905747,275.720080465065 M174.02796842905747,275.720080465065 L177.82795271007157,275.76710753113105 M177.82795271007157,275.76710753113105 L181.81513638273282,275.7760716388313 M181.81513638273282,275.7760716388313 L185.9483162877018,275.7456306418686 M185.9483162877018,275.7456306418686 L190.1800762792229,275.6749050066546 M190.1800762792229,275.6749050066546 L194.4571662011955,275.56362203513936 M194.4571662011955,275.56362203513936 L198.72146640493,275.41223887543885 M198.72146640493,275.41223887543885 L202.91151094847487,275.22203199402503 M202.91151094847487,275.22203199402503 L206.9644037294725,274.99514220304854 M206.9644037294725,274.99514220304854 L210.7044758958842,274.7429451988264 M210.7044758958842,274.7429451988264 L214.19354097074768,274.4633772354747 M214.19354097074768,274.4633772354747 L214.05090430415567,226.34815618967372 M214.19354097074768,274.4633772354747 L330.34640332065044,264.3358558388188 M330.34640332065044,264.3358558388188 L330.61245791486203,220.97960485472416 M330.34640332065044,264.3358558388188 L332.75065152674574,264.10704619350895 M332.75065152674574,264.10704619350895 L334.8836862976202,263.86391786395507 M334.8836862976202,263.86391786395507 L336.7198143875207,263.60998215224004 M336.7198143875207,263.60998215224004 L338.24461154797086,263.3482372221033 M338.24461154797086,263.3482372221033 L339.44762667897396,263.08188287798697 M339.44762667897396,263.08188287798697 L340.32411833601395,262.81403355596103 M340.32411833601395,262.81403355596103 L340.8747123430229,262.54763516697375 M340.8747123430229,262.54763516697375 L341.1047345761151,262.2854025251487 M341.1047345761151,262.2854025251487 L341.02342903871374,262.0297754857909 M341.02342903871374,262.0297754857909 L340.6430924897411,261.78289042137794 M340.6430924897411,261.78289042137794 L339.9781264476235,261.5465780078981 M339.9781264476235,261.5465780078981 L339.0441616742138,261.3223764526981 M339.0441616742138,261.3223764526981 L337.8572935784789,261.11155934587214 M337.8572935784789,261.11155934587214 L336.4334145441617,260.91517973468456 M336.4334145441617,260.91517973468456 L334.78779260242277,260.7341187558311 M334.78779260242277,260.7341187558311 L333.43313490601656,260.61022599702767 M333.43313490601656,260.61022599702767 L331.96717451426014,260.4952497858309" stroke="black"  stroke-width="4"  fill="red"/>
<path d="M235.3898806599983,236.16768702367628 L235.34687051045506,236.67074830433296 M235.34687051045506,236.67074830433296 L235.21902191536222,237.1494861971403 M235.21902191536222,237.1494861971403 L235.01372020714777,237.5761834272637 M235.01372020714777,237.5761834272637 L234.7428252219826,237.92608979248854 M234.7428252219826,237.92608979248854 L234.42200157127766,238.1788798211216 M234.42200157127766,238.1788798211216 L234.06981922680825,238.3198123562568 M234.06981922680825,238.3198123562568 L233.70669999096629,238.3406079884356 M233.70669999096629,238.3406079884356 L233.35373662728793,238.239946533743 M233.35373662728793,238.239946533743 L233.03147128039254,238.0235692004176 M233.03147128039254,238.0235692004176 L232.75869045918284,237.70397442288063 M232.75869045918284,237.70397442288063 L232.55132853595734,237.299698770381 M232.55132853595734,237.299698770381 L232.42151602408555,236.83426845265822 M232.42151602408555,236.83426845265822 L232.37685946777745,236.33479430127483 M232.37685946777745,236.33479430127483 L232.41997914202508,235.83041254482592 M232.41997914202508,235.83041254482592 L232.54836410493587,235.35055305534627 M232.54836410493587,235.35055305534627 L232.75450614082587,234.9231900300606 M232.75450614082587,234.9231900300606 L233.02635290457553,234.57322621936464 M233.02635290457553,234.57322621936464 L233.34802173650706,234.3210002360567 M233.34802173650706,234.3210002360567 L233.70074905362532,234.1811240322538 M233.70074905362532,234.1811240322538 L234.06398820411138,234.1616350203735 M234.06398820411138,234.1616350203735 L234.4166189536686,234.26355405458563 M234.4166189536686,234.26355405458563 L234.73817535782646,234.48085182759206 M234.73817535782646,234.48085182759206 L235.01003331020033,234.80081905376124 M235.01003331020033,234.80081905376124 L235.21646986045928,235.20483382469385 M235.21646986045928,235.20483382469385 L235.345566490424,235.66942971196255 M235.345566490424,235.66942971196255 L235.3898806599983,236.16768702367628 M235.3898806599983,236.16768702367628 L235.00072380910197,236.05676707740682 M235.00072380910197,236.05676707740682 L234.61291689206723,235.94623253628157 M234.61291689206723,235.94623253628157 L234.22645558973795,235.83608187173996 M234.22645558973795,235.83608187173996 L234.11266224023495,234.55915776811568 M234.11266224023495,234.55915776811568 L233.78128448769968,233.36785006016294 M233.78128448769968,233.36785006016294 L233.25118209160323,232.3309250501648 M233.25118209160323,232.3309250501648 L232.55264158725723,231.50849476687293 M232.55264158725723,231.50849476687293 L231.72574125448133,230.94856150663298 M231.72574125448133,230.94856150663298 L230.8181374786717,230.68417797210563 M230.8181374786717,230.68417797210563 L229.88237860874898,230.73142169050178 M229.88237860874898,230.73142169050178 L228.9729211163117,231.0882843534817 M228.9729211163117,231.0882843534817 L228.14291826580552,231.73462077791433 M228.14291826580552,231.73462077791433 L227.44108698060978,232.63319363929145 M227.44108698060978,232.63319363929145 L226.9087608540585,233.7317511248208 M226.9087608540585,233.7317511248208 L226.5773456080452,234.96607498196377 M226.5773456080452,234.96607498196377 L226.4664188886847,236.26379332937827 M226.4664188886847,236.26379332937827 L226.58247864464832,237.54874011682867 M226.58247864464832,237.54874011682867 L226.91859494669816,238.74554969072943 M226.91859494669816,238.74554969072943 L227.45481434343952,239.78419580303188 M227.45481434343952,239.78419580303188 L228.15945705591142,240.60417170166534 M228.15945705591142,240.60417170166534 L228.9910439392278,241.15803756370983 M228.9910439392278,241.15803756370983 L229.90084500556398,241.41413067049402 M229.90084500556398,241.41413067049402 L230.835808553586,241.35827264248687 M230.835808553586,241.35827264248687 L231.7416603106456,240.99444528582782 M231.7416603106456,240.99444528582782 L232.56607300010518,240.34438922675352 M232.56607300010518,240.34438922675352 L233.2616103172384,239.44619396213065 M233.2616103172384,239.44619396213065 L233.78838348260095,238.35202468655856 M233.78838348260095,238.35202468655856 L234.11625081148017,237.12509480474063 M234.11625081148017,237.12509480474063 L234.22645558973795,235.83608187173996 M235.3898806599983,236.16768702367628 L267.22365415130776,237.98584924796404 M267.22365415130776,237.98584924796404 L267.17937982516617,238.503265187912 M267.17937982516617,238.503265187912 L267.050336937667,238.99580803781848 M267.050336937667,238.99580803781848 L266.8439786570948,239.43496410206086 M266.8439786570948,239.43496410206086 L266.57222406036044,239.79526227075456 M266.57222406036044,239.79526227075456 L266.2507853775095,240.05577370513106 M266.2507853775095,240.05577370513106 L265.8982663921963,240.2013058153202 M265.8982663921963,240.2013058153202 L265.53510736491364,240.22330679066408 M265.53510736491364,240.22330679066408 L265.18240335665234,240.12037996317108 M265.18240335665234,240.12037996317108 L264.86068252221185,239.8983918848364 M264.86068252221185,239.8983918848364 L264.5887016497676,239.57016246202298 M264.5887016497676,239.57016246202298 L264.38235097353913,239.15472793352936 M264.38235097353913,239.15472793352936 L264.25370442560586,238.6762644220893 M264.25370442560586,238.6762644220893 L264.2103023867113,238.1626439503203 M264.2103023867113,238.1626439503203 L264.25469278507194,237.6438309962441 M264.25469278507194,237.6438309962441 L264.3842902575491,237.15010079187562 M264.3842902575491,237.15010079187562 L264.59151457907603,236.7102390183144 M264.59151457907603,236.7102390183144 L264.8642482731052,236.34987847876317 M264.8642482731052,236.34987847876317 L265.18655480277494,236.08996228031506 M265.18655480277494,236.08996228031506 L265.5396315810649,235.94554666326053 M265.5396315810649,235.94554666326053 L265.90291056103456,235.92492765863912 M265.90291056103456,235.92492765863912 L266.25526920223217,236.02918534293318 M266.25526920223217,236.02918534293318 L266.5762584716073,236.2521482780203 M266.5762584716073,236.2521482780203 L266.8472891657274,236.58077324065016 M266.8472891657274,236.58077324065016 L267.0526887287476,236.99593336201553 M267.0526887287476,236.99593336201553 L267.1806011206229,237.47351540014398 M267.1806011206229,237.47351540014398 L267.22365415130776,237.98584924796404" stroke="black"  stroke-width="4"  fill="red"/>
<path d="M319.7656533866535,231.48806322546625 L319.72571481872785,231.9541776456002 M319.72571481872785,231.9541776456002 L319.61311910804454,232.39742038496544 M319.61311910804454,232.39742038496544 L319.43437378449437,232.79212264889867 M319.43437378449437,232.79212264889867 L319.1998097292343,233.11538603030266 M319.1998097292343,233.11538603030266 L318.92299638389125,233.34843209794602 M318.92299638389125,233.34843209794602 L318.61996150616346,233.47767378038967 M318.61996150616346,233.47767378038967 L318.3082805741286,233.4955235701556 M318.3082805741286,233.4955235701556 L318.0060597165367,233.40084822212233 M318.0060597165367,233.40084822212233 L317.73088679842317,233.1990564704781 M317.73088679842317,233.1990564704781 L317.49879991759394,232.9018102979262 M317.49879991759394,232.9018102979262 L317.3233521334304,232.526352664827 M317.3233521334304,232.526352664827 L317.21480275891383,232.0945314777138 M317.21480275891383,232.0945314777138 L317.17950952630235,231.6314951605278 M317.17950952630235,231.6314951605278 L317.2195425290781,231.16424732262013 M317.2195425290781,231.16424732262013 L317.3325708567771,230.7200434311394 M317.3325708567771,230.7200434311394 L317.5119878660953,230.32477245024776 M317.5119878660953,230.32477245024776 L317.7473088006815,230.00146309262823 M317.7473088006815,230.00146309262823 L318.0247908213163,229.7689043058889 M318.0247908213163,229.7689043058889 L318.32825299238687,229.64057154099484 M318.32825299238687,229.64057154099484 L318.64002194583315,229.62384407968048 M318.64002194583315,229.62384407968048 L318.9419713884238,229.71959805611243 M318.9419713884238,229.71959805611243 L319.2165756348751,229.92217763291103 M319.2165756348751,229.92217763291103 L319.447926857069,230.2197403550471 M319.447926857069,230.2197403550471 L319.6226405293239,230.59497073110376 M319.6226405293239,230.59497073110376 L319.73062551743635,231.0260729306499 M319.73062551743635,231.0260729306499 L319.7656533866535,231.48806322546625 M319.7656533866535,231.48806322546625 L319.26890562051767,231.39282761815753 M319.26890562051767,231.39282761815753 L318.77375288450116,231.29789881753757 M318.77375288450116,231.29789881753757 L318.2801980059895,231.20327534339899 M318.2801980059895,231.20327534339899 L318.19012668510186,230.01886181914801 M318.19012668510186,230.01886181914801 L317.9126880004144,228.91308075830517 M317.9126880004144,228.91308075830517 L317.4636984008281,227.94979221062997 M317.4636984008281,227.94979221062997 L316.86883033118295,227.18484857933905 M316.86883033118295,227.18484857933905 L316.162244428136,226.66288063784475 M316.162244428136,226.66288063784475 L315.3846840116985,226.41466128510726 M315.3846840116985,226.41466128510726 L314.5811760903406,226.45522804133674 M314.5811760903406,226.45522804133674 L313.7984728004906,226.78285683844544 M313.7984728004906,226.78285683844544 L313.0822961184059,227.3790181030916 M313.0822961184059,227.3790181030916 L312.47464786176477,228.2093461832785 M312.47464786176477,228.2093461832785 L312.0112742428814,229.2255614224444 M312.0112742428814,229.2255614224444 L311.7194864560298,230.36828507796366 M311.7194864560298,230.36828507796366 L311.61649103313755,231.57056018140062 M311.61649103313755,231.57056018140062 L311.7083204607709,232.76187332229995 M311.7083204607709,232.76187332229995 L311.9894929505938,233.87239743621038 M311.9894929505938,233.87239743621038 L312.44334350792315,234.8371855339093 M312.44334350792315,234.8371855339093 L313.0430792326589,235.60004206390775 M313.0430792326589,235.60004206390775 L313.75342684122575,236.11681427945544 M313.75342684122575,236.11681427945544 L314.5327812733377,236.35791957397447 M314.5327812733377,236.35791957397447 L315.3357045484356,236.3099500987121 M315.3357045484356,236.3099500987121 L316.11557846627557,235.97632585327574 M316.11557846627557,235.97632585327574 L316.8273291945575,235.3769498241399 M316.8273291945575,235.3769498241399 L317.4299688340691,234.54692416641385 M317.4299688340691,234.54692416641385 L317.88889612492846,233.5344594273979 M317.88889612492846,233.5344594273979 L318.17782534667333,232.39807476883286 M318.17782534667333,232.39807476883286 L318.2801980059895,231.20327534339899 M319.7656533866535,231.48806322546625 L351.4258555299667,233.04566824905723 M351.4258555299667,233.04566824905723 L351.3848293297083,233.52408045674497 M351.3848293297083,233.52408045674497 L351.27151951998974,233.9791318886241 M351.27151951998974,233.9791318886241 L351.0924740663752,234.38447213517435 M351.0924740663752,234.38447213517435 L350.85803991966554,234.71658701315937 M350.85803991966554,234.71658701315937 L350.58177751703374,234.95618410836596 M350.58177751703374,234.95618410836596 L350.2796814666251,235.089293465179 M350.2796814666251,235.089293465179 L349.9692720829768,235.1080987506961 M349.9692720829768,235.1080987506961 L349.66858168909255,235.01140608341723 M349.66858168909255,235.01140608341723 L349.3951099659771,234.80473643763426 M349.3951099659771,234.80473643763426 L349.16479740670115,234.5000316527318 M349.16479740670115,234.5000316527318 L348.9910954239617,234.11496647111065 M348.9910954239617,234.11496647111065 L348.88416318709835,233.6719483055397 M348.88416318709835,233.6719483055397 L348.8502653689636,233.19677928138213 M348.8502653689636,233.19677928138213 L348.8913912284844,232.71717298300746 M348.8913912284844,232.71717298300746 L349.0051458687992,232.26110840076154 M349.0051458687992,232.26110840076154 L349.1848794128475,231.85516802485316 M349.1848794128475,231.85516802485316 L349.4200872764511,231.52300354132942 M349.4200872764511,231.52300354132942 L349.69703176747794,231.283918711328 M349.69703176747794,231.283918711328 L349.99956202724184,231.15176614687368 M349.99956202724184,231.15176614687368 L350.3100582668278,231.13414298739585 M350.3100582668278,231.13414298739585 L350.610468265754,231.23197230461142 M350.610468265754,231.23197230461142 L350.8833565800044,231.43947272889483 M350.8833565800044,231.43947272889483 L351.1129163621322,231.74451210892892 M351.1129163621322,231.74451210892892 L351.28586865488114,232.12933903649727 M351.28586865488114,232.12933903649727 L351.3922260364652,232.5716006949443 M351.3922260364652,232.5716006949443 L351.4258555299667,233.04566824905723" stroke="black"  stroke-width="4"  fill="red"/></svg>