<svg version="1.1" xmlns="http://www.w3.org/2000/svg" viewBox="-78.88293190578585 -47.48128539148651 157.7658638115717 94.96257078297302" fill="none" stroke="black" stroke-width="0.6%" vector-effect="non-scaling-stroke">
    <path d="M -74.29913 15.23238 L -18.53326 40.72966 L -18.53326 9.56686 A 50 18.27435 265.80602 0 1 -24.1709 12.61424 A 50 18.27435 265.80602 0 1 -27.82757 11.90279" />
    <path d="M -65.00482 -5.0954 L -27.82757 11.90279" />
    <path d="M -65.00482 -5.0954 A 50 18.27435 265.80602 0 1 -74.29913 -15.93043" />
    <path d="M 77.88293 37.32597 A 50 9.15531 360 0 1 -18.53326 40.72966" />
    <path d="M -74.29913 15.23238 A 50 9.15531 360 0 1 -77.88293 11.82868" />
    <path d="M -18.53326 9.56686 C -18.48 9.51 -18.44 9.46 -18.38601 9.40846 C -18.34 9.36 -18.29 9.3 -18.2373 9.24664 C -18.19 9.19 -18.14 9.14 -18.08719 9.08146 C -18.04 9.03 -17.99 8.97 -17.93576 8.91297 C -17.89 8.86 -17.83 8.8 -17.78309 8.74123 C -17.73 8.68 -17.68 8.63 -17.62924 8.56629 C -17.58 8.51 -17.53 8.45 -17.47429 8.38822 C -17.42 8.33 -17.37 8.27 -17.3183 8.20707 C -17.27 8.15 -17.21 8.08 -17.16134 8.02288 C -17.11 7.96 -17.06 7.9 -17.00347 7.83571 C -16.95 7.77 -16.9 7.71 -16.84476 7.64562 C -16.79 7.58 -16.74 7.52 -16.68527 7.45265 C -16.63 7.39 -16.58 7.32 -16.52506 7.25685 C -16.47 7.19 -16.42 7.12 -16.36419 7.05828 C -16.31 6.99 -16.26 6.92 -16.20272 6.85698 C -16.15 6.79 -16.09 6.72 -16.04071 6.653 C -15.99 6.58 -15.93 6.52 -15.87821 6.44638 C -15.82 6.38 -15.77 6.31 -15.71528 6.23718 C -15.66 6.17 -15.61 6.1 -15.55198 6.02543 C -15.5 5.95 -15.44 5.88 -15.38835 5.81119 C -15.33 5.74 -15.28 5.67 -15.22445 5.59449 C -15.17 5.52 -15.12 5.45 -15.06033 5.37539 C -14.95 5.23 -14.84 5.08 -14.73162 4.93011 C -14.62 4.78 -14.51 4.63 -14.40261 4.47569 C -14.29 4.32 -14.18 4.17 -14.07367 4.01243 C -13.96 3.86 -13.85 3.7 -13.74516 3.54066 C -13.64 3.38 -13.53 3.22 -13.41741 3.06064 C -12.98 2.42 -12.55 1.75 -12.12041 1.06362 C -11.69 0.38 -11.27 -0.33 -10.85957 -1.04514 C -10.03 -2.49 -9.25 -3.99 -8.5083 -5.55031 L -3.68384 -5.90408" />
    <path d="M 74.29913 -15.23238 A 50 9.15531 360 0 1 77.88293 -11.82868 A 50 9.15531 360 0 1 -8.5083 -5.55031" />
    <path d="M -22.7891 12.36637 A 50 18.27435 265.80602 0 1 -25.0426 11.69857 L -62.21984 -5.29962 L -65.00482 -5.0954" />
    <path d="M -73.05751 -37.62314 C -73.07 -37.33 -73.09 -37.04 -73.10166 -36.7499 C -73.12 -36.46 -73.13 -36.17 -73.14158 -35.87919 C -73.15 -35.59 -73.17 -35.3 -73.17678 -35.01115 C -73.19 -34.72 -73.2 -34.43 -73.20677 -34.14591 C -73.22 -33.86 -73.22 -33.57 -73.23104 -33.28362 C -73.24 -33 -73.24 -32.71 -73.24905 -32.42443 C -73.25 -32.28 -73.25 -32.14 -73.25554 -31.99605 C -73.26 -31.85 -73.26 -31.71 -73.26026 -31.56852 C -73.26 -31.43 -73.26 -31.28 -73.26315 -31.14184 C -73.26 -31 -73.26 -30.86 -73.26413 -30.71606 C -73.26 -30.54 -73.26 -30.36 -73.26258 -30.18815 C -73.26 -30.01 -73.26 -29.84 -73.25782 -29.6617 C -73.26 -29.49 -73.25 -29.31 -73.24971 -29.13675 C -73.25 -28.96 -73.24 -28.79 -73.23811 -28.61337 C -73.23 -28.4 -73.23 -28.2 -73.21942 -27.98931 C -73.21 -27.78 -73.2 -27.57 -73.19525 -27.36772 C -73.19 -27.16 -73.18 -26.95 -73.16531 -26.74868 C -73.15 -26.54 -73.14 -26.34 -73.12933 -26.13231 C -73.12 -25.93 -73.1 -25.72 -73.08702 -25.51875 C -73.07 -25.31 -73.06 -25.11 -73.03809 -24.90811 C -73.02 -24.71 -73 -24.5 -72.98221 -24.30057 C -72.96 -24.1 -72.94 -23.9 -72.91909 -23.69629 C -72.9 -23.5 -72.87 -23.3 -72.8484 -23.09544 C -72.82 -22.9 -72.8 -22.7 -72.7698 -22.49822 C -72.74 -22.3 -72.71 -22.1 -72.68296 -21.90483 C -72.65 -21.71 -72.62 -21.51 -72.58752 -21.3155 C -72.55 -21.12 -72.52 -20.92 -72.48314 -20.73045 C -72.45 -20.54 -72.41 -20.34 -72.36943 -20.14993 C -72.33 -19.96 -72.29 -19.77 -72.24603 -19.57419 C -72.2 -19.38 -72.16 -19.19 -72.11254 -19.0035 C -72.08 -18.86 -72.04 -18.71 -72.0021 -18.56566 C -71.96 -18.42 -71.93 -18.28 -71.88522 -18.13121 C -71.85 -17.99 -71.8 -17.84 -71.76171 -17.70029 C -71.72 -17.56 -71.68 -17.41 -71.63137 -17.27306 C -71.59 -17.13 -71.54 -16.99 -71.49404 -16.84971 C -71.45 -16.71 -71.4 -16.57 -71.34951 -16.43041 C -71.3 -16.29 -71.25 -16.15 -71.19761 -16.01536 C -71.15 -15.88 -71.09 -15.74 -71.03815 -15.60475 C -70.82 -15.06 -70.58 -14.53 -70.32114 -14.01111 C -70.06 -13.49 -69.78 -12.99 -69.46941 -12.50659" />
    <path d="M -62.21984 -5.29962 A 50 18.27435 265.80602 0 1 -69.46941 -12.50659" />
    <path d="M -77.88198 -37.26936 C -77.88 -37.03 -77.88 -36.79 -77.87778 -36.55765 C -77.88 -36.32 -77.87 -36.08 -77.87002 -35.84742 C -77.87 -35.61 -77.86 -35.37 -77.85841 -35.13872 C -77.85 -34.9 -77.85 -34.67 -77.84268 -34.43162 C -77.84 -34.2 -77.83 -33.96 -77.82256 -33.7262 C -77.82 -33.49 -77.81 -33.26 -77.79774 -33.02254 C -77.79 -32.79 -77.78 -32.55 -77.76792 -32.32075 C -77.76 -32.09 -77.75 -31.85 -77.73279 -31.62094 C -77.72 -31.39 -77.71 -31.16 -77.69203 -30.92324 C -77.68 -30.69 -77.66 -30.46 -77.64531 -30.22777 C -77.63 -30 -77.61 -29.77 -77.59228 -29.5347 C -77.57 -29.3 -77.55 -29.07 -77.53261 -28.84417 C -77.51 -28.61 -77.49 -28.39 -77.46592 -28.15636 C -77.44 -27.93 -77.42 -27.7 -77.39184 -27.47146 C -77.37 -27.24 -77.34 -27.02 -77.30999 -26.78967 C -77.28 -26.56 -77.25 -26.34 -77.21997 -26.11118 C -77.19 -25.89 -77.16 -25.66 -77.12139 -25.43624 C -77.09 -25.21 -77.05 -24.99 -77.01381 -24.76507 C -76.98 -24.54 -76.94 -24.32 -76.89681 -24.09793 C -76.86 -23.88 -76.81 -23.66 -76.76996 -23.43507 C -76.73 -23.21 -76.68 -23 -76.63278 -22.77678 C -76.59 -22.56 -76.54 -22.34 -76.48482 -22.12335 C -76.43 -21.91 -76.38 -21.69 -76.32559 -21.47508 C -76.27 -21.26 -76.21 -21.05 -76.1546 -20.83229 C -76.1 -20.62 -76.03 -20.41 -75.97134 -20.19531 C -75.94 -20.09 -75.91 -19.98 -75.87495 -19.87911 C -75.84 -19.77 -75.81 -19.67 -75.77529 -19.5645 C -75.71 -19.36 -75.64 -19.15 -75.5659 -18.94022 C -75.49 -18.73 -75.42 -18.53 -75.34263 -18.32283 C -75.04 -17.5 -74.69 -16.71 -74.29913 -15.93043" />
    <path d="M -77.88198 -37.26936 L -73.05751 -37.62314 C -73.03 -37.68 -73 -37.74 -72.96352 -37.79631 C -72.93 -37.85 -72.89 -37.91 -72.8519 -37.96913 C -72.81 -38.03 -72.77 -38.08 -72.72264 -38.14154 C -72.68 -38.2 -72.63 -38.26 -72.57573 -38.31348 C -72.53 -38.36 -72.49 -38.41 -72.4402 -38.45598 C -72.39 -38.5 -72.34 -38.55 -72.29247 -38.59807 C -72.24 -38.65 -72.19 -38.69 -72.13256 -38.73971 C -72.08 -38.79 -72.02 -38.83 -71.96046 -38.88088 C -71.9 -38.93 -71.84 -38.97 -71.77618 -39.02154 C -71.71 -39.07 -71.65 -39.12 -71.57975 -39.16163 C -71.51 -39.21 -71.44 -39.25 -71.37116 -39.30114 C -71.3 -39.35 -71.23 -39.39 -71.15045 -39.44002 C -71.07 -39.49 -71 -39.53 -70.91762 -39.57824 C -70.84 -39.62 -70.76 -39.67 -70.67271 -39.71576 C -70.59 -39.76 -70.5 -39.81 -70.41575 -39.85253 C -70.33 -39.9 -70.24 -39.94 -70.14676 -39.98853 C -70.06 -40.03 -69.96 -40.08 -69.86577 -40.12371 C -69.77 -40.17 -69.67 -40.21 -69.57283 -40.25804 C -69.47 -40.3 -69.37 -40.35 -69.26798 -40.39148 C -69.16 -40.44 -69.06 -40.48 -68.95126 -40.52398 C -68.85 -40.57 -68.74 -40.61 -68.63584 -40.65038 C -68.53 -40.69 -68.42 -40.73 -68.30956 -40.77584 C -68.2 -40.82 -68.09 -40.86 -67.97246 -40.90035 C -67.86 -40.94 -67.74 -40.98 -67.62461 -41.02386 C -67.51 -41.06 -67.39 -41.11 -67.26605 -41.14634 C -67.14 -41.19 -67.02 -41.23 -66.89685 -41.26775 C -66.77 -41.31 -66.65 -41.35 -66.51708 -41.38806 C -66.39 -41.43 -66.26 -41.47 -66.12679 -41.50724 C -65.07 -41.82 -63.91 -42.13 -62.63557 -42.41583 C -57.85 -43.51 -51.53 -44.37 -44.4268 -44.89017 C -43.98 -44.92 -43.53 -44.95 -43.07515 -44.98461 C -42.62 -45.01 -42.17 -45.04 -41.70727 -45.07091 C -41.25 -45.1 -40.79 -45.12 -40.32468 -45.14896 C -39.86 -45.17 -39.4 -45.2 -38.92891 -45.2187 C -38.46 -45.24 -37.99 -45.26 -37.52147 -45.28006 C -37.05 -45.3 -36.58 -45.32 -36.10388 -45.33299 C -35.63 -45.35 -35.15 -45.36 -34.67766 -45.37744 C -34.2 -45.39 -33.72 -45.4 -33.24431 -45.4134 C -32.77 -45.42 -32.29 -45.43 -31.80535 -45.44084 C -31.32 -45.45 -30.84 -45.45 -30.36229 -45.45977 C -29.88 -45.46 -29.4 -45.47 -28.91661 -45.47019 C -28.43 -45.47 -27.95 -45.47 -27.46982 -45.47213 C -26.99 -45.47 -26.51 -45.47 -26.02342 -45.4656 C -25.54 -45.46 -25.06 -45.46 -24.57889 -45.45066 C -24.1 -45.44 -23.62 -45.44 -23.13771 -45.42736 C -22.66 -45.42 -22.18 -45.41 -21.70137 -45.39575 C -21.45 -45.39 -21.19 -45.38 -20.94064 -45.37561 C -20.69 -45.37 -20.43 -45.36 -20.18185 -45.35315 C -19.93 -45.35 -19.68 -45.34 -19.42519 -45.32839 C -19.17 -45.32 -18.92 -45.31 -18.67087 -45.30135 C -18.42 -45.29 -18.17 -45.28 -17.91909 -45.27203 C -17.67 -45.26 -17.42 -45.25 -17.17005 -45.24045 C -16.92 -45.23 -16.67 -45.22 -16.42393 -45.20663 C -16.18 -45.19 -15.93 -45.18 -15.68093 -45.17058 C -15.43 -45.16 -15.19 -45.15 -14.94124 -45.13232 C -14.7 -45.12 -14.45 -45.11 -14.20504 -45.09186 C -13.96 -45.08 -13.72 -45.06 -13.47252 -45.04922 C -13.23 -45.03 -12.99 -45.02 -12.74385 -45.00442 C -11.77 -44.94 -10.82 -44.88 -9.87132 -44.80395 C 2.71 -43.85 12.79 -41.9 17.79304 -39.59054 L 69.46941 -15.96306 C 69.62 -15.89 69.78 -15.82 69.9221 -15.74879 C 70.07 -15.68 70.21 -15.6 70.34707 -15.53262 C 70.48 -15.46 70.62 -15.39 70.74406 -15.31467 C 70.87 -15.24 70.99 -15.17 71.11284 -15.09508 C 71.23 -15.02 71.34 -14.95 71.45318 -14.87394 C 71.56 -14.8 71.67 -14.73 71.76486 -14.65139 C 71.86 -14.58 71.96 -14.5 72.04767 -14.42756 C 72.14 -14.35 72.22 -14.28 72.30141 -14.20255 C 72.38 -14.13 72.46 -14.05 72.52589 -13.97651 C 72.6 -13.9 72.66 -13.83 72.72094 -13.74955 C 72.78 -13.67 72.84 -13.6 72.88637 -13.52181 C 72.94 -13.45 72.98 -13.37 73.02203 -13.29341 C 73.06 -13.22 73.1 -13.14 73.12777 -13.06448 C 73.16 -12.99 73.18 -12.91 73.20345 -12.83515 C 73.22 -12.76 73.24 -12.68 73.24894 -12.60556 C 73.26 -12.53 73.26 -12.45 73.26413 -12.37583 C 73.26 -12.32 73.26 -12.26 73.2553 -12.20082 C 73.25 -12.14 73.24 -12.08 73.22878 -12.02587 C 73.22 -11.97 73.2 -11.91 73.18454 -11.85104 C 73.17 -11.79 73.15 -11.73 73.12253 -11.6764 C 73.1 -11.62 73.07 -11.56 73.04274 -11.50199 C 73.01 -11.44 72.98 -11.39 72.94514 -11.32788 C 72.91 -11.27 72.87 -11.21 72.82971 -11.15414 C 72.79 -11.1 72.74 -11.04 72.69643 -10.98083 C 72.66 -10.93 72.61 -10.88 72.56879 -10.83354 C 72.52 -10.78 72.48 -10.74 72.42818 -10.68665 C 72.38 -10.64 72.33 -10.59 72.27461 -10.54019 C 72.22 -10.49 72.17 -10.44 72.10809 -10.39422 C 72.05 -10.35 71.99 -10.3 71.92862 -10.24875 C 71.87 -10.2 71.8 -10.15 71.7362 -10.10384 C 71.67 -10.06 71.6 -10.01 71.53086 -9.95953 C 71.46 -9.91 71.39 -9.86 71.31261 -9.81586 C 71.24 -9.77 71.16 -9.72 71.08148 -9.67286 C 71 -9.63 70.92 -9.58 70.83748 -9.53058 C 70.75 -9.48 70.67 -9.44 70.58064 -9.38906 C 70.49 -9.34 70.4 -9.3 70.311 -9.24834 C 70.22 -9.2 70.12 -9.15 70.02858 -9.10847 C 69.93 -9.06 69.83 -9.02 69.73344 -8.96948 C 69.63 -8.92 69.53 -8.88 69.4256 -8.83141 C 69.32 -8.79 69.21 -8.74 69.10513 -8.69431 C 69 -8.65 68.9 -8.61 68.79113 -8.56585 C 68.68 -8.52 68.58 -8.48 68.46596 -8.43832 C 68.25 -8.35 68.02 -8.27 67.78233 -8.1862 C 67.31 -8.02 66.81 -7.86 66.28354 -7.69476 C 65.23 -7.37 64.05 -7.06 62.77615 -6.77091 C 57.97 -5.67 51.6 -4.79 44.4268 -4.26449 C 43.98 -4.23 43.54 -4.2 43.08835 -4.17092 C 42.64 -4.14 42.19 -4.11 41.73396 -4.08535 C 41.28 -4.06 40.82 -4.03 40.36513 -4.00785 C 39.91 -3.98 39.45 -3.96 38.98332 -3.93851 C 38.52 -3.92 38.06 -3.9 37.59002 -3.87738 C 37.12 -3.86 36.66 -3.84 36.18668 -3.82452 C 35.72 -3.81 35.25 -3.79 34.77479 -3.77997 C 34.3 -3.77 33.83 -3.75 33.35582 -3.74375 C 32.88 -3.73 32.41 -3.72 31.93122 -3.71587 C 31.46 -3.71 30.98 -3.7 30.50247 -3.69635 C 30.03 -3.69 29.55 -3.69 29.07101 -3.68517 C 28.59 -3.68 28.12 -3.68 27.63832 -3.68232 C 27.16 -3.68 26.68 -3.68 26.20583 -3.68777 C 25.73 -3.69 25.25 -3.7 24.77499 -3.70147 C 24.3 -3.71 23.82 -3.71 23.34725 -3.72339 C 22.87 -3.73 22.4 -3.74 21.92405 -3.75345 C 21.67 -3.76 21.42 -3.77 21.17241 -3.77266 C 20.92 -3.78 20.67 -3.79 20.42259 -3.79413 C 20.17 -3.8 19.92 -3.81 19.67479 -3.81784 C 19.43 -3.83 19.18 -3.83 18.9292 -3.84378 C 18.68 -3.85 18.43 -3.86 18.18603 -3.87195 C 17.94 -3.88 17.69 -3.89 17.44545 -3.90232 C 17.2 -3.91 16.95 -3.92 16.70765 -3.93488 C 16.46 -3.95 16.22 -3.96 15.97283 -3.96963 C 15.73 -3.98 15.48 -3.99 15.24115 -4.00654 C 15 -4.02 14.76 -4.03 14.51281 -4.04559 C 14.27 -4.06 14.03 -4.07 13.78798 -4.08678 C 13.55 -4.1 13.31 -4.12 13.06684 -4.13009 C 12.11 -4.19 11.16 -4.25 10.22255 -4.32411 C 5.15 -4.7 0.44 -5.24 -3.68384 -5.90408" />
    <path d="M -77.88198 -37.26936 A 50 9.15531 0 0 1 -77.88293 -37.32597 L -77.88293 11.82868" />
    <path d="M -77.88293 -37.32597 A 50 9.15531 0 0 1 18.53326 -40.72966" />
    <path d="M 74.29913 -15.23238 L 18.53326 -40.72966" />
    <path d="M -44.4268 -1.63407 L -45.03057 -1.58885 L -45.63064 -1.54199 L -46.22689 -1.49352 L -46.81922 -1.44344 L -47.40751 -1.39176 L -47.99164 -1.33848 L -48.57151 -1.28363 L -49.14699 -1.22721 L -49.71799 -1.16922 L -50.28438 -1.10969 L -50.84607 -1.04863 L -51.40293 -0.98604 L -51.95488 -0.92194 L -52.50179 -0.85633" />
    <path d="M -10.54622 -1.59844 L -12.91023 -1.75876 L -15.30948 -1.89557 L -17.73744 -2.00849 L -20.18748 -2.09723 L -22.65292 -2.16153 L -25.12705 -2.20123 L -27.60311 -2.2162 L -30.07437 -2.20643 L -32.53407 -2.17192 L -34.97552 -2.11278 L -37.39207 -2.02916 L -39.77711 -1.9213 L -42.12416 -1.78948 L -44.4268 -1.63407" />
    <path d="M -74.29913 15.23238 L -74.29913 -15.93043" />
    <path d="M -25.0426 11.69857 L -27.82757 11.90279" />
    <path d="M 69.46941 -8.85066 L 69.46941 -15.96306" />
    <path d="M 17.79304 -3.88777 L 17.79304 -39.59054" />
    <path d="M 77.88293 -11.82868 L 77.88293 37.32597" />
</svg>