<svg version="1.1" xmlns="http://www.w3.org/2000/svg" viewBox="-82.6408289200079 -48.349612580699414 165.28165784001578 96.69922516139883" fill="none" stroke="black" stroke-width="0.6%" vector-effect="non-scaling-stroke">
    <path d="M -79.07198 12.32972 L -15.79033 42.00373 L -15.79033 -7.38091" />
    <path d="M -17.90986 -8.37481 L -15.79033 -7.38091" />
    <path d="M -17.90986 -8.37481 A 50 15.62571 267.01368 0 1 -29.00587 10.44036 A 50 15.62571 267.01368 0 1 -31.61074 9.89291" />
    <path d="M -63.25157 -4.9441 L -31.61074 9.89291" />
    <path d="M -63.25157 -4.9441 A 50 15.62571 267.01368 0 1 -76.95245 -36.06103 L -74.10658 -36.2095 L -75.27689 -36.75828 C -75.39 -36.81 -75.5 -36.86 -75.60319 -36.91654 C -75.71 -36.97 -75.81 -37.02 -75.9092 -37.07579 C -76.01 -37.13 -76.1 -37.18 -76.19479 -37.23596 C -76.29 -37.29 -76.37 -37.34 -76.45984 -37.397 C -76.54 -37.45 -76.63 -37.5 -76.70423 -37.55883 C -76.78 -37.61 -76.86 -37.67 -76.92786 -37.7214 C -77 -37.78 -77.07 -37.83 -77.13061 -37.88463 C -77.19 -37.94 -77.26 -37.99 -77.31237 -38.04847 C -77.37 -38.1 -77.42 -38.16 -77.47306 -38.21285 C -77.52 -38.27 -77.57 -38.32 -77.61258 -38.3777 C -77.66 -38.43 -77.69 -38.49 -77.73083 -38.54296 C -77.77 -38.6 -77.8 -38.65 -77.82775 -38.70856 C -77.86 -38.76 -77.88 -38.82 -77.90324 -38.87442 C -77.92 -38.93 -77.94 -38.99 -77.95724 -39.0405 C -77.97 -39.1 -77.98 -39.15 -77.98969 -39.2067 C -78 -39.26 -78 -39.32 -78.00052 -39.37298 C -78 -39.44 -77.99 -39.51 -77.98331 -39.58238 C -77.97 -39.65 -77.95 -39.72 -77.93164 -39.79164 C -77.91 -39.86 -77.88 -39.93 -77.84542 -40.00061 C -77.81 -40.07 -77.77 -40.14 -77.7246 -40.20917 C -77.68 -40.28 -77.63 -40.35 -77.56911 -40.41717 C -77.51 -40.49 -77.45 -40.56 -77.37894 -40.62446 C -77.31 -40.69 -77.23 -40.76 -77.15407 -40.8309 C -77.07 -40.9 -76.99 -40.97 -76.8945 -41.03635 C -76.84 -41.08 -76.78 -41.12 -76.71967 -41.16076 C -76.66 -41.2 -76.6 -41.24 -76.53203 -41.28472 C -76.47 -41.33 -76.4 -41.37 -76.33158 -41.40819 C -76.26 -41.45 -76.19 -41.49 -76.11836 -41.53113 C -76.05 -41.57 -75.97 -41.61 -75.89237 -41.65351 C -75.81 -41.69 -75.74 -41.73 -75.65364 -41.7753 C -75.57 -41.82 -75.49 -41.86 -75.40221 -41.89646 C -75.32 -41.94 -75.23 -41.98 -75.13809 -42.01696 C -75.05 -42.06 -74.96 -42.1 -74.86132 -42.13676 C -74.77 -42.18 -74.67 -42.22 -74.57194 -42.25583 C -74.47 -42.3 -74.37 -42.33 -74.27 -42.37413 C -74.17 -42.41 -74.06 -42.45 -73.95553 -42.49164 C -73.85 -42.53 -73.74 -42.57 -73.62858 -42.60831 C -73.52 -42.65 -73.4 -42.69 -73.2892 -42.7241 C -73.17 -42.76 -73.06 -42.8 -72.93746 -42.83899 C -72.82 -42.88 -72.7 -42.92 -72.57341 -42.95294 C -72.46 -42.99 -72.34 -43.02 -72.21861 -43.05959 C -72.1 -43.09 -71.98 -43.13 -71.85295 -43.16533 C -71.61 -43.24 -71.35 -43.31 -71.08935 -43.37401 C -70.57 -43.51 -70.01 -43.65 -69.43497 -43.77924 C -68.28 -44.04 -67.01 -44.3 -65.63628 -44.53467 C -60.48 -45.43 -53.84 -46.12 -46.51202 -46.50272 C -46.05 -46.53 -45.59 -46.55 -45.13231 -46.57079 C -44.67 -46.59 -44.21 -46.61 -43.73903 -46.63176 C -43.27 -46.65 -42.8 -46.67 -42.33372 -46.68558 C -41.86 -46.7 -41.39 -46.72 -40.91793 -46.73218 C -40.44 -46.75 -39.97 -46.76 -39.49318 -46.77152 C -39.02 -46.78 -38.54 -46.79 -38.06102 -46.80358 C -37.58 -46.81 -37.1 -46.82 -36.62297 -46.82834 C -36.14 -46.84 -35.66 -46.84 -35.18054 -46.84578 C -34.7 -46.85 -34.22 -46.85 -33.73525 -46.85592 C -33.25 -46.86 -32.77 -46.86 -32.2886 -46.85876 C -31.81 -46.86 -31.32 -46.86 -30.84208 -46.85432 C -30.36 -46.85 -29.88 -46.85 -29.39718 -46.84263 C -28.92 -46.84 -28.44 -46.83 -27.9554 -46.82373 C -27.48 -46.82 -27 -46.81 -26.51818 -46.79767 C -26.04 -46.79 -25.56 -46.78 -25.08702 -46.76452 C -24.61 -46.75 -24.14 -46.74 -23.66335 -46.72433 C -23.41 -46.72 -23.16 -46.71 -22.91043 -46.70013 C -22.66 -46.69 -22.41 -46.68 -22.16018 -46.67399 C -21.91 -46.66 -21.66 -46.66 -21.41281 -46.6459 C -21.16 -46.64 -20.92 -46.63 -20.66851 -46.61589 C -20.42 -46.61 -20.17 -46.59 -19.92747 -46.58396 C -19.68 -46.57 -19.44 -46.56 -19.18989 -46.55013 C -18.94 -46.54 -18.7 -46.53 -18.45596 -46.51441 C -18.21 -46.5 -17.97 -46.49 -17.72585 -46.47682 C -17.48 -46.46 -17.24 -46.45 -16.99976 -46.43737 C -16.76 -46.42 -16.52 -46.41 -16.27787 -46.39609 C -16.04 -46.38 -15.8 -46.37 -15.56035 -46.35298 C -15.32 -46.34 -15.08 -46.32 -14.84737 -46.30806 C -13.9 -46.25 -12.96 -46.18 -12.04436 -46.11064 C 0.21 -45.18 9.64 -43.43 13.89368 -41.41016 L 75.27689 -12.62637 C 75.39 -12.57 75.5 -12.52 75.60319 -12.46811 C 75.71 -12.42 75.81 -12.36 75.9092 -12.30886 C 76.01 -12.26 76.1 -12.2 76.19479 -12.14868 C 76.29 -12.1 76.37 -12.04 76.45984 -11.98765 C 76.54 -11.93 76.63 -11.88 76.70423 -11.82581 C 76.78 -11.77 76.86 -11.72 76.92786 -11.66325 C 77 -11.61 77.07 -11.55 77.13061 -11.50001 C 77.19 -11.45 77.26 -11.39 77.31237 -11.33617 C 77.37 -11.28 77.42 -11.23 77.47306 -11.17179 C 77.52 -11.12 77.57 -11.06 77.61258 -11.00694 C 77.66 -10.95 77.69 -10.9 77.73083 -10.84169 C 77.77 -10.79 77.8 -10.73 77.82775 -10.67609 C 77.86 -10.62 77.88 -10.57 77.90324 -10.51022 C 77.92 -10.45 77.94 -10.4 77.95724 -10.34415 C 77.97 -10.29 77.98 -10.23 77.98969 -10.17794 C 78 -10.12 78 -10.07 78.00052 -10.01166 C 78 -9.94 77.99 -9.87 77.98331 -9.80227 C 77.97 -9.73 77.95 -9.66 77.93164 -9.59301 C 77.91 -9.52 77.88 -9.45 77.84542 -9.38403 C 77.81 -9.31 77.77 -9.24 77.7246 -9.17547 C 77.68 -9.11 77.63 -9.04 77.56911 -8.96748 C 77.51 -8.9 77.45 -8.83 77.37894 -8.76019 C 77.31 -8.69 77.23 -8.62 77.15407 -8.55374 C 77.07 -8.49 76.99 -8.42 76.8945 -8.34829 C 76.84 -8.31 76.78 -8.27 76.71967 -8.22388 C 76.66 -8.18 76.6 -8.14 76.53203 -8.09992 C 76.47 -8.06 76.4 -8.02 76.33158 -7.97646 C 76.26 -7.94 76.19 -7.89 76.11836 -7.85352 C 76.05 -7.81 75.97 -7.77 75.89237 -7.73114 C 75.81 -7.69 75.74 -7.65 75.65364 -7.60935 C 75.57 -7.57 75.49 -7.53 75.40221 -7.48819 C 75.32 -7.45 75.23 -7.41 75.13809 -7.36769 C 75.05 -7.33 74.96 -7.29 74.86132 -7.24789 C 74.77 -7.21 74.67 -7.17 74.57194 -7.12882 C 74.47 -7.09 74.37 -7.05 74.27 -7.01051 C 74.17 -6.97 74.06 -6.93 73.95553 -6.89301 C 73.85 -6.85 73.74 -6.82 73.62858 -6.77634 C 73.52 -6.74 73.4 -6.7 73.2892 -6.66054 C 73.17 -6.62 73.06 -6.58 72.93746 -6.54565 C 72.82 -6.51 72.7 -6.47 72.57341 -6.4317 C 72.46 -6.4 72.34 -6.36 72.21861 -6.32506 C 72.1 -6.29 71.98 -6.25 71.85295 -6.21931 C 71.61 -6.15 71.35 -6.08 71.08935 -6.01064 C 70.57 -5.87 70.01 -5.74 69.43497 -5.6054 C 68.28 -5.34 67.01 -5.09 65.63628 -4.84998 C 60.48 -3.95 53.84 -3.26 46.51202 -2.88193 C 46.05 -2.86 45.59 -2.84 45.13231 -2.81385 C 44.67 -2.79 44.21 -2.77 43.73903 -2.75288 C 43.27 -2.73 42.8 -2.72 42.33372 -2.69907 C 41.86 -2.68 41.39 -2.67 40.91793 -2.65247 C 40.44 -2.64 39.97 -2.63 39.49318 -2.61313 C 39.02 -2.6 38.54 -2.59 38.06102 -2.58107 C 37.58 -2.57 37.1 -2.56 36.62297 -2.55631 C 36.14 -2.55 35.66 -2.54 35.18054 -2.53886 C 34.7 -2.53 34.22 -2.53 33.73525 -2.52873 C 33.25 -2.53 32.77 -2.53 32.2886 -2.52589 C 31.81 -2.53 31.32 -2.53 30.84208 -2.53033 C 30.36 -2.53 29.88 -2.54 29.39718 -2.54202 C 28.92 -2.55 28.44 -2.55 27.9554 -2.56091 C 27.48 -2.57 27 -2.58 26.51818 -2.58697 C 26.04 -2.6 25.56 -2.61 25.08702 -2.62013 C 24.61 -2.63 24.14 -2.65 23.66335 -2.66032 C 23.41 -2.67 23.16 -2.68 22.91043 -2.68451 C 22.66 -2.69 22.41 -2.7 22.16018 -2.71066 C 21.91 -2.72 21.66 -2.73 21.41281 -2.73874 C 21.16 -2.75 20.92 -2.76 20.66851 -2.76876 C 20.42 -2.78 20.17 -2.79 19.92747 -2.80069 C 19.68 -2.81 19.44 -2.82 19.18989 -2.83452 C 18.94 -2.85 18.7 -2.86 18.45596 -2.87023 C 18.21 -2.88 17.97 -2.89 17.72585 -2.90782 C 17.48 -2.92 17.24 -2.93 16.99976 -2.94727 C 16.76 -2.96 16.52 -2.97 16.27787 -2.98856 C 16.04 -3 15.8 -3.02 15.56035 -3.03167 C 15.32 -3.05 15.08 -3.06 14.84737 -3.07659 C 13.9 -3.14 12.96 -3.2 12.04436 -3.27401 C -0.21 -4.21 -9.64 -5.96 -13.89368 -7.97449 L -15.06399 -8.52327" />
    <path d="M -79.07198 -37.05492 L -76.95245 -36.06103" />
    <path d="M 81.64083 39.52933 A 50 7.82028 360 0 1 -15.79033 42.00373" />
    <path d="M -79.07198 12.32972 A 50 7.82028 360 0 1 -81.64083 9.85532" />
    <path d="M 79.07198 -12.32972 A 50 7.82028 360 0 1 81.64083 -9.85532 A 50 7.82028 360 0 1 -15.79033 -7.38091" />
    <path d="M 79.07198 -12.32972 L 15.79033 -42.00373 A 50 7.82028 180 0 0 -81.64083 -39.52933 L -81.64083 9.85532" />
    <path d="M -17.90986 -8.37481 L -15.06399 -8.52327" />
    <path d="M -81.64083 -39.52933 A 50 7.82028 180 0 0 -79.07198 -37.05492" />
    <path d="M -27.59379 10.1581 A 50 15.62571 267.01368 0 1 -28.76487 9.74444 L -31.61074 9.89291" />
    <path d="M -28.76487 9.74444 L -60.4057 -5.09256 L -63.25157 -4.9441" />
    <path d="M -60.4057 -5.09256 A 50 15.62571 267.01368 0 1 -74.10658 -36.2095" />
    <path d="M -19.18688 -3.0915 L -21.11923 -3.17582 L -23.06837 -3.24689 L -25.0309 -3.30458 L -27.00337 -3.34879 L -28.98231 -3.37944 L -30.96426 -3.39649 L -32.94572 -3.39988 L -34.92323 -3.38964 L -36.8933 -3.36576 L -38.8525 -3.3283 L -40.79736 -3.27731 L -42.72448 -3.21289 L -44.63049 -3.13515 L -46.51202 -3.04423 L -47.1266 -3.01138 L -47.73804 -2.97712 L -48.34623 -2.94146 L -48.95105 -2.9044 L -49.55238 -2.86595 L -50.1501 -2.82612 L -50.74412 -2.78491 L -51.3343 -2.74234 L -51.92054 -2.6984 L -52.50273 -2.65312 L -53.08075 -2.6065 L -53.6545 -2.55854 L -54.22386 -2.50925 L -54.78873 -2.45866" />
    <path d="M -79.07198 12.32972 L -79.07198 -37.05492" />
    <path d="M 75.27689 -7.43021 L 75.27689 -12.62637" />
    <path d="M 13.89368 -3.13998 L 13.89368 -41.41016" />
    <path d="M 81.64083 -9.85532 L 81.64083 39.52933" />
</svg>